<?xml version="1.0" standalone="no"?>
<!DOCTYPE svg PUBLIC "-//W3C//DTD SVG 1.1//EN" "http://www.w3.org/Graphics/SVG/1.1/DTD/svg11.dtd" >
<svg xmlns="http://www.w3.org/2000/svg">
<metadata>
This is a custom SVG webfont generated by Font Squirrel.
Copyright   : Copyright c 2010 by Jos Nicols Silva Schwarzenberginfonsilvacom with Reserved Font Names Poly
Designer    : Nicolas Silva
Foundry     : Jose Nicolas Silva Schwarzenberg
Foundry URL : httpnsilvacom
</metadata>
<defs>
<font id="PolyItalic" horiz-adv-x="1062" >
<font-face units-per-em="2048" ascent="1638" descent="-410" />
<missing-glyph horiz-adv-x="501" />
<glyph unicode="&#xfb00;" horiz-adv-x="1349" d="M-227 -393q0 39 26.5 101.5t63.5 62.5q12 0 65.5 -13.5t69.5 -13.5q55 0 84 98.5t61 308.5q9 64 15 97l96 610h-141l8 86l115 25q35 8 43 45l6 33q39 242 174 357.5t291 115.5q92 0 163 -23q0 -104 -41 -242h-108q0 16 1 27.5t2 21t1 23.5q0 43 -15.5 60.5t-72.5 17.5 q-72 0 -86 -19q-90 -94 -129 -339l-10 -66h432q33 0 41 33l6 33q45 242 189.5 388t355.5 146q98 0 176 -22q0 -123 -41 -283h-109q0 18 2 42.5t2 49.5q0 53 -18 75.5t-92 22.5q-92 0 -127 -28q-111 -96 -158 -391l-10 -66h217l-21 -123h-217l-90 -563q-55 -344 -177 -544 t-298 -200q-96 0 -96 56q0 39 26.5 101.5t63.5 62.5q12 0 65.5 -13.5t69.5 -13.5q55 0 84 98.5t61 308.5q9 64 15 97l96 610h-469l-90 -563q-55 -344 -177 -544t-298 -200q-96 0 -96 56z" />
<glyph unicode="&#xfb01;" horiz-adv-x="1171" d="M-227 -393q0 39 26.5 101.5t63.5 62.5q12 0 65.5 -13.5t69.5 -13.5q55 0 84 98.5t61 308.5q9 64 15 97l96 610h-141l8 86l115 25q35 8 43 45l6 33q41 262 193.5 398t398.5 136q106 0 190 -22q0 -123 -41 -283h-108q0 18 2 42.5t2 49.5q0 53 -24 75.5t-116 22.5 q-121 0 -159 -28q-109 -82 -158 -391l-10 -66h217q88 0 218 5t183 5l19 -20q0 -63 -29 -223l-94 -502q-12 -86 -13 -94q0 -49 33 -50q25 1 123 50l35 -56q-129 -115 -256 -114q-111 0 -111 129q0 49 23 174l80 444q10 57 10 68q0 37 -46 49t-196 12h-217l-90 -563 q-55 -344 -177 -544t-298 -200q-96 0 -96 56z" />
<glyph unicode="&#xfb02;" horiz-adv-x="1171" d="M-227 -393q0 39 26.5 101.5t63.5 62.5q12 0 65.5 -13.5t69.5 -13.5q55 0 84 98.5t61 308.5q9 64 15 97l96 610h-141l8 86l115 25q35 8 43 45l6 33q45 279 199.5 406.5t373.5 127.5q209 0 344 -74q-2 -45 -24 -170l-213 -1091q-12 -55 -13 -94q0 -49 33 -50q25 1 123 50 l35 -56q-129 -115 -256 -114q-111 0 -111 129q0 49 23 174l198 1032q4 33 4 47q0 51 -26.5 76.5t-57 31t-88.5 5.5q-61 0 -126.5 -15.5t-79.5 -23.5q-106 -66 -158 -391l-10 -66h217l-21 -123h-217l-90 -563q-55 -344 -177 -544t-298 -200q-96 0 -96 56z" />
<glyph unicode="&#xfb03;" horiz-adv-x="1818" d="M-227 -393q0 39 26.5 101.5t63.5 62.5q12 0 65.5 -13.5t69.5 -13.5q55 0 84 98.5t61 308.5q9 64 15 97l96 610h-141l8 86l115 25q35 8 43 45l6 33q39 242 174 357.5t291 115.5q92 0 163 -23q0 -104 -41 -242h-108q0 16 1 27.5t2 21t1 23.5q0 43 -15.5 60.5t-72.5 17.5 q-72 0 -86 -19q-90 -94 -129 -339l-10 -66h430q33 0 41 33l6 33q41 262 193.5 398t398.5 136q106 0 190 -22q0 -123 -41 -283h-108q0 18 2 42.5t2 49.5q0 53 -23.5 75.5t-115.5 22.5q-121 0 -160 -28q-109 -82 -158 -391l-10 -66h217q88 0 218 5t183 5l19 -20 q0 -63 -29 -223l-94 -502q-12 -86 -12 -94q0 -49 32 -50q25 1 123 50l35 -56q-129 -115 -256 -114q-111 0 -111 129q0 49 23 174l80 444q10 57 10 68q0 37 -46 49t-196 12h-217l-90 -563q-55 -344 -177 -544t-298 -200q-96 0 -96 56q0 39 26.5 101.5t63.5 62.5 q12 0 65.5 -13.5t69.5 -13.5q55 0 84 98.5t61 308.5q9 64 15 97l96 610h-467l-90 -563q-55 -344 -177 -544t-298 -200q-96 0 -96 56z" />
<glyph unicode="&#xfb04;" horiz-adv-x="1818" d="M-227 -393q0 39 26.5 101.5t63.5 62.5q12 0 65.5 -13.5t69.5 -13.5q55 0 84 98.5t61 308.5q9 64 15 97l96 610h-141l8 86l115 25q35 8 43 45l6 33q39 242 174 357.5t291 115.5q92 0 163 -23q0 -104 -41 -242h-108q0 16 1 27.5t2 21t1 23.5q0 43 -15.5 60.5t-72.5 17.5 q-72 0 -86 -19q-90 -94 -129 -339l-10 -66h430q33 0 41 33l6 33q45 279 199.5 406.5t373.5 127.5q209 0 344 -74q-2 -45 -24 -170l-213 -1091q-12 -55 -13 -94q0 -49 33 -50q25 1 123 50l35 -56q-129 -115 -256 -114q-111 0 -111 129q0 49 23 174l196 1026q6 31 7 53 q0 51 -27 76.5t-57.5 31t-87.5 5.5q-61 0 -127 -15.5t-80 -23.5q-106 -66 -158 -391l-10 -66h217l-21 -123h-217l-90 -563q-55 -344 -177 -544t-298 -200q-96 0 -96 56q0 39 26.5 101.5t63.5 62.5q12 0 65.5 -13.5t69.5 -13.5q55 0 84 98.5t61 308.5q9 64 15 97l96 610h-467 l-90 -563q-55 -344 -177 -544t-298 -200q-96 0 -96 56z" />
<glyph unicode="TT" horiz-adv-x="2117" d="M141 1059q25 178 80 360h2052q-12 -219 -47 -360l-106 -8q0 106 -6.5 162.5t-12.5 67.5t-18 17q-25 10 -287 15l-197 -1118q-4 -20 -4 -37q0 -51 47 -56l136 -22l-11 -80h-575v80q94 14 135 29.5t54.5 34t21.5 63.5l194 1106h-737l-196 -1118q-4 -20 -5 -37q0 -51 48 -56 l135 -22l-11 -80h-575v80q94 14 135 29.5t54.5 34t21.5 63.5l195 1106q-266 -4 -291 -15q-14 -6 -25.5 -17t-37 -67.5t-64.5 -162.5z" />
<glyph unicode="f&#xed;" horiz-adv-x="1171" d="M-227 -393q0 39 26.5 101.5t63.5 62.5q12 0 65.5 -13.5t69.5 -13.5q55 0 84 98.5t61 308.5q9 64 15 97l96 610h-141l8 86l115 25q35 8 43 45l6 33q45 242 181 388t333 146q92 0 166 -22q0 -109 -41 -252h-109q0 16 2 35.5t2 41.5q0 45 -15.5 63.5t-76.5 18.5 q-84 0 -104 -20q-109 -94 -158 -399l-10 -66h217q88 0 218 5t183 5l19 -20q0 -63 -29 -223l-94 -502q-12 -86 -13 -94q0 -49 33 -50q25 1 123 50l35 -56q-129 -115 -256 -114q-111 0 -111 129q0 49 23 174l80 444q10 57 10 68q0 37 -46 49t-196 12h-217l-90 -563 q-55 -344 -177 -544t-298 -200q-96 0 -96 56zM940 1200l287 367l159 -62l-8 -47l-368 -309z" />
<glyph unicode="fb" horiz-adv-x="1697" d="M-227 -393q0 39 26.5 101.5t63.5 62.5q12 0 65.5 -13.5t69.5 -13.5q55 0 84 98.5t61 308.5q9 64 15 97l96 610h-141l8 86l115 25q35 8 43 45l6 33q45 279 199.5 406.5t373.5 127.5q209 0 344 -74q-4 -72 -24 -170l-84 -413q-16 -82 -70 -281l-10 -41l16 -4 q180 401 426 401q106 0 159.5 -79.5t53.5 -204.5q0 -319 -163 -526t-398 -207q-86 0 -195 43q-65 -12 -153 -43l-33 26q47 154 59 211l211 1098q4 33 4 47q0 51 -26.5 76.5t-57 31t-88.5 5.5q-61 0 -126.5 -15.5t-79.5 -23.5q-106 -66 -158 -391l-10 -66h217l-21 -123h-217 l-90 -563q-55 -344 -177 -544t-298 -200q-96 0 -96 56zM971 156q98 -59 198 -60q104 0 138 33q70 63 124 228t54 294q0 211 -94 211q-121 0 -258 -241.5t-162 -464.5z" />
<glyph unicode="ffb" horiz-adv-x="2344" d="M-227 -393q0 39 26.5 101.5t63.5 62.5q12 0 65.5 -13.5t69.5 -13.5q55 0 84 98.5t61 308.5q9 64 15 97l96 610h-141l8 86l115 25q35 8 43 45l6 33q39 242 174 357.5t291 115.5q92 0 163 -23q0 -104 -41 -242h-108q0 16 1 27.5t2 21t1 23.5q0 43 -15.5 60.5t-72.5 17.5 q-72 0 -86 -19q-90 -94 -129 -339l-10 -66h430q33 0 41 33l6 33q45 279 199.5 406.5t373.5 127.5q209 0 344 -74q-4 -72 -24 -170l-84 -413q-16 -82 -70 -281l-10 -41l16 -4q180 401 426 401q106 0 159.5 -79.5t53.5 -204.5q0 -319 -162.5 -526t-398.5 -207q-86 0 -194 43 q-66 -12 -154 -43l-33 26q47 154 60 211l211 1098q4 33 4 47q0 51 -27 76.5t-57.5 31t-87.5 5.5q-61 0 -127 -15.5t-80 -23.5q-106 -66 -158 -391l-10 -66h217l-21 -123h-217l-90 -563q-55 -344 -177 -544t-298 -200q-96 0 -96 56q0 39 26.5 101.5t63.5 62.5 q12 0 65.5 -13.5t69.5 -13.5q55 0 84 98.5t61 308.5q9 64 15 97l96 610h-467l-90 -563q-55 -344 -177 -544t-298 -200q-96 0 -96 56zM1618 156q98 -59 199 -60q104 0 137 33q70 63 124 228t54 294q0 211 -94 211q-121 0 -258 -241.5t-162 -464.5z" />
<glyph unicode="ffh" horiz-adv-x="2410" d="M-227 -393q0 39 26.5 101.5t63.5 62.5q12 0 65.5 -13.5t69.5 -13.5q55 0 84 98.5t61 308.5q9 64 15 97l96 610h-141l8 86l115 25q35 8 43 45l6 33q39 242 174 357.5t291 115.5q92 0 163 -23q0 -104 -41 -242h-108q0 16 1 27.5t2 21t1 23.5q0 43 -15.5 60.5t-72.5 17.5 q-72 0 -86 -19q-90 -94 -129 -339l-10 -66h430q33 0 41 33l6 33q45 279 199.5 406.5t373.5 127.5q209 0 344 -74q-2 -45 -24 -170l-64 -323q-8 -43 -45 -150.5t-53 -177.5l-18 -84l12 -4q90 186 224 293.5t273 107.5q172 0 173 -165q0 -25 -9.5 -71t-18.5 -85t-29.5 -118 t-31.5 -118q-68 -270 -67 -301q0 -39 33 -39q27 1 125 50l34 -56q-160 -115 -260 -114q-55 0 -80.5 38.5t-25.5 90.5q0 80 121 522q29 109 28 162q0 68 -65 67q-76 0 -163 -67.5t-163 -179t-126 -273.5t-50 -332q-92 -4 -168 -28l-33 26q37 115 68 277l194 1015q8 49 9 64 q0 51 -27 76.5t-57.5 31t-87.5 5.5q-61 0 -127 -15.5t-80 -23.5q-106 -66 -158 -391l-10 -66h217l-21 -123h-217l-90 -563q-55 -344 -177 -544t-298 -200q-96 0 -96 56q0 39 26.5 101.5t63.5 62.5q12 0 65.5 -13.5t69.5 -13.5q55 0 84 98.5t61 308.5q9 64 15 97l96 610h-467 l-90 -563q-55 -344 -177 -544t-298 -200q-96 0 -96 56z" />
<glyph unicode="ffj" horiz-adv-x="1818" d="M-227 -393q0 39 26.5 101.5t63.5 62.5q12 0 65.5 -13.5t69.5 -13.5q55 0 84 98.5t61 308.5q9 64 15 97l96 610h-141l8 86l115 25q35 8 43 45l6 33q39 242 174 357.5t291 115.5q92 0 163 -23q0 -104 -41 -242h-108q0 16 1 27.5t2 21t1 23.5q0 43 -15.5 60.5t-72.5 17.5 q-72 0 -86 -19q-90 -94 -129 -339l-10 -66h430q33 0 41 33l6 33q41 262 193.5 398t398.5 136q106 0 190 -22q0 -123 -41 -283h-108q0 18 2 42.5t2 49.5q0 53 -23.5 75.5t-115.5 22.5q-121 0 -160 -28q-109 -82 -158 -391l-10 -66h217q88 0 218 5t183 5l19 -20 q0 -63 -29 -223l-82 -453q-63 -348 -191 -546t-317 -198q-94 0 -94 48q0 53 28.5 112.5t55.5 59.5q20 0 71.5 -13.5t78.5 -13.5q33 0 58 36t48 114.5t37 148.5t36 192q3 9 3 13l88 481q10 57 10 68q0 37 -46 49t-196 12h-217l-90 -563q-55 -344 -177 -544t-298 -200 q-96 0 -96 56q0 39 26.5 101.5t63.5 62.5q12 0 65.5 -13.5t69.5 -13.5q55 0 84 98.5t61 308.5q9 64 15 97l96 610h-467l-90 -563q-55 -344 -177 -544t-298 -200q-96 0 -96 56z" />
<glyph unicode="ffk" horiz-adv-x="2347" d="M-227 -393q0 39 26.5 101.5t63.5 62.5q12 0 65.5 -13.5t69.5 -13.5q55 0 84 98.5t61 308.5q9 64 15 97l96 610h-141l8 86l115 25q35 8 43 45l6 33q39 242 174 357.5t291 115.5q92 0 163 -23q0 -104 -41 -242h-108q0 16 1 27.5t2 21t1 23.5q0 43 -15.5 60.5t-72.5 17.5 q-72 0 -86 -19q-90 -94 -129 -339l-10 -66h430q33 0 41 33l6 33q45 279 199.5 406.5t373.5 127.5q209 0 344 -74q-2 -45 -24 -170l-64 -323q-8 -43 -48 -161t-58 -200l-10 -51l12 -4q82 176 242.5 288.5t304.5 112.5q37 0 78.5 -15t41.5 -44q0 -51 -31.5 -106.5t-60.5 -55.5 q-23 0 -81 34t-70 34q-145 0 -291 -174l305 -520q29 -49 57 -50q23 1 125 50l35 -56q-139 -115 -235 -114q-45 0 -80 28.5t-90 122.5l-219 373q-109 -233 -109 -496q-92 -4 -168 -28l-33 26q37 115 68 277l199 1032q4 33 4 47q0 51 -27 76.5t-57.5 31t-87.5 5.5 q-61 0 -127 -15.5t-80 -23.5q-106 -66 -158 -391l-10 -66h217l-21 -123h-217l-90 -563q-55 -344 -177 -544t-298 -200q-96 0 -96 56q0 39 26.5 101.5t63.5 62.5q12 0 65.5 -13.5t69.5 -13.5q55 0 84 98.5t61 308.5q9 64 15 97l96 610h-467l-90 -563q-55 -344 -177 -544 t-298 -200q-96 0 -96 56z" />
<glyph unicode="fft" horiz-adv-x="1945" d="M-227 -393q0 39 26.5 101.5t63.5 62.5q12 0 65.5 -13.5t69.5 -13.5q55 0 84 98.5t61 308.5q9 64 15 97l96 610h-141l8 86l115 25q35 8 43 45l6 33q39 242 174 357.5t291 115.5q92 0 163 -23q0 -104 -41 -242h-108q0 16 1 27.5t2 21t1 23.5q0 43 -15.5 60.5t-72.5 17.5 q-72 0 -86 -19q-90 -94 -129 -339l-10 -66h430q33 0 41 33l6 33q45 242 181 388t333 146q92 0 166 -22q0 -109 -41 -252h-109q0 16 2 35.5t2 41.5q0 45 -15 63.5t-77 18.5q-84 0 -104 -20q-109 -94 -158 -399l-10 -66h459q20 0 42.5 48t77.5 202l121 12l-49 -264h217 l-20 -121h-221l-113 -610q-10 -68 -10 -86q0 -59 71 -60q60 1 191 48l26 -58q-168 -111 -295 -110q-82 0 -124.5 42t-42.5 117q0 57 16 144l104 573h-471l-90 -563q-55 -344 -177 -544t-298 -200q-96 0 -96 56q0 39 26.5 101.5t63.5 62.5q12 0 65.5 -13.5t69.5 -13.5 q55 0 84 98.5t61 308.5q9 64 15 97l96 610h-467l-90 -563q-55 -344 -177 -544t-298 -200q-96 0 -96 56z" />
<glyph unicode="fh" horiz-adv-x="1763" d="M-227 -393q0 39 26.5 101.5t63.5 62.5q12 0 65.5 -13.5t69.5 -13.5q55 0 84 98.5t61 308.5q9 64 15 97l96 610h-141l8 86l115 25q35 8 43 45l6 33q45 279 199.5 406.5t373.5 127.5q209 0 344 -74q-2 -45 -24 -170l-64 -323q-8 -43 -45 -150.5t-53 -177.5l-19 -84l13 -4 q90 186 224 293.5t273 107.5q172 0 172 -165q0 -25 -9 -71t-18.5 -85t-29.5 -118t-31 -118q-68 -270 -67 -301q0 -39 32 -39q27 1 125 50l35 -56q-160 -115 -260 -114q-55 0 -80.5 38.5t-25.5 90.5q0 80 120 522q29 109 29 162q0 68 -65 67q-76 0 -163 -67.5t-163 -179 t-126 -273.5t-50 -332q-92 -4 -168 -28l-33 26q37 115 68 277l196 1026q6 31 6 53q0 51 -26.5 76.5t-57 31t-88.5 5.5q-61 0 -126.5 -15.5t-79.5 -23.5q-106 -66 -158 -391l-10 -66h217l-21 -123h-217l-90 -563q-55 -344 -177 -544t-298 -200q-96 0 -96 56z" />
<glyph unicode="fj" horiz-adv-x="1171" d="M-227 -393q0 39 26.5 101.5t63.5 62.5q12 0 65.5 -13.5t69.5 -13.5q55 0 84 98.5t61 308.5q9 64 15 97l96 610h-141l8 86l115 25q35 8 43 45l6 33q41 262 193.5 398t398.5 136q106 0 190 -22q0 -123 -41 -283h-108q0 18 2 42.5t2 49.5q0 53 -24 75.5t-116 22.5 q-121 0 -159 -28q-109 -82 -158 -391l-10 -66h217q88 0 218 5t183 5l19 -20q0 -63 -29 -223l-82 -453q-63 -348 -191 -546t-317 -198q-94 0 -94 48q0 53 28.5 112.5t55.5 59.5q20 0 71.5 -13.5t77.5 -13.5q33 0 58.5 36t48 114.5t37 148.5t36.5 192q3 9 3 13l88 481 q10 57 10 68q0 37 -46 49t-196 12h-217l-90 -563q-55 -344 -177 -544t-298 -200q-96 0 -96 56z" />
<glyph unicode="fk" horiz-adv-x="1699" d="M-227 -393q0 39 26.5 101.5t63.5 62.5q12 0 65.5 -13.5t69.5 -13.5q55 0 84 98.5t61 308.5q9 64 15 97l96 610h-141l8 86l115 25q35 8 43 45l6 33q45 279 199.5 406.5t373.5 127.5q209 0 344 -74q-2 -45 -24 -170l-64 -323q-8 -43 -48 -161t-58 -200l-11 -51l13 -4 q82 176 242.5 288.5t303.5 112.5q37 0 79 -15t42 -44q0 -51 -31.5 -106.5t-60.5 -55.5q-23 0 -81 34t-70 34q-145 0 -291 -174l305 -520q29 -49 57 -50q23 1 125 50l35 -56q-139 -115 -235 -114q-45 0 -80 28.5t-90 122.5l-220 373q-109 -233 -108 -496q-92 -4 -168 -28 l-33 26q37 115 68 277l198 1032q4 33 4 47q0 51 -26.5 76.5t-57 31t-88.5 5.5q-61 0 -126.5 -15.5t-79.5 -23.5q-106 -66 -158 -391l-10 -66h217l-21 -123h-217l-90 -563q-55 -344 -177 -544t-298 -200q-96 0 -96 56z" />
<glyph unicode="ft" horiz-adv-x="1300" d="M-227 -393q0 39 26.5 101.5t63.5 62.5q12 0 65.5 -13.5t69.5 -13.5q55 0 84 98.5t61 308.5q9 64 15 97l96 610h-141l8 86l115 25q35 8 43 45l6 33q45 242 181 388t333 146q92 0 166 -22q0 -109 -41 -252h-109q0 16 2 35.5t2 41.5q0 45 -15.5 63.5t-76.5 18.5 q-84 0 -104 -20q-109 -94 -158 -399l-10 -66h460q20 0 43 48t78 202l121 12l-49 -264h217l-20 -121h-222l-112 -610q-10 -68 -10 -86q0 -59 71 -60q60 1 191 48l26 -58q-168 -111 -295 -110q-82 0 -125 42t-43 117q0 57 17 144l104 573h-473l-90 -563q-55 -344 -177 -544 t-298 -200q-96 0 -96 56z" />
<glyph unicode=" "  horiz-adv-x="501" />
<glyph unicode="&#x09;" horiz-adv-x="501" />
<glyph unicode="&#xa0;" horiz-adv-x="501" />
<glyph unicode="!" horiz-adv-x="462" d="M37 76q0 55 34.5 91t98.5 36q43 0 72.5 -23.5t29.5 -66.5q0 -59 -35.5 -95t-97.5 -36q-47 0 -74.5 25.5t-27.5 68.5zM158 367l151 1011l221 62l19 -39l-287 -1034h-104z" />
<glyph unicode="&#x22;" horiz-adv-x="677" d="M244 1059l80 483l163 51l21 -39l-178 -501zM553 1059l80 483l164 51l20 -39l-178 -501z" />
<glyph unicode="#" horiz-adv-x="1128" d="M92 455l23 120h215l98 312h-213l23 121h227l131 411h119l-131 -411h270l131 411h119l-131 -411h205l-23 -121h-219l-98 -312h217l-23 -120h-231l-144 -455h-120l143 455h-268l-144 -455h-121l144 455h-199zM449 575h270l98 312h-270z" />
<glyph unicode="$" horiz-adv-x="921" d="M88 51q4 150 57 316h115q-8 -82 -8 -136q0 -115 117 -131l69 389q-74 39 -118 70t-82.5 93.5t-38.5 140.5q0 135 96 227t260 106l45 244h107l-45 -242q104 -8 210 -45q-14 -143 -53 -278h-117q6 76 7 94q0 61 -11.5 85t-56.5 32l-70 -379q66 -35 100 -54.5t80 -55 t66.5 -77.5t20.5 -92q0 -145 -103.5 -247.5t-279.5 -122.5l-45 -250h-107l43 244q-162 8 -258 69zM356 844q0 -82 119 -154l62 328q-96 -6 -136 -35q-18 -14 -31.5 -57t-13.5 -82zM475 98q106 6 135 35q18 16 33.5 63.5t15.5 84.5q1 87 -122 157z" />
<glyph unicode="%" horiz-adv-x="1654" d="M160 934q0 199 121.5 365.5t298.5 166.5q133 0 212.5 -100t79.5 -250q0 -203 -122.5 -366.5t-296.5 -163.5q-135 0 -214 99t-79 249zM322 928q-1 -264 159 -264q117 0 173.5 132t56.5 308q0 139 -42 212t-118 73q-80 0 -134.5 -78t-74.5 -177.5t-20 -205.5zM348 0 l928 1419h133l-926 -1419h-135zM909 330q0 199 122 365.5t298 166.5q133 0 213 -100t80 -250q0 -203 -123 -366.5t-297 -163.5q-135 0 -214 99t-79 249zM1071 324q0 -265 160 -265q117 0 173 132.5t56 308.5q0 139 -42 211.5t-118 72.5q-80 0 -134 -77.5t-74.5 -177 t-20.5 -205.5z" />
<glyph unicode="&#x26;" horiz-adv-x="1402" d="M76 328q0 309 346 450q-90 127 -90 287q0 168 117.5 270.5t314.5 102.5q150 0 272 -52q0 -96 -69 -251l-97 -11q8 74 9 119q0 47 -17 60q-33 27 -139 26q-94 0 -150 -47q-68 -57 -67 -160q0 -131 121 -295l342 -460q78 104 124 219.5t46 189.5q0 53 -37 78t-137 35l28 80 h467l-8 -80l-131 -25q-18 -4 -29.5 -13t-14.5 -16.5t-7 -23.5q-68 -309 -238 -530l107 -142q39 -51 153 -59l-26 -80h-275l-104 139q-199 -158 -424 -157q-174 0 -280.5 100t-106.5 246zM299 383q0 -104 70.5 -188t185.5 -84q131 -1 272 110l-346 473q-182 -96 -182 -311z " />
<glyph unicode="'" horiz-adv-x="368" d="M244 1059l80 483l163 51l21 -39l-178 -501z" />
<glyph unicode="(" horiz-adv-x="595" d="M133 406q0 330 164 623.5t438 529.5l60 -58q-229 -219 -363.5 -517t-134.5 -624q0 -197 48 -384t128 -306l-80 -57q-100 127 -180 341t-80 452z" />
<glyph unicode=")" horiz-adv-x="595" d="M-72 -330q231 231 365.5 530.5t134.5 620.5q0 190 -47 371.5t-133 308.5l80 58q106 -129 186 -336t80 -439q0 -328 -168 -630.5t-438 -540.5z" />
<glyph unicode="*" horiz-adv-x="800" d="M174 1010l16 26l236 88q43 16 63 17l5 16q-29 0 -60 12l-184 84l47 127l29 4l159 -145q35 -31 37 -45l17 8q-8 16 -9 53v9l15 215l129 45l14 -25l-76 -233q-20 -53 -28 -62l12 -8q20 29 51 47l197 129l82 -82l-17 -26l-233 -90q-43 -16 -64 -17l-4 -16q37 0 58 -11 l184 -86l-47 -124l-29 -5l-160 144q-35 31 -36 45l-17 -8q10 -47 10 -60l-14 -215l-129 -43l-14 23l78 233q16 51 26 62l-12 8q-20 -29 -51 -47l-197 -129z" />
<glyph unicode="+" horiz-adv-x="954" d="M113 500v108h333v342h103v-342h334v-108h-334v-350h-103v350h-333z" />
<glyph unicode="," horiz-adv-x="516" d="M162 -227q115 80 114 200q0 43 -23.5 76t-23.5 64q0 55 36 86.5t85 31.5q47 0 83 -39.5t36 -103.5q0 -183 -266 -369z" />
<glyph unicode="-" horiz-adv-x="604" d="M70 416l24 151l447 29l-33 -127z" />
<glyph unicode="." horiz-adv-x="516" d="M193 90q0 57 38.5 99t104.5 42q49 0 81 -26.5t32 -77.5q0 -59 -40.5 -102t-103.5 -43q-51 0 -81.5 28.5t-30.5 79.5z" />
<glyph unicode="/" horiz-adv-x="800" d="M-55 -123l913 1704h141l-911 -1704h-143z" />
<glyph unicode="0" horiz-adv-x="1075" d="M86 406q0 317 161 520.5t445 203.5q172 0 274.5 -114.5t102.5 -310.5q0 -315 -161.5 -519t-446.5 -204q-170 0 -272.5 114.5t-102.5 309.5zM289 432.5q0 -149.5 57 -246t166 -96.5q116 0 186 72q63 68 114.5 218t51.5 300q0 152 -57 247t-166 95q-117 0 -184 -72 q-63 -68 -115.5 -218t-52.5 -299.5z" />
<glyph unicode="1" horiz-adv-x="724" d="M41 0l2 80q121 18 166 42.5t55 74.5l117 628q14 72 14 107q0 25 -9 31t-38 6q-45 0 -141 -11v78q66 27 193.5 54.5t195.5 29.5l20 -20l-170 -912q-4 -33 -4 -43q0 -37 39 -43l144 -22l-13 -80h-571z" />
<glyph unicode="2" horiz-adv-x="968" d="M39 0l20 109q150 106 218.5 154t161.5 122t130 113t79 95t54.5 104t12.5 106q0 90 -51.5 154.5t-151.5 64.5q-90 0 -133 -31q-55 -39 -80 -221l-109 12q0 168 25 254q135 94 365 94q162 0 251 -81.5t89 -206.5q0 -172 -137.5 -323.5t-479.5 -358.5l2 -15l125 5 q213 6 256 14q33 8 78 160l94 -9q-16 -170 -59 -315h-760z" />
<glyph unicode="3" horiz-adv-x="960" d="M16 -283l13 115q623 80 622 371q0 92 -63.5 149.5t-190.5 57.5q-45 0 -100 -9l16 99q211 35 311.5 128t100.5 199q0 80 -52 137.5t-159 57.5q-76 0 -123 -27q-47 -25 -96 -225l-107 12q0 156 31 254q162 94 330 94q164 0 267.5 -74.5t103.5 -197.5q0 -106 -76 -190 t-189 -136v-16q219 -57 219 -270q0 -219 -238.5 -356.5t-619.5 -172.5z" />
<glyph unicode="4" horiz-adv-x="1087" d="M-6 217l805 877q119 27 180 26l20 -20l-165 -889l208 -4l-41 -117h-190l-63 -340q-66 -12 -164 -12l-19 20l62 332h-609l-2 2zM141 236l6 -15l502 -8l119 641q14 55 16 61l-12 7l-586 -641q-16 -20 -45 -45z" />
<glyph unicode="5" horiz-adv-x="987" d="M-4 -283l12 115q692 86 692 406q0 96 -64.5 165.5t-197.5 69.5q-102 0 -243 -27l-37 54l157 600h525q10 0 17 7t23.5 41t41.5 101l102 -14q-43 -186 -84 -301h-532l-91 -346q117 14 209 14q199 0 298.5 -84t99.5 -225q0 -231 -256 -385t-672 -191z" />
<glyph unicode="6" horiz-adv-x="1056" d="M109 424q0 176 78.5 341t207.5 289t288 213t325 126l24 -84q-483 -189 -645 -576l16 -6q129 135 297 135q133 0 224.5 -100t91.5 -273q0 -221 -149.5 -364t-358.5 -143q-182 0 -290.5 115.5t-108.5 326.5zM301 412q0 -330 238 -330q143 0 209.5 115.5t66.5 265.5 q0 125 -47 191.5t-123 66.5q-129 0 -231 -59q-113 -66 -113 -250z" />
<glyph unicode="7" horiz-adv-x="921" d="M113 780q10 86 14 103q29 147 53 217h842l-25 -123q-500 -606 -665 -1251q-20 -6 -60 -7q-104 0 -149 33q78 227 277.5 574.5t437.5 607.5l-2 14l-353 -6q-137 -4 -184 -8q-16 -2 -32.5 -28.5t-61.5 -135.5z" />
<glyph unicode="8" d="M59 274q0 125 81 219.5t179 145.5q59 31 84 31l3 18q-16 0 -33 10q-139 92 -140 273q0 172 128 293.5t337 121.5q94 0 176 -23.5t146.5 -90t64.5 -168.5q0 -106 -64.5 -199.5t-156.5 -144.5q-57 -31 -82 -31l-4 -18q12 0 31 -11q90 -47 144.5 -132t54.5 -185 q0 -174 -159 -287.5t-374 -113.5q-70 0 -137.5 13t-133 44t-105.5 92.5t-40 142.5zM236 313q0 -100 70.5 -159.5t201.5 -59.5q139 0 218 65.5t79 164.5q0 55 -25.5 103t-75 85t-92.5 61.5t-104 53.5q-14 -4 -51 -22.5t-90.5 -54.5t-92 -99.5t-38.5 -137.5zM424 1028 q0 -49 19.5 -89t61.5 -72.5t78 -52t97 -50.5q45 27 72.5 47t69.5 61t64.5 92.5t22.5 112.5q0 96 -59 151.5t-164 55.5q-129 0 -195.5 -81t-66.5 -175z" />
<glyph unicode="9" horiz-adv-x="1056" d="M106 -281l3 93q244 57 398.5 188t237.5 369l-14 6q-106 -119 -268 -119q-145 0 -240.5 104.5t-95.5 270.5q0 211 148.5 355t361.5 144q195 0 292 -124.5t97 -317.5q0 -145 -54 -296.5t-160.5 -294t-290.5 -246t-415 -132.5zM330 662q0 -129 57 -197t137 -68q115 0 195 43 q53 29 76 78q45 98 45 225q0 115 -59.5 201t-174.5 86q-129 0 -202.5 -111.5t-73.5 -256.5z" />
<glyph unicode=":" horiz-adv-x="516" d="M125 90q0 57 39 99t104 42q49 0 81 -26.5t32 -77.5q0 -59 -40 -102t-103 -43q-51 0 -82 28.5t-31 79.5zM260 858q0 57 39 99t104 42q49 0 81 -26.5t32 -77.5q0 -59 -40 -102t-103 -43q-51 0 -82 28.5t-31 79.5z" />
<glyph unicode=";" horiz-adv-x="516" d="M94 -227q115 80 115 200q0 43 -23.5 76t-23.5 64q0 55 40 86.5t91 31.5q47 0 77.5 -32.5t30.5 -96.5q0 -102 -75.5 -202.5t-190.5 -180.5zM283 858q0 57 38.5 99t104.5 42q49 0 81 -26.5t32 -77.5q0 -59 -40.5 -102t-103.5 -43q-51 0 -81.5 28.5t-30.5 79.5z" />
<glyph unicode="&#x3c;" horiz-adv-x="1058" d="M53 461v102l951 471v-141l-791 -381l791 -379v-141z" />
<glyph unicode="=" horiz-adv-x="985" d="M131 354v109h770v-109h-770zM131 635v108h770v-108h-770z" />
<glyph unicode="&#x3e;" horiz-adv-x="1058" d="M125 -8v141l790 379l-790 381v141l950 -471v-102z" />
<glyph unicode="?" horiz-adv-x="868" d="M201 82q0 121 131 121q45 0 77.5 -24.5t32.5 -67.5q0 -57 -34.5 -93t-98.5 -36q-45 0 -76.5 28.5t-31.5 71.5zM231 1178q0 16 12.5 86.5t16.5 87.5q160 86 356 86q147 0 250 -79t103 -208q0 -135 -72 -221t-201 -162q-14 -8 -57 -33.5t-58.5 -36t-49 -34t-47 -39t-32 -39 t-25.5 -48t-7 -51.5q0 -57 2 -69l-103 -29q-57 115 -57 191q0 27 6 50t25.5 45.5t32 37t47.5 37t47 30.5t58 34t57 32q63 37 96 59.5t77 60.5t63.5 82t19.5 97q0 86 -63.5 135t-147.5 49q-92 0 -162 -33q-18 -8 -31.5 -38.5t-44.5 -143.5l-109 12q0 4 -1 24.5t-1 27.5z" />
<glyph unicode="@" horiz-adv-x="1613" d="M76 336q0 381 246.5 626.5t625.5 245.5q281 0 463 -139t182 -405q0 -152 -73.5 -330t-208.5 -307q-211 -23 -246 -29q-84 14 -84 121q0 45 16 121l17 86l-15 4q-143 -326 -354 -326q-205 0 -205 295q0 266 141.5 449.5t340.5 183.5q86 0 202 -39l82 20l39 -24l-39 -179 q-39 -179 -58.5 -298t-19.5 -205q0 -104 60 -105q72 0 133 112t89 235.5t28 205.5q0 190 -141.5 320.5t-385.5 130.5q-170 0 -302 -64.5t-209.5 -174t-116.5 -239.5t-39 -274q0 -494 508 -493q74 0 247 41l19 -82l-19 -25q-219 -43 -317 -43q-305 0 -455.5 157t-150.5 427z M614 313q0 -184 88 -184q104 0 216.5 219t132.5 426q-106 53 -185 53q-92 0 -123 -30q-49 -59 -89 -209t-40 -275z" />
<glyph unicode="A" horiz-adv-x="1370" d="M-37 0v82q82 20 102.5 32.5t43.5 55.5l694 1268h170l227 -1307q6 -31 113 -51l-10 -80h-492v82q90 18 130 34.5t40 47.5q0 18 -2 29l-39 266h-530l-162 -295q-14 -29 -15 -33q0 -10 11 -12l131 -39l-10 -80h-402zM467 567h457l-95 576q-2 25 -2 59h-20z" />
<glyph unicode="B" horiz-adv-x="1273" d="M47 0v80q80 12 115 28.5t44 34t17 64.5l172 1005q6 29 6 48q0 33 -27.5 48t-111.5 31l12 80h564q188 0 293.5 -84t105.5 -223q0 -137 -92 -238.5t-191 -132.5v-14q117 -31 184.5 -109.5t67.5 -203.5q0 -78 -29.5 -148.5t-92 -132t-178 -97.5t-271.5 -36h-588zM418 150 q2 -16 20 -23q49 -25 160 -25q383 0 383 308q0 82 -26.5 139t-71.5 83.5t-90.5 38t-94.5 11.5h-198l-78 -483q-4 -25 -4 -40v-9zM518 797h156q160 0 249 71.5t89 214.5q0 227 -264 228h-144z" />
<glyph unicode="C" horiz-adv-x="1204" d="M121 561q0 117 23.5 231.5t81 233.5t143.5 208t224 146.5t310 57.5q104 0 218 -20.5t147 -37.5q0 -135 -41 -344l-119 -16q-12 233 -43 262q-14 14 -80.5 30.5t-132.5 16.5q-125 0 -222.5 -60.5t-156.5 -165t-89 -234.5t-30 -277q0 -248 108.5 -372t266.5 -124 q70 0 132.5 18.5t80.5 32.5q29 19 107 263l112 -4q-16 -174 -49 -332q-68 -35 -196 -63.5t-257 -28.5q-256 0 -397 163.5t-141 415.5z" />
<glyph unicode="D" horiz-adv-x="1413" d="M45 0v80q111 18 137.5 40.5t38.5 86.5l178 1005q6 31 7 48q0 33 -28 49t-114 30l12 80h596q150 0 262.5 -46t177 -125t96.5 -174t32 -206q0 -158 -47 -306t-140.5 -277t-253 -207t-362.5 -78h-592zM416 178q0 -33 35 -41q132 -28 203 -28h5q268 0 407.5 200.5 t139.5 519.5q0 131 -38 230.5t-99 151t-126.5 76t-133.5 24.5h-195l-192 -1088q-6 -43 -6 -45z" />
<glyph unicode="E" horiz-adv-x="1212" d="M41 0v80q111 18 139.5 40.5t40.5 86.5l176 1005q6 29 6 48q0 33 -27.5 49t-111.5 30l12 80h969q0 -74 -16 -162q-16 -92 -31 -157l-121 -15q-2 141 -8 177t-22 38q-49 6 -123 9l-310 6l-96 -551h307q8 0 17.5 9t27 42t45.5 94l64 -6q-35 -193 -43 -405l-76 -13 q-12 113 -19 141.5t-22 28.5h-321l-97 -551l183 2q76 2 132 4.5t85.5 6.5t44 7t24.5 7l11 4q37 10 131 242l112 -10q-4 -35 -16 -105q-21 -112 -70 -262h-997z" />
<glyph unicode="F" horiz-adv-x="1118" d="M41 0v80q111 18 139.5 40.5t40.5 86.5l176 1005q6 29 6 48q0 33 -27.5 49t-111.5 30l12 80h969q0 -74 -16 -162q-16 -92 -31 -157l-121 -15q-2 141 -8 177t-22 38q-49 6 -123 9l-310 6l-100 -570h315q51 0 117 146l62 -6q-35 -193 -43 -406l-76 -12q-18 170 -64 170h-329 l-78 -442q-4 -20 -4 -37q0 -51 47 -56l184 -22l-10 -80h-594z" />
<glyph unicode="G" horiz-adv-x="1329" d="M123 559q0 117 22.5 232.5t81 234.5t144.5 208t224 146.5t310 57.5q104 0 218 -20.5t147 -37.5q0 -137 -39 -344l-119 -16q-14 238 -43 262q-14 14 -80.5 30.5t-132.5 16.5q-168 0 -284.5 -106.5t-166 -267t-49.5 -361.5q0 -242 107.5 -370t269.5 -128q96 0 174 33 l41 285q4 33 4 43q0 35 -27.5 52t-113.5 32l23 80h477v-80l-109 -25q-41 -8 -49 -53l-55 -387q-68 -35 -192 -64.5t-249 -29.5q-264 0 -399 166.5t-135 410.5z" />
<glyph unicode="H" horiz-adv-x="1527" d="M45 0v80q111 18 137.5 40.5t38.5 86.5l176 1005q6 29 6 48q0 33 -27.5 49t-111.5 30l12 80h517l-7 -80l-131 -24q-18 -4 -29.5 -13.5t-14.5 -16.5t-5 -23l-84 -469h639l74 419q6 29 6 48q0 33 -27.5 49t-111.5 30l12 80h516l-6 -80l-131 -24q-18 -4 -29.5 -13.5 t-14.5 -16.5t-5 -23l-187 -1055q-6 -37 -6 -47q0 -47 41 -58l111 -22l-10 -80h-510v80q111 18 137.5 40.5t38.5 86.5l82 463h-639l-82 -459q-6 -25 -6 -55q0 -45 47 -56l104 -20l-10 -80h-510z" />
<glyph unicode="I" horiz-adv-x="690" d="M45 0v80q111 18 137.5 40.5t38.5 86.5l178 1005q0 6 2 16.5t3.5 17.5t1.5 14q0 33 -28 49t-112 30l13 80h516l-7 -80l-131 -24q-43 -8 -51 -53l-186 -1053q-6 -33 -6 -53q0 -47 55 -58l96 -18l-10 -80h-510z" />
<glyph unicode="J" horiz-adv-x="684" d="M-150 -217q0 53 29 112.5t55 59.5q20 0 71.5 -13.5t78.5 -13.5q31 0 56.5 36t48 120t35.5 149.5t36 196.5l137 782q4 25 4 35q0 39 -32.5 57.5t-124.5 34.5l12 80h557l-6 -80l-152 -24q-43 -8 -47 -41l-141 -795q-61 -348 -193.5 -545.5t-328.5 -197.5q-94 0 -95 47z" />
<glyph unicode="K" horiz-adv-x="1368" d="M41 0v80q111 18 139.5 40.5t40.5 86.5l176 1005q6 29 6 48q0 33 -27.5 49t-111.5 30l12 80h517l-7 -80l-131 -24q-18 -4 -29.5 -13.5t-14.5 -16.5t-5 -23l-96 -541l629 524q41 35 41 53q0 33 -131 39l12 82h448l-6 -86q-27 -2 -49 -7t-43.5 -17.5t-31 -19.5t-30 -24.5 t-22.5 -19.5l-577 -493l405 -588q27 -41 62.5 -59.5t111.5 -24.5l-10 -80h-307l-420 618l-117 -100l-55 -309q-6 -33 -6 -53q0 -47 55 -58l82 -18l-10 -80h-500z" />
<glyph unicode="L" horiz-adv-x="1142" d="M41 0v80q111 18 139.5 40.5t40.5 86.5l176 1005q6 29 6 48q0 33 -27.5 49t-111.5 30l12 80h517l-7 -80l-131 -24q-18 -4 -29.5 -13.5t-14.5 -16.5t-5 -23l-205 -1158l183 2q229 4 268 15q12 4 27.5 24.5t51.5 90t93 200.5l111 -10q-4 -35 -17 -104q-27 -150 -80 -322 h-997z" />
<glyph unicode="M" horiz-adv-x="1785" d="M35 0v80q115 20 146.5 42.5t41.5 84.5l164 1005q4 37 4 45q0 33 -27.5 50.5t-111.5 31.5l10 80h430l172 -1077q6 -37 6 -51h21l16 41l506 1087h404l-5 -80l-90 -24q-41 -12 -45 -47l-157 -1059q-6 -33 -7 -53q0 -47 56 -58l96 -18l-10 -80h-514v80q104 18 136 39.5 t40 70.5l139 936q8 53 19 78h-17l-551 -1163h-174l-194 1167h-15l-164 -999q-6 -33 -6 -53q0 -49 56 -58l122 -18l-10 -80h-487z" />
<glyph unicode="N" horiz-adv-x="1509" d="M41 0v80q111 18 139.5 40.5t40.5 86.5l176 1005q6 29 6 48q0 33 -27.5 49t-111.5 30l12 80h406l440 -1032h15l139 784q6 37 6 64q0 49 -36 70.5t-138 33.5l12 80h496l-6 -80l-131 -24q-18 -4 -29.5 -13.5t-14.5 -16.5t-5 -23l-224 -1262h-127l-528 1212h-16l-179 -1017 q-4 -20 -4 -37q0 -51 47 -56l170 -22l-10 -80h-518z" />
<glyph unicode="O" horiz-adv-x="1372" d="M123 561q0 389 197.5 633t545.5 244q244 0 377 -159t133 -409q0 -391 -198.5 -639.5t-546.5 -248.5q-244 0 -376 160.5t-132 418.5zM352 582q0 -215 84 -353.5t242 -138.5q127 0 223 73t146.5 190.5t74 241.5t23.5 253q0 211 -84 346t-244 135q-102 0 -183 -47t-133 -123 t-86 -176t-48.5 -199.5t-14.5 -201.5z" />
<glyph unicode="P" horiz-adv-x="1159" d="M43 0v80q111 18 138.5 40.5t39.5 86.5l176 1005q6 29 6 48q0 33 -27.5 49t-111.5 30l12 80h564q184 0 280.5 -86t96.5 -229q0 -227 -168 -391t-467 -164h-103l-61 -354q-4 -20 -4 -37q0 -51 47 -56l184 -22l-10 -80h-592zM500 657h86q74 0 139.5 18.5t129 61.5t100 130 t36.5 210q0 129 -68.5 181.5t-156.5 52.5h-111q-41 0 -49 -49z" />
<glyph unicode="Q" horiz-adv-x="1374" d="M127 559q0 389 197.5 634t543.5 245q236 0 373 -156t137 -412q0 -319 -137 -549.5t-373 -300.5l-2 -8q35 -14 119 -89t133 -75q39 0 123 31l37 -74q-159 -116 -252 -116h-2q-51 0 -90 27.5t-69.5 67.5t-65.5 82t-95.5 75.5t-140.5 44.5q-207 25 -321.5 176t-114.5 397z M358 582q0 -221 83 -356.5t245 -135.5q100 0 180 48t131.5 126t86 179.5t49 203t14.5 201.5q0 213 -85 347t-241 134q-125 0 -219 -69.5t-144 -184t-75 -239.5t-25 -254z" />
<glyph unicode="R" horiz-adv-x="1253" d="M43 0v80q111 18 138.5 40.5t39.5 86.5l176 1005q6 29 6 48q0 33 -27.5 48t-111.5 31l12 80h545q186 0 284.5 -83t98.5 -230q0 -174 -113.5 -297t-285.5 -156l-2 -10q20 -6 37 -45l198 -434q20 -45 50 -61.5t104 -22.5l-10 -80h-295l-281 623h-112l-74 -420q-6 -31 -6 -47 q0 -43 39 -54l98 -22l-10 -80h-498zM512 727h92q176 0 276.5 89t100.5 251q0 139 -66.5 191.5t-175.5 52.5h-84q-41 0 -49 -49z" />
<glyph unicode="S" horiz-adv-x="1019" d="M31 70q0 141 78 340l118 6q-8 -147 -8 -164q0 -68 21 -84q29 -25 93 -48.5t134 -23.5q92 0 160 49q102 74 102 213q0 31 -7 59.5t-18.5 49t-31 42t-34.5 35t-43 31t-42 25.5t-44 23.5t-40 21.5q-125 68 -189.5 141.5t-64.5 202.5q0 197 148.5 323t386.5 126 q158 0 282 -56q-8 -149 -78 -346l-120 -14q10 127 10 168q0 70 -21 90q-43 43 -157 43q-98 0 -166 -49q-98 -72 -99 -189q0 -53 20.5 -95t68 -77.5t80 -54t102.5 -51.5q125 -61 193.5 -145t68.5 -220q0 -197 -142.5 -328.5t-383.5 -131.5q-119 0 -223.5 29.5t-153.5 58.5z " />
<glyph unicode="T" horiz-adv-x="1181" d="M141 1059q25 178 80 360h1116q-12 -219 -47 -360l-106 -8q0 106 -6.5 162.5t-12.5 67.5t-18 17q-25 10 -287 15l-196 -1118q-4 -20 -5 -37q0 -51 48 -56l135 -22l-11 -80h-575v80q94 14 135 29.5t54.5 34t21.5 63.5l195 1106q-266 -4 -291 -15q-14 -6 -25.5 -17 t-37 -67.5t-64.5 -162.5z" />
<glyph unicode="U" horiz-adv-x="1472" d="M260 358q0 72 14 152l123 702q6 29 6 48q0 35 -27.5 49t-111.5 30l12 80h517l-7 -80l-131 -24q-18 -4 -29.5 -13.5t-14.5 -16.5t-5 -23l-127 -721q-14 -90 -14 -140q0 -127 67.5 -198.5t204.5 -71.5q170 0 262 110.5t119 268.5l117 664q6 37 6 61q0 51 -35 71.5 t-139 32.5l12 80h496l-6 -80l-131 -24q-20 -4 -30.5 -12.5t-13.5 -16.5t-5 -24l-132 -736q-98 -544 -583 -544h-2q-205 0 -308.5 98t-103.5 278z" />
<glyph unicode="V" horiz-adv-x="1306" d="M170 1337l12 82h488l-6 -84l-150 -39q-16 -2 -16 -16q0 -18 2 -29l164 -927q8 -39 8 -70h20l428 911q45 96 45 109q0 20 -32.5 33.5t-106.5 29.5l10 82h432l-6 -86q-86 -16 -111.5 -36.5t-54.5 -77.5l-596 -1237h-159l-248 1267q-8 43 -28.5 56.5t-94.5 31.5z" />
<glyph unicode="W" horiz-adv-x="1935" d="M176 1337l12 82h465l-6 -84l-123 -39q-16 -2 -16 -16q0 -2 1 -12.5t1 -16.5l115 -919q0 -12 2 -28.5t3 -27t1 -14.5h20l373 746l-27 241q-2 12 -4 21.5t-4 15.5t-9 12.5t-10 9.5t-14.5 8t-16.5 6t-22.5 7t-25.5 8l12 82h449l-6 -84l-154 -39q-16 -2 -16 -16q0 -2 1 -12.5 t1 -16.5l100 -919q0 -12 2 -28.5t3 -27t1 -14.5h21l452 903q43 86 43 105q0 43 -145 67l10 82h444l-6 -86q-88 -16 -115.5 -36.5t-58.5 -77.5l-626 -1237h-160l-78 708q-4 33 -4 90h-17q-4 -23 -22 -53l-367 -745h-166l-192 1267q-6 43 -26.5 56.5t-94.5 31.5z" />
<glyph unicode="X" horiz-adv-x="1228" d="M-78 0v82q88 23 118 35t60 49l457 532l-268 551q-20 43 -40 57.5t-85 30.5l14 82h494l-6 -84l-144 -37q-18 -4 -18 -18q0 -8 10 -29l172 -348q10 -23 10 -55h21l287 332q67 77 67 99q0 19 -24.5 31.5t-90.5 26.5l13 82h422l-7 -86l-45 -10q-18 -4 -34.5 -11t-24.5 -10.5 t-21.5 -15.5t-16.5 -15t-18.5 -20.5t-19.5 -23.5l-426 -494l295 -594q16 -31 129 -53l-10 -86h-498v82q35 6 49.5 9t40 10.5t35.5 19.5t10 29q0 18 -8 34l-170 340q-10 23 -10 62h-20l-355 -414q-25 -25 -24 -41q0 -12 18 -18l90 -29l-10 -84h-418z" />
<glyph unicode="Y" horiz-adv-x="1224" d="M184 1337l13 82h489l-6 -84l-143 -37q-16 -4 -17 -16q0 -6 8 -31l156 -452q10 -31 10 -60h21l305 441q59 88 59 102q0 18 -23.5 29.5t-88.5 25.5l10 82h430l-6 -86q-92 -18 -131 -39.5t-74 -70.5l-434 -635l-70 -393q-4 -20 -4 -37q0 -51 47 -56l135 -22l-10 -80h-575v80 q133 20 165.5 41.5t45.5 85.5l63 364l-248 678q-16 45 -35.5 57.5t-91.5 30.5z" />
<glyph unicode="Z" horiz-adv-x="1247" d="M23 0l8 53l952 1200q35 41 53 47l-2 15h-190q-283 0 -369 -12q-31 -2 -123 -259l-127 15q16 197 70 360h1042l-8 -53l-956 -1200q-29 -37 -51 -47l2 -13h301q219 0 268 15q35 10 162 315l110 -10q-12 -168 -84 -426h-1058z" />
<glyph unicode="[" horiz-adv-x="581" d="M29 -336l331 1905h330l-18 -109h-187l-297 -1687h187l-19 -109h-327z" />
<glyph unicode="\" horiz-adv-x="1019" d="M20 1581h142l913 -1704h-143z" />
<glyph unicode="]" horiz-adv-x="581" d="M-10 -336l18 109h185l296 1687h-186l19 109h329l-334 -1905h-327z" />
<glyph unicode="^" horiz-adv-x="1026" d="M113 664l370 755h158l399 -755h-139l-340 641l-309 -641h-139z" />
<glyph unicode="_" horiz-adv-x="880" d="M-33 -150h905v-98h-905v98z" />
<glyph unicode="`" horiz-adv-x="372" d="M178 1458l8 47l166 62l152 -367l-72 -51z" />
<glyph unicode="a" horiz-adv-x="1040" d="M68 266q0 319 162.5 526t398.5 207q84 0 194 -43q59 14 133 43l33 -26q-37 -106 -69 -285l-86 -475q-8 -41 -9 -68q0 -43 27 -43q31 1 129 50l35 -56q-159 -114 -256 -114h-2q-90 0 -90 102q0 43 34 201l21 94l-16 4q-180 -401 -426 -401q-106 0 -159.5 79.5t-53.5 204.5 zM252 330q0 -211 94 -211q121 0 258 241.5t162 464.5q-98 59 -199 60q-104 0 -137 -33q-70 -63 -124 -228t-54 -294z" />
<glyph unicode="b" horiz-adv-x="1005" d="M35 8q47 154 59 211l221 1155q4 20 4 35q0 29 -34.5 45t-122.5 33l10 65q231 29 324 29l18 -20q-4 -84 -22 -187l-91 -450q-16 -82 -69 -281l-10 -41l16 -4q180 401 426 401q106 0 159.5 -79.5t53.5 -204.5q0 -319 -163 -526t-398 -207q-86 0 -195 43q-65 -12 -153 -43z M279 156q98 -59 198 -60q104 0 137 33q70 63 124.5 228t54.5 294q0 211 -95 211q-121 0 -257.5 -241.5t-161.5 -464.5z" />
<glyph unicode="c" horiz-adv-x="804" d="M68 330q0 283 156.5 476t377.5 193q117 0 203 -22q0 -113 -41 -262h-109q0 16 2 40.5t2 41.5q0 35 -5 50t-28.5 26.5t-74.5 11.5q-41 0 -87 -14.5t-65 -28.5q-49 -57 -96 -209t-47 -262q0 -131 38 -185.5t122 -54.5q110 0 266 109l49 -54q-78 -84 -182.5 -144t-202.5 -60 q-111 0 -194.5 87t-83.5 261z" />
<glyph unicode="d" horiz-adv-x="1046" d="M68 266q0 319 162.5 526t398.5 207q72 0 174 -32l78 407q4 20 4 35q0 29 -35 45t-123 33l10 65q231 29 324 29l18 -20q-4 -84 -22 -187l-223 -1161q-8 -41 -9 -68q0 -43 27 -43q31 1 129 50l35 -56q-159 -114 -256 -114h-2q-90 0 -90 102q0 43 34 201l21 94l-16 4 q-180 -401 -426 -401q-106 0 -159.5 79.5t-53.5 204.5zM252 330q0 -211 94 -211q121 0 258 241.5t162 464.5q-98 59 -199 60q-104 0 -137 -33q-70 -63 -124 -228t-54 -294z" />
<glyph unicode="e" horiz-adv-x="808" d="M68 330q0 281 154.5 475t369.5 194q88 0 142 -44t54 -136q0 -82 -48 -148.5t-129 -111.5t-169 -73.5t-188 -45.5q-4 -25 -4 -69q0 -131 39 -185.5t127 -54.5q110 0 266 109l49 -54q-78 -84 -182.5 -144t-202.5 -60q-111 0 -194.5 87t-83.5 261zM264 528q162 41 253 107.5 t91 150.5q0 98 -94 99q-66 0 -115 -43q-39 -41 -79 -131.5t-56 -182.5z" />
<glyph unicode="f" horiz-adv-x="700" d="M-227 -393q0 39 26.5 101.5t63.5 62.5q12 0 65.5 -13.5t69.5 -13.5q55 0 84 98.5t61 308.5q9 64 15 97l96 610h-141l8 86l115 25q35 8 43 45l6 33q45 242 189 388t355 146q98 0 177 -22q0 -123 -41 -283h-109q0 18 2 42.5t2 49.5q0 53 -18.5 75.5t-91.5 22.5 q-92 0 -127 -28q-111 -96 -158 -391l-10 -66h217l-21 -123h-217l-90 -563q-55 -344 -177 -544t-298 -200q-96 0 -96 56z" />
<glyph unicode="g" horiz-adv-x="1019" d="M-35 -248q0 131 129 217q57 37 123 41l-2 17q-23 0 -39 12q-109 70 -108 250q0 309 162.5 509.5t398.5 200.5q84 0 194 -43q59 14 133 43l33 -26q-36 -107 -69 -285l-111 -598q-45 -240 -196.5 -389.5t-374.5 -149.5q-96 0 -184.5 54.5t-88.5 146.5zM131 -197 q0 -53 41 -95t131 -42q66 0 114 12.5t86 51.5t61.5 75.5t50 122.5t42.5 153t45 204l21 94l-16 4q-102 -203 -283 -317q-35 -27 -94.5 -53.5t-98 -46t-69.5 -60.5t-31 -103zM252 352q0 -202 93 -202h1q121 0 258 231t162 444q-98 59 -199 60q-104 0 -137 -33 q-70 -61 -124 -219t-54 -281z" />
<glyph unicode="h" horiz-adv-x="1071" d="M39 8q37 115 67 277l209 1089q4 20 4 35q0 29 -34.5 45t-122.5 33l10 65q231 29 324 29l18 -20q-4 -84 -22 -187l-70 -360q-8 -43 -45 -150.5t-53 -177.5l-19 -84l12 -4q90 186 224.5 293.5t273.5 107.5q172 0 172 -165q0 -25 -9 -71t-18.5 -85t-30 -118t-30.5 -118 q-68 -270 -68 -301q0 -39 33 -39q27 1 125 50l35 -56q-159 -114 -258 -114h-2q-55 0 -81 38.5t-26 90.5q0 80 121 522q29 109 29 162q0 67 -64 67h-2q-76 0 -162.5 -67.5t-162.5 -179t-126 -273.5t-50 -332q-92 -4 -168 -28z" />
<glyph unicode="i" horiz-adv-x="518" d="M86 897l10 66q223 28 318 28h6l18 -20q-4 -84 -22 -187l-101 -538q-12 -86 -12 -94q0 -49 33 -50q25 1 123 50l35 -56q-128 -114 -254 -114h-2q-111 0 -111 129q0 49 23 174l90 499q4 20 4 35q0 29 -35 45.5t-123 32.5zM310.5 1452q29.5 33 82.5 33q51 0 84 -28t33 -85 q0 -47 -33 -81t-86 -34q-110 0 -110 113q0 49 29.5 82z" />
<glyph unicode="j" horiz-adv-x="520" d="M-272 -401q0 53 28.5 112.5t55.5 59.5q20 0 71 -13.5t78 -13.5q33 0 58.5 36t48 114.5t37 148.5t36.5 192q2 9 2 13l99 536q4 20 4 35q0 29 -35 45.5t-123 32.5l10 66q223 28 318 28h6l18 -20q-4 -84 -22 -187l-88 -489q-63 -348 -191.5 -546t-316.5 -198q-94 0 -94 48z M312.5 1452q29.5 33 82.5 33q51 0 84 -28t33 -85q0 -47 -33 -81t-86 -34q-110 0 -110 113q0 49 29.5 82z" />
<glyph unicode="k" horiz-adv-x="1007" d="M39 8q37 115 67 277l209 1089q4 20 4 35q0 29 -34.5 45t-122.5 33l10 65q231 29 324 29l18 -20q-4 -84 -22 -187l-70 -360q-8 -43 -48 -161t-59 -200l-10 -51l12 -4q82 176 243 288.5t304 112.5q37 0 79 -15t42 -44q0 -51 -31.5 -106.5t-60.5 -55.5q-23 0 -81 34t-71 34 q-145 0 -290 -174l305 -520q29 -49 57 -50q23 1 125 50l35 -56q-138 -114 -234 -114h-2q-45 0 -79.5 28.5t-90.5 122.5l-219 373q-109 -233 -108 -496q-92 -4 -168 -28z" />
<glyph unicode="l" horiz-adv-x="479" d="M84 111q0 49 22 174l209 1089q4 20 4 35q0 29 -34.5 45t-122.5 33l10 65q231 29 324 29l18 -20q-4 -84 -22 -187l-220 -1128q-12 -55 -12 -94q0 -49 33 -50q25 1 123 50l35 -56q-128 -114 -254 -114h-2q-111 0 -111 129z" />
<glyph unicode="m" horiz-adv-x="1642" d="M82 8q37 115 68 277l88 487q4 20 4 35q0 29 -35 45t-123 33l10 65q231 29 324 29l18 -21l-88 -356l12 -4q55 145 181.5 273t265.5 128q164 0 164 -161q0 -82 -51 -236l12 -4q61 147 186 274t268 127q172 0 173 -165q0 -25 -9.5 -71t-18.5 -85t-29.5 -118t-31.5 -118 q-68 -270 -67 -301q0 -39 33 -39q27 1 125 50l34 -56q-159 -114 -258 -114h-2q-55 0 -80.5 38.5t-25.5 90.5q0 80 121 522q29 109 28 162q0 67 -63 67h-2q-84 0 -178.5 -98t-163.5 -244q-53 -111 -95 -254t-42 -256q-96 -4 -168 -28l-33 26q20 63 69 277l95 422q8 37 8 86 q0 69 -62 69h-2q-84 0 -177 -97t-165 -245q-117 -244 -116 -510q-92 -4 -168 -28z" />
<glyph unicode="n" horiz-adv-x="1114" d="M82 8q37 115 68 277l88 487q4 20 4 35q0 29 -35 45t-123 33l10 65q231 29 324 29l18 -21q-45 -150 -88 -356l12 -4q90 186 224.5 293.5t273.5 107.5q172 0 172 -165q0 -25 -9 -71t-18.5 -85t-30 -118t-30.5 -118q-68 -270 -68 -301q0 -39 33 -39q27 1 125 50l35 -56 q-159 -114 -258 -114h-2q-55 0 -81 38.5t-26 90.5q0 80 121 522q29 109 29 162q0 67 -64 67h-2q-76 0 -162.5 -67.5t-162.5 -179t-126 -273.5t-50 -332q-92 -4 -168 -28z" />
<glyph unicode="o" horiz-adv-x="972" d="M68 328q0 115 34.5 230.5t98 215.5t170 162.5t235.5 62.5q158 0 242 -92t84 -258q0 -115 -35 -230.5t-100.5 -214t-171 -160.5t-234.5 -62q-158 0 -240.5 91t-82.5 255zM260 352q0 -123 45 -192.5t137 -69.5t160 53q41 33 89 186.5t48 299.5q0 262 -184 262 q-90 0 -158 -53q-41 -33 -89 -186.5t-48 -299.5z" />
<glyph unicode="p" horiz-adv-x="1040" d="M-8 -422q37 115 67 277l172 917q4 20 5 35q0 29 -35 45t-123 33l10 65q231 29 324 29l18 -21l-74 -356l17 -4q180 401 426 401q106 0 159.5 -79.5t53.5 -204.5q0 -319 -163 -526t-398 -207q-78 0 -201 45q-43 -264 -43 -447q-114 -4 -182 -29zM313 156q98 -59 199 -60 q104 0 137 33q70 63 124 228t54 294q0 211 -94 211q-121 0 -258 -241.5t-162 -464.5z" />
<glyph unicode="q" horiz-adv-x="1013" d="M68 266q0 319 162.5 526t398.5 207q84 0 194 -43q59 14 133 43l33 -26q-92 -362 -171 -789.5t-81 -603.5q-108 -4 -182 -29l-33 27q25 76 68 277l16 84q14 63 50 183t51 181l16 76l-16 4q-180 -401 -426 -401q-106 0 -159.5 79.5t-53.5 204.5zM252 330q0 -211 94 -211 q121 0 258 241.5t162 464.5q-98 59 -199 60q-104 0 -137 -33q-70 -63 -124 -228t-54 -294z" />
<glyph unicode="r" horiz-adv-x="833" d="M82 8q37 115 68 277l88 487q4 20 4 35q0 29 -35 45t-123 33l10 65q231 29 324 29l18 -21l-88 -356l14 -4q23 51 57 111.5t84 130t114.5 114.5t127.5 45q94 0 95 -47q0 -57 -32 -118.5t-60 -61.5q-18 0 -67.5 13.5t-74.5 13.5q-16 0 -54 -45t-83 -125t-87 -176.5 t-70.5 -216t-28.5 -226.5q-92 -3 -168 -28z" />
<glyph unicode="s" horiz-adv-x="774" d="M27 43q4 129 51 281h102q-8 -72 -8 -115q0 -59 34 -89t120 -30q123 0 161 31q16 14 29.5 53t13.5 70q0 20 -5 37.5t-19 33t-22.5 25.5t-35 25.5t-36 21.5t-43 22.5t-41.5 20.5q-94 47 -148.5 108.5t-54.5 166.5q0 129 102.5 211.5t272.5 82.5q115 0 223 -41 q-10 -120 -47 -251h-103q0 16 2.5 40.5t2.5 40.5q0 68 -17.5 88.5t-95.5 20.5q-106 0 -156 -33q-16 -12 -28.5 -48t-12.5 -66q0 -18 5.5 -36t19.5 -34t23.5 -26.5t36 -27t37.5 -22.5t45 -23.5t44 -23.5q51 -27 80 -46t64.5 -50t52 -68t16.5 -82q0 -141 -112.5 -235 t-300.5 -94q-145 0 -252 61z" />
<glyph unicode="t" horiz-adv-x="657" d="M123 858l8 86l115 25q41 10 59.5 44t87.5 218l121 12l-49 -264h217l-20 -121h-222l-112 -610q-10 -68 -11 -86q0 -59 72 -60q60 1 191 48l26 -58q-166 -110 -293 -110h-2q-82 0 -125 42t-43 117q0 57 17 144l104 573h-141z" />
<glyph unicode="u" horiz-adv-x="1067" d="M68 897l10 66q223 28 317 28h6l19 -20q-4 -102 -23 -187l-80 -389q-27 -133 -26 -172q0 -98 74 -98q61 0 137 66.5t137 166.5q78 125 127 288t49 325q94 4 168 28l33 -26q-37 -115 -68 -277l-88 -483q-8 -41 -8 -68q0 -43 27 -43q31 1 129 50l34 -56q-159 -114 -258 -114 h-2q-88 0 -88 102q0 43 35 201l21 94l-13 4q-82 -180 -208 -290.5t-255 -110.5q-168 0 -168 200q0 68 27 187l88 415q4 20 4 35q0 29 -34.5 45.5t-122.5 32.5z" />
<glyph unicode="v" horiz-adv-x="995" d="M47 897l10 66q214 28 282 28h5l18 -20l130 -783l8 -2q113 137 217 317.5t104 299.5q0 37 -24.5 57.5t-50 25.5t-84.5 11l10 66q206 28 281 28h5l19 -20q12 -23 12 -74q0 -121 -107.5 -321.5t-219 -349t-199.5 -244.5h-96l-158 823q-10 55 -34.5 68.5t-127.5 23.5z" />
<glyph unicode="w" horiz-adv-x="1482" d="M49 897l10 66q214 28 282 28h5l19 -20l127 -781l8 -2q244 307 243 492v14l-20 111q-10 55 -29.5 68.5t-101.5 23.5l10 66q192 28 252 28h4l19 -20l127 -781l8 -2q104 143 200.5 320.5t96.5 294.5q0 37 -24.5 57.5t-50.5 25.5t-85 11l10 66q206 28 282 28h5l18 -20 q12 -23 13 -74q0 -121 -103.5 -322.5t-209 -348t-189.5 -244.5h-96l-88 462l-9 2q-121 -227 -319 -464h-96l-156 823q-10 55 -34.5 68.5t-127.5 23.5z" />
<glyph unicode="x" horiz-adv-x="1099" d="M-4 31q0 49 24.5 101t49.5 52q18 0 67 -9t74 -9q37 0 108.5 89t145.5 228l-131 322q-10 23 -20.5 38t-17.5 23t-27.5 13.5t-31 7.5t-46 5t-56.5 5l10 66q214 28 282 28h5l19 -20l129 -318q100 164 178 244q96 102 217 102q92 0 92 -47q0 -49 -25.5 -101t-52.5 -52 q-18 0 -67.5 9t-73.5 9q-35 0 -96.5 -72.5t-128.5 -191.5l159 -389q25 -61 58 -62q27 1 129 50l35 -56q-138 -114 -219 -114h-1q-53 0 -93 23.5t-68 94.5l-115 279q-127 -207 -207 -293q-96 -102 -217 -102q-88 0 -88 47z" />
<glyph unicode="y" horiz-adv-x="995" d="M-172 -401q0 55 31.5 117.5t60.5 62.5q20 0 69.5 -12.5t61.5 -12.5q117 1 330 232l-170 819q-12 55 -35.5 68.5t-126.5 23.5l10 66q214 28 282 28h5l19 -20l147 -813l8 -2q129 172 215 352t86 295q0 37 -24.5 57.5t-50 25.5t-84.5 11l10 66q206 28 281 28h5l19 -20 q12 -23 12 -74q0 -152 -118.5 -386.5t-282.5 -444t-352.5 -362.5t-313.5 -153q-94 0 -94 48z" />
<glyph unicode="z" horiz-adv-x="872" d="M-12 23l674 817l-7 6q-57 -29 -129 -29q-29 0 -91 6t-97 6q-63 0 -89 -20.5t-56 -99.5h-82q0 111 49 268q63 22 127 22h6q57 0 169.5 -24.5t178.5 -24.5q106 0 219 49l60 -51l-680 -788l8 -6q61 16 119 16q41 0 113.5 -13.5t99.5 -13.5q61 0 86.5 28t52.5 114h82 q0 -115 -49 -281q-57 -22 -123 -22h-6q-66 0 -195 29.5t-192 29.5q-106 0 -189 -59z" />
<glyph unicode="{" horiz-adv-x="661" d="M100 578l13 77q47 18 72.5 29.5t52 32t43.5 49.5q20 41 30 88q12 76 30.5 236.5t33.5 244.5q18 106 91 170t169 64q31 0 129 -8l-14 -88q-98 -10 -149.5 -40t-65.5 -116l-91 -518q-10 -55 -30 -90q-37 -72 -121 -84l-25 -4v-9l21 -4q41 -8 68.5 -39.5t27.5 -79.5 q0 -25 -6 -55l-90 -518q-4 -29 -4 -41q0 -61 39.5 -84t121.5 -31l-14 -88q-106 -8 -133 -8q-82 0 -132 51.5t-50 139.5q0 63 57 282t57 281q0 25 -4 49q-8 41 -36.5 62.5t-90.5 48.5z" />
<glyph unicode="|" horiz-adv-x="522" d="M215 -430v2011h133v-2011h-133z" />
<glyph unicode="}" horiz-adv-x="661" d="M-10 -328l14 88q98 10 149.5 40t65.5 116l90 518q10 59 31 90q37 70 121 84l24 4v9l-20 4q-43 10 -69.5 41.5t-26.5 78.5q0 23 6 54l90 518q4 29 4 41q0 61 -40 83.5t-122 31.5l15 88q106 8 133 8q82 0 132 -51.5t50 -139.5q0 -63 -56.5 -282t-56.5 -281q0 -37 2 -49 q8 -41 37 -62.5t90 -48.5l-12 -77q-47 -18 -72.5 -29.5t-52.5 -32t-43 -49.5q-23 -45 -29 -88q-14 -80 -32.5 -241t-32.5 -240q-18 -106 -91 -170t-169 -64q-31 0 -129 8z" />
<glyph unicode="~" horiz-adv-x="993" d="M88 481q88 115 144.5 160t113.5 45q43 0 94 -18q25 -8 69 -25.5t91 -36t55 -22.5q53 -20 95 -21q31 0 61.5 15.5t51 32t61.5 53.5l63 -50q-55 -66 -84 -98.5t-81 -69t-95 -36.5q-37 0 -86 16q-18 6 -116.5 45t-116.5 45q-45 16 -84 16q-66 0 -174 -100z" />
<glyph unicode="&#xa1;" horiz-adv-x="462" d="M37 -410l287 1035h104l-152 -1012l-221 -62zM313 879q0 59 36 95t97 36q47 0 75 -26t28 -69q0 -55 -35 -91t-98 -36q-43 0 -73 24t-30 67z" />
<glyph unicode="&#xa2;" horiz-adv-x="868" d="M119 600q0 197 120.5 339t309.5 173l47 258h106l-47 -250q119 -4 217 -22q0 -113 -41 -262h-108q0 18 2 41.5t2 42.5q0 27 -4 43t-25.5 29.5t-62.5 13.5l-109 -600q115 6 275 100l49 -53q-57 -63 -153.5 -115.5t-194.5 -67.5l-49 -270h-107l49 268q-119 14 -197.5 97.5 t-78.5 234.5zM307 602q0 -151 115 -186l104 579q-72 -12 -100 -32q-31 -25 -75 -139.5t-44 -221.5z" />
<glyph unicode="&#xa3;" horiz-adv-x="1067" d="M4 47q129 109 173 183.5t61 156.5q14 70 18 231h-170l20 109h152q14 276 165.5 466.5t430.5 190.5q143 0 260 -51q0 -100 -49 -252l-96 -10v44v38q0 14 -1 29.5t-2 25t-2 18.5t-3.5 14t-6.5 9q-20 27 -116 27q-160 0 -225.5 -87t-110.5 -315q-14 -66 -21 -147h396 l-21 -109h-389q-2 -25 -10 -69q-45 -217 -178 -342l4 -10q63 41 151 41q74 0 197 -37t157 -37q60 0 164 84l64 -47q-51 -72 -80 -107t-93.5 -73.5t-135.5 -38.5q-68 0 -196 44t-222 44q-51 0 -95 -13.5t-72 -29t-79 -47.5z" />
<glyph unicode="&#xa4;" horiz-adv-x="1234" d="M119 236l221 186q-53 70 -53 182q0 199 133 354l-146 181l113 92l145 -182q135 68 304 67q156 0 243 -72l207 175l78 -95l-203 -170q43 -61 43 -166q0 -213 -153 -370l159 -197l-112 -92l-168 205q-117 -51 -273 -51q-137 0 -227 57l-235 -199zM492 639q0 -111 54 -179.5 t161 -68.5q113 0 176 55q45 41 80.5 131.5t35.5 182.5q0 111 -54 179.5t-161 68.5q-111 0 -176 -56q-45 -39 -80.5 -130t-35.5 -183z" />
<glyph unicode="&#xa5;" horiz-adv-x="1222" d="M201 1288l12 82h489l-6 -84l-143 -37q-16 -4 -16 -16q0 -6 8 -31l135 -391q10 -31 10 -59h21l262 378q59 88 59 103q0 18 -23.5 29.5t-88.5 25.5l10 82h430l-6 -86q-92 -18 -131 -39.5t-74 -70.5l-287 -422h221l-20 -109h-770l20 109h181l-166 448q-16 45 -36 57.5 t-91 30.5zM248 393l18 109h770l-18 -109h-303l-35 -198q-4 -20 -4 -37q0 -51 47 -56l135 -22l-10 -80h-576v80q133 20 166 41.5t45 85.5l33 186h-268z" />
<glyph unicode="&#xa6;" horiz-adv-x="522" d="M215 426h133v-856h-133v856zM215 727v854h133v-854h-133z" />
<glyph unicode="&#xa7;" horiz-adv-x="901" d="M18 -184q11 149 52 282h102q-8 -57 -8 -94q0 -74 26 -102q35 -37 154 -37q115 0 172 33q14 8 28.5 49t14.5 82q0 47 -33.5 93t-67.5 71.5t-104 70.5q-59 39 -90 60.5t-74 60.5t-61 81t-18 91q0 74 61 163t190 154q-96 86 -96 218q0 143 119 244.5t307 101.5 q139 0 236 -41q-8 -113 -45 -258h-105q4 41 4 86q0 68 -20 86q-23 18 -117 18q-43 0 -97 -11t-71 -24q-39 -33 -39 -135q0 -43 16.5 -81t58.5 -73.5t68.5 -54t88.5 -57.5q76 -47 117.5 -79t80.5 -88t39 -120q0 -72 -60.5 -160t-189.5 -155q90 -76 91 -189 q0 -143 -130.5 -244.5t-338.5 -101.5q-152 0 -261 60zM285 612q0 -18 5 -33.5t19.5 -33t26.5 -30.5t43 -34.5t52.5 -36t68.5 -44t80 -52.5q152 115 151 203q0 18 -5 33.5t-18.5 32t-27.5 29.5t-43 34.5t-52.5 36t-68.5 45.5t-78 53q-78 -61 -115.5 -107t-37.5 -96z" />
<glyph unicode="&#xa8;" horiz-adv-x="614" d="M156 1323q0 53 36.5 92t88.5 39q96 0 96 -92q0 -53 -38 -93t-89 -40q-94 0 -94 94zM551 1323q0 53 37 92t88 39q96 0 96 -92q0 -53 -38 -93t-89 -40q-94 0 -94 94z" />
<glyph unicode="&#xa9;" horiz-adv-x="1722" d="M152 621q0 344 226 580.5t636 236.5q319 0 518 -158t199 -471q0 -160 -54.5 -305.5t-159 -263t-274.5 -188t-383 -70.5q-319 0 -513.5 159.5t-194.5 479.5zM326 612q0 -244 140 -383t406 -139q184 0 323.5 70.5t214.5 184.5t109.5 232.5t34.5 237.5q0 240 -140 377 t-406 137q-184 0 -322.5 -68.5t-213.5 -179t-110.5 -228.5t-35.5 -241zM498 608q0 242 149.5 409t429.5 167q94 0 167 -29t108 -59q-20 -156 -56 -256l-141 -13q10 168 10 177q0 25 -6 30q-37 41 -117 41q-176 0 -259 -128t-83 -316q0 -154 69 -221.5t171 -67.5q37 0 73 9 t44 22q24 25 67 170l119 -8q2 -10 2 -62q0 -86 -24 -160q-37 -29 -136.5 -54.5t-158.5 -25.5q-203 0 -315.5 106.5t-112.5 268.5z" />
<glyph unicode="&#xaa;" horiz-adv-x="792" d="M104 465l21 108h709l-21 -108h-709zM160 899q0 233 123 386t301 153q61 0 145 -31q51 12 100 33l31 -23q-29 -88 -49 -207l-51 -272q-18 -106 -19 -125q0 -35 15 -35q18 0 96 43l29 -45q-121 -84 -201 -84q-76 0 -76 74q0 14 8.5 46t20.5 75t18 67l-12 4 q-127 -266 -311 -266q-86 0 -127 58.5t-41 148.5zM315 946q0 -156 60 -155q88 0 185.5 178t115.5 342q-66 45 -137 45q-68 0 -93 -25q-49 -49 -90 -170t-41 -215z" />
<glyph unicode="&#xab;" horiz-adv-x="942" d="M190 500v32l396 349l37 -33l-281 -340l160 -348l-49 -33zM551 500v32l395 349l37 -33l-281 -340l160 -348l-49 -33z" />
<glyph unicode="&#xac;" horiz-adv-x="1056" d="M111 686v109h872v-459h-117v350h-755z" />
<glyph unicode="&#xad;" horiz-adv-x="604" d="M70 416l24 151l447 29l-33 -127z" />
<glyph unicode="&#xae;" horiz-adv-x="1722" d="M152 621q0 344 226 580.5t636 236.5q319 0 518 -158t199 -471q0 -160 -54.5 -305.5t-159 -263t-274.5 -188t-383 -70.5q-319 0 -513.5 159.5t-194.5 479.5zM326 612q0 -244 140 -383t406 -139q184 0 323.5 70.5t214.5 184.5t109.5 232.5t34.5 237.5q0 240 -140 377 t-406 137q-184 0 -322.5 -68.5t-213.5 -179t-110.5 -228.5t-35.5 -241zM522 254l6 76q49 12 68.5 27.5t26.5 48.5l112 616q4 25 4 31q0 31 -73 45l22 73h354q131 0 198 -55t67 -145q0 -100 -73 -184.5t-194 -100.5l-2 -8q16 -2 29 -29l115 -266q18 -41 78 -53l-23 -76h-182 l-154 389h-78l-45 -244q-6 -31 -6 -37q0 -14 23 -18l69 -14l-18 -76h-324zM842 741h45q242 0 241 207q0 61 -30.5 95t-118.5 34h-51q-25 0 -29 -26z" />
<glyph unicode="&#xaf;" horiz-adv-x="509" d="M152 1315l22 123h510l-22 -123h-510z" />
<glyph unicode="&#xb0;" horiz-adv-x="755" d="M174 1157q0 129 76 205t211 76q131 0 202.5 -71t71.5 -196q0 -127 -76.5 -203.5t-212.5 -76.5q-129 0 -200.5 70.5t-71.5 195.5zM291 1157q0 -76 40.5 -119t114.5 -43q82 0 127 48.5t45 127.5q0 76 -40.5 119t-116.5 43q-80 0 -125 -48t-45 -128z" />
<glyph unicode="&#xb1;" horiz-adv-x="985" d="M131 -2v108h770v-108h-770zM131 627v108h334v342h102v-342h334v-108h-334v-351h-102v351h-334z" />
<glyph unicode="&#xb2;" horiz-adv-x="667" d="M127 891l14 74q268 197 390 323.5t122 247.5q0 68 -39 103.5t-108 35.5q-76 0 -115 -30q-27 -27 -39 -150l-94 6q0 121 16 191q106 61 265 61q131 0 204.5 -56.5t73.5 -154.5q0 -125 -121 -251t-377 -294v-10l99 8q47 4 114 4h68q39 0 57 5q16 4 43 98l80 -6 q-6 -105 -37 -205h-616z" />
<glyph unicode="&#xb3;" horiz-adv-x="643" d="M158 909q4 104 39 178h84v-32q-2 -18 -2 -47q0 -33 8 -39q41 -20 106 -21q84 0 133 56.5t49 150.5q0 141 -155 141q-29 0 -76 -8l12 74q143 20 207 77.5t64 123.5q0 47 -36 79.5t-99 32.5q-37 0 -74 -16q-14 -6 -25.5 -31.5t-34.5 -109.5l-88 10q0 104 21 164 q106 61 225 61q106 0 181 -45t75 -131q0 -78 -57 -135.5t-137 -77.5v-8q70 -12 115.5 -58.5t45.5 -119.5q0 -125 -105.5 -215.5t-268.5 -90.5q-139 0 -207 37z" />
<glyph unicode="&#xb4;" horiz-adv-x="391" d="M131 1200l287 367l160 -62l-9 -47l-368 -309z" />
<glyph unicode="&#xb5;" horiz-adv-x="1093" d="M-18 -422l266 1206q4 20 4 35q0 29 -35 45.5t-123 32.5l10 66q231 29 324 28l18 -20q-4 -84 -22 -187l-80 -389q-27 -133 -27 -172q0 -98 74 -98q61 0 137 66.5t138 166.5q78 125 127 288t49 325q94 4 168 28l32 -26q-37 -115 -67 -277l-88 -483q-8 -41 -8 -68 q0 -43 26 -43q31 1 129 50l35 -56q-160 -115 -260 -114q-88 0 -88 102q0 43 35 201l20 94l-12 4q-82 -180 -208 -290.5t-255 -110.5q-51 0 -92 26l-6 -4l-15 -379l-182 -82z" />
<glyph unicode="&#xb6;" horiz-adv-x="1222" d="M250 940q0 223 129 351t366 128h590l-6 -80l-131 -24q-43 -8 -51 -53l-184 -1000q-35 -186 -162 -346t-228 -160q-85 1 -167 17v18q0 80 67 162q90 -23 133 -23q37 0 66 17q45 27 73.5 118t59.5 259l184 987h-96l-231 -1241q-66 -12 -148 -13l-18 21l92 491 q-164 4 -251 108.5t-87 262.5z" />
<glyph unicode="&#xb7;" horiz-adv-x="491" d="M143 514q0 63 41 105.5t107 42.5q49 0 88 -32t39 -85q0 -66 -42 -108t-110 -42q-49 0 -86 33t-37 86z" />
<glyph unicode="&#xb8;" horiz-adv-x="499" d="M51 -444l4 63q217 31 217 131q0 66 -82 66q-43 0 -88 -21l-12 23l125 264l96 -27l-71 -151q20 4 57 4q72 0 112 -30t40 -81q0 -92 -109 -162.5t-289 -78.5z" />
<glyph unicode="&#xb9;" horiz-adv-x="567" d="M197 891v59q80 10 110.5 25.5t34.5 42.5l96 522q8 49 8 66q0 35 -24 34q-23 0 -121 -6v58q184 61 295 61l20 -16l-131 -705q-6 -37 -6 -43q0 -23 19 -24l100 -15l-8 -59h-393z" />
<glyph unicode="&#xba;" horiz-adv-x="741" d="M104 465l21 108h647l-20 -108h-648zM180 944q0 117 43 226.5t139.5 188.5t225.5 79q123 0 187.5 -67.5t64.5 -188.5q0 -115 -44 -223.5t-140.5 -187.5t-225.5 -79q-121 0 -185.5 66.5t-64.5 185.5zM344 963q0 -193 123 -193q64 0 113 39q31 23 64.5 135.5t33.5 220.5 q0 195 -127 195q-66 0 -111 -39q-31 -23 -63.5 -136.5t-32.5 -221.5z" />
<glyph unicode="&#xbb;" horiz-adv-x="942" d="M84 160l278 356l-157 332l49 33l272 -349l-6 -32l-399 -373zM444 160l279 356l-158 332l49 33l273 -349l-6 -32l-400 -373z" />
<glyph unicode="&#xbc;" horiz-adv-x="1552" d="M137 571v60q80 10 111 25.5t35 41.5l96 523q8 49 8 65q0 35 -25 35q-23 0 -120 -6v57q184 61 295 62l20 -17l-131 -704q-6 -37 -6 -43q0 -23 18 -25l101 -14l-9 -60h-393zM293 0l928 1419h133l-926 -1419h-135zM819 299l524 547q74 16 127 16l21 -16l-102 -547 q20 0 61 -1t61 -1l-20 -82h-119l-14 -82q-6 -31 -6 -37q0 -16 18 -22l76 -15l-8 -59h-369v59q80 10 110.5 25.5t34.5 42.5l17 88h-391l-6 4zM934 311l2 -6l311 -4l74 393q2 10 8 19l-6 4l-360 -383q-12 -14 -29 -23z" />
<glyph unicode="&#xbd;" horiz-adv-x="1619" d="M137 571v60q80 10 111 25.5t35 41.5l96 523q8 49 8 65q0 35 -25 35q-23 0 -120 -6v57q184 61 295 62l20 -17l-131 -704q-6 -37 -6 -43q0 -23 18 -25l101 -14l-9 -60h-393zM293 0l928 1419h133l-926 -1419h-135zM913 0l15 74q268 197 390 323.5t122 247.5q0 68 -39 103.5 t-109 35.5q-76 0 -114 -30q-27 -27 -39 -150l-95 6q0 121 17 191q106 61 264 61q131 0 205 -56t74 -155q0 -125 -121 -251t-377 -294v-10l98 8q47 4 115 5h67q39 0 58 4q16 4 43 98l80 -6q-6 -105 -37 -205h-617z" />
<glyph unicode="&#xbe;" horiz-adv-x="1552" d="M98 590q4 104 39 178h84v-33q-2 -18 -2 -47q0 -33 8 -39q41 -20 107 -20q84 0 133 56t49 151q0 141 -156 141q-29 0 -75 -8l12 73q143 20 206.5 78t63.5 123q0 47 -35.5 80t-99.5 33q-37 0 -74 -17q-14 -6 -25 -31.5t-34 -109.5l-88 10q0 104 20 164q106 61 226 62 q106 0 181 -45.5t75 -131.5q0 -78 -57.5 -135.5t-137.5 -77.5v-8q70 -12 116 -58t46 -120q0 -125 -105.5 -215t-269.5 -90q-139 0 -207 37zM309 0l928 1419h133l-926 -1419h-135zM819 299l524 547q74 16 127 16l21 -16l-102 -547q20 0 61 -1t61 -1l-20 -82h-119l-14 -82 q-6 -31 -6 -37q0 -16 18 -22l76 -15l-8 -59h-369v59q80 10 110.5 25.5t34.5 42.5l17 88h-391l-6 4zM934 311l2 -6l311 -4l74 393q2 10 8 19l-6 4l-360 -383q-12 -14 -29 -23z" />
<glyph unicode="&#xbf;" horiz-adv-x="868" d="M-45 -162q0 135 70.5 220t195.5 161q16 10 68.5 41t70 42t54.5 39t51 48.5t27.5 50t13.5 62.5q0 12 -1 38.5t-1 30.5l100 29q57 -106 58 -190q0 -27 -6.5 -49.5t-25 -44t-31.5 -36t-45 -36t-46 -30.5t-56 -33.5t-55 -30.5q-70 -41 -101.5 -61.5t-77.5 -60.5t-65.5 -84 t-19.5 -100q0 -86 64.5 -135t146.5 -49q96 0 162 33q18 8 31.5 38.5t46.5 143.5l108 -12q0 -106 -28 -225q-160 -86 -357 -87q-147 0 -249.5 79t-102.5 208zM481 885q0 123 127 123q45 0 80 -28t35 -71q0 -123 -127 -123q-43 0 -79 28t-36 71z" />
<glyph unicode="&#xc0;" horiz-adv-x="1370" d="M-37 0v82q82 20 102.5 32.5t43.5 55.5l694 1268h170l227 -1307q6 -31 113 -51l-10 -80h-492v82q90 18 130 34.5t40 47.5q0 18 -2 29l-39 266h-530l-162 -295q-14 -29 -15 -33q0 -10 11 -12l131 -39l-10 -80h-402zM467 567h457l-95 576q-2 25 -2 59h-20zM616 1767l132 105 l307 -264l-54 -74l-376 190z" />
<glyph unicode="&#xc1;" horiz-adv-x="1370" d="M-37 0v82q82 20 102.5 32.5t43.5 55.5l694 1268h170l227 -1307q6 -31 113 -51l-10 -80h-492v82q90 18 130 34.5t40 47.5q0 18 -2 29l-39 266h-530l-162 -295q-14 -29 -15 -33q0 -10 11 -12l131 -39l-10 -80h-402zM467 567h457l-95 576q-2 25 -2 59h-20zM762 1608l405 264 l115 -105l-25 -43l-446 -190z" />
<glyph unicode="&#xc2;" horiz-adv-x="1370" d="M-37 0v82q82 20 102.5 32.5t43.5 55.5l694 1268h170l227 -1307q6 -31 113 -51l-10 -80h-492v82q90 18 130 34.5t40 47.5q0 18 -2 29l-39 266h-530l-162 -295q-14 -29 -15 -33q0 -10 11 -12l131 -39l-10 -80h-402zM467 567h457l-95 576q-2 25 -2 59h-20zM606 1587l320 285 h114l238 -285l-61 -53l-250 186l-320 -186z" />
<glyph unicode="&#xc3;" horiz-adv-x="1370" d="M-37 0v82q82 20 102.5 32.5t43.5 55.5l694 1268h170l227 -1307q6 -31 113 -51l-10 -80h-492v82q90 18 130 34.5t40 47.5q0 18 -2 29l-39 266h-530l-162 -295q-14 -29 -15 -33q0 -10 11 -12l131 -39l-10 -80h-402zM467 567h457l-95 576q-2 25 -2 59h-20zM549 1612 q86 109 141 152.5t107 43.5q43 0 170 -27.5t168 -27.5q59 0 141 72l47 -25q-133 -207 -227 -207q-35 0 -166 28t-180 28q-78 0 -160 -70z" />
<glyph unicode="&#xc4;" horiz-adv-x="1370" d="M-37 0v82q82 20 102.5 32.5t43.5 55.5l694 1268h170l227 -1307q6 -31 113 -51l-10 -80h-492v82q90 18 130 34.5t40 47.5q0 18 -2 29l-39 266h-530l-162 -295q-14 -29 -15 -33q0 -10 11 -12l131 -39l-10 -80h-402zM467 567h457l-95 576q-2 25 -2 59h-20zM614 1681 q0 53 37 92t88 39q96 0 97 -92q0 -53 -37 -93t-88 -40q-96 0 -97 94zM1010 1681q0 53 36.5 92t88.5 39q96 0 96 -92q0 -53 -37 -93t-88 -40q-96 0 -96 94z" />
<glyph unicode="&#xc5;" horiz-adv-x="1370" d="M-37 0v82q82 20 102.5 32.5t43.5 55.5l694 1268h170l227 -1307q6 -31 113 -51l-10 -80h-492v82q90 18 130 34.5t40 47.5q0 18 -2 29l-39 266h-530l-162 -295q-14 -29 -15 -33q0 -10 11 -12l131 -39l-10 -80h-402zM467 567h457l-95 576q-2 25 -2 59h-20zM723 1671 q0 92 70.5 151.5t164.5 59.5q76 0 126.5 -44t50.5 -116q0 -88 -72 -148.5t-166 -60.5q-76 0 -125 43t-49 115zM823 1681q0 -37 23.5 -58t62.5 -21q51 0 86 32.5t35 81.5q0 35 -22.5 56.5t-61.5 21.5q-59 0 -91 -31.5t-32 -81.5z" />
<glyph unicode="&#xc6;" horiz-adv-x="1939" d="M-29 0v82q80 18 102.5 31.5t55.5 54.5l832 1044q20 29 20 50q0 51 -133 77l12 80h1112q0 -74 -16 -162q-16 -92 -31 -157l-121 -15q-2 141 -8 177t-22 38q-49 6 -123 9l-310 6l-96 -551h307q8 0 17.5 9t27 42t45.5 94l64 -6q-35 -193 -43 -405l-76 -13q-12 113 -19 141.5 t-22 28.5h-321l-97 -551l183 2q76 2 132 4.5t86 6.5t44 7t24 7l11 4q37 10 131 242l112 -10q-4 -35 -16 -105q-21 -112 -70 -262h-997l2 80q111 18 138.5 40.5t39.5 86.5l43 252h-469l-200 -250q-47 -59 -48 -78q0 -20 33 -29l76 -22l-10 -80h-402zM606 567h406l110 635h-18 z" />
<glyph unicode="&#xc7;" horiz-adv-x="1204" d="M121 561q0 117 23.5 231.5t81 233.5t143.5 208t224 146.5t310 57.5q104 0 218 -20.5t147 -37.5q0 -135 -41 -344l-119 -16q-12 233 -43 262q-14 14 -80.5 30.5t-132.5 16.5q-125 0 -222.5 -60.5t-156.5 -165t-89 -234.5t-30 -277q0 -248 108.5 -372t266.5 -124 q70 0 132.5 18.5t80.5 32.5q29 18 107 263l112 -4q-16 -174 -49 -332q-162 -78 -399 -90l-37 -80q20 4 57 4q74 0 113 -30t39 -81q0 -92 -109 -162.5t-289 -78.5l5 63q98 12 157.5 47t59.5 84q0 66 -82 66q-43 0 -88 -21l-13 23l78 166q-231 18 -357 179t-126 398z" />
<glyph unicode="&#xc8;" horiz-adv-x="1212" d="M41 0v80q111 18 139.5 40.5t40.5 86.5l176 1005q6 29 6 48q0 33 -27.5 49t-111.5 30l12 80h969q0 -74 -16 -162q-16 -92 -31 -157l-121 -15q-2 141 -8 177t-22 38q-49 6 -123 9l-310 6l-96 -551h307q8 0 17.5 9t27 42t45.5 94l64 -6q-35 -193 -43 -405l-76 -13 q-12 113 -19 141.5t-22 28.5h-321l-97 -551l183 2q76 2 132 4.5t85.5 6.5t44 7t24.5 7l11 4q37 10 131 242l112 -10q-4 -35 -16 -105q-21 -112 -70 -262h-997zM524 1767l131 105l308 -264l-54 -74l-377 190z" />
<glyph unicode="&#xc9;" horiz-adv-x="1212" d="M41 0v80q111 18 139.5 40.5t40.5 86.5l176 1005q6 29 6 48q0 33 -27.5 49t-111.5 30l12 80h969q0 -74 -16 -162q-16 -92 -31 -157l-121 -15q-2 141 -8 177t-22 38q-49 6 -123 9l-310 6l-96 -551h307q8 0 17.5 9t27 42t45.5 94l64 -6q-35 -193 -43 -405l-76 -13 q-12 113 -19 141.5t-22 28.5h-321l-97 -551l183 2q76 2 132 4.5t85.5 6.5t44 7t24.5 7l11 4q37 10 131 242l112 -10q-4 -35 -16 -105q-21 -112 -70 -262h-997zM670 1608l405 264l115 -105l-25 -43l-446 -190z" />
<glyph unicode="&#xca;" horiz-adv-x="1212" d="M41 0v80q111 18 139.5 40.5t40.5 86.5l176 1005q6 29 6 48q0 33 -27.5 49t-111.5 30l12 80h969q0 -74 -16 -162q-16 -92 -31 -157l-121 -15q-2 141 -8 177t-22 38q-49 6 -123 9l-310 6l-96 -551h307q8 0 17.5 9t27 42t45.5 94l64 -6q-35 -193 -43 -405l-76 -13 q-12 113 -19 141.5t-22 28.5h-321l-97 -551l183 2q76 2 132 4.5t85.5 6.5t44 7t24.5 7l11 4q37 10 131 242l112 -10q-4 -35 -16 -105q-21 -112 -70 -262h-997zM514 1587l320 285h114l238 -285l-62 -53l-250 186l-319 -186z" />
<glyph unicode="&#xcb;" horiz-adv-x="1212" d="M41 0v80q111 18 139.5 40.5t40.5 86.5l176 1005q6 29 6 48q0 33 -27.5 49t-111.5 30l12 80h969q0 -74 -16 -162q-16 -92 -31 -157l-121 -15q-2 141 -8 177t-22 38q-49 6 -123 9l-310 6l-96 -551h307q8 0 17.5 9t27 42t45.5 94l64 -6q-35 -193 -43 -405l-76 -13 q-12 113 -19 141.5t-22 28.5h-321l-97 -551l183 2q76 2 132 4.5t85.5 6.5t44 7t24.5 7l11 4q37 10 131 242l112 -10q-4 -35 -16 -105q-21 -112 -70 -262h-997zM543 1681q0 53 36.5 92t88.5 39q96 0 96 -92q0 -53 -37 -93t-88 -40q-96 0 -96 94zM938 1681q0 53 37 92t88 39 q96 0 96 -92q0 -53 -37 -93t-88 -40q-96 0 -96 94z" />
<glyph unicode="&#xcc;" horiz-adv-x="690" d="M45 0v80q111 18 137.5 40.5t38.5 86.5l178 1005q0 6 2 16.5t3.5 17.5t1.5 14q0 33 -28 49t-112 30l13 80h516l-7 -80l-131 -24q-43 -8 -51 -53l-186 -1053q-6 -33 -6 -53q0 -47 55 -58l96 -18l-10 -80h-510zM250 1767l131 105l307 -264l-53 -74l-377 190z" />
<glyph unicode="&#xcd;" horiz-adv-x="690" d="M45 0v80q111 18 137.5 40.5t38.5 86.5l178 1005q0 6 2 16.5t3.5 17.5t1.5 14q0 33 -28 49t-112 30l13 80h516l-7 -80l-131 -24q-43 -8 -51 -53l-186 -1053q-6 -33 -6 -53q0 -47 55 -58l96 -18l-10 -80h-510zM395 1608l406 264l114 -105l-24 -43l-447 -190z" />
<glyph unicode="&#xce;" horiz-adv-x="690" d="M45 0v80q111 18 137.5 40.5t38.5 86.5l178 1005q0 6 2 16.5t3.5 17.5t1.5 14q0 33 -28 49t-112 30l13 80h516l-7 -80l-131 -24q-43 -8 -51 -53l-186 -1053q-6 -33 -6 -53q0 -47 55 -58l96 -18l-10 -80h-510zM240 1587l319 285h115l237 -285l-61 -53l-250 186l-319 -186z " />
<glyph unicode="&#xcf;" horiz-adv-x="690" d="M45 0v80q111 18 137.5 40.5t38.5 86.5l178 1005q0 6 2 16.5t3.5 17.5t1.5 14q0 33 -28 49t-112 30l13 80h516l-7 -80l-131 -24q-43 -8 -51 -53l-186 -1053q-6 -33 -6 -53q0 -47 55 -58l96 -18l-10 -80h-510zM268 1681q0 53 37 92t88 39q96 0 96 -92q0 -53 -36.5 -93 t-87.5 -40q-96 0 -97 94zM664 1681q0 53 36.5 92t87.5 39q96 0 97 -92q0 -53 -37 -93t-88 -40q-96 0 -96 94z" />
<glyph unicode="&#xd0;" horiz-adv-x="1413" d="M45 0v80q111 18 137.5 40.5t38.5 86.5l86 485h-207l33 123h195l71 397q6 31 7 48q0 33 -28 49t-114 30l12 80h596q150 0 262.5 -46t177 -125t96.5 -174t32 -206q0 -158 -47 -306t-140.5 -277t-253 -207t-362.5 -78h-592zM416 178q0 -33 35 -41q137 -29 208 -28 q268 0 407.5 200.5t139.5 519.5q0 131 -38 230.5t-99 151t-126.5 76t-133.5 24.5h-195l-88 -496h338l-33 -123h-327l-82 -469q-6 -43 -6 -45z" />
<glyph unicode="&#xd1;" horiz-adv-x="1509" d="M41 0v80q111 18 139.5 40.5t40.5 86.5l176 1005q6 29 6 48q0 33 -27.5 49t-111.5 30l12 80h406l440 -1032h15l139 784q6 37 6 64q0 49 -36 70.5t-138 33.5l12 80h496l-6 -80l-131 -24q-18 -4 -29.5 -13.5t-14.5 -16.5t-5 -23l-224 -1262h-127l-528 1212h-16l-179 -1017 q-4 -20 -4 -37q0 -51 47 -56l170 -22l-10 -80h-518zM618 1612q86 109 141.5 152.5t106.5 43.5q43 0 170 -27.5t168 -27.5q60 0 142 72l47 -25q-133 -207 -228 -207q-35 0 -166 28t-180 28q-78 0 -160 -70z" />
<glyph unicode="&#xd2;" horiz-adv-x="1372" d="M123 561q0 389 197.5 633t545.5 244q244 0 377 -159t133 -409q0 -391 -198.5 -639.5t-546.5 -248.5q-244 0 -376 160.5t-132 418.5zM352 582q0 -215 84 -353.5t242 -138.5q127 0 223 73t146.5 190.5t74 241.5t23.5 253q0 211 -84 346t-244 135q-102 0 -183 -47t-133 -123 t-86 -176t-48.5 -199.5t-14.5 -201.5zM543 1767l131 105l307 -264l-53 -74l-377 190z" />
<glyph unicode="&#xd3;" horiz-adv-x="1372" d="M123 561q0 389 197.5 633t545.5 244q244 0 377 -159t133 -409q0 -391 -198.5 -639.5t-546.5 -248.5q-244 0 -376 160.5t-132 418.5zM352 582q0 -215 84 -353.5t242 -138.5q127 0 223 73t146.5 190.5t74 241.5t23.5 253q0 211 -84 346t-244 135q-102 0 -183 -47t-133 -123 t-86 -176t-48.5 -199.5t-14.5 -201.5zM688 1608l406 264l114 -105l-24 -43l-447 -190z" />
<glyph unicode="&#xd4;" horiz-adv-x="1372" d="M123 561q0 389 197.5 633t545.5 244q244 0 377 -159t133 -409q0 -391 -198.5 -639.5t-546.5 -248.5q-244 0 -376 160.5t-132 418.5zM352 582q0 -215 84 -353.5t242 -138.5q127 0 223 73t146.5 190.5t74 241.5t23.5 253q0 211 -84 346t-244 135q-102 0 -183 -47t-133 -123 t-86 -176t-48.5 -199.5t-14.5 -201.5zM532 1587l320 285h115l237 -285l-61 -53l-250 186l-320 -186z" />
<glyph unicode="&#xd5;" horiz-adv-x="1372" d="M123 561q0 389 197.5 633t545.5 244q244 0 377 -159t133 -409q0 -391 -198.5 -639.5t-546.5 -248.5q-244 0 -376 160.5t-132 418.5zM352 582q0 -215 84 -353.5t242 -138.5q127 0 223 73t146.5 190.5t74 241.5t23.5 253q0 211 -84 346t-244 135q-102 0 -183 -47t-133 -123 t-86 -176t-48.5 -199.5t-14.5 -201.5zM516 1612q86 109 141.5 152.5t106.5 43.5q43 0 170 -27.5t168 -27.5q59 0 141 72l47 -25q-133 -207 -227 -207q-35 0 -166 28t-180 28q-78 0 -160 -70z" />
<glyph unicode="&#xd6;" horiz-adv-x="1372" d="M123 561q0 389 197.5 633t545.5 244q244 0 377 -159t133 -409q0 -391 -198.5 -639.5t-546.5 -248.5q-244 0 -376 160.5t-132 418.5zM352 582q0 -215 84 -353.5t242 -138.5q127 0 223 73t146.5 190.5t74 241.5t23.5 253q0 211 -84 346t-244 135q-102 0 -183 -47t-133 -123 t-86 -176t-48.5 -199.5t-14.5 -201.5zM561 1681q0 53 37 92t88 39q96 0 96 -92q0 -53 -37 -93t-88 -40q-96 0 -96 94zM956 1681q0 53 37 92t88 39q96 0 97 -92q0 -53 -37 -93t-88 -40q-96 0 -97 94z" />
<glyph unicode="&#xd7;" d="M199 227l284 285l-282 283l73 71l281 -280l283 280l75 -73l-284 -281l284 -287l-73 -71l-283 284l-285 -284z" />
<glyph unicode="&#xd8;" horiz-adv-x="1374" d="M125 561q0 389 197.5 633t545.5 244q137 0 240 -54l125 197l106 -41l-139 -217q178 -154 178 -453q0 -391 -198.5 -639.5t-546.5 -248.5q-147 0 -254 59l-131 -205l-105 41l148 229q-166 156 -166 455zM354 582q1 -174 52 -295l614 960q-82 82 -201 82q-102 0 -183 -47 t-133 -123t-86 -176t-48.5 -199.5t-14.5 -201.5zM471 184q82 -94 209 -94t223 73t146.5 190.5t74 241.5t23.5 253q-1 180 -60 299z" />
<glyph unicode="&#xd9;" horiz-adv-x="1472" d="M260 358q0 72 14 152l123 702q6 29 6 48q0 35 -27.5 49t-111.5 30l12 80h517l-7 -80l-131 -24q-18 -4 -29.5 -13.5t-14.5 -16.5t-5 -23l-127 -721q-14 -90 -14 -140q0 -127 67.5 -198.5t204.5 -71.5q170 0 262 110.5t119 268.5l117 664q6 37 6 61q0 51 -35 71.5 t-139 32.5l12 80h496l-6 -80l-131 -24q-20 -4 -30.5 -12.5t-13.5 -16.5t-5 -24l-132 -736q-98 -545 -585 -544q-205 0 -308.5 98t-103.5 278zM666 1767l131 105l307 -264l-53 -74l-377 190z" />
<glyph unicode="&#xda;" horiz-adv-x="1472" d="M260 358q0 72 14 152l123 702q6 29 6 48q0 35 -27.5 49t-111.5 30l12 80h517l-7 -80l-131 -24q-18 -4 -29.5 -13.5t-14.5 -16.5t-5 -23l-127 -721q-14 -90 -14 -140q0 -127 67.5 -198.5t204.5 -71.5q170 0 262 110.5t119 268.5l117 664q6 37 6 61q0 51 -35 71.5 t-139 32.5l12 80h496l-6 -80l-131 -24q-20 -4 -30.5 -12.5t-13.5 -16.5t-5 -24l-132 -736q-98 -545 -585 -544q-205 0 -308.5 98t-103.5 278zM811 1608l406 264l114 -105l-24 -43l-447 -190z" />
<glyph unicode="&#xdb;" horiz-adv-x="1472" d="M260 358q0 72 14 152l123 702q6 29 6 48q0 35 -27.5 49t-111.5 30l12 80h517l-7 -80l-131 -24q-18 -4 -29.5 -13.5t-14.5 -16.5t-5 -23l-127 -721q-14 -90 -14 -140q0 -127 67.5 -198.5t204.5 -71.5q170 0 262 110.5t119 268.5l117 664q6 37 6 61q0 51 -35 71.5 t-139 32.5l12 80h496l-6 -80l-131 -24q-20 -4 -30.5 -12.5t-13.5 -16.5t-5 -24l-132 -736q-98 -545 -585 -544q-205 0 -308.5 98t-103.5 278zM655 1587l320 285h115l237 -285l-61 -53l-250 186l-320 -186z" />
<glyph unicode="&#xdc;" horiz-adv-x="1472" d="M260 358q0 72 14 152l123 702q6 29 6 48q0 35 -27.5 49t-111.5 30l12 80h517l-7 -80l-131 -24q-18 -4 -29.5 -13.5t-14.5 -16.5t-5 -23l-127 -721q-14 -90 -14 -140q0 -127 67.5 -198.5t204.5 -71.5q170 0 262 110.5t119 268.5l117 664q6 37 6 61q0 51 -35 71.5 t-139 32.5l12 80h496l-6 -80l-131 -24q-20 -4 -30.5 -12.5t-13.5 -16.5t-5 -24l-132 -736q-98 -545 -585 -544q-205 0 -308.5 98t-103.5 278zM684 1681q0 53 37 92t88 39q96 0 96 -92q0 -53 -37 -93t-88 -40q-96 0 -96 94zM1079 1681q0 53 37 92t88 39q96 0 96 -92 q0 -53 -36.5 -93t-87.5 -40q-96 0 -97 94z" />
<glyph unicode="&#xdd;" horiz-adv-x="1224" d="M184 1337l13 82h489l-6 -84l-143 -37q-16 -4 -17 -16q0 -6 8 -31l156 -452q10 -31 10 -60h21l305 441q59 88 59 102q0 18 -23.5 29.5t-88.5 25.5l10 82h430l-6 -86q-92 -18 -131 -39.5t-74 -70.5l-434 -635l-70 -393q-4 -20 -4 -37q0 -51 47 -56l135 -22l-10 -80h-575v80 q133 20 165.5 41.5t45.5 85.5l63 364l-248 678q-16 45 -35.5 57.5t-91.5 30.5zM680 1608l405 264l115 -105l-24 -43l-447 -190z" />
<glyph unicode="&#xde;" horiz-adv-x="1103" d="M45 0v80q111 18 137.5 40.5t38.5 86.5l178 1005q0 6 2 16.5t3.5 17.5t1.5 14q0 33 -28 49t-112 30l13 80h516l-7 -80l-131 -24q-43 -8 -51 -53l-22 -121h186q174 0 264 -80t90 -213q0 -211 -156.5 -363.5t-435.5 -152.5h-92l-20 -123q-6 -33 -6 -53q0 -47 55 -58l96 -18 l-10 -80h-510zM461 440h76q66 0 124 16.5t114 55.5t90 119t34 190q0 117 -60.5 164t-138.5 47h-94q-41 0 -49 -49l-16 -90z" />
<glyph unicode="&#xdf;" horiz-adv-x="1206" d="M-258 -393q0 39 26.5 101.5t63.5 62.5q12 0 65.5 -13.5t69.5 -13.5q55 0 84 98.5t61 308.5q9 64 15 97l96 610h-164l9 86l137 25q35 8 43 45l6 33q27 211 173 372.5t353 161.5q137 0 210 -74.5t73 -197.5q0 -78 -35 -151t-85 -128t-101 -106.5t-86 -102.5t-35 -98 q0 -16 5 -30.5t17.5 -28t23.5 -23.5t33.5 -22.5t37 -19.5t42 -21.5t42.5 -20.5q61 -31 99 -58.5t70.5 -78.5t32.5 -115q0 -135 -113.5 -229t-291.5 -94q-150 0 -260 61q4 129 51 281h102q-8 -72 -8 -113q0 -66 36 -93.5t132 -27.5q104 0 146 35q45 41 45 115q0 41 -27 75.5 t-54.5 53t-84.5 49.5q-53 29 -81 46t-66 51t-55 76t-17 95q0 80 46 156t100 129t100 136t46 175q0 184 -168 184q-68 0 -116 -36q-117 -88 -152 -383l-121 -752q-55 -344 -177 -544t-300 -200q-94 0 -94 56z" />
<glyph unicode="&#xe0;" horiz-adv-x="1040" d="M68 266q0 319 162.5 526t398.5 207q84 0 194 -43q59 14 133 43l33 -26q-37 -106 -69 -285l-86 -475q-8 -41 -9 -68q0 -43 27 -43q31 1 129 50l35 -56q-160 -115 -258 -114q-90 0 -90 102q0 43 34 201l21 94l-16 4q-180 -401 -426 -401q-106 0 -159.5 79.5t-53.5 204.5z M252 330q0 -211 94 -211q121 0 258 241.5t162 464.5q-98 59 -199 60q-104 0 -137 -33q-70 -63 -124 -228t-54 -294zM418 1458l8 47l166 62l151 -367l-71 -51z" />
<glyph unicode="&#xe1;" horiz-adv-x="1040" d="M68 266q0 319 162.5 526t398.5 207q84 0 194 -43q59 14 133 43l33 -26q-37 -106 -69 -285l-86 -475q-8 -41 -9 -68q0 -43 27 -43q31 1 129 50l35 -56q-160 -115 -258 -114q-90 0 -90 102q0 43 34 201l21 94l-16 4q-180 -401 -426 -401q-106 0 -159.5 79.5t-53.5 204.5z M252 330q0 -211 94 -211q121 0 258 241.5t162 464.5q-98 59 -199 60q-104 0 -137 -33q-70 -63 -124 -228t-54 -294zM559 1200l287 367l160 -62l-9 -47l-368 -309z" />
<glyph unicode="&#xe2;" horiz-adv-x="1040" d="M68 266q0 319 162.5 526t398.5 207q84 0 194 -43q59 14 133 43l33 -26q-37 -106 -69 -285l-86 -475q-8 -41 -9 -68q0 -43 27 -43q31 1 129 50l35 -56q-160 -115 -258 -114q-90 0 -90 102q0 43 34 201l21 94l-16 4q-180 -401 -426 -401q-106 0 -159.5 79.5t-53.5 204.5z M252 330q0 -211 94 -211q121 0 258 241.5t162 464.5q-98 59 -199 60q-104 0 -137 -33q-70 -63 -124 -228t-54 -294zM330 1200l295 346h129l188 -346l-82 -51l-190 242l-279 -242z" />
<glyph unicode="&#xe3;" horiz-adv-x="1040" d="M68 266q0 319 162.5 526t398.5 207q84 0 194 -43q59 14 133 43l33 -26q-37 -106 -69 -285l-86 -475q-8 -41 -9 -68q0 -43 27 -43q31 1 129 50l35 -56q-160 -115 -258 -114q-90 0 -90 102q0 43 34 201l21 94l-16 4q-180 -401 -426 -401q-106 0 -159.5 79.5t-53.5 204.5z M252 330q0 -211 94 -211q121 0 258 241.5t162 464.5q-98 59 -199 60q-104 0 -137 -33q-70 -63 -124 -228t-54 -294zM311 1253q88 115 143.5 162t106.5 47q43 0 168 -43t166 -43q57 0 145 88l45 -26q-133 -219 -229 -219q-35 0 -163 43t-177 43q-78 0 -164 -86z" />
<glyph unicode="&#xe4;" horiz-adv-x="1040" d="M68 266q0 319 162.5 526t398.5 207q84 0 194 -43q59 14 133 43l33 -26q-37 -106 -69 -285l-86 -475q-8 -41 -9 -68q0 -43 27 -43q31 1 129 50l35 -56q-160 -115 -258 -114q-90 0 -90 102q0 43 34 201l21 94l-16 4q-180 -401 -426 -401q-106 0 -159.5 79.5t-53.5 204.5z M252 330q0 -211 94 -211q121 0 258 241.5t162 464.5q-98 59 -199 60q-104 0 -137 -33q-70 -63 -124 -228t-54 -294zM379 1323q0 53 37 92t88 39q96 0 96 -92q0 -53 -38 -93t-89 -40q-94 0 -94 94zM774 1323q0 53 37 92t88 39q96 0 96 -92q0 -53 -38 -93t-89 -40 q-94 0 -94 94z" />
<glyph unicode="&#xe5;" horiz-adv-x="1040" d="M68 266q0 319 162.5 526t398.5 207q84 0 194 -43q59 14 133 43l33 -26q-37 -106 -69 -285l-86 -475q-8 -41 -9 -68q0 -43 27 -43q31 1 129 50l35 -56q-160 -115 -258 -114q-90 0 -90 102q0 43 34 201l21 94l-16 4q-180 -401 -426 -401q-106 0 -159.5 79.5t-53.5 204.5z M252 330q0 -211 94 -211q121 0 258 241.5t162 464.5q-98 59 -199 60q-104 0 -137 -33q-70 -63 -124 -228t-54 -294zM469 1321q0 100 63.5 162.5t172.5 62.5q88 0 134 -44t46 -122q0 -98 -63.5 -161.5t-170.5 -63.5q-182 0 -182 166zM571 1335q1 -92 95 -92q51 0 82.5 36 t31.5 89q0 90 -90 90q-53 0 -86 -34.5t-33 -88.5z" />
<glyph unicode="&#xe6;" horiz-adv-x="1435" d="M68 266q0 319 156.5 526t383.5 207q80 0 189 -43q41 20 98 43l33 -26l-47 -109l8 -4q143 139 319 139q92 0 149.5 -44t57.5 -136q0 -82 -50 -148.5t-136 -111.5t-178.5 -73.5t-196.5 -45.5q-4 -25 -4 -69q0 -131 45 -185.5t147 -54.5q111 0 267 109l49 -54 q-78 -84 -182.5 -144t-202.5 -60q-113 0 -196 87t-83 261v49l-14 4q-174 -401 -408 -401q-102 0 -153 79.5t-51 204.5zM252 330q0 -211 90 -211q76 0 165 116.5t153.5 282.5t78.5 307q-94 59 -188 60q-98 0 -131 -33q-66 -66 -117 -229.5t-51 -292.5zM864 528 q174 41 272.5 107.5t98.5 150.5q0 41 -23.5 70t-78.5 29q-72 0 -123 -43q-41 -39 -84.5 -130.5t-61.5 -183.5z" />
<glyph unicode="&#xe7;" horiz-adv-x="804" d="M68 330q0 283 156.5 476t377.5 193q117 0 203 -22q0 -113 -41 -262h-109q0 16 2 40.5t2 41.5q0 35 -5 50t-28.5 26.5t-74.5 11.5q-41 0 -87 -14.5t-65 -28.5q-49 -57 -96 -209t-47 -262q0 -131 38 -185.5t122 -54.5q111 0 266 109l49 -54q-158 -166 -323 -196l-39 -86 q20 4 57 4q74 0 113 -30t39 -81q0 -92 -109 -162.5t-289 -78.5l4 63q217 31 217 131q0 66 -82 66q-43 0 -88 -21l-12 23l80 170q-98 16 -164.5 102t-66.5 240z" />
<glyph unicode="&#xe8;" horiz-adv-x="808" d="M68 330q0 281 154.5 475t369.5 194q88 0 142 -44t54 -136q0 -82 -48 -148.5t-129 -111.5t-169 -73.5t-188 -45.5q-4 -25 -4 -69q0 -131 39 -185.5t127 -54.5q110 0 266 109l49 -54q-78 -84 -182.5 -144t-202.5 -60q-111 0 -194.5 87t-83.5 261zM264 528q162 41 253 107.5 t91 150.5q0 98 -94 99q-66 0 -115 -43q-39 -41 -79 -131.5t-56 -182.5zM352 1458l8 47l166 62l152 -367l-72 -51z" />
<glyph unicode="&#xe9;" horiz-adv-x="808" d="M68 330q0 281 154.5 475t369.5 194q88 0 142 -44t54 -136q0 -82 -48 -148.5t-129 -111.5t-169 -73.5t-188 -45.5q-4 -25 -4 -69q0 -131 39 -185.5t127 -54.5q110 0 266 109l49 -54q-78 -84 -182.5 -144t-202.5 -60q-111 0 -194.5 87t-83.5 261zM264 528q162 41 253 107.5 t91 150.5q0 98 -94 99q-66 0 -115 -43q-39 -41 -79 -131.5t-56 -182.5zM494 1200l286 367l160 -62l-8 -47l-369 -309z" />
<glyph unicode="&#xea;" horiz-adv-x="808" d="M68 330q0 281 154.5 475t369.5 194q88 0 142 -44t54 -136q0 -82 -48 -148.5t-129 -111.5t-169 -73.5t-188 -45.5q-4 -25 -4 -69q0 -131 39 -185.5t127 -54.5q110 0 266 109l49 -54q-78 -84 -182.5 -144t-202.5 -60q-111 0 -194.5 87t-83.5 261zM264 528q162 41 253 107.5 t91 150.5q0 98 -94 99q-66 0 -115 -43q-39 -41 -79 -131.5t-56 -182.5zM264 1200l295 346h129l189 -346l-82 -51l-191 242l-278 -242z" />
<glyph unicode="&#xeb;" horiz-adv-x="808" d="M68 330q0 281 154.5 475t369.5 194q88 0 142 -44t54 -136q0 -82 -48 -148.5t-129 -111.5t-169 -73.5t-188 -45.5q-4 -25 -4 -69q0 -131 39 -185.5t127 -54.5q110 0 266 109l49 -54q-78 -84 -182.5 -144t-202.5 -60q-111 0 -194.5 87t-83.5 261zM264 528q162 41 253 107.5 t91 150.5q0 98 -94 99q-66 0 -115 -43q-39 -41 -79 -131.5t-56 -182.5zM313 1323q0 53 37 92t88 39q96 0 97 -92q0 -53 -38 -93t-89 -40q-94 0 -95 94zM709 1323q0 53 36.5 92t88.5 39q96 0 96 -92q0 -53 -38 -93t-89 -40q-94 0 -94 94z" />
<glyph unicode="&#xec;" horiz-adv-x="518" d="M86 897l10 66q231 29 324 28l18 -20q-4 -84 -22 -187l-101 -538q-12 -86 -12 -94q0 -49 33 -50q25 1 123 50l35 -56q-129 -115 -256 -114q-111 0 -111 129q0 49 23 174l90 499q4 20 4 35q0 29 -35 45.5t-123 32.5zM162 1458l8 47l166 62l151 -367l-71 -51z" />
<glyph unicode="&#xed;" horiz-adv-x="518" d="M86 897l10 66q231 29 324 28l18 -20q-4 -84 -22 -187l-101 -538q-12 -86 -12 -94q0 -49 33 -50q25 1 123 50l35 -56q-129 -115 -256 -114q-111 0 -111 129q0 49 23 174l90 499q4 20 4 35q0 29 -35 45.5t-123 32.5zM303 1200l287 367l160 -62l-9 -47l-368 -309z" />
<glyph unicode="&#xee;" horiz-adv-x="518" d="M74 1200l295 346h129l188 -346l-82 -51l-190 242l-279 -242zM86 897l10 66q231 29 324 28l18 -20q-4 -84 -22 -187l-101 -538q-12 -86 -12 -94q0 -49 33 -50q25 1 123 50l35 -56q-129 -115 -256 -114q-111 0 -111 129q0 49 23 174l90 499q4 20 4 35q0 29 -35 45.5 t-123 32.5z" />
<glyph unicode="&#xef;" horiz-adv-x="518" d="M45 1323q0 53 37 92t88 39q96 0 96 -92q0 -53 -38 -93t-89 -40q-94 0 -94 94zM86 897l10 66q231 29 324 28l18 -20q-4 -84 -22 -187l-101 -538q-12 -86 -12 -94q0 -49 33 -50q25 1 123 50l35 -56q-129 -115 -256 -114q-111 0 -111 129q0 49 23 174l90 499q4 20 4 35 q0 29 -35 45.5t-123 32.5zM440 1323q0 53 37 92t88 39q96 0 97 -92q0 -53 -38 -93t-89 -40q-94 0 -95 94z" />
<glyph unicode="&#xf0;" horiz-adv-x="1040" d="M78 387q0 272 155.5 442t417.5 170q94 0 172 -32q-25 223 -127 381l-268 -103l-47 80l262 100q-41 55 -100 109l116 57q63 -53 117 -114l279 108l51 -82l-272 -102q88 -131 139 -317.5t51 -350.5q0 -367 -156.5 -559t-431.5 -192q-172 0 -265 110.5t-93 294.5zM276 395 q0 -137 53.5 -221t157.5 -84q140 1 201 62q53 53 90 177t37 257q0 137 -54 221t-159 84q-139 0 -201 -62q-53 -53 -89 -177t-36 -257z" />
<glyph unicode="&#xf1;" horiz-adv-x="1114" d="M82 8q37 115 68 277l88 487q4 20 4 35q0 29 -35 45t-123 33l10 65q231 29 324 29l18 -21q-45 -150 -88 -356l12 -4q90 186 224.5 293.5t273.5 107.5q172 0 172 -165q0 -25 -9 -71t-18.5 -85t-30 -118t-30.5 -118q-68 -270 -68 -301q0 -39 33 -39q27 1 125 50l35 -56 q-160 -115 -260 -114q-55 0 -81 38.5t-26 90.5q0 80 121 522q29 109 29 162q0 68 -66 67q-76 0 -162.5 -67.5t-162.5 -179t-126 -273.5t-50 -332q-92 -4 -168 -28zM332 1253q88 115 143 162t107 47q43 0 167.5 -43t165.5 -43q58 0 146 88l45 -26q-133 -219 -229 -219 q-35 0 -163 43t-177 43q-78 0 -164 -86z" />
<glyph unicode="&#xf2;" horiz-adv-x="972" d="M68 328q0 115 34.5 230.5t98 215.5t170 162.5t235.5 62.5q158 0 242 -92t84 -258q0 -115 -35 -230.5t-100.5 -214t-171 -160.5t-234.5 -62q-158 0 -240.5 91t-82.5 255zM260 352q0 -123 45 -192.5t137 -69.5t160 53q41 33 89 186.5t48 299.5q0 262 -184 262 q-90 0 -158 -53q-41 -33 -89 -186.5t-48 -299.5zM414 1458l8 47l166 62l151 -367l-71 -51z" />
<glyph unicode="&#xf3;" horiz-adv-x="972" d="M68 328q0 115 34.5 230.5t98 215.5t170 162.5t235.5 62.5q158 0 242 -92t84 -258q0 -115 -35 -230.5t-100.5 -214t-171 -160.5t-234.5 -62q-158 0 -240.5 91t-82.5 255zM260 352q0 -123 45 -192.5t137 -69.5t160 53q41 33 89 186.5t48 299.5q0 262 -184 262 q-90 0 -158 -53q-41 -33 -89 -186.5t-48 -299.5zM555 1200l287 367l159 -62l-8 -47l-368 -309z" />
<glyph unicode="&#xf4;" horiz-adv-x="972" d="M68 328q0 115 34.5 230.5t98 215.5t170 162.5t235.5 62.5q158 0 242 -92t84 -258q0 -115 -35 -230.5t-100.5 -214t-171 -160.5t-234.5 -62q-158 0 -240.5 91t-82.5 255zM260 352q0 -123 45 -192.5t137 -69.5t160 53q41 33 89 186.5t48 299.5q0 262 -184 262 q-90 0 -158 -53q-41 -33 -89 -186.5t-48 -299.5zM326 1200l295 346h129l188 -346l-82 -51l-190 242l-279 -242z" />
<glyph unicode="&#xf5;" horiz-adv-x="972" d="M68 328q0 115 34.5 230.5t98 215.5t170 162.5t235.5 62.5q158 0 242 -92t84 -258q0 -115 -35 -230.5t-100.5 -214t-171 -160.5t-234.5 -62q-158 0 -240.5 91t-82.5 255zM260 352q0 -123 45 -192.5t137 -69.5t160 53q41 33 89 186.5t48 299.5q0 262 -184 262 q-90 0 -158 -53q-41 -33 -89 -186.5t-48 -299.5zM307 1253q88 115 143.5 162t106.5 47q43 0 168 -43t166 -43q57 0 145 88l45 -26q-133 -219 -229 -219q-35 0 -163 43t-177 43q-78 0 -164 -86z" />
<glyph unicode="&#xf6;" horiz-adv-x="972" d="M68 328q0 115 34.5 230.5t98 215.5t170 162.5t235.5 62.5q158 0 242 -92t84 -258q0 -115 -35 -230.5t-100.5 -214t-171 -160.5t-234.5 -62q-158 0 -240.5 91t-82.5 255zM260 352q0 -123 45 -192.5t137 -69.5t160 53q41 33 89 186.5t48 299.5q0 262 -184 262 q-90 0 -158 -53q-41 -33 -89 -186.5t-48 -299.5zM375 1323q0 53 37 92t88 39q96 0 96 -92q0 -53 -38 -93t-89 -40q-94 0 -94 94zM770 1323q0 53 37 92t88 39q96 0 96 -92q0 -53 -38 -93t-89 -40q-94 0 -94 94z" />
<glyph unicode="&#xf7;" horiz-adv-x="872" d="M76 500v108h770v-108h-770zM330 252q0 47 32.5 82t83.5 35q121 0 121 -117q0 -49 -34 -85t-87 -36q-51 0 -83.5 31t-32.5 90zM330 891q0 47 32.5 82t83.5 35q121 0 121 -117q0 -49 -34 -85t-87 -36q-51 0 -83.5 30.5t-32.5 90.5z" />
<glyph unicode="&#xf8;" horiz-adv-x="972" d="M59 -94l101 157q-92 88 -92 265q0 115 34.5 230.5t98 215.5t170 162.5t235.5 62.5q72 0 133 -22l123 194l105 -41l-133 -208q98 -94 98 -273q0 -115 -35 -230.5t-100.5 -214t-171 -160.5t-234.5 -62q-78 0 -141 22l-88 -139zM260 352q0 -71 10 -112l392 616 q-41 35 -107 35q-90 0 -158 -53q-41 -33 -89 -186.5t-48 -299.5zM330 129q45 -39 112 -39q92 0 160 53q41 33 89 186.5t48 299.5q0 72 -14 121z" />
<glyph unicode="&#xf9;" horiz-adv-x="1067" d="M68 897l10 66q231 29 323 28l19 -20q-4 -102 -23 -187l-80 -389q-27 -133 -26 -172q0 -98 74 -98q61 0 137 66.5t137 166.5q78 125 127 288t49 325q94 4 168 28l33 -26q-37 -115 -68 -277l-88 -483q-8 -41 -8 -68q0 -43 27 -43q31 1 129 50l34 -56q-160 -115 -260 -114 q-88 0 -88 102q0 43 35 201l21 94l-13 4q-82 -180 -208 -290.5t-255 -110.5q-168 0 -168 200q0 68 27 187l88 415q4 20 4 35q0 29 -34.5 45.5t-122.5 32.5zM444 1458l9 47l165 62l152 -367l-72 -51z" />
<glyph unicode="&#xfa;" horiz-adv-x="1067" d="M68 897l10 66q231 29 323 28l19 -20q-4 -102 -23 -187l-80 -389q-27 -133 -26 -172q0 -98 74 -98q61 0 137 66.5t137 166.5q78 125 127 288t49 325q94 4 168 28l33 -26q-37 -115 -68 -277l-88 -483q-8 -41 -8 -68q0 -43 27 -43q31 1 129 50l34 -56q-160 -115 -260 -114 q-88 0 -88 102q0 43 35 201l21 94l-13 4q-82 -180 -208 -290.5t-255 -110.5q-168 0 -168 200q0 68 27 187l88 415q4 20 4 35q0 29 -34.5 45.5t-122.5 32.5zM463 1200l287 367l159 -62l-8 -47l-369 -309z" />
<glyph unicode="&#xfb;" horiz-adv-x="1067" d="M68 897l10 66q231 29 323 28l19 -20q-4 -102 -23 -187l-80 -389q-27 -133 -26 -172q0 -98 74 -98q61 0 137 66.5t137 166.5q78 125 127 288t49 325q94 4 168 28l33 -26q-37 -115 -68 -277l-88 -483q-8 -41 -8 -68q0 -43 27 -43q31 1 129 50l34 -56q-160 -115 -260 -114 q-88 0 -88 102q0 43 35 201l21 94l-13 4q-82 -180 -208 -290.5t-255 -110.5q-168 0 -168 200q0 68 27 187l88 415q4 20 4 35q0 29 -34.5 45.5t-122.5 32.5zM356 1200l295 346h129l189 -346l-82 -51l-191 242l-278 -242z" />
<glyph unicode="&#xfc;" horiz-adv-x="1067" d="M68 897l10 66q231 29 323 28l19 -20q-4 -102 -23 -187l-80 -389q-27 -133 -26 -172q0 -98 74 -98q61 0 137 66.5t137 166.5q78 125 127 288t49 325q94 4 168 28l33 -26q-37 -115 -68 -277l-88 -483q-8 -41 -8 -68q0 -43 27 -43q31 1 129 50l34 -56q-160 -115 -260 -114 q-88 0 -88 102q0 43 35 201l21 94l-13 4q-82 -180 -208 -290.5t-255 -110.5q-168 0 -168 200q0 68 27 187l88 415q4 20 4 35q0 29 -34.5 45.5t-122.5 32.5zM385 1323q0 53 37 92t88 39q96 0 96 -92q0 -53 -38 -93t-89 -40q-94 0 -94 94zM780 1323q0 53 37 92t88 39 q96 0 96 -92q0 -53 -38 -93t-89 -40q-94 0 -94 94z" />
<glyph unicode="&#xfd;" horiz-adv-x="995" d="M-172 -401q0 55 31.5 117.5t60.5 62.5q20 0 69.5 -12.5t61.5 -12.5q117 1 330 232l-170 819q-12 55 -35.5 68.5t-126.5 23.5l10 66q221 29 287 28l19 -20l147 -813l8 -2q129 172 215 352t86 295q0 37 -24.5 57.5t-50 25.5t-84.5 11l10 66q213 29 286 28l19 -20 q12 -23 12 -74q0 -152 -118.5 -386.5t-282.5 -444t-352.5 -362.5t-313.5 -153q-94 0 -94 48zM485 1200l287 367l160 -62l-8 -47l-369 -309z" />
<glyph unicode="&#xfe;" horiz-adv-x="1005" d="M-43 -422q37 115 68 277l290 1519q4 20 4 35q0 29 -34.5 45t-122.5 33l10 65q231 29 324 29l18 -20q-4 -84 -22 -187l-91 -450q-16 -82 -69 -281l-10 -41l16 -4l6 14q176 387 420 387q106 0 159.5 -79.5t53.5 -204.5q0 -319 -163 -526t-398 -207q-78 0 -201 45 q-43 -264 -43 -447q-114 -4 -182 -29zM279 156q98 -59 198 -60q104 0 137 33q70 63 124.5 228t54.5 294q0 211 -95 211q-121 0 -257.5 -241.5t-161.5 -464.5z" />
<glyph unicode="&#xff;" horiz-adv-x="995" d="M-172 -401q0 55 31.5 117.5t60.5 62.5q20 0 69.5 -12.5t61.5 -12.5q117 1 330 232l-170 819q-12 55 -35.5 68.5t-126.5 23.5l10 66q221 29 287 28l19 -20l147 -813l8 -2q129 172 215 352t86 295q0 37 -24.5 57.5t-50 25.5t-84.5 11l10 66q213 29 286 28l19 -20 q12 -23 12 -74q0 -152 -118.5 -386.5t-282.5 -444t-352.5 -362.5t-313.5 -153q-94 0 -94 48zM305 1323q0 53 37 92t88 39q96 0 96 -92q0 -53 -38 -93t-89 -40q-94 0 -94 94zM700 1323q0 53 37 92t88 39q96 0 97 -92q0 -53 -38 -93t-89 -40q-94 0 -95 94z" />
<glyph unicode="&#x100;" horiz-adv-x="1370" d="M-37 0v82q82 20 102.5 32.5t43.5 55.5l694 1268h170l227 -1307q6 -31 113 -51l-10 -80h-492v82q90 18 130 34.5t40 47.5q0 18 -2 29l-39 266h-530l-162 -295q-14 -29 -15 -33q0 -10 11 -12l131 -39l-10 -80h-402zM467 567h457l-95 576q-2 25 -2 59h-20zM680 1647l22 122 h510l-22 -122h-510z" />
<glyph unicode="&#x101;" horiz-adv-x="1040" d="M68 266q0 319 162.5 526t398.5 207q84 0 194 -43q59 14 133 43l33 -26q-37 -106 -69 -285l-86 -475q-8 -41 -9 -68q0 -43 27 -43q31 1 129 50l35 -56q-160 -115 -258 -114q-90 0 -90 102q0 43 34 201l21 94l-16 4q-180 -401 -426 -401q-106 0 -159.5 79.5t-53.5 204.5z M252 330q0 -211 94 -211q121 0 258 241.5t162 464.5q-98 59 -199 60q-104 0 -137 -33q-70 -63 -124 -228t-54 -294zM420 1315l22 123h510l-22 -123h-510z" />
<glyph unicode="&#x102;" horiz-adv-x="1370" d="M-37 0v82q82 20 102.5 32.5t43.5 55.5l694 1268h170l227 -1307q6 -31 113 -51l-10 -80h-492v82q90 18 130 34.5t40 47.5q0 18 -2 29l-39 266h-530l-162 -295q-14 -29 -15 -33q0 -10 11 -12l131 -39l-10 -80h-402zM467 567h457l-95 576q-2 25 -2 59h-20zM680 1794 q0 33 2 49h76q6 -147 201 -147t258 147h75q-31 -127 -122 -207t-236 -80q-129 0 -191.5 66t-62.5 172z" />
<glyph unicode="&#x103;" horiz-adv-x="1040" d="M68 266q0 319 162.5 526t398.5 207q84 0 194 -43q59 14 133 43l33 -26q-37 -106 -69 -285l-86 -475q-8 -41 -9 -68q0 -43 27 -43q31 1 129 50l35 -56q-160 -115 -258 -114q-90 0 -90 102q0 43 34 201l21 94l-16 4q-180 -401 -426 -401q-106 0 -159.5 79.5t-53.5 204.5z M252 330q0 -211 94 -211q121 0 258 241.5t162 464.5q-98 59 -199 60q-104 0 -137 -33q-70 -63 -124 -228t-54 -294zM383 1415q0 18 4 60h76q4 -174 198.5 -174t260.5 174h75q-33 -137 -125 -225.5t-237 -88.5q-129 0 -190.5 69.5t-61.5 184.5z" />
<glyph unicode="&#x104;" horiz-adv-x="1370" d="M-37 0v82q82 20 102.5 32.5t43.5 55.5l694 1268h170l227 -1307q6 -31 113 -51l-10 -80h-80q-133 0 -233.5 -70.5t-100.5 -167.5q0 -43 26.5 -65.5t69.5 -22.5q64 1 125 21l18 -41q-123 -94 -243 -94q-72 0 -121 44t-49 113q0 78 65.5 157t177.5 126h-147v82 q90 18 130 34.5t40 47.5q0 18 -2 29l-39 266h-530l-162 -295q-14 -29 -15 -33q0 -10 11 -12l131 -39l-10 -80h-402zM467 567h457l-95 576q-2 25 -2 59h-20z" />
<glyph unicode="&#x105;" horiz-adv-x="1040" d="M68 266q0 319 162.5 526t398.5 207q84 0 194 -43q59 14 133 43l33 -26q-37 -106 -69 -285l-86 -475q-8 -41 -9 -68q0 -43 27 -43q31 0 129 50l35 -56q-20 -14 -70.5 -47t-81 -56.5t-66.5 -58t-54.5 -76.5t-18.5 -89q0 -45 25.5 -70t68.5 -25q66 1 125 21l19 -41 q-123 -94 -244 -94q-70 0 -118 46t-48 124q0 135 166 258q-51 18 -51 96q0 43 34 201l21 94l-16 4q-180 -401 -426 -401q-106 0 -159.5 79.5t-53.5 204.5zM252 330q0 -211 94 -211q121 0 258 241.5t162 464.5q-98 59 -199 60q-104 0 -137 -33q-70 -63 -124 -228t-54 -294z " />
<glyph unicode="&#x106;" horiz-adv-x="1204" d="M121 561q0 117 23.5 231.5t81 233.5t143.5 208t224 146.5t310 57.5q104 0 218 -20.5t147 -37.5q0 -135 -41 -344l-119 -16q-12 233 -43 262q-14 14 -80.5 30.5t-132.5 16.5q-125 0 -222.5 -60.5t-156.5 -165t-89 -234.5t-30 -277q0 -248 108.5 -372t266.5 -124 q70 0 132.5 18.5t80.5 32.5q29 19 107 263l112 -4q-16 -174 -49 -332q-68 -35 -196 -63.5t-257 -28.5q-256 0 -397 163.5t-141 415.5zM762 1608l405 264l115 -105l-25 -43l-446 -190z" />
<glyph unicode="&#x107;" horiz-adv-x="804" d="M68 330q0 283 156.5 476t377.5 193q117 0 203 -22q0 -113 -41 -262h-109q0 16 2 40.5t2 41.5q0 35 -5 50t-28.5 26.5t-74.5 11.5q-41 0 -87 -14.5t-65 -28.5q-49 -57 -96 -209t-47 -262q0 -131 38 -185.5t122 -54.5q110 0 266 109l49 -54q-78 -84 -182.5 -144t-202.5 -60 q-111 0 -194.5 87t-83.5 261zM508 1200l287 367l159 -62l-8 -47l-368 -309z" />
<glyph unicode="&#x108;" horiz-adv-x="1204" d="M121 561q0 117 23.5 231.5t81 233.5t143.5 208t224 146.5t310 57.5q104 0 218 -20.5t147 -37.5q0 -135 -41 -344l-119 -16q-12 233 -43 262q-14 14 -80.5 30.5t-132.5 16.5q-125 0 -222.5 -60.5t-156.5 -165t-89 -234.5t-30 -277q0 -248 108.5 -372t266.5 -124 q70 0 132.5 18.5t80.5 32.5q29 19 107 263l112 -4q-16 -174 -49 -332q-68 -35 -196 -63.5t-257 -28.5q-256 0 -397 163.5t-141 415.5zM606 1587l320 285h114l238 -285l-61 -53l-250 186l-320 -186z" />
<glyph unicode="&#x109;" horiz-adv-x="804" d="M68 330q0 283 156.5 476t377.5 193q117 0 203 -22q0 -113 -41 -262h-109q0 16 2 40.5t2 41.5q0 35 -5 50t-28.5 26.5t-74.5 11.5q-41 0 -87 -14.5t-65 -28.5q-49 -57 -96 -209t-47 -262q0 -131 38 -185.5t122 -54.5q110 0 266 109l49 -54q-78 -84 -182.5 -144t-202.5 -60 q-111 0 -194.5 87t-83.5 261zM279 1200l294 346h129l189 -346l-82 -51l-191 242l-278 -242z" />
<glyph unicode="&#x10a;" horiz-adv-x="1204" d="M121 561q0 117 23.5 231.5t81 233.5t143.5 208t224 146.5t310 57.5q104 0 218 -20.5t147 -37.5q0 -135 -41 -344l-119 -16q-12 233 -43 262q-14 14 -80.5 30.5t-132.5 16.5q-125 0 -222.5 -60.5t-156.5 -165t-89 -234.5t-30 -277q0 -248 108.5 -372t266.5 -124 q70 0 132.5 18.5t80.5 32.5q29 19 107 263l112 -4q-16 -174 -49 -332q-68 -35 -196 -63.5t-257 -28.5q-256 0 -397 163.5t-141 415.5zM844 1718q0 47 29.5 80t82.5 33q51 0 84 -28t33 -85q0 -47 -32.5 -80.5t-86.5 -33.5q-111 0 -110 114z" />
<glyph unicode="&#x10b;" horiz-adv-x="804" d="M68 330q0 283 156.5 476t377.5 193q117 0 203 -22q0 -113 -41 -262h-109q0 16 2 40.5t2 41.5q0 35 -5 50t-28.5 26.5t-74.5 11.5q-41 0 -87 -14.5t-65 -28.5q-49 -57 -96 -209t-47 -262q0 -131 38 -185.5t122 -54.5q110 0 266 109l49 -54q-78 -84 -182.5 -144t-202.5 -60 q-111 0 -194.5 87t-83.5 261zM518 1372q0 47 30 80t83 33q51 0 84 -28t33 -85q0 -47 -33 -81t-86 -34q-111 0 -111 115z" />
<glyph unicode="&#x10c;" horiz-adv-x="1204" d="M121 561q0 117 23.5 231.5t81 233.5t143.5 208t224 146.5t310 57.5q104 0 218 -20.5t147 -37.5q0 -135 -41 -344l-119 -16q-12 233 -43 262q-14 14 -80.5 30.5t-132.5 16.5q-125 0 -222.5 -60.5t-156.5 -165t-89 -234.5t-30 -277q0 -248 108.5 -372t266.5 -124 q70 0 132.5 18.5t80.5 32.5q29 19 107 263l112 -4q-16 -174 -49 -332q-68 -35 -196 -63.5t-257 -28.5q-256 0 -397 163.5t-141 415.5zM608 1825l62 53l250 -186l319 186l41 -53l-322 -285h-114z" />
<glyph unicode="&#x10d;" horiz-adv-x="804" d="M68 330q0 283 156.5 476t377.5 193q117 0 203 -22q0 -113 -41 -262h-109q0 16 2 40.5t2 41.5q0 35 -5 50t-28.5 26.5t-74.5 11.5q-41 0 -87 -14.5t-65 -28.5q-49 -57 -96 -209t-47 -262q0 -131 38 -185.5t122 -54.5q110 0 266 109l49 -54q-78 -84 -182.5 -144t-202.5 -60 q-111 0 -194.5 87t-83.5 261zM324 1505l82 51l190 -241l278 241l62 -51l-285 -346h-129z" />
<glyph unicode="&#x10e;" horiz-adv-x="1413" d="M45 0v80q111 18 137.5 40.5t38.5 86.5l178 1005q6 31 7 48q0 33 -28 49t-114 30l12 80h596q150 0 262.5 -46t177 -125t96.5 -174t32 -206q0 -158 -47 -306t-140.5 -277t-253 -207t-362.5 -78h-592zM416 178q0 -33 35 -41q137 -29 208 -28q268 0 407.5 200.5t139.5 519.5 q0 131 -38 230.5t-99 151t-126.5 76t-133.5 24.5h-195l-192 -1088q-6 -43 -6 -45zM598 1825l61 53l250 -186l320 186l41 -53l-322 -285h-114z" />
<glyph unicode="&#x10f;" horiz-adv-x="1046" d="M68 266q0 319 162.5 526t398.5 207q72 0 174 -32l78 407q4 20 4 35q0 29 -35 45t-123 33l10 65q231 29 324 29l18 -20q-4 -84 -22 -187l-223 -1161q-8 -41 -9 -68q0 -43 27 -43q31 1 129 50l35 -56q-160 -115 -258 -114q-90 0 -90 102q0 43 34 201l21 94l-16 4 q-180 -401 -426 -401q-106 0 -159.5 79.5t-53.5 204.5zM252 330q0 -211 94 -211q121 0 258 241.5t162 464.5q-98 59 -199 60q-104 0 -137 -33q-70 -63 -124 -228t-54 -294zM1124 1210q74 178 80 330l182 45l19 -39q-58 -198 -201 -364z" />
<glyph unicode="&#x110;" horiz-adv-x="1413" d="M45 0v80q111 18 137.5 40.5t38.5 86.5l178 1005q6 31 7 48q0 33 -28 49t-114 30l12 80h596q150 0 262.5 -46t177 -125t96.5 -174t32 -206q0 -158 -47 -306t-140.5 -277t-253 -207t-362.5 -78h-592zM416 178q0 -33 35 -41q137 -29 208 -28q268 0 407.5 200.5t139.5 519.5 q0 131 -38 230.5t-99 151t-126.5 76t-133.5 24.5h-195l-192 -1088q-6 -43 -6 -45zM670 1647l22 122h510l-22 -122h-510z" />
<glyph unicode="&#x111;" horiz-adv-x="1046" d="M68 266q0 319 162.5 526t398.5 207q72 0 174 -32l53 274h-260l20 109h261l4 24q4 20 4 35q0 29 -35 45t-123 33l10 65q231 29 324 29l18 -20q-4 -84 -22 -187l-4 -24h141l-20 -109h-142l-198 -1028q-8 -41 -9 -68q0 -43 27 -43q31 1 129 50l35 -56q-160 -115 -258 -114 q-90 0 -90 102q0 43 34 201l21 94l-16 4q-180 -401 -426 -401q-106 0 -159.5 79.5t-53.5 204.5zM252 330q0 -211 94 -211q121 0 258 241.5t162 464.5q-98 59 -199 60q-104 0 -137 -33q-70 -63 -124 -228t-54 -294z" />
<glyph unicode="&#x112;" horiz-adv-x="1212" d="M41 0v80q111 18 139.5 40.5t40.5 86.5l176 1005q6 29 6 48q0 33 -27.5 49t-111.5 30l12 80h969q0 -74 -16 -162q-16 -92 -31 -157l-121 -15q-2 141 -8 177t-22 38q-49 6 -123 9l-310 6l-96 -551h307q8 0 17.5 9t27 42t45.5 94l64 -6q-35 -193 -43 -405l-76 -13 q-12 113 -19 141.5t-22 28.5h-321l-97 -551l183 2q76 2 132 4.5t85.5 6.5t44 7t24.5 7l11 4q37 10 131 242l112 -10q-4 -35 -16 -105q-21 -112 -70 -262h-997zM588 1647l22 122h510l-22 -122h-510z" />
<glyph unicode="&#x113;" horiz-adv-x="808" d="M68 330q0 281 154.5 475t369.5 194q88 0 142 -44t54 -136q0 -82 -48 -148.5t-129 -111.5t-169 -73.5t-188 -45.5q-4 -25 -4 -69q0 -131 39 -185.5t127 -54.5q110 0 266 109l49 -54q-78 -84 -182.5 -144t-202.5 -60q-111 0 -194.5 87t-83.5 261zM264 528q162 41 253 107.5 t91 150.5q0 98 -94 99q-66 0 -115 -43q-39 -41 -79 -131.5t-56 -182.5zM354 1315l23 123h510l-23 -123h-510z" />
<glyph unicode="&#x116;" horiz-adv-x="1212" d="M41 0v80q111 18 139.5 40.5t40.5 86.5l176 1005q6 29 6 48q0 33 -27.5 49t-111.5 30l12 80h969q0 -74 -16 -162q-16 -92 -31 -157l-121 -15q-2 141 -8 177t-22 38q-49 6 -123 9l-310 6l-96 -551h307q8 0 17.5 9t27 42t45.5 94l64 -6q-35 -193 -43 -405l-76 -13 q-12 113 -19 141.5t-22 28.5h-321l-97 -551l183 2q76 2 132 4.5t85.5 6.5t44 7t24.5 7l11 4q37 10 131 242l112 -10q-4 -35 -16 -105q-21 -112 -70 -262h-997zM723 1718q0 47 29.5 80t83.5 33q51 0 83.5 -28t32.5 -85q0 -47 -32.5 -80.5t-85.5 -33.5q-111 0 -111 114z" />
<glyph unicode="&#x117;" horiz-adv-x="808" d="M68 330q0 281 154.5 475t369.5 194q88 0 142 -44t54 -136q0 -82 -48 -148.5t-129 -111.5t-169 -73.5t-188 -45.5q-4 -25 -4 -69q0 -131 39 -185.5t127 -54.5q110 0 266 109l49 -54q-78 -84 -182.5 -144t-202.5 -60q-111 0 -194.5 87t-83.5 261zM264 528q162 41 253 107.5 t91 150.5q0 98 -94 99q-66 0 -115 -43q-39 -41 -79 -131.5t-56 -182.5zM504 1372q0 47 29.5 80t82.5 33q51 0 84 -28t33 -85q0 -47 -32.5 -81t-86.5 -34q-111 0 -110 115z" />
<glyph unicode="&#x118;" horiz-adv-x="1212" d="M43 0v80q111 18 138.5 40.5t39.5 86.5l176 1005q6 29 6 48q0 33 -27.5 49t-111.5 30l12 80h969q0 -74 -16 -162q-16 -92 -31 -157l-121 -15q-2 141 -8 177t-22 38q-49 6 -123 9l-310 6l-96 -551h307q8 0 17.5 9t27 42t45.5 94l64 -6q-35 -193 -43 -405l-76 -13 q-12 113 -19 141.5t-22 28.5h-321l-97 -549h183q76 2 132 4.5t85.5 6.5t44 7t24.5 7l11 4q37 10 131 242l112 -10q-4 -35 -16 -105q-20 -113 -70 -262q-133 -4 -233 -72.5t-100 -165.5q0 -43 26.5 -65.5t69.5 -22.5q64 1 125 21l18 -41q-123 -94 -244 -94q-72 0 -121 44 t-49 113q0 78 66 157t178 126h-731z" />
<glyph unicode="&#x119;" horiz-adv-x="808" d="M68 330q0 281 154.5 475t369.5 194q88 0 142 -44t54 -136q0 -82 -48 -148.5t-129 -111.5t-169 -73.5t-188 -45.5q-4 -25 -4 -69q0 -131 39 -185.5t127 -54.5q111 0 266 109l49 -54q-33 -35 -119 -98t-106 -80q-143 -121 -144 -239q0 -45 26 -70t69 -25q66 1 125 21 l18 -41q-123 -94 -244 -94q-70 0 -118 46t-48 124q0 133 146 252q-109 6 -188.5 92t-79.5 256zM264 528q162 41 253 107.5t91 150.5q0 98 -94 99q-66 0 -115 -43q-39 -41 -78.5 -131t-56.5 -183z" />
<glyph unicode="&#x11a;" horiz-adv-x="1212" d="M41 0v80q111 18 139.5 40.5t40.5 86.5l176 1005q6 29 6 48q0 33 -27.5 49t-111.5 30l12 80h969q0 -74 -16 -162q-16 -92 -31 -157l-121 -15q-2 141 -8 177t-22 38q-49 6 -123 9l-310 6l-96 -551h307q8 0 17.5 9t27 42t45.5 94l64 -6q-35 -193 -43 -405l-76 -13 q-12 113 -19 141.5t-22 28.5h-321l-97 -551l183 2q76 2 132 4.5t85.5 6.5t44 7t24.5 7l11 4q37 10 131 242l112 -10q-4 -35 -16 -105q-21 -112 -70 -262h-997zM516 1825l62 53l249 -186l320 186l41 -53l-322 -285h-114z" />
<glyph unicode="&#x11b;" horiz-adv-x="808" d="M68 330q0 281 154.5 475t369.5 194q88 0 142 -44t54 -136q0 -82 -48 -148.5t-129 -111.5t-169 -73.5t-188 -45.5q-4 -25 -4 -69q0 -131 39 -185.5t127 -54.5q110 0 266 109l49 -54q-78 -84 -182.5 -144t-202.5 -60q-111 0 -194.5 87t-83.5 261zM264 528q162 41 253 107.5 t91 150.5q0 98 -94 99q-66 0 -115 -43q-39 -41 -79 -131.5t-56 -182.5zM309 1505l82 51l191 -241l278 241l62 -51l-285 -346h-129z" />
<glyph unicode="&#x11c;" horiz-adv-x="1329" d="M123 559q0 117 22.5 232.5t81 234.5t144.5 208t224 146.5t310 57.5q104 0 218 -20.5t147 -37.5q0 -137 -39 -344l-119 -16q-14 238 -43 262q-14 14 -80.5 30.5t-132.5 16.5q-168 0 -284.5 -106.5t-166 -267t-49.5 -361.5q0 -242 107.5 -370t269.5 -128q96 0 174 33 l41 285q4 33 4 43q0 35 -27.5 52t-113.5 32l23 80h477v-80l-109 -25q-41 -8 -49 -53l-55 -387q-68 -35 -192 -64.5t-249 -29.5q-264 0 -399 166.5t-135 410.5zM606 1587l320 285h114l238 -285l-61 -53l-250 186l-320 -186z" />
<glyph unicode="&#x11d;" horiz-adv-x="1040" d="M-35 -248q0 131 129 217q57 37 123 41l-2 17q-23 0 -39 12q-109 70 -108 250q0 309 162.5 509.5t398.5 200.5q84 0 194 -43q59 14 133 43l33 -26q-36 -107 -69 -285l-111 -598q-45 -240 -196.5 -389.5t-374.5 -149.5q-96 0 -184.5 54.5t-88.5 146.5zM131 -197 q0 -53 41 -95t131 -42q66 0 114 12.5t86 51.5t61.5 75.5t50 122.5t42.5 153t45 204l21 94l-16 4q-102 -203 -283 -317q-35 -27 -94.5 -53.5t-98 -46t-69.5 -60.5t-31 -103zM252 352q0 -203 94 -202q121 0 258 231t162 444q-98 59 -199 60q-104 0 -137 -33q-70 -61 -124 -219 t-54 -281zM360 1200l295 346h129l189 -346l-82 -51l-191 242l-278 -242z" />
<glyph unicode="&#x11e;" horiz-adv-x="1329" d="M123 559q0 117 22.5 232.5t81 234.5t144.5 208t224 146.5t310 57.5q104 0 218 -20.5t147 -37.5q0 -137 -39 -344l-119 -16q-14 238 -43 262q-14 14 -80.5 30.5t-132.5 16.5q-168 0 -284.5 -106.5t-166 -267t-49.5 -361.5q0 -242 107.5 -370t269.5 -128q96 0 174 33 l41 285q4 33 4 43q0 35 -27.5 52t-113.5 32l23 80h477v-80l-109 -25q-41 -8 -49 -53l-55 -387q-68 -35 -192 -64.5t-249 -29.5q-264 0 -399 166.5t-135 410.5zM696 1794q0 33 2 49h76q6 -147 201 -147t258 147h76q-31 -127 -122 -207t-237 -80q-129 0 -191.5 66t-62.5 172z " />
<glyph unicode="&#x11f;" horiz-adv-x="1040" d="M-35 -248q0 131 129 217q57 37 123 41l-2 17q-23 0 -39 12q-109 70 -108 250q0 309 162.5 509.5t398.5 200.5q84 0 194 -43q59 14 133 43l33 -26q-36 -107 -69 -285l-111 -598q-45 -240 -196.5 -389.5t-374.5 -149.5q-96 0 -184.5 54.5t-88.5 146.5zM131 -197 q0 -53 41 -95t131 -42q66 0 114 12.5t86 51.5t61.5 75.5t50 122.5t42.5 153t45 204l21 94l-16 4q-102 -203 -283 -317q-35 -27 -94.5 -53.5t-98 -46t-69.5 -60.5t-31 -103zM252 352q0 -203 94 -202q121 0 258 231t162 444q-98 59 -199 60q-104 0 -137 -33q-70 -61 -124 -219 t-54 -281zM414 1415q0 18 4 60h76q4 -174 198 -174t260 174h76q-33 -137 -125 -225.5t-237 -88.5q-129 0 -190.5 69.5t-61.5 184.5z" />
<glyph unicode="&#x120;" horiz-adv-x="1329" d="M123 559q0 117 22.5 232.5t81 234.5t144.5 208t224 146.5t310 57.5q104 0 218 -20.5t147 -37.5q0 -137 -39 -344l-119 -16q-14 238 -43 262q-14 14 -80.5 30.5t-132.5 16.5q-168 0 -284.5 -106.5t-166 -267t-49.5 -361.5q0 -242 107.5 -370t269.5 -128q96 0 174 33 l41 285q4 33 4 43q0 35 -27.5 52t-113.5 32l23 80h477v-80l-109 -25q-41 -8 -49 -53l-55 -387q-68 -35 -192 -64.5t-249 -29.5q-264 0 -399 166.5t-135 410.5zM854 1718q0 47 29.5 80t83.5 33q51 0 83.5 -28t32.5 -85q0 -47 -32.5 -80.5t-85.5 -33.5q-111 0 -111 114z" />
<glyph unicode="&#x121;" horiz-adv-x="1040" d="M-35 -248q0 131 129 217q57 37 123 41l-2 17q-23 0 -39 12q-109 70 -108 250q0 309 162.5 509.5t398.5 200.5q84 0 194 -43q59 14 133 43l33 -26q-36 -107 -69 -285l-111 -598q-45 -240 -196.5 -389.5t-374.5 -149.5q-96 0 -184.5 54.5t-88.5 146.5zM131 -197 q0 -53 41 -95t131 -42q66 0 114 12.5t86 51.5t61.5 75.5t50 122.5t42.5 153t45 204l21 94l-16 4q-102 -203 -283 -317q-35 -27 -94.5 -53.5t-98 -46t-69.5 -60.5t-31 -103zM252 352q0 -203 94 -202q121 0 258 231t162 444q-98 59 -199 60q-104 0 -137 -33q-70 -61 -124 -219 t-54 -281zM600 1372q0 47 29.5 80t83.5 33q51 0 83.5 -28t32.5 -85q0 -47 -32.5 -81t-85.5 -34q-111 0 -111 115z" />
<glyph unicode="&#x122;" horiz-adv-x="1329" d="M123 559q0 117 22.5 232.5t81 234.5t144.5 208t224 146.5t310 57.5q104 0 218 -20.5t147 -37.5q0 -137 -39 -344l-119 -16q-14 238 -43 262q-14 14 -80.5 30.5t-132.5 16.5q-168 0 -284.5 -106.5t-166 -267t-49.5 -361.5q0 -242 107.5 -370t269.5 -128q96 0 174 33 l41 285q4 33 4 43q0 35 -27.5 52t-113.5 32l23 80h477v-80l-109 -25q-41 -8 -49 -53l-55 -387q-68 -35 -192 -64.5t-249 -29.5q-264 0 -399 166.5t-135 410.5zM471 -379q117 74 117 139q0 18 -13.5 47t-13.5 52q0 43 30 70.5t70.5 27.5t67.5 -29.5t27 -77.5 q0 -72 -63.5 -146.5t-178.5 -133.5z" />
<glyph unicode="&#x123;" horiz-adv-x="1040" d="M-35 -248q0 131 129 217q57 37 123 41l-2 17q-23 0 -39 12q-109 70 -108 250q0 309 162.5 509.5t398.5 200.5q84 0 194 -43q59 14 133 43l33 -26q-36 -107 -69 -285l-111 -598q-45 -240 -196.5 -389.5t-374.5 -149.5q-96 0 -184.5 54.5t-88.5 146.5zM131 -197 q0 -53 41 -95t131 -42q66 0 114 12.5t86 51.5t61.5 75.5t50 122.5t42.5 153t45 204l21 94l-16 4q-102 -203 -283 -317q-35 -27 -94.5 -53.5t-98 -46t-69.5 -60.5t-31 -103zM252 352q0 -203 94 -202q121 0 258 231t162 444q-98 59 -199 60q-104 0 -137 -33q-70 -61 -124 -219 t-54 -281zM559 1266q0 72 63.5 146.5t178.5 133.5l43 -51q-117 -74 -117 -139q0 -18 13.5 -47t13.5 -52q0 -43 -30 -70.5t-71 -27.5t-67.5 30t-26.5 77z" />
<glyph unicode="&#x124;" horiz-adv-x="1527" d="M45 0v80q111 18 137.5 40.5t38.5 86.5l176 1005q6 29 6 48q0 33 -27.5 49t-111.5 30l12 80h517l-7 -80l-131 -24q-18 -4 -29.5 -13.5t-14.5 -16.5t-5 -23l-84 -469h639l74 419q6 29 6 48q0 33 -27.5 49t-111.5 30l12 80h516l-6 -80l-131 -24q-18 -4 -29.5 -13.5 t-14.5 -16.5t-5 -23l-187 -1055q-6 -37 -6 -47q0 -47 41 -58l111 -22l-10 -80h-510v80q111 18 137.5 40.5t38.5 86.5l82 463h-639l-82 -459q-6 -25 -6 -55q0 -45 47 -56l104 -20l-10 -80h-510zM645 1587l320 285h114l238 -285l-62 -53l-249 186l-320 -186z" />
<glyph unicode="&#x125;" horiz-adv-x="1071" d="M39 8q37 115 67 277l209 1089q4 20 4 35q0 29 -34.5 45t-122.5 33l10 65q231 29 324 29l18 -20q-4 -84 -22 -187l-70 -360q-8 -43 -45 -150.5t-53 -177.5l-19 -84l12 -4q90 186 224.5 293.5t273.5 107.5q172 0 172 -165q0 -25 -9 -71t-18.5 -85t-30 -118t-30.5 -118 q-68 -270 -68 -301q0 -39 33 -39q27 1 125 50l35 -56q-160 -115 -260 -114q-55 0 -81 38.5t-26 90.5q0 80 121 522q29 109 29 162q0 68 -66 67q-76 0 -162.5 -67.5t-162.5 -179t-126 -273.5t-50 -332q-92 -4 -168 -28zM66 1649l319 284h115l237 -284l-61 -54l-250 187 l-320 -187z" />
<glyph unicode="&#x126;" horiz-adv-x="1527" d="M45 0v80q111 18 137.5 40.5t38.5 86.5l133 762h-194l33 123h184l20 120q6 29 6 48q0 33 -27.5 49t-111.5 30l12 80h517l-7 -80l-131 -24q-18 -4 -29.5 -13.5t-14.5 -16.5t-5 -23l-31 -170h639l21 120q6 29 6 48q0 33 -27.5 49t-111.5 30l12 80h516l-6 -80l-131 -24 q-18 -4 -29.5 -13.5t-14.5 -16.5t-5 -23l-31 -170h207l-33 -123h-194l-136 -762q-6 -37 -6 -47q0 -47 41 -58l111 -22l-10 -80h-510v80q111 18 137.5 40.5t38.5 86.5l82 463h-639l-82 -459q-6 -25 -6 -55q0 -45 47 -56l104 -20l-10 -80h-510zM522 793h639l31 176h-639z" />
<glyph unicode="&#x127;" horiz-adv-x="1071" d="M39 8q37 115 67 277l175 913h-209l20 109h209l14 67q4 20 4 35q0 29 -34.5 45t-122.5 33l10 65q231 29 324 29l18 -20q-4 -84 -22 -187l-15 -67h357l-21 -109h-356l-35 -184q-8 -43 -45 -150.5t-53 -177.5l-19 -84l12 -4q90 186 224.5 293.5t273.5 107.5q172 0 172 -165 q0 -25 -9 -71t-18.5 -85t-30 -118t-30.5 -118q-68 -270 -68 -301q0 -39 33 -39q27 1 125 50l35 -56q-160 -115 -260 -114q-55 0 -81 38.5t-26 90.5q0 80 121 522q29 109 29 162q0 68 -66 67q-76 0 -162.5 -67.5t-162.5 -179t-126 -273.5t-50 -332q-92 -4 -168 -28z" />
<glyph unicode="&#x128;" horiz-adv-x="690" d="M45 0v80q111 18 137.5 40.5t38.5 86.5l178 1005q0 6 2 16.5t3.5 17.5t1.5 14q0 33 -28 49t-112 30l13 80h516l-7 -80l-131 -24q-43 -8 -51 -53l-186 -1053q-6 -33 -6 -53q0 -47 55 -58l96 -18l-10 -80h-510zM203 1612q86 109 141 152.5t107 43.5q43 0 170 -27.5 t167 -27.5q60 0 142 72l47 -25q-133 -207 -227 -207q-35 0 -166 28t-181 28q-78 0 -159 -70z" />
<glyph unicode="&#x129;" horiz-adv-x="518" d="M-12 1253q88 115 143 162t107 47q43 0 167.5 -43t165.5 -43q58 0 146 88l45 -26q-133 -219 -230 -219q-35 0 -162.5 43t-176.5 43q-78 0 -164 -86zM86 897l10 66q231 29 324 28l18 -20q-4 -84 -22 -187l-101 -538q-12 -86 -12 -94q0 -49 33 -50q25 1 123 50l35 -56 q-129 -115 -256 -114q-111 0 -111 129q0 49 23 174l90 499q4 20 4 35q0 29 -35 45.5t-123 32.5z" />
<glyph unicode="&#x12a;" horiz-adv-x="690" d="M45 0v80q111 18 137.5 40.5t38.5 86.5l178 1005q0 6 2 16.5t3.5 17.5t1.5 14q0 33 -28 49t-112 30l13 80h516l-7 -80l-131 -24q-43 -8 -51 -53l-186 -1053q-6 -33 -6 -53q0 -47 55 -58l96 -18l-10 -80h-510zM313 1647l23 122h510l-23 -122h-510z" />
<glyph unicode="&#x12b;" horiz-adv-x="518" d="M86 897l10 66q231 29 324 28l18 -20q-4 -84 -22 -187l-101 -538q-12 -86 -12 -94q0 -49 33 -50q25 1 123 50l35 -56q-129 -115 -256 -114q-111 0 -111 129q0 49 23 174l90 499q4 20 4 35q0 29 -35 45.5t-123 32.5zM119 1315l22 123h510l-22 -123h-510z" />
<glyph unicode="&#x12e;" horiz-adv-x="688" d="M43 0v80q111 18 137.5 40.5t38.5 86.5l178 1005q0 6 2 16.5t3 17.5t1 14q0 33 -27.5 49t-111.5 30l12 80h517l-7 -80l-131 -24q-43 -8 -51 -53l-186 -1053q-6 -33 -6 -53q0 -47 55 -58l96 -18l-10 -80q-133 -4 -233.5 -72.5t-100.5 -165.5q0 -43 26.5 -65.5t69.5 -22.5 q64 1 125 21l19 -41q-123 -94 -244 -94q-72 0 -121 44t-49 113q0 78 65.5 157t178.5 126h-246z" />
<glyph unicode="&#x12f;" horiz-adv-x="518" d="M59 -270q0 135 148 254q-80 16 -80 127q0 49 23 174l90 499q4 20 4 35q0 29 -35 45.5t-123 32.5l10 66q231 29 324 28l18 -20q-4 -84 -22 -187l-101 -538q-12 -86 -12 -94q0 -49 33 -50q25 0 123 50l35 -56q-8 -6 -47 -33.5t-53.5 -40t-47.5 -39t-47 -46t-33.5 -48 t-27 -58.5t-7.5 -62q0 -45 26 -70t69 -25q66 1 125 21l18 -41q-123 -94 -244 -94q-70 0 -118 46t-48 124zM260 1372q0 47 29.5 80t83.5 33q51 0 83.5 -28t32.5 -85q0 -47 -32.5 -81t-85.5 -34q-111 0 -111 115z" />
<glyph unicode="&#x130;" horiz-adv-x="690" d="M45 0v80q111 18 137.5 40.5t38.5 86.5l178 1005q0 6 2 16.5t3.5 17.5t1.5 14q0 33 -28 49t-112 30l13 80h516l-7 -80l-131 -24q-43 -8 -51 -53l-186 -1053q-6 -33 -6 -53q0 -47 55 -58l96 -18l-10 -80h-510zM477 1718q0 47 30 80t83 33q51 0 84 -28t33 -85 q0 -47 -33 -80.5t-86 -33.5q-111 0 -111 114z" />
<glyph unicode="&#x131;" horiz-adv-x="518" d="M86 897l10 66q231 29 324 28l18 -20q-4 -84 -22 -187l-101 -538q-12 -86 -12 -94q0 -49 33 -50q25 1 123 50l35 -56q-129 -115 -256 -114q-111 0 -111 129q0 49 23 174l90 499q4 20 4 35q0 29 -35 45.5t-123 32.5z" />
<glyph unicode="&#x132;" horiz-adv-x="1380" d="M45 0v80q111 18 137.5 40.5t38.5 86.5l178 1005q0 6 2 16.5t3.5 17.5t1.5 14q0 33 -28 49t-112 30l13 80h516l-7 -80l-131 -24q-43 -8 -51 -53l-186 -1053q-6 -33 -6 -53q0 -47 55 -58l96 -18l-10 -80h-510zM547 -217q0 53 28.5 112.5t55.5 59.5q20 0 71.5 -13.5 t77.5 -13.5q31 0 56.5 36t48 120t35.5 149.5t36 196.5l138 782q4 25 4 35q0 39 -33 57.5t-125 34.5l12 80h557l-6 -80l-151 -24q-43 -8 -47 -41l-142 -795q-61 -348 -193 -545.5t-329 -197.5q-94 0 -94 47z" />
<glyph unicode="&#x133;" horiz-adv-x="1036" d="M86 897l10 66q231 29 324 28l18 -20q-4 -84 -22 -187l-101 -538q-12 -86 -12 -94q0 -49 33 -50q25 1 123 50l35 -56q-129 -115 -256 -114q-111 0 -111 129q0 49 23 174l90 499q4 20 4 35q0 29 -35 45.5t-123 32.5zM244 -401q0 53 28.5 112.5t55.5 59.5q20 0 71.5 -13.5 t77.5 -13.5q33 0 58.5 36t48 114.5t37 148.5t36.5 192q2 9 2 13l99 536q4 20 4 35q0 29 -35 45.5t-123 32.5l10 66q231 29 324 28l18 -20q-4 -84 -22 -187l-88 -489q-63 -348 -191.5 -546t-316.5 -198q-94 0 -94 48zM281 1372q0 47 29.5 80t82.5 33q51 0 84 -28t33 -85 q0 -47 -33 -81t-86 -34q-111 0 -110 115zM799 1372q0 47 29.5 80t82.5 33q51 0 84 -28t33 -85q0 -47 -32.5 -81t-86.5 -34q-111 0 -110 115z" />
<glyph unicode="&#x134;" horiz-adv-x="684" d="M-150 -217q0 53 29 112.5t55 59.5q20 0 71.5 -13.5t78.5 -13.5q31 0 56.5 36t48 120t35.5 149.5t36 196.5l137 782q4 25 4 35q0 39 -32.5 57.5t-124.5 34.5l12 80h557l-6 -80l-152 -24q-43 -8 -47 -41l-141 -795q-61 -348 -193.5 -545.5t-328.5 -197.5q-94 0 -95 47z M242 1587l319 285h115l237 -285l-61 -53l-250 186l-319 -186z" />
<glyph unicode="&#x135;" horiz-adv-x="520" d="M-272 -401q0 53 28.5 112.5t55.5 59.5q20 0 71 -13.5t78 -13.5q33 0 58.5 36t48 114.5t37 148.5t36.5 192q2 9 2 13l99 536q4 20 4 35q0 29 -35 45.5t-123 32.5l10 66q231 29 324 28l18 -20q-4 -84 -22 -187l-88 -489q-63 -348 -191.5 -546t-316.5 -198q-94 0 -94 48z M57 1200l295 346h129l189 -346l-82 -51l-191 242l-278 -242z" />
<glyph unicode="&#x136;" horiz-adv-x="1368" d="M41 0v80q111 18 139.5 40.5t40.5 86.5l176 1005q6 29 6 48q0 33 -27.5 49t-111.5 30l12 80h517l-7 -80l-131 -24q-18 -4 -29.5 -13.5t-14.5 -16.5t-5 -23l-96 -541l629 524q41 35 41 53q0 33 -131 39l12 82h448l-6 -86q-27 -2 -49 -7t-43.5 -17.5t-31 -19.5t-30 -24.5 t-22.5 -19.5l-577 -493l405 -588q27 -41 62.5 -59.5t111.5 -24.5l-10 -80h-307l-420 618l-117 -100l-55 -309q-6 -33 -6 -53q0 -47 55 -58l82 -18l-10 -80h-500zM489 -379q117 74 117 139q0 18 -13 47t-13 52q0 43 29.5 70.5t70.5 27.5t67.5 -29.5t26.5 -77.5 q0 -72 -63.5 -146.5t-178.5 -133.5z" />
<glyph unicode="&#x137;" horiz-adv-x="1007" d="M39 8q37 115 67 277l209 1089q4 20 4 35q0 29 -34.5 45t-122.5 33l10 65q231 29 324 29l18 -20q-4 -84 -22 -187l-70 -360q-8 -43 -48 -161t-59 -200l-10 -51l12 -4q82 176 243 288.5t304 112.5q37 0 79 -15t42 -44q0 -51 -31.5 -106.5t-60.5 -55.5q-23 0 -81 34t-71 34 q-145 0 -290 -174l305 -520q29 -49 57 -50q23 1 125 50l35 -56q-139 -115 -236 -114q-45 0 -79.5 28.5t-90.5 122.5l-219 373q-109 -233 -108 -496q-92 -4 -168 -28zM199 -379q117 74 116 139q0 18 -13 47t-13 52q0 43 29.5 70.5t70.5 27.5t67.5 -29.5t26.5 -77.5 q0 -72 -63 -146.5t-178 -133.5z" />
<glyph unicode="&#x138;" horiz-adv-x="1050" d="M82 8q37 115 68 277l92 487q4 20 4 35q0 29 -35 45t-123 33l10 65q231 29 324 29l18 -21l-92 -356l12 -4q82 176 243 288.5t304 112.5q37 0 79 -15t42 -44q0 -51 -31.5 -106.5t-60.5 -55.5q-23 0 -81 34t-71 34q-145 0 -290 -174l305 -520q29 -49 57 -50q23 1 125 50 l35 -56q-139 -115 -236 -114q-45 0 -79.5 28.5t-90.5 122.5l-219 373q-109 -233 -108 -496q-92 -4 -168 -28z" />
<glyph unicode="&#x139;" horiz-adv-x="1142" d="M41 0v80q111 18 139.5 40.5t40.5 86.5l176 1005q6 29 6 48q0 33 -27.5 49t-111.5 30l12 80h517l-7 -80l-131 -24q-18 -4 -29.5 -13.5t-14.5 -16.5t-5 -23l-205 -1158l183 2q229 4 268 15q12 4 27.5 24.5t51.5 90t93 200.5l111 -10q-4 -35 -17 -104q-27 -150 -80 -322 h-997zM406 1608l405 264l115 -105l-25 -43l-446 -190z" />
<glyph unicode="&#x13a;" horiz-adv-x="479" d="M84 111q0 49 22 174l209 1089q4 20 4 35q0 29 -34.5 45t-122.5 33l10 65q231 29 324 29l18 -20q-4 -84 -22 -187l-220 -1128q-12 -55 -12 -94q0 -49 33 -50q25 1 123 50l35 -56q-129 -115 -256 -114q-111 0 -111 129zM248 1710l405 264l115 -104l-25 -43l-446 -191z" />
<glyph unicode="&#x13b;" horiz-adv-x="1142" d="M41 0v80q111 18 139.5 40.5t40.5 86.5l176 1005q6 29 6 48q0 33 -27.5 49t-111.5 30l12 80h517l-7 -80l-131 -24q-18 -4 -29.5 -13.5t-14.5 -16.5t-5 -23l-205 -1158l183 2q229 4 268 15q12 4 27.5 24.5t51.5 90t93 200.5l111 -10q-4 -35 -17 -104q-27 -150 -80 -322 h-997zM377 -379q117 74 117 139q0 18 -13.5 47t-13.5 52q0 43 29.5 70.5t70.5 27.5t68 -29.5t27 -77.5q0 -72 -63.5 -146.5t-178.5 -133.5z" />
<glyph unicode="&#x13c;" horiz-adv-x="479" d="M-8 -379q117 74 117 139q0 18 -13.5 47t-13.5 52q0 43 29.5 70.5t70.5 27.5t67.5 -29.5t26.5 -77.5q0 -72 -63 -146.5t-178 -133.5zM84 111q0 49 22 174l209 1089q4 20 4 35q0 29 -34.5 45t-122.5 33l10 65q231 29 324 29l18 -20q-4 -84 -22 -187l-220 -1128 q-12 -55 -12 -94q0 -49 33 -50q25 1 123 50l35 -56q-129 -115 -256 -114q-111 0 -111 129z" />
<glyph unicode="&#x13d;" horiz-adv-x="1142" d="M41 0v80q111 18 139.5 40.5t40.5 86.5l176 1005q6 29 6 48q0 33 -27.5 49t-111.5 30l12 80h517l-7 -80l-131 -24q-18 -4 -29.5 -13.5t-14.5 -16.5t-5 -23l-205 -1158l183 2q229 4 268 15q12 4 27.5 24.5t51.5 90t93 200.5l111 -10q-4 -35 -17 -104q-27 -150 -80 -322 h-997zM911 1210q74 178 80 330l183 45l18 -39q-58 -198 -201 -364z" />
<glyph unicode="&#x13e;" horiz-adv-x="479" d="M84 111q0 49 22 174l209 1089q4 20 4 35q0 29 -34.5 45t-122.5 33l10 65q231 29 324 29l18 -20q-4 -84 -22 -187l-220 -1128q-12 -55 -12 -94q0 -49 33 -50q25 1 123 50l35 -56q-129 -115 -256 -114q-111 0 -111 129zM569 1210q74 178 80 330l182 45l19 -39 q-58 -198 -201 -364z" />
<glyph unicode="&#x13f;" horiz-adv-x="1142" d="M41 0v80q111 18 139.5 40.5t40.5 86.5l176 1005q6 29 6 48q0 33 -27.5 49t-111.5 30l12 80h517l-7 -80l-131 -24q-18 -4 -29.5 -13.5t-14.5 -16.5t-5 -23l-205 -1158l183 2q229 4 268 15q12 4 27.5 24.5t51.5 90t93 200.5l111 -10q-4 -35 -17 -104q-27 -150 -80 -322 h-997zM766 786q0 53 40 93.5t95 40.5q106 0 107 -97q0 -55 -40.5 -97t-97.5 -42q-45 0 -74.5 26.5t-29.5 75.5z" />
<glyph unicode="&#x140;" horiz-adv-x="661" d="M84 111q0 49 22 174l209 1089q4 20 4 35q0 29 -34.5 45t-122.5 33l10 65q231 29 324 29l18 -20q-4 -84 -22 -187l-220 -1128q-12 -55 -12 -94q0 -49 33 -50q25 1 123 50l35 -56q-129 -115 -256 -114q-111 0 -111 129zM479 786q0 53 40 93.5t95 40.5q106 0 107 -97 q0 -55 -40 -97t-97 -42q-45 0 -75 26.5t-30 75.5z" />
<glyph unicode="&#x141;" horiz-adv-x="1142" d="M41 0v80q111 18 139.5 40.5t40.5 86.5l58 330l-164 -97l-41 88l225 134l98 550q6 29 6 48q0 33 -27.5 49t-111.5 30l12 80h517l-7 -80l-131 -24q-18 -4 -29.5 -13.5t-14.5 -16.5t-5 -23l-84 -471l352 206l41 -88l-415 -243l-99 -562l183 2q229 4 268 15q12 4 27.5 24.5 t51.5 90t93 200.5l111 -10q-4 -35 -17 -104q-27 -150 -80 -322h-997z" />
<glyph unicode="&#x142;" horiz-adv-x="561" d="M8 674l197 114l112 586q4 20 5 35q0 29 -35 45t-123 33l10 65q231 29 324 29l18 -20q-4 -84 -22 -187l-93 -471l203 119l41 -88l-268 -158l-103 -530q-12 -55 -12 -94q0 -49 33 -50q25 1 123 50l35 -56q-129 -115 -256 -114q-111 0 -111 129q0 49 23 174l71 377l-131 -76 z" />
<glyph unicode="&#x143;" horiz-adv-x="1509" d="M41 0v80q111 18 139.5 40.5t40.5 86.5l176 1005q6 29 6 48q0 33 -27.5 49t-111.5 30l12 80h406l440 -1032h15l139 784q6 37 6 64q0 49 -36 70.5t-138 33.5l12 80h496l-6 -80l-131 -24q-18 -4 -29.5 -13.5t-14.5 -16.5t-5 -23l-224 -1262h-127l-528 1212h-16l-179 -1017 q-4 -20 -4 -37q0 -51 47 -56l170 -22l-10 -80h-518zM791 1608l405 264l115 -105l-25 -43l-446 -190z" />
<glyph unicode="&#x144;" horiz-adv-x="1114" d="M82 8q37 115 68 277l88 487q4 20 4 35q0 29 -35 45t-123 33l10 65q231 29 324 29l18 -21q-45 -150 -88 -356l12 -4q90 186 224.5 293.5t273.5 107.5q172 0 172 -165q0 -25 -9 -71t-18.5 -85t-30 -118t-30.5 -118q-68 -270 -68 -301q0 -39 33 -39q27 1 125 50l35 -56 q-160 -115 -260 -114q-55 0 -81 38.5t-26 90.5q0 80 121 522q29 109 29 162q0 68 -66 67q-76 0 -162.5 -67.5t-162.5 -179t-126 -273.5t-50 -332q-92 -4 -168 -28zM518 1200l287 367l160 -62l-9 -47l-368 -309z" />
<glyph unicode="&#x145;" horiz-adv-x="1509" d="M41 0v80q111 18 139.5 40.5t40.5 86.5l176 1005q6 29 6 48q0 33 -27.5 49t-111.5 30l12 80h406l440 -1032h15l139 784q6 37 6 64q0 49 -36 70.5t-138 33.5l12 80h496l-6 -80l-131 -24q-18 -4 -29.5 -13.5t-14.5 -16.5t-5 -23l-224 -1262h-127l-528 1212h-16l-179 -1017 q-4 -20 -4 -37q0 -51 47 -56l170 -22l-10 -80h-518zM561 -379q117 74 117 139q0 18 -13.5 47t-13.5 52q0 43 30 70.5t71 27.5t67.5 -29.5t26.5 -77.5q0 -72 -63.5 -146.5t-178.5 -133.5z" />
<glyph unicode="&#x146;" horiz-adv-x="1114" d="M82 8q37 115 68 277l88 487q4 20 4 35q0 29 -35 45t-123 33l10 65q231 29 324 29l18 -21q-45 -150 -88 -356l12 -4q90 186 224.5 293.5t273.5 107.5q172 0 172 -165q0 -25 -9 -71t-18.5 -85t-30 -118t-30.5 -118q-68 -270 -68 -301q0 -39 33 -39q27 1 125 50l35 -56 q-160 -115 -260 -114q-55 0 -81 38.5t-26 90.5q0 80 121 522q29 109 29 162q0 68 -66 67q-76 0 -162.5 -67.5t-162.5 -179t-126 -273.5t-50 -332q-92 -4 -168 -28zM285 -379q117 74 116 139q0 18 -13 47t-13 52q0 43 29.5 70.5t70.5 27.5t67.5 -29.5t26.5 -77.5 q0 -72 -63 -146.5t-178 -133.5z" />
<glyph unicode="&#x147;" horiz-adv-x="1509" d="M41 0v80q111 18 139.5 40.5t40.5 86.5l176 1005q6 29 6 48q0 33 -27.5 49t-111.5 30l12 80h406l440 -1032h15l139 784q6 37 6 64q0 49 -36 70.5t-138 33.5l12 80h496l-6 -80l-131 -24q-18 -4 -29.5 -13.5t-14.5 -16.5t-5 -23l-224 -1262h-127l-528 1212h-16l-179 -1017 q-4 -20 -4 -37q0 -51 47 -56l170 -22l-10 -80h-518zM625 1825l61 53l250 -186l319 186l41 -53l-321 -285h-115z" />
<glyph unicode="&#x148;" horiz-adv-x="1114" d="M82 8q37 115 68 277l88 487q4 20 4 35q0 29 -35 45t-123 33l10 65q231 29 324 29l18 -21q-45 -150 -88 -356l12 -4q90 186 224.5 293.5t273.5 107.5q172 0 172 -165q0 -25 -9 -71t-18.5 -85t-30 -118t-30.5 -118q-68 -270 -68 -301q0 -39 33 -39q27 1 125 50l35 -56 q-160 -115 -260 -114q-55 0 -81 38.5t-26 90.5q0 80 121 522q29 109 29 162q0 68 -66 67q-76 0 -162.5 -67.5t-162.5 -179t-126 -273.5t-50 -332q-92 -4 -168 -28zM416 1505l82 51l190 -241l279 241l61 -51l-285 -346h-129z" />
<glyph unicode="&#x149;" horiz-adv-x="1114" d="M82 8q37 115 68 277l88 487q4 20 4 35q0 29 -35 45t-123 33l10 65q231 29 324 29l18 -21q-45 -150 -88 -356l12 -4q90 186 224.5 293.5t273.5 107.5q172 0 172 -165q0 -25 -9 -71t-18.5 -85t-30 -118t-30.5 -118q-68 -270 -68 -301q0 -39 33 -39q27 1 125 50l35 -56 q-160 -115 -260 -114q-55 0 -81 38.5t-26 90.5q0 80 121 522q29 109 29 162q0 68 -66 67q-76 0 -162.5 -67.5t-162.5 -179t-126 -273.5t-50 -332q-92 -4 -168 -28zM295 1188q102 100 102 184q0 20 -17.5 50t-17.5 51q0 43 30 69.5t69 26.5q37 0 61.5 -29t24.5 -82 q0 -72 -49 -156.5t-162 -160.5z" />
<glyph unicode="&#x14a;" horiz-adv-x="1509" d="M43 0v80q111 18 138.5 40.5t39.5 86.5l176 1005q6 29 6 48q0 33 -27.5 49t-111.5 30l12 80h406l440 -1032h15l141 801q6 31 6 53q0 37 -28.5 58.5t-58.5 27.5t-89 12l12 80h496l-6 -80l-131 -24q-18 -4 -29.5 -13.5t-14.5 -16.5t-5 -23l-170 -957q-102 -569 -431 -569 q-94 0 -94 47q0 53 29 112.5t55 59.5q20 0 71.5 -13.5t78.5 -13.5q53 0 92 115l-510 1169h-16l-179 -1017q-4 -20 -4 -37q0 -51 47 -56l170 -22l-10 -80h-516z" />
<glyph unicode="&#x14b;" horiz-adv-x="1105" d="M82 8q37 115 68 277l88 487q4 20 4 35q0 29 -35 45t-123 33l10 65q231 29 324 29l18 -21q-45 -150 -88 -356l12 -4q90 186 224.5 293.5t273.5 107.5q172 0 172 -190q0 -86 -31 -197l-88 -317q-49 -180 -94 -303t-105.5 -229.5t-137 -159t-171 -52.5t-94.5 48 q0 53 29 112.5t55 59.5q20 0 71.5 -13.5t78.5 -13.5q23 0 41 23.5t36.5 80t31 104.5t36 144.5t37.5 151.5l100 381q2 8 10.5 37.5t13.5 58.5t5 53q0 84 -70 84q-76 0 -162.5 -67.5t-162.5 -179t-126 -273.5t-50 -332q-92 -4 -168 -28z" />
<glyph unicode="&#x14c;" horiz-adv-x="1372" d="M123 561q0 389 197.5 633t545.5 244q244 0 377 -159t133 -409q0 -391 -198.5 -639.5t-546.5 -248.5q-244 0 -376 160.5t-132 418.5zM352 582q0 -215 84 -353.5t242 -138.5q127 0 223 73t146.5 190.5t74 241.5t23.5 253q0 211 -84 346t-244 135q-102 0 -183 -47t-133 -123 t-86 -176t-48.5 -199.5t-14.5 -201.5zM606 1647l23 122h510l-23 -122h-510z" />
<glyph unicode="&#x14d;" horiz-adv-x="972" d="M68 328q0 115 34.5 230.5t98 215.5t170 162.5t235.5 62.5q158 0 242 -92t84 -258q0 -115 -35 -230.5t-100.5 -214t-171 -160.5t-234.5 -62q-158 0 -240.5 91t-82.5 255zM260 352q0 -123 45 -192.5t137 -69.5t160 53q41 33 89 186.5t48 299.5q0 262 -184 262 q-90 0 -158 -53q-41 -33 -89 -186.5t-48 -299.5zM416 1315l22 123h510l-22 -123h-510z" />
<glyph unicode="&#x150;" horiz-adv-x="1372" d="M123 561q0 389 197.5 633t545.5 244q244 0 377 -159t133 -409q0 -391 -198.5 -639.5t-546.5 -248.5q-244 0 -376 160.5t-132 418.5zM352 582q0 -215 84 -353.5t242 -138.5q127 0 223 73t146.5 190.5t74 241.5t23.5 253q0 211 -84 346t-244 135q-102 0 -183 -47t-133 -123 t-86 -176t-48.5 -199.5t-14.5 -201.5zM571 1589l293 285l183 -62l-9 -47l-405 -227zM977 1589l293 285l182 -62l-8 -47l-406 -227z" />
<glyph unicode="&#x151;" horiz-adv-x="972" d="M68 328q0 115 34.5 230.5t98 215.5t170 162.5t235.5 62.5q158 0 242 -92t84 -258q0 -115 -35 -230.5t-100.5 -214t-171 -160.5t-234.5 -62q-158 0 -240.5 91t-82.5 255zM260 352q0 -123 45 -192.5t137 -69.5t160 53q41 33 89 186.5t48 299.5q0 262 -184 262 q-90 0 -158 -53q-41 -33 -89 -186.5t-48 -299.5zM352 1200l287 367l182 -62l-8 -47l-399 -309zM758 1200l286 367l183 -62l-8 -47l-400 -309z" />
<glyph unicode="&#x152;" horiz-adv-x="1978" d="M123 561q0 389 197.5 633t545.5 244q8 0 186.5 -4t451 -9.5t507.5 -5.5q0 -74 -16 -162q-16 -92 -31 -157l-121 -15q-2 141 -8 177t-23 38q-49 6 -122 9l-310 6l-96 -551h307q8 0 17.5 9t27 42t45.5 94l64 -6q-35 -193 -43 -405l-76 -13q-12 113 -19.5 141.5t-21.5 28.5 h-321l-97 -551l183 2q76 2 132 4.5t85.5 6.5t44 7t24.5 7l11 4q37 11 131 242l112 -10q-4 -35 -16 -105q-20 -113 -70 -262q-225 0 -503.5 -4t-468 -9t-201.5 -5q-244 0 -376 160.5t-132 418.5zM352 582q0 -215 84 -353.5t242 -138.5q184 0 245.5 50t96.5 253l106 611 q23 135 23 174q0 96 -64.5 123.5t-267.5 27.5q-102 0 -183 -47t-133 -123t-86 -176t-48.5 -199.5t-14.5 -201.5z" />
<glyph unicode="&#x153;" horiz-adv-x="1497" d="M68 328q0 115 34.5 230.5t98 215.5t170 162.5t235.5 62.5q219 0 293 -174q158 174 371 174q92 0 149.5 -44t57.5 -136q0 -82 -50.5 -148.5t-136.5 -111.5t-178 -73.5t-197 -45.5q-4 -25 -4 -69q0 -131 45 -185.5t148 -54.5q110 0 266 109l49 -54q-78 -84 -182 -144 t-203 -60q-86 0 -160.5 43t-113.5 131q-150 -174 -369 -174q-158 0 -240.5 91t-82.5 255zM260 352q0 -123 45 -192.5t137 -69.5t160 53q41 33 89 186.5t48 299.5q0 262 -184 262q-90 0 -158 -53q-41 -33 -89 -186.5t-48 -299.5zM926 528q174 41 272 107.5t98 150.5 q0 41 -23.5 70t-78.5 29q-72 0 -123 -43q-41 -39 -84 -130.5t-61 -183.5z" />
<glyph unicode="&#x154;" horiz-adv-x="1253" d="M43 0v80q111 18 138.5 40.5t39.5 86.5l176 1005q6 29 6 48q0 33 -27.5 48t-111.5 31l12 80h545q186 0 284.5 -83t98.5 -230q0 -174 -113.5 -297t-285.5 -156l-2 -10q20 -6 37 -45l198 -434q20 -45 50 -61.5t104 -22.5l-10 -80h-295l-281 623h-112l-74 -420q-6 -31 -6 -47 q0 -43 39 -54l98 -22l-10 -80h-498zM512 727h92q176 0 276.5 89t100.5 251q0 139 -66.5 191.5t-175.5 52.5h-84q-41 0 -49 -49zM662 1608l405 264l115 -105l-25 -43l-446 -190z" />
<glyph unicode="&#x155;" horiz-adv-x="833" d="M82 8q37 115 68 277l88 487q4 20 4 35q0 29 -35 45t-123 33l10 65q231 29 324 29l18 -21l-88 -356l14 -4q23 51 57 111.5t84 130t114.5 114.5t127.5 45q94 0 95 -47q0 -57 -32 -118.5t-60 -61.5q-18 0 -67.5 13.5t-74.5 13.5q-16 0 -54 -45t-83 -125t-87 -176.5 t-70.5 -216t-28.5 -226.5q-92 -3 -168 -28zM426 1200l287 367l159 -62l-8 -47l-368 -309z" />
<glyph unicode="&#x156;" horiz-adv-x="1253" d="M43 0v80q111 18 138.5 40.5t39.5 86.5l176 1005q6 29 6 48q0 33 -27.5 48t-111.5 31l12 80h545q186 0 284.5 -83t98.5 -230q0 -174 -113.5 -297t-285.5 -156l-2 -10q20 -6 37 -45l198 -434q20 -45 50 -61.5t104 -22.5l-10 -80h-295l-281 623h-112l-74 -420q-6 -31 -6 -47 q0 -43 39 -54l98 -22l-10 -80h-498zM494 -379q117 74 116 139q0 18 -13 47t-13 52q0 43 29.5 70.5t70.5 27.5t67.5 -29.5t26.5 -77.5q0 -72 -63 -146.5t-178 -133.5zM512 727h92q176 0 276.5 89t100.5 251q0 139 -66.5 191.5t-175.5 52.5h-84q-41 0 -49 -49z" />
<glyph unicode="&#x157;" horiz-adv-x="833" d="M12 -379q117 74 117 139q0 18 -13.5 47t-13.5 52q0 43 30 70.5t71 27.5t67.5 -29.5t26.5 -77.5q0 -72 -63.5 -146.5t-178.5 -133.5zM82 8q37 115 68 277l88 487q4 20 4 35q0 29 -35 45t-123 33l10 65q231 29 324 29l18 -21l-88 -356l14 -4q23 51 57 111.5t84 130 t114.5 114.5t127.5 45q94 0 95 -47q0 -57 -32 -118.5t-60 -61.5q-18 0 -67.5 13.5t-74.5 13.5q-16 0 -54 -45t-83 -125t-87 -176.5t-70.5 -216t-28.5 -226.5q-92 -3 -168 -28z" />
<glyph unicode="&#x158;" horiz-adv-x="1253" d="M43 0v80q111 18 138.5 40.5t39.5 86.5l176 1005q6 29 6 48q0 33 -27.5 48t-111.5 31l12 80h545q186 0 284.5 -83t98.5 -230q0 -174 -113.5 -297t-285.5 -156l-2 -10q20 -6 37 -45l198 -434q20 -45 50 -61.5t104 -22.5l-10 -80h-295l-281 623h-112l-74 -420q-6 -31 -6 -47 q0 -43 39 -54l98 -22l-10 -80h-498zM508 1825l61 53l250 -186l320 186l41 -53l-322 -285h-115zM512 727h92q176 0 276.5 89t100.5 251q0 139 -66.5 191.5t-175.5 52.5h-84q-41 0 -49 -49z" />
<glyph unicode="&#x159;" horiz-adv-x="833" d="M82 8q37 115 68 277l88 487q4 20 4 35q0 29 -35 45t-123 33l10 65q231 29 324 29l18 -21l-88 -356l14 -4q23 51 57 111.5t84 130t114.5 114.5t127.5 45q94 0 95 -47q0 -57 -32 -118.5t-60 -61.5q-18 0 -67.5 13.5t-74.5 13.5q-16 0 -54 -45t-83 -125t-87 -176.5 t-70.5 -216t-28.5 -226.5q-92 -3 -168 -28zM160 1505l82 51l190 -241l279 241l61 -51l-285 -346h-129z" />
<glyph unicode="&#x15a;" horiz-adv-x="1019" d="M31 70q0 141 78 340l118 6q-8 -147 -8 -164q0 -68 21 -84q29 -25 93 -48.5t134 -23.5q92 0 160 49q102 74 102 213q0 31 -7 59.5t-18.5 49t-31 42t-34.5 35t-43 31t-42 25.5t-44 23.5t-40 21.5q-125 68 -189.5 141.5t-64.5 202.5q0 197 148.5 323t386.5 126 q158 0 282 -56q-8 -149 -78 -346l-120 -14q10 127 10 168q0 70 -21 90q-43 43 -157 43q-98 0 -166 -49q-98 -72 -99 -189q0 -53 20.5 -95t68 -77.5t80 -54t102.5 -51.5q125 -61 193.5 -145t68.5 -220q0 -197 -142.5 -328.5t-383.5 -131.5q-119 0 -223.5 29.5t-153.5 58.5z M569 1608l406 264l115 -105l-25 -43l-447 -190z" />
<glyph unicode="&#x15b;" horiz-adv-x="774" d="M27 43q4 129 51 281h102q-8 -72 -8 -115q0 -59 34 -89t120 -30q123 0 161 31q16 14 29.5 53t13.5 70q0 20 -5 37.5t-19 33t-22.5 25.5t-35 25.5t-36 21.5t-43 22.5t-41.5 20.5q-94 47 -148.5 108.5t-54.5 166.5q0 129 102.5 211.5t272.5 82.5q115 0 223 -41 q-10 -120 -47 -251h-103q0 16 2.5 40.5t2.5 40.5q0 68 -17.5 88.5t-95.5 20.5q-106 0 -156 -33q-16 -12 -28.5 -48t-12.5 -66q0 -18 5.5 -36t19.5 -34t23.5 -26.5t36 -27t37.5 -22.5t45 -23.5t44 -23.5q51 -27 80 -46t64.5 -50t52 -68t16.5 -82q0 -141 -112.5 -235 t-300.5 -94q-145 0 -252 61zM449 1200l286 367l160 -62l-8 -47l-369 -309z" />
<glyph unicode="&#x15c;" horiz-adv-x="1019" d="M31 70q0 141 78 340l118 6q-8 -147 -8 -164q0 -68 21 -84q29 -25 93 -48.5t134 -23.5q92 0 160 49q102 74 102 213q0 31 -7 59.5t-18.5 49t-31 42t-34.5 35t-43 31t-42 25.5t-44 23.5t-40 21.5q-125 68 -189.5 141.5t-64.5 202.5q0 197 148.5 323t386.5 126 q158 0 282 -56q-8 -149 -78 -346l-120 -14q10 127 10 168q0 70 -21 90q-43 43 -157 43q-98 0 -166 -49q-98 -72 -99 -189q0 -53 20.5 -95t68 -77.5t80 -54t102.5 -51.5q125 -61 193.5 -145t68.5 -220q0 -197 -142.5 -328.5t-383.5 -131.5q-119 0 -223.5 29.5t-153.5 58.5z M414 1587l319 285h115l237 -285l-61 -53l-250 186l-319 -186z" />
<glyph unicode="&#x15d;" horiz-adv-x="774" d="M27 43q4 129 51 281h102q-8 -72 -8 -115q0 -59 34 -89t120 -30q123 0 161 31q16 14 29.5 53t13.5 70q0 20 -5 37.5t-19 33t-22.5 25.5t-35 25.5t-36 21.5t-43 22.5t-41.5 20.5q-94 47 -148.5 108.5t-54.5 166.5q0 129 102.5 211.5t272.5 82.5q115 0 223 -41 q-10 -120 -47 -251h-103q0 16 2.5 40.5t2.5 40.5q0 68 -17.5 88.5t-95.5 20.5q-106 0 -156 -33q-16 -12 -28.5 -48t-12.5 -66q0 -18 5.5 -36t19.5 -34t23.5 -26.5t36 -27t37.5 -22.5t45 -23.5t44 -23.5q51 -27 80 -46t64.5 -50t52 -68t16.5 -82q0 -141 -112.5 -235 t-300.5 -94q-145 0 -252 61zM219 1200l295 346h129l188 -346l-81 -51l-191 242l-278 -242z" />
<glyph unicode="&#x15e;" horiz-adv-x="1021" d="M31 70q0 141 78 340l118 6q-8 -147 -8 -164q0 -68 21 -84q29 -25 93 -48.5t134 -23.5q92 0 160 49q102 74 102 213q0 31 -7 59.5t-18.5 49t-31 42t-34.5 35t-43 31t-42 25.5t-44 23.5t-40 21.5q-125 68 -189.5 141.5t-64.5 202.5q0 197 148.5 323t386.5 126 q158 0 282 -56q-8 -150 -78 -346l-120 -14q10 127 10 168q0 70 -21 90q-43 43 -157 43q-98 0 -166 -49q-98 -72 -99 -189q0 -53 20.5 -95t68 -77.5t80 -54t102.5 -51.5q125 -61 193.5 -145t68.5 -220q0 -180 -123 -308t-332 -148l-39 -82q20 4 58 4q72 0 111.5 -30t39.5 -81 q0 -92 -108.5 -162.5t-288.5 -78.5l4 63q98 12 157.5 47t59.5 84q0 66 -82 66q-43 0 -88 -21l-12 23l78 164q-109 6 -202 33.5t-136 54.5z" />
<glyph unicode="&#x15f;" horiz-adv-x="774" d="M27 43q4 129 51 281h102q-8 -72 -8 -115q0 -59 34 -89t120 -30q123 0 161 31q16 14 29.5 53t13.5 70q0 20 -5 37.5t-19 33t-22.5 25.5t-35 25.5t-36 21.5t-43 22.5t-41.5 20.5q-94 47 -148.5 108.5t-54.5 166.5q0 129 102.5 211.5t272.5 82.5q115 0 223 -41 q-10 -121 -47 -251h-103q0 16 2.5 40.5t2.5 40.5q0 68 -17.5 88.5t-95.5 20.5q-106 0 -156 -33q-16 -12 -28.5 -48t-12.5 -66q0 -18 5.5 -36t19.5 -34t23.5 -26.5t36 -27t37.5 -22.5t45 -23.5t44 -23.5q51 -27 80 -46t64.5 -50t52 -68t16.5 -82q0 -125 -88 -214t-242 -109 l-38 -84q20 4 57 4q74 0 112.5 -30t38.5 -81q0 -92 -108.5 -162.5t-288.5 -78.5l4 63q217 31 217 131q0 66 -82 66q-43 0 -88 -21l-12 23l78 164q-135 8 -225 61z" />
<glyph unicode="&#x160;" horiz-adv-x="1019" d="M31 70q0 141 78 340l118 6q-8 -147 -8 -164q0 -68 21 -84q29 -25 93 -48.5t134 -23.5q92 0 160 49q102 74 102 213q0 31 -7 59.5t-18.5 49t-31 42t-34.5 35t-43 31t-42 25.5t-44 23.5t-40 21.5q-125 68 -189.5 141.5t-64.5 202.5q0 197 148.5 323t386.5 126 q158 0 282 -56q-8 -149 -78 -346l-120 -14q10 127 10 168q0 70 -21 90q-43 43 -157 43q-98 0 -166 -49q-98 -72 -99 -189q0 -53 20.5 -95t68 -77.5t80 -54t102.5 -51.5q125 -61 193.5 -145t68.5 -220q0 -197 -142.5 -328.5t-383.5 -131.5q-119 0 -223.5 29.5t-153.5 58.5z M416 1825l61 53l250 -186l320 186l40 -53l-321 -285h-115z" />
<glyph unicode="&#x161;" horiz-adv-x="774" d="M27 43q4 129 51 281h102q-8 -72 -8 -115q0 -59 34 -89t120 -30q123 0 161 31q16 14 29.5 53t13.5 70q0 20 -5 37.5t-19 33t-22.5 25.5t-35 25.5t-36 21.5t-43 22.5t-41.5 20.5q-94 47 -148.5 108.5t-54.5 166.5q0 129 102.5 211.5t272.5 82.5q115 0 223 -41 q-10 -120 -47 -251h-103q0 16 2.5 40.5t2.5 40.5q0 68 -17.5 88.5t-95.5 20.5q-106 0 -156 -33q-16 -12 -28.5 -48t-12.5 -66q0 -18 5.5 -36t19.5 -34t23.5 -26.5t36 -27t37.5 -22.5t45 -23.5t44 -23.5q51 -27 80 -46t64.5 -50t52 -68t16.5 -82q0 -141 -112.5 -235 t-300.5 -94q-145 0 -252 61zM227 1505l82 51l191 -241l278 241l62 -51l-285 -346h-129z" />
<glyph unicode="&#x162;" horiz-adv-x="1181" d="M141 1059q25 178 80 360h1116q-12 -219 -47 -360l-106 -8q0 106 -6.5 162.5t-12.5 67.5t-18 17q-25 10 -287 15l-196 -1118q-4 -20 -5 -37q0 -51 48 -56l135 -22l-11 -80h-260l-45 -96q20 4 58 4q72 0 111.5 -30t39.5 -81q0 -92 -108.5 -162.5t-288.5 -78.5l4 63 q98 12 157.5 47t59.5 84q0 66 -82 66q-43 0 -88 -21l-12 23l86 182h-207v80q94 14 135 29.5t54.5 34t21.5 63.5l195 1106q-266 -4 -291 -15q-14 -6 -25.5 -17t-37 -67.5t-64.5 -162.5z" />
<glyph unicode="&#x163;" horiz-adv-x="657" d="M86 -444l4 63q217 31 217 131q0 66 -82 66q-43 0 -88 -21l-12 23l88 186q-70 37 -70 137q0 57 17 144l104 573h-141l8 86l115 25q41 10 59.5 44t87.5 218l121 12l-49 -264h217l-20 -121h-222l-112 -610q-10 -68 -11 -86q0 -59 72 -60q59 0 191 48l26 -58 q-168 -111 -295 -110l-37 -78q20 4 58 4q74 0 112.5 -30t38.5 -81q0 -92 -108.5 -162.5t-288.5 -78.5z" />
<glyph unicode="&#x164;" horiz-adv-x="1181" d="M141 1059q25 178 80 360h1116q-12 -219 -47 -360l-106 -8q0 106 -6.5 162.5t-12.5 67.5t-18 17q-25 10 -287 15l-196 -1118q-4 -20 -5 -37q0 -51 48 -56l135 -22l-11 -80h-575v80q94 14 135 29.5t54.5 34t21.5 63.5l195 1106q-266 -4 -291 -15q-14 -6 -25.5 -17 t-37 -67.5t-64.5 -162.5zM492 1825l61 53l250 -186l319 186l41 -53l-321 -285h-115z" />
<glyph unicode="&#x165;" horiz-adv-x="657" d="M123 858l8 86l115 25q41 10 59.5 44t87.5 218l121 12l-49 -264h217l-20 -121h-222l-112 -610q-10 -68 -11 -86q0 -59 72 -60q60 1 191 48l26 -58q-168 -111 -295 -110q-82 0 -125 42t-43 117q0 57 17 144l104 573h-141zM604 1210q74 178 80 330l182 45l19 -39 q-58 -198 -201 -364z" />
<glyph unicode="&#x166;" horiz-adv-x="1181" d="M141 1059q25 178 80 360h1116q-12 -219 -47 -360l-106 -8q0 106 -6.5 162.5t-12.5 67.5t-18 17q-25 10 -287 15l-196 -1118q-4 -20 -5 -37q0 -51 48 -56l135 -22l-11 -80h-575v80q94 14 135 29.5t54.5 34t21.5 63.5l195 1106q-266 -4 -291 -15q-14 -6 -25.5 -17 t-37 -67.5t-64.5 -162.5zM563 1647l23 122h510l-23 -122h-510z" />
<glyph unicode="&#x167;" horiz-adv-x="657" d="M53 549l21 108h153l37 201h-141l8 86l115 25q41 10 59.5 44t87.5 218l121 12l-49 -264h217l-20 -121h-222l-37 -201h248l-20 -108h-248l-55 -301q-10 -68 -11 -86q0 -59 72 -60q60 1 191 48l26 -58q-168 -111 -295 -110q-82 0 -125 42t-43 117q0 57 17 144l47 264h-154z " />
<glyph unicode="&#x168;" horiz-adv-x="1472" d="M260 358q0 72 14 152l123 702q6 29 6 48q0 35 -27.5 49t-111.5 30l12 80h517l-7 -80l-131 -24q-18 -4 -29.5 -13.5t-14.5 -16.5t-5 -23l-127 -721q-14 -90 -14 -140q0 -127 67.5 -198.5t204.5 -71.5q170 0 262 110.5t119 268.5l117 664q6 37 6 61q0 51 -35 71.5 t-139 32.5l12 80h496l-6 -80l-131 -24q-20 -4 -30.5 -12.5t-13.5 -16.5t-5 -24l-132 -736q-98 -545 -585 -544q-205 0 -308.5 98t-103.5 278zM588 1612q86 109 141 152.5t107 43.5q43 0 170 -27.5t168 -27.5q59 0 141 72l47 -25q-133 -207 -227 -207q-35 0 -166 28t-181 28 q-78 0 -159 -70z" />
<glyph unicode="&#x169;" horiz-adv-x="1067" d="M68 897l10 66q231 29 323 28l19 -20q-4 -102 -23 -187l-80 -389q-27 -133 -26 -172q0 -98 74 -98q61 0 137 66.5t137 166.5q78 125 127 288t49 325q94 4 168 28l33 -26q-37 -115 -68 -277l-88 -483q-8 -41 -8 -68q0 -43 27 -43q31 1 129 50l34 -56q-160 -115 -260 -114 q-88 0 -88 102q0 43 35 201l21 94l-13 4q-82 -180 -208 -290.5t-255 -110.5q-168 0 -168 200q0 68 27 187l88 415q4 20 4 35q0 29 -34.5 45.5t-122.5 32.5zM303 1253q88 115 143.5 162t106.5 47q43 0 168 -43t166 -43q57 0 145 88l45 -26q-133 -219 -229 -219q-35 0 -163 43 t-177 43q-78 0 -164 -86z" />
<glyph unicode="&#x16a;" horiz-adv-x="1472" d="M260 358q0 72 14 152l123 702q6 29 6 48q0 35 -27.5 49t-111.5 30l12 80h517l-7 -80l-131 -24q-18 -4 -29.5 -13.5t-14.5 -16.5t-5 -23l-127 -721q-14 -90 -14 -140q0 -127 67.5 -198.5t204.5 -71.5q170 0 262 110.5t119 268.5l117 664q6 37 6 61q0 51 -35 71.5 t-139 32.5l12 80h496l-6 -80l-131 -24q-20 -4 -30.5 -12.5t-13.5 -16.5t-5 -24l-132 -736q-98 -545 -585 -544q-205 0 -308.5 98t-103.5 278zM729 1647l23 122h510l-23 -122h-510z" />
<glyph unicode="&#x16b;" horiz-adv-x="1067" d="M68 897l10 66q231 29 323 28l19 -20q-4 -102 -23 -187l-80 -389q-27 -133 -26 -172q0 -98 74 -98q61 0 137 66.5t137 166.5q78 125 127 288t49 325q94 4 168 28l33 -26q-37 -115 -68 -277l-88 -483q-8 -41 -8 -68q0 -43 27 -43q31 1 129 50l34 -56q-160 -115 -260 -114 q-88 0 -88 102q0 43 35 201l21 94l-13 4q-82 -180 -208 -290.5t-255 -110.5q-168 0 -168 200q0 68 27 187l88 415q4 20 4 35q0 29 -34.5 45.5t-122.5 32.5zM446 1315l23 123h510l-23 -123h-510z" />
<glyph unicode="&#x16e;" horiz-adv-x="1472" d="M260 358q0 72 14 152l123 702q6 29 6 48q0 35 -27.5 49t-111.5 30l12 80h517l-7 -80l-131 -24q-18 -4 -29.5 -13.5t-14.5 -16.5t-5 -23l-127 -721q-14 -90 -14 -140q0 -127 67.5 -198.5t204.5 -71.5q170 0 262 110.5t119 268.5l117 664q6 37 6 61q0 51 -35 71.5 t-139 32.5l12 80h496l-6 -80l-131 -24q-20 -4 -30.5 -12.5t-13.5 -16.5t-5 -24l-132 -736q-98 -545 -585 -544q-205 0 -308.5 98t-103.5 278zM768 1671q0 92 70.5 151.5t165.5 59.5q76 0 126 -44t50 -116q0 -88 -72 -148.5t-166 -60.5q-76 0 -125 43t-49 115zM868 1681 q0 -37 23.5 -58t62.5 -21q51 0 86 32.5t35 81.5q0 35 -22.5 56.5t-61.5 21.5q-59 0 -91 -31.5t-32 -81.5z" />
<glyph unicode="&#x16f;" horiz-adv-x="1067" d="M68 897l10 66q231 29 323 28l19 -20q-4 -102 -23 -187l-80 -389q-27 -133 -26 -172q0 -98 74 -98q61 0 137 66.5t137 166.5q78 125 127 288t49 325q94 4 168 28l33 -26q-37 -115 -68 -277l-88 -483q-8 -41 -8 -68q0 -43 27 -43q31 1 129 50l34 -56q-160 -115 -260 -114 q-88 0 -88 102q0 43 35 201l21 94l-13 4q-82 -180 -208 -290.5t-255 -110.5q-168 0 -168 200q0 68 27 187l88 415q4 20 4 35q0 29 -34.5 45.5t-122.5 32.5zM461 1321q0 100 63.5 162.5t171.5 62.5q88 0 134.5 -44t46.5 -122q0 -98 -63.5 -161.5t-170.5 -63.5 q-182 0 -182 166zM563 1335q0 -92 94 -92q51 0 83 36t32 89q0 90 -90 90q-53 0 -86 -34.5t-33 -88.5z" />
<glyph unicode="&#x170;" horiz-adv-x="1472" d="M260 358q0 72 14 152l123 702q6 29 6 48q0 35 -27.5 49t-111.5 30l12 80h517l-7 -80l-131 -24q-18 -4 -29.5 -13.5t-14.5 -16.5t-5 -23l-127 -721q-14 -90 -14 -140q0 -127 67.5 -198.5t204.5 -71.5q170 0 262 110.5t119 268.5l117 664q6 37 6 61q0 51 -35 71.5 t-139 32.5l12 80h496l-6 -80l-131 -24q-20 -4 -30.5 -12.5t-13.5 -16.5t-5 -24l-132 -736q-98 -545 -585 -544q-205 0 -308.5 98t-103.5 278zM694 1589l293 285l182 -62l-8 -47l-405 -227zM1100 1589l293 285l182 -62l-8 -47l-406 -227z" />
<glyph unicode="&#x171;" horiz-adv-x="1067" d="M68 897l10 66q231 29 323 28l19 -20q-4 -102 -23 -187l-80 -389q-27 -133 -26 -172q0 -98 74 -98q61 0 137 66.5t137 166.5q78 125 127 288t49 325q94 4 168 28l33 -26q-37 -115 -68 -277l-88 -483q-8 -41 -8 -68q0 -43 27 -43q31 1 129 50l34 -56q-160 -115 -260 -114 q-88 0 -88 102q0 43 35 201l21 94l-13 4q-82 -180 -208 -290.5t-255 -110.5q-168 0 -168 200q0 68 27 187l88 415q4 20 4 35q0 29 -34.5 45.5t-122.5 32.5zM301 1200l287 367l182 -62l-8 -47l-400 -309zM707 1200l286 367l183 -62l-9 -47l-399 -309z" />
<glyph unicode="&#x172;" horiz-adv-x="1472" d="M260 358q0 72 14 152l123 702q6 29 6 48q0 35 -27.5 49t-111.5 30l12 80h517l-7 -80l-131 -24q-18 -4 -29.5 -13.5t-14.5 -16.5t-5 -23l-127 -721q-14 -90 -14 -140q0 -127 67.5 -198.5t204.5 -71.5q170 0 262.5 110.5t118.5 268.5l117 664q6 37 6 61q0 51 -35 71.5 t-139 32.5l12 80h496l-6 -80l-131 -24q-20 -4 -30.5 -12.5t-13.5 -16.5t-5 -24l-132 -736q-86 -469 -462 -534q-106 -18 -182 -83t-76 -147q0 -43 26.5 -65.5t69.5 -22.5q64 1 125 21l18 -41q-123 -94 -244 -94q-72 0 -121 44t-49 113q0 72 57.5 147t158.5 124 q-317 43 -318 370z" />
<glyph unicode="&#x173;" horiz-adv-x="1067" d="M68 897l10 66q231 29 323 28l19 -20q-4 -102 -23 -187l-80 -389q-27 -133 -26 -172q0 -98 74 -98q61 0 137 66.5t137 166.5q78 125 127 288t49 325q94 4 168 28l33 -26q-37 -115 -68 -277l-88 -483q-8 -41 -8 -68q0 -43 27 -43q31 0 129 50l34 -56q-16 -12 -57 -38.5 t-62.5 -43t-55 -46t-51 -56.5t-31 -64.5t-13.5 -78.5q0 -45 25.5 -70t68.5 -25q66 1 125 21l19 -41q-123 -94 -244 -94q-70 0 -118 46t-48 124q0 139 152 256q-57 16 -58 98q0 43 35 201l21 94l-13 4q-82 -180 -208 -290.5t-255 -110.5q-168 0 -168 200q0 68 27 187l88 415 q4 20 4 35q0 29 -34.5 45.5t-122.5 32.5z" />
<glyph unicode="&#x174;" horiz-adv-x="1935" d="M176 1337l12 82h465l-6 -84l-123 -39q-16 -2 -16 -16q0 -2 1 -12.5t1 -16.5l115 -919q0 -12 2 -28.5t3 -27t1 -14.5h20l373 746l-27 241q-2 12 -4 21.5t-4 15.5t-9 12.5t-10 9.5t-14.5 8t-16.5 6t-22.5 7t-25.5 8l12 82h449l-6 -84l-154 -39q-16 -2 -16 -16q0 -2 1 -12.5 t1 -16.5l100 -919q0 -12 2 -28.5t3 -27t1 -14.5h21l452 903q43 86 43 105q0 43 -145 67l10 82h444l-6 -86q-88 -16 -115.5 -36.5t-58.5 -77.5l-626 -1237h-160l-78 708q-4 33 -4 90h-17q-4 -23 -22 -53l-367 -745h-166l-192 1267q-6 43 -26.5 56.5t-94.5 31.5zM815 1587 l320 285h114l238 -285l-62 -53l-249 186l-320 -186z" />
<glyph unicode="&#x175;" horiz-adv-x="1482" d="M49 897l10 66q221 29 287 28l19 -20l127 -781l8 -2q244 307 243 492v14l-20 111q-10 55 -29.5 68.5t-101.5 23.5l10 66q199 29 256 28l19 -20l127 -781l8 -2q104 143 200.5 320.5t96.5 294.5q0 37 -24.5 57.5t-50.5 25.5t-85 11l10 66q213 29 287 28l18 -20 q12 -23 13 -74q0 -121 -103.5 -322.5t-209 -348t-189.5 -244.5h-96l-88 462l-9 2q-121 -227 -319 -464h-96l-156 823q-10 55 -34.5 68.5t-127.5 23.5zM518 1200l295 346h129l188 -346l-81 -51l-191 242l-278 -242z" />
<glyph unicode="&#x176;" horiz-adv-x="1224" d="M184 1337l13 82h489l-6 -84l-143 -37q-16 -4 -17 -16q0 -6 8 -31l156 -452q10 -31 10 -60h21l305 441q59 88 59 102q0 18 -23.5 29.5t-88.5 25.5l10 82h430l-6 -86q-92 -18 -131 -39.5t-74 -70.5l-434 -635l-70 -393q-4 -20 -4 -37q0 -51 47 -56l135 -22l-10 -80h-575v80 q133 20 165.5 41.5t45.5 85.5l63 364l-248 678q-16 45 -35.5 57.5t-91.5 30.5zM524 1587l320 285h114l238 -285l-61 -53l-250 186l-320 -186z" />
<glyph unicode="&#x177;" horiz-adv-x="995" d="M-172 -401q0 55 31.5 117.5t60.5 62.5q20 0 69.5 -12.5t61.5 -12.5q117 1 330 232l-170 819q-12 55 -35.5 68.5t-126.5 23.5l10 66q221 29 287 28l19 -20l147 -813l8 -2q129 172 215 352t86 295q0 37 -24.5 57.5t-50 25.5t-84.5 11l10 66q213 29 286 28l19 -20 q12 -23 12 -74q0 -152 -118.5 -386.5t-282.5 -444t-352.5 -362.5t-313.5 -153q-94 0 -94 48zM297 1200l295 346h129l188 -346l-82 -51l-190 242l-279 -242z" />
<glyph unicode="&#x178;" horiz-adv-x="1224" d="M184 1337l13 82h489l-6 -84l-143 -37q-16 -4 -17 -16q0 -6 8 -31l156 -452q10 -31 10 -60h21l305 441q59 88 59 102q0 18 -23.5 29.5t-88.5 25.5l10 82h430l-6 -86q-92 -18 -131 -39.5t-74 -70.5l-434 -635l-70 -393q-4 -20 -4 -37q0 -51 47 -56l135 -22l-10 -80h-575v80 q133 20 165.5 41.5t45.5 85.5l63 364l-248 678q-16 45 -35.5 57.5t-91.5 30.5zM553 1681q0 53 37 92t88 39q96 0 96 -92q0 -53 -37 -93t-88 -40q-96 0 -96 94zM948 1681q0 53 37 92t88 39q96 0 96 -92q0 -53 -37 -93t-88 -40q-96 0 -96 94z" />
<glyph unicode="&#x179;" horiz-adv-x="1247" d="M23 0l8 53l952 1200q35 41 53 47l-2 15h-190q-283 0 -369 -12q-31 -2 -123 -259l-127 15q16 197 70 360h1042l-8 -53l-956 -1200q-29 -37 -51 -47l2 -13h301q219 0 268 15q35 10 162 315l110 -10q-12 -168 -84 -426h-1058zM684 1608l406 264l114 -105l-24 -43l-447 -190z " />
<glyph unicode="&#x17a;" horiz-adv-x="872" d="M-12 23l674 817l-7 6q-57 -29 -129 -29q-29 0 -91 6t-97 6q-63 0 -89 -20.5t-56 -99.5h-82q0 111 49 268q66 23 133 22q57 0 169.5 -24.5t178.5 -24.5q106 0 219 49l60 -51l-680 -788l8 -6q61 16 119 16q41 0 113.5 -13.5t99.5 -13.5q61 0 86.5 28t52.5 114h82 q0 -115 -49 -281q-59 -23 -129 -22q-66 0 -195 29.5t-192 29.5q-106 0 -189 -59zM506 1200l287 367l159 -62l-8 -47l-369 -309z" />
<glyph unicode="&#x17b;" horiz-adv-x="1247" d="M23 0l8 53l952 1200q35 41 53 47l-2 15h-190q-283 0 -369 -12q-31 -2 -123 -259l-127 15q16 197 70 360h1042l-8 -53l-956 -1200q-29 -37 -51 -47l2 -13h301q219 0 268 15q35 10 162 315l110 -10q-12 -168 -84 -426h-1058zM772 1718q0 47 29.5 80t83.5 33q51 0 83.5 -28 t32.5 -85q0 -47 -32.5 -80.5t-85.5 -33.5q-111 0 -111 114z" />
<glyph unicode="&#x17c;" horiz-adv-x="872" d="M-12 23l674 817l-7 6q-57 -29 -129 -29q-29 0 -91 6t-97 6q-63 0 -89 -20.5t-56 -99.5h-82q0 111 49 268q66 23 133 22q57 0 169.5 -24.5t178.5 -24.5q106 0 219 49l60 -51l-680 -788l8 -6q61 16 119 16q41 0 113.5 -13.5t99.5 -13.5q61 0 86.5 28t52.5 114h82 q0 -115 -49 -281q-59 -23 -129 -22q-66 0 -195 29.5t-192 29.5q-106 0 -189 -59zM516 1372q0 47 29.5 80t83.5 33q51 0 83.5 -28t32.5 -85q0 -47 -32.5 -81t-85.5 -34q-111 0 -111 115z" />
<glyph unicode="&#x17d;" horiz-adv-x="1247" d="M23 0l8 53l952 1200q35 41 53 47l-2 15h-190q-283 0 -369 -12q-31 -2 -123 -259l-127 15q16 197 70 360h1042l-8 -53l-956 -1200q-29 -37 -51 -47l2 -13h301q219 0 268 15q35 10 162 315l110 -10q-12 -168 -84 -426h-1058zM530 1825l62 53l250 -186l319 186l41 -53 l-321 -285h-115z" />
<glyph unicode="&#x17e;" horiz-adv-x="872" d="M-12 23l674 817l-7 6q-57 -29 -129 -29q-29 0 -91 6t-97 6q-63 0 -89 -20.5t-56 -99.5h-82q0 111 49 268q66 23 133 22q57 0 169.5 -24.5t178.5 -24.5q106 0 219 49l60 -51l-680 -788l8 -6q61 16 119 16q41 0 113.5 -13.5t99.5 -13.5q61 0 86.5 28t52.5 114h82 q0 -115 -49 -281q-59 -23 -129 -22q-66 0 -195 29.5t-192 29.5q-106 0 -189 -59zM281 1505l81 51l191 -241l278 241l62 -51l-285 -346h-129z" />
<glyph unicode="&#x17f;" horiz-adv-x="552" d="M-258 -393q0 39 26.5 101.5t63.5 62.5q12 0 65.5 -13.5t69.5 -13.5q55 0 84 98.5t61 308.5q9 64 15 97l96 610h-164l9 86l137 25q35 8 43 45l6 33q29 231 184.5 382.5t360.5 151.5q98 0 176 -22q0 -123 -41 -283h-109q0 18 2 42.5t2 49.5q0 53 -18 75.5t-92 22.5 q-92 0 -127 -28q-55 -47 -92 -130t-66 -261l-121 -752q-55 -344 -177 -544t-298 -200q-96 0 -96 56z" />
<glyph unicode="&#x192;" horiz-adv-x="700" d="M-164 -393q0 39 26.5 101.5t63.5 62.5q12 0 65.5 -13.5t69.5 -13.5q55 0 84 98.5t61 308.5q9 64 15 97l82 524h-141l8 86l115 25q20 4 28.5 13t16.5 36l18 115q37 238 184.5 386t360.5 148q98 0 176 -22q0 -123 -41 -283h-108q0 18 2 42.5t2 49.5q0 53 -18.5 75.5 t-92.5 22.5q-92 0 -127 -28q-111 -96 -158 -391l-24 -152h217l-21 -123h-217l-75 -477q-55 -344 -177 -544t-299 -200q-96 0 -96 56z" />
<glyph unicode="&#x1e6;" horiz-adv-x="1329" d="M123 559q0 117 22.5 232.5t81 234.5t144.5 208t224 146.5t310 57.5q104 0 218 -20.5t147 -37.5q0 -137 -39 -344l-119 -16q-14 238 -43 262q-14 14 -80.5 30.5t-132.5 16.5q-168 0 -284.5 -106.5t-166 -267t-49.5 -361.5q0 -242 107.5 -370t269.5 -128q96 0 174 33 l41 285q4 33 4 43q0 35 -27.5 52t-113.5 32l23 80h477v-80l-109 -25q-41 -8 -49 -53l-55 -387q-68 -35 -192 -64.5t-249 -29.5q-264 0 -399 166.5t-135 410.5zM625 1825l61 53l250 -186l319 186l41 -53l-321 -285h-115z" />
<glyph unicode="&#x1e7;" horiz-adv-x="1040" d="M-35 -248q0 131 129 217q57 37 123 41l-2 17q-23 0 -39 12q-109 70 -108 250q0 309 162.5 509.5t398.5 200.5q84 0 194 -43q59 14 133 43l33 -26q-36 -107 -69 -285l-111 -598q-45 -240 -196.5 -389.5t-374.5 -149.5q-96 0 -184.5 54.5t-88.5 146.5zM131 -197 q0 -53 41 -95t131 -42q66 0 114 12.5t86 51.5t61.5 75.5t50 122.5t42.5 153t45 204l21 94l-16 4q-102 -203 -283 -317q-35 -27 -94.5 -53.5t-98 -46t-69.5 -60.5t-31 -103zM252 352q0 -203 94 -202q121 0 258 231t162 444q-98 59 -199 60q-104 0 -137 -33q-70 -61 -124 -219 t-54 -281zM406 1505l81 51l191 -241l278 241l62 -51l-285 -346h-129z" />
<glyph unicode="&#x218;" horiz-adv-x="1019" d="M31 70q0 141 78 340l118 6q-8 -147 -8 -164q0 -68 21 -84q29 -25 93 -48.5t134 -23.5q92 0 160 49q102 74 102 213q0 31 -7 59.5t-18.5 49t-31 42t-34.5 35t-43 31t-42 25.5t-44 23.5t-40 21.5q-125 68 -189.5 141.5t-64.5 202.5q0 197 148.5 323t386.5 126 q158 0 282 -56q-8 -149 -78 -346l-120 -14q10 127 10 168q0 70 -21 90q-43 43 -157 43q-98 0 -166 -49q-98 -72 -99 -189q0 -53 20.5 -95t68 -77.5t80 -54t102.5 -51.5q125 -61 193.5 -145t68.5 -220q0 -197 -142.5 -328.5t-383.5 -131.5q-119 0 -223.5 29.5t-153.5 58.5z M256 -379q117 74 117 139q0 18 -13.5 47t-13.5 52q0 43 30 70.5t70.5 27.5t67.5 -29.5t27 -77.5q0 -72 -63.5 -146.5t-178.5 -133.5z" />
<glyph unicode="&#x219;" horiz-adv-x="774" d="M27 43q4 129 51 281h102q-8 -72 -8 -115q0 -59 34 -89t120 -30q123 0 161 31q16 14 29.5 53t13.5 70q0 20 -5 37.5t-19 33t-22.5 25.5t-35 25.5t-36 21.5t-43 22.5t-41.5 20.5q-94 47 -148.5 108.5t-54.5 166.5q0 129 102.5 211.5t272.5 82.5q115 0 223 -41 q-10 -120 -47 -251h-103q0 16 2.5 40.5t2.5 40.5q0 68 -17.5 88.5t-95.5 20.5q-106 0 -156 -33q-16 -12 -28.5 -48t-12.5 -66q0 -18 5.5 -36t19.5 -34t23.5 -26.5t36 -27t37.5 -22.5t45 -23.5t44 -23.5q51 -27 80 -46t64.5 -50t52 -68t16.5 -82q0 -141 -112.5 -235 t-300.5 -94q-145 0 -252 61zM139 -379q117 74 117 139q0 18 -13.5 47t-13.5 52q0 43 30 70.5t71 27.5t67.5 -29.5t26.5 -77.5q0 -72 -63.5 -146.5t-178.5 -133.5z" />
<glyph unicode="&#x21a;" horiz-adv-x="1181" d="M141 1059q25 178 80 360h1116q-12 -219 -47 -360l-106 -8q0 106 -6.5 162.5t-12.5 67.5t-18 17q-25 10 -287 15l-196 -1118q-4 -20 -5 -37q0 -51 48 -56l135 -22l-11 -80h-575v80q94 14 135 29.5t54.5 34t21.5 63.5l195 1106q-266 -4 -291 -15q-14 -6 -25.5 -17 t-37 -67.5t-64.5 -162.5zM322 -379q117 74 116 139q0 18 -13 47t-13 52q0 43 29.5 70.5t70.5 27.5t67.5 -29.5t26.5 -77.5q0 -72 -63 -146.5t-178 -133.5z" />
<glyph unicode="&#x21b;" horiz-adv-x="657" d="M90 -379q117 74 117 139q0 18 -13.5 47t-13.5 52q0 43 30 70.5t71 27.5t67.5 -29.5t26.5 -77.5q0 -72 -63.5 -146.5t-178.5 -133.5zM123 858l8 86l115 25q41 10 59.5 44t87.5 218l121 12l-49 -264h217l-20 -121h-222l-112 -610q-10 -68 -11 -86q0 -59 72 -60q60 1 191 48 l26 -58q-168 -111 -295 -110q-82 0 -125 42t-43 117q0 57 17 144l104 573h-141z" />
<glyph unicode="&#x237;" horiz-adv-x="520" d="M-272 -401q0 53 28.5 112.5t55.5 59.5q20 0 71 -13.5t78 -13.5q33 0 58.5 36t48 114.5t37 148.5t36.5 192q2 9 2 13l99 536q4 20 4 35q0 29 -35 45.5t-123 32.5l10 66q231 29 324 28l18 -20q-4 -84 -22 -187l-88 -489q-63 -348 -191.5 -546t-316.5 -198q-94 0 -94 48z " />
<glyph unicode="&#x2bc;" horiz-adv-x="223" d="M156 1188q102 100 102 184q0 20 -17.5 50t-17.5 51q0 43 30 69.5t69 26.5q37 0 61.5 -29t24.5 -82q0 -72 -49 -156.5t-162 -160.5z" />
<glyph unicode="&#x2c6;" horiz-adv-x="612" d="M131 1200l295 346h129l188 -346l-81 -51l-191 242l-278 -242z" />
<glyph unicode="&#x2c7;" horiz-adv-x="612" d="M186 1505l82 51l191 -241l278 241l62 -51l-285 -346h-129z" />
<glyph unicode="&#x2d8;" horiz-adv-x="610" d="M178 1415q0 18 4 60h76q4 -174 198.5 -174t260.5 174h76q-33 -137 -125.5 -225.5t-237.5 -88.5q-129 0 -190.5 69.5t-61.5 184.5z" />
<glyph unicode="&#x2d9;" horiz-adv-x="233" d="M164 1372q0 47 29.5 80t82.5 33q51 0 84 -28t33 -85q0 -47 -32.5 -81t-86.5 -34q-111 0 -110 115z" />
<glyph unicode="&#x2da;" horiz-adv-x="413" d="M158 1321q0 100 63.5 162.5t171.5 62.5q88 0 134 -44t46 -122q0 -98 -63.5 -161.5t-169.5 -63.5q-182 0 -182 166zM260 1335q0 -92 94 -92q51 0 83 36t32 89q0 90 -90 90q-53 0 -86 -34.5t-33 -88.5z" />
<glyph unicode="&#x2db;" horiz-adv-x="579" d="M51 -270q0 117 107.5 219t353.5 215l16 -45q-158 -100 -231.5 -177t-73.5 -173q0 -45 25.5 -70t68.5 -25q66 1 125 21l19 -41q-123 -94 -244 -94q-70 0 -118 46t-48 124z" />
<glyph unicode="&#x2dc;" horiz-adv-x="741" d="M141 1253q88 115 143.5 162t106.5 47q43 0 168 -43t166 -43q57 0 145 88l45 -26q-133 -219 -229 -219q-35 0 -163 43t-177 43q-78 0 -164 -86z" />
<glyph unicode="&#x2dd;" horiz-adv-x="819" d="M131 1200l287 367l182 -62l-8 -47l-399 -309zM537 1200l286 367l183 -62l-9 -47l-399 -309z" />
<glyph unicode="&#x307;" horiz-adv-x="239" d="M156 1325q0 55 38.5 94t98.5 39q104 0 104 -96q0 -57 -38 -98t-97 -41q-49 0 -77.5 25.5t-28.5 76.5z" />
<glyph unicode="&#x326;" horiz-adv-x="245" d="M-162 -379q117 74 117 139q0 18 -13.5 47t-13.5 52q0 43 30 70.5t71 27.5t67.5 -29.5t26.5 -77.5q0 -72 -63.5 -146.5t-178.5 -133.5z" />
<glyph unicode="&#x387;" horiz-adv-x="739" d="M459 786q0 53 40 93.5t95 40.5q106 0 106 -97q0 -55 -40 -97t-97 -42q-45 0 -74.5 26.5t-29.5 75.5z" />
<glyph unicode="&#x3c0;" horiz-adv-x="1220" d="M109 649q27 193 67 320h770q90 0 127 10q29 8 74 158l94 -9q-18 -186 -61 -315h-213q-31 -147 -76 -389t-45 -277q0 -45 26 -45q37 1 129 50l35 -56q-59 -45 -135 -79.5t-123 -34.5q-90 0 -90 102q0 39 139 727h-280q-39 -211 -98.5 -460t-102.5 -351h-235v80 q86 18 120 55q66 76 179 674q-111 -4 -115 -6q-18 -4 -34.5 -32t-59.5 -132z" />
<glyph unicode="&#x1e80;" horiz-adv-x="1935" d="M176 1337l12 82h465l-6 -84l-123 -39q-16 -2 -16 -16q0 -2 1 -12.5t1 -16.5l115 -919q0 -12 2 -28.5t3 -27t1 -14.5h20l373 746l-27 241q-2 12 -4 21.5t-4 15.5t-9 12.5t-10 9.5t-14.5 8t-16.5 6t-22.5 7t-25.5 8l12 82h449l-6 -84l-154 -39q-16 -2 -16 -16q0 -2 1 -12.5 t1 -16.5l100 -919q0 -12 2 -28.5t3 -27t1 -14.5h21l452 903q43 86 43 105q0 43 -145 67l10 82h444l-6 -86q-88 -16 -115.5 -36.5t-58.5 -77.5l-626 -1237h-160l-78 708q-4 33 -4 90h-17q-4 -23 -22 -53l-367 -745h-166l-192 1267q-6 43 -26.5 56.5t-94.5 31.5zM825 1767 l131 105l308 -264l-54 -74l-376 190z" />
<glyph unicode="&#x1e81;" horiz-adv-x="1482" d="M49 897l10 66q221 29 287 28l19 -20l127 -781l8 -2q244 307 243 492v14l-20 111q-10 55 -29.5 68.5t-101.5 23.5l10 66q199 29 256 28l19 -20l127 -781l8 -2q104 143 200.5 320.5t96.5 294.5q0 37 -24.5 57.5t-50.5 25.5t-85 11l10 66q213 29 287 28l18 -20 q12 -23 13 -74q0 -121 -103.5 -322.5t-209 -348t-189.5 -244.5h-96l-88 462l-9 2q-121 -227 -319 -464h-96l-156 823q-10 55 -34.5 68.5t-127.5 23.5zM606 1458l8 47l166 62l152 -367l-72 -51z" />
<glyph unicode="&#x1e82;" horiz-adv-x="1935" d="M176 1337l12 82h465l-6 -84l-123 -39q-16 -2 -16 -16q0 -2 1 -12.5t1 -16.5l115 -919q0 -12 2 -28.5t3 -27t1 -14.5h20l373 746l-27 241q-2 12 -4 21.5t-4 15.5t-9 12.5t-10 9.5t-14.5 8t-16.5 6t-22.5 7t-25.5 8l12 82h449l-6 -84l-154 -39q-16 -2 -16 -16q0 -2 1 -12.5 t1 -16.5l100 -919q0 -12 2 -28.5t3 -27t1 -14.5h21l452 903q43 86 43 105q0 43 -145 67l10 82h444l-6 -86q-88 -16 -115.5 -36.5t-58.5 -77.5l-626 -1237h-160l-78 708q-4 33 -4 90h-17q-4 -23 -22 -53l-367 -745h-166l-192 1267q-6 43 -26.5 56.5t-94.5 31.5zM971 1608 l405 264l115 -105l-25 -43l-446 -190z" />
<glyph unicode="&#x1e83;" horiz-adv-x="1482" d="M49 897l10 66q221 29 287 28l19 -20l127 -781l8 -2q244 307 243 492v14l-20 111q-10 55 -29.5 68.5t-101.5 23.5l10 66q199 29 256 28l19 -20l127 -781l8 -2q104 143 200.5 320.5t96.5 294.5q0 37 -24.5 57.5t-50.5 25.5t-85 11l10 66q213 29 287 28l18 -20 q12 -23 13 -74q0 -121 -103.5 -322.5t-209 -348t-189.5 -244.5h-96l-88 462l-9 2q-121 -227 -319 -464h-96l-156 823q-10 55 -34.5 68.5t-127.5 23.5zM748 1200l286 367l160 -62l-8 -47l-369 -309z" />
<glyph unicode="&#x1e84;" horiz-adv-x="1935" d="M176 1337l12 82h465l-6 -84l-123 -39q-16 -2 -16 -16q0 -2 1 -12.5t1 -16.5l115 -919q0 -12 2 -28.5t3 -27t1 -14.5h20l373 746l-27 241q-2 12 -4 21.5t-4 15.5t-9 12.5t-10 9.5t-14.5 8t-16.5 6t-22.5 7t-25.5 8l12 82h449l-6 -84l-154 -39q-16 -2 -16 -16q0 -2 1 -12.5 t1 -16.5l100 -919q0 -12 2 -28.5t3 -27t1 -14.5h21l452 903q43 86 43 105q0 43 -145 67l10 82h444l-6 -86q-88 -16 -115.5 -36.5t-58.5 -77.5l-626 -1237h-160l-78 708q-4 33 -4 90h-17q-4 -23 -22 -53l-367 -745h-166l-192 1267q-6 43 -26.5 56.5t-94.5 31.5zM844 1681 q0 53 37 92t88 39q96 0 96 -92q0 -53 -37 -93t-88 -40q-96 0 -96 94zM1239 1681q0 53 37 92t88 39q96 0 96 -92q0 -53 -37 -93t-88 -40q-96 0 -96 94z" />
<glyph unicode="&#x1e85;" horiz-adv-x="1482" d="M49 897l10 66q221 29 287 28l19 -20l127 -781l8 -2q244 307 243 492v14l-20 111q-10 55 -29.5 68.5t-101.5 23.5l10 66q199 29 256 28l19 -20l127 -781l8 -2q104 143 200.5 320.5t96.5 294.5q0 37 -24.5 57.5t-50.5 25.5t-85 11l10 66q213 29 287 28l18 -20 q12 -23 13 -74q0 -121 -103.5 -322.5t-209 -348t-189.5 -244.5h-96l-88 462l-9 2q-121 -227 -319 -464h-96l-156 823q-10 55 -34.5 68.5t-127.5 23.5zM567 1323q0 53 37 92t88 39q96 0 96 -92q0 -53 -37.5 -93t-88.5 -40q-94 0 -95 94zM963 1323q0 53 36.5 92t87.5 39 q96 0 97 -92q0 -53 -38 -93t-89 -40q-94 0 -94 94z" />
<glyph unicode="&#x1ef2;" horiz-adv-x="1224" d="M184 1337l13 82h489l-6 -84l-143 -37q-16 -4 -17 -16q0 -6 8 -31l156 -452q10 -31 10 -60h21l305 441q59 88 59 102q0 18 -23.5 29.5t-88.5 25.5l10 82h430l-6 -86q-92 -18 -131 -39.5t-74 -70.5l-434 -635l-70 -393q-4 -20 -4 -37q0 -51 47 -56l135 -22l-10 -80h-575v80 q133 20 165.5 41.5t45.5 85.5l63 364l-248 678q-16 45 -35.5 57.5t-91.5 30.5zM535 1767l131 105l307 -264l-53 -74l-377 190z" />
<glyph unicode="&#x1ef3;" horiz-adv-x="995" d="M-172 -401q0 55 31.5 117.5t60.5 62.5q20 0 69.5 -12.5t61.5 -12.5q117 1 330 232l-170 819q-12 55 -35.5 68.5t-126.5 23.5l10 66q221 29 287 28l19 -20l147 -813l8 -2q129 172 215 352t86 295q0 37 -24.5 57.5t-50 25.5t-84.5 11l10 66q213 29 286 28l19 -20 q12 -23 12 -74q0 -152 -118.5 -386.5t-282.5 -444t-352.5 -362.5t-313.5 -153q-94 0 -94 48zM391 1458l8 47l166 62l152 -367l-72 -51z" />
<glyph unicode="&#x2000;" horiz-adv-x="987" />
<glyph unicode="&#x2001;" horiz-adv-x="1974" />
<glyph unicode="&#x2002;" horiz-adv-x="987" />
<glyph unicode="&#x2003;" horiz-adv-x="1974" />
<glyph unicode="&#x2004;" horiz-adv-x="658" />
<glyph unicode="&#x2005;" horiz-adv-x="493" />
<glyph unicode="&#x2006;" horiz-adv-x="329" />
<glyph unicode="&#x2007;" horiz-adv-x="329" />
<glyph unicode="&#x2008;" horiz-adv-x="246" />
<glyph unicode="&#x2009;" horiz-adv-x="394" />
<glyph unicode="&#x200a;" horiz-adv-x="109" />
<glyph unicode="&#x2010;" horiz-adv-x="604" d="M70 416l24 151l447 29l-33 -127z" />
<glyph unicode="&#x2011;" horiz-adv-x="604" d="M70 416l24 151l447 29l-33 -127z" />
<glyph unicode="&#x2012;" horiz-adv-x="604" d="M70 416l24 151l447 29l-33 -127z" />
<glyph unicode="&#x2013;" horiz-adv-x="1024" d="M18 446l25 109h1008l-25 -109h-1008z" />
<glyph unicode="&#x2014;" horiz-adv-x="2048" d="M18 446l25 109h2032l-25 -109h-2032z" />
<glyph unicode="&#x2018;" horiz-adv-x="440" d="M125 1180q0 104 76.5 207.5t189.5 177.5l41 -54q-131 -117 -131 -227q0 -33 21.5 -61.5t21.5 -59.5q0 -51 -37 -80.5t-82 -29.5t-72.5 31.5t-27.5 95.5z" />
<glyph unicode="&#x2019;" horiz-adv-x="440" d="M133 1110q131 117 131 227q0 33 -21.5 61.5t-21.5 59.5q0 51 37 81t82 30t72.5 -32t27.5 -95q0 -104 -76.5 -207.5t-189.5 -177.5z" />
<glyph unicode="&#x201a;" horiz-adv-x="479" d="M6 -231q61 61 100 126.5t39 106.5q0 27 -21.5 60.5t-21.5 58.5q0 49 33 79.5t80 30.5q43 0 75 -35.5t32 -91.5q0 -92 -70 -196.5t-201 -192.5z" />
<glyph unicode="&#x201c;" horiz-adv-x="831" d="M125 1180q0 104 76.5 207.5t189.5 177.5l41 -54q-131 -117 -131 -227q0 -33 21.5 -61.5t21.5 -59.5q0 -51 -37 -80.5t-82 -29.5t-72.5 31.5t-27.5 95.5zM516 1180q0 104 76.5 207.5t189.5 177.5l41 -54q-131 -117 -131 -227q0 -33 21.5 -61.5t21.5 -59.5 q0 -51 -36.5 -80.5t-82 -29.5t-73 31.5t-27.5 95.5z" />
<glyph unicode="&#x201d;" horiz-adv-x="831" d="M133 1110q131 117 131 227q0 33 -21.5 61.5t-21.5 59.5q0 51 37 81t82 30t72.5 -32t27.5 -95q0 -104 -76.5 -207.5t-189.5 -177.5zM524 1110q131 117 131 227q0 33 -21.5 61.5t-21.5 59.5q0 51 37 81t82 30t72.5 -32t27.5 -95q0 -104 -76.5 -207.5t-189.5 -177.5z" />
<glyph unicode="&#x201e;" horiz-adv-x="870" d="M6 -231q61 61 100 126.5t39 106.5q0 27 -21.5 60.5t-21.5 58.5q0 49 31 79.5t78 30.5q43 0 77 -36.5t34 -92.5q0 -90 -69 -194.5t-202 -192.5zM397 -231q61 61 100.5 126.5t39.5 106.5q0 27 -21.5 60.5t-21.5 58.5q0 49 30.5 79.5t77.5 30.5q43 0 77 -36.5t34 -92.5 q0 -90 -69 -194.5t-202 -192.5z" />
<glyph unicode="&#x2020;" horiz-adv-x="1040" d="M145 961l43 28l248 -49q82 -18 90 -27l25 19q-10 27 -10 82v12l24 354l197 70l22 -37l-120 -383q-23 -74 -43 -94l16 -25q53 23 98 31l246 41l31 -184l-39 -29l-258 49q-76 16 -88 27l-29 -23q12 -74 12 -84v-8l-24 -358l-224 -822h-81l86 791l120 387q20 70 45 94 l-14 23q-47 -20 -100 -29l-238 -41z" />
<glyph unicode="&#x2021;" horiz-adv-x="1040" d="M2 188l43 29l248 -49q82 -18 90 -27l25 19q-10 31 -11 94v231l90 244q33 82 45 94l-14 23q-47 -20 -100 -29l-238 -41l-35 185l43 28l248 -49q80 -16 90 -27l25 19q-10 27 -10 82l24 366l197 70l22 -37l-120 -383q-23 -74 -43 -94l16 -25q41 20 98 31l246 41l31 -184 l-39 -29l-258 49q-76 16 -88 27l-29 -23q0 -4 5 -21.5t9 -37t4 -33.5v-213l-96 -260q-23 -74 -43 -94l19 -25q55 23 96 31l246 41l30 -184l-39 -29l-258 49q-76 16 -88 27l-28 -23q12 -74 12 -84v-8l-23 -342l-196 -66l-21 35l117 371q27 76 45 94l-14 23q-47 -20 -101 -29 l-237 -41z" />
<glyph unicode="&#x2022;" horiz-adv-x="702" d="M109 485q0 127 81.5 213t225.5 86q100 0 173 -56t73 -163q0 -131 -84.5 -218t-221.5 -87q-102 0 -174.5 61.5t-72.5 163.5z" />
<glyph unicode="&#x2026;" horiz-adv-x="1761" d="M147 88q0 57 42 100t102 43q113 0 112 -102q0 -59 -43 -103t-104 -44q-49 0 -79 27.5t-30 78.5zM709 88q0 57 42 100t101 43q113 0 113 -102q0 -59 -43.5 -103t-104.5 -44q-49 0 -78.5 27.5t-29.5 78.5zM1270 88q0 57 42 100t101 43q113 0 113 -102q0 -59 -43.5 -103 t-104.5 -44q-49 0 -78.5 27.5t-29.5 78.5z" />
<glyph unicode="&#x202f;" horiz-adv-x="394" />
<glyph unicode="&#x2030;" horiz-adv-x="2422" d="M160 934q0 199 121.5 365.5t298.5 166.5q133 0 212.5 -100t79.5 -250q0 -203 -122.5 -366.5t-296.5 -163.5q-135 0 -214 99t-79 249zM322 928q-1 -264 159 -264q117 0 173.5 132t56.5 308q0 139 -42 212t-118 73q-80 0 -134.5 -78t-74.5 -177.5t-20 -205.5zM348 0 l928 1419h133l-926 -1419h-135zM909 330q0 199 122 365.5t298 166.5q133 0 213 -100t80 -250q0 -203 -123 -366.5t-297 -163.5q-135 0 -214 99t-79 249zM1071 324q0 -265 160 -265q117 0 173 132.5t56 308.5q0 139 -42 211.5t-118 72.5q-80 0 -134 -77.5t-74.5 -177 t-20.5 -205.5zM1677 330q0 199 122 365.5t298 166.5q133 0 213 -100t80 -250q0 -203 -123 -366.5t-297 -163.5q-135 0 -214 99t-79 249zM1839 324q0 -265 160 -265q117 0 173 132.5t56 308.5q0 139 -42 211.5t-118 72.5q-80 0 -134 -77.5t-74.5 -177t-20.5 -205.5z" />
<glyph unicode="&#x2039;" horiz-adv-x="581" d="M152 500v32l395 349l37 -33l-281 -340l160 -348l-49 -33z" />
<glyph unicode="&#x203a;" horiz-adv-x="581" d="M49 160l279 356l-158 332l49 33l273 -349l-7 -32l-399 -373z" />
<glyph unicode="&#x2042;" horiz-adv-x="1579" d="M27 317l16 27l236 88q43 16 63 17l4 16q-29 0 -59 12l-185 84l48 127l28 4l160 -145q35 -31 37 -45l16 8q-8 16 -8 53v8l14 215l129 45l15 -24l-76 -234q-20 -53 -29 -61l13 -8q20 29 51 47l196 129l82 -82l-16 -27l-234 -90q-43 -16 -63 -16l-4 -16q37 0 57 -11l184 -86 l-47 -125l-28 -4l-160 144q-35 31 -37 45l-16 -9q10 -47 10 -59l-14 -215l-129 -43l-15 23l78 233q16 51 27 61l-13 9q-20 -29 -51 -47l-196 -129zM543 1010l16 26l236 88q43 16 63 17l4 16q-29 0 -59 12l-185 84l48 127l28 4l160 -145q35 -31 37 -45l16 8q-8 16 -8 53v9 l14 215l129 45l15 -25l-76 -233q-20 -53 -29 -62l13 -8q20 29 51 47l196 129l82 -82l-16 -26l-234 -90q-43 -16 -63 -17l-4 -16q37 0 57 -11l185 -86l-48 -124l-28 -5l-160 144q-35 31 -37 45l-16 -8q10 -47 10 -60l-14 -215l-129 -43l-15 23l78 233q16 51 27 62l-13 8 q-20 -29 -51 -47l-196 -129zM803 317l16 27l236 88q43 16 63 17l4 16q-29 0 -59 12l-184 84l47 127l28 4l160 -145q35 -31 37 -45l16 8q-8 16 -8 53v8l15 215l129 45l14 -24l-76 -234q-20 -53 -29 -61l13 -8q20 29 51 47l197 129l81 -82l-16 -27l-233 -90q-43 -16 -64 -16 l-4 -16q37 0 57 -11l185 -86l-47 -125l-29 -4l-160 144q-35 31 -37 45l-16 -9q10 -47 10 -59l-14 -215l-129 -43l-15 23l78 233q16 51 27 61l-12 9q-20 -29 -52 -47l-196 -129z" />
<glyph unicode="&#x2044;" horiz-adv-x="344" d="M-307 0l928 1419h133l-926 -1419h-135z" />
<glyph unicode="&#x205f;" horiz-adv-x="493" />
<glyph unicode="&#x20ac;" horiz-adv-x="1216" d="M74 504l18 104h789l-19 -104h-422q16 -205 109.5 -306.5t220.5 -101.5q59 0 111.5 18.5t72.5 32.5q31 23 107 263l113 -4q-16 -174 -50 -332q-66 -35 -185.5 -63.5t-238.5 -28.5q-223 0 -351 145t-142 377h-133zM98 754l21 104h123q66 229 235.5 377.5t454.5 148.5 q98 0 203.5 -20.5t138.5 -36.5q0 -135 -41 -344l-119 -16q-10 225 -43 262q-12 14 -71.5 30.5t-118.5 16.5q-164 0 -268.5 -114.5t-147.5 -303.5h463l-21 -104h-809z" />
<glyph unicode="&#x2116;" horiz-adv-x="1933" d="M41 0l2 80q111 18 138.5 40.5t39.5 86.5l176 1005q6 29 6 48q0 33 -27.5 49t-111.5 30l12 80h406l328 -966h14l129 718q6 37 6 64q0 49 -36 70.5t-138 33.5l12 80h496l-6 -80l-131 -24q-18 -4 -29.5 -13.5t-14.5 -16.5t-5 -23l-224 -1262h-127l-409 1188h-17l-174 -993 q-4 -20 -4 -37q0 -51 47 -56l170 -22l-10 -80h-518zM1296 358l21 109h647l-20 -109h-648zM1372 838q0 117 43 226.5t139.5 188t225.5 78.5q123 0 187.5 -67.5t64.5 -188.5q0 -115 -44 -223.5t-140.5 -187t-225.5 -78.5q-121 0 -185.5 66.5t-64.5 185.5zM1536 856 q0 -193 123 -192q64 -1 113 38q31 23 64.5 135.5t33.5 221.5q0 195 -127 194q-66 0 -111 -39q-31 -23 -63.5 -136t-32.5 -222z" />
<glyph unicode="&#x211e;" horiz-adv-x="1335" d="M43 0v80q111 18 138.5 40.5t39.5 86.5l176 1005q6 29 6 48q0 33 -27.5 48t-111.5 31l12 80h545q186 0 284.5 -83t98.5 -230q0 -162 -98 -280.5t-254 -166.5l6 3v-9q14 -4 37 -45l98 -194q63 100 123 166q80 82 176 82q74 0 74 -39t-21.5 -81t-41.5 -42q-14 0 -54.5 8 t-58.5 8q-23 0 -68 -48t-94 -126l92 -178q23 -45 51.5 -61.5t102.5 -22.5l-10 -80h-295l-66 135q-27 -37 -59 -69q-80 -82 -176 -82q-70 0 -70 38.5t19.5 80.5t39.5 42q14 0 54.5 -8t60.5 -8q31 0 94 82l-200 412h-172l-74 -420q-6 -31 -6 -47q0 -43 39 -54l98 -22l-10 -80 h-498zM512 727h92q176 0 276.5 89t100.5 251q0 139 -66.5 191.5t-175.5 52.5h-84q-41 0 -49 -49z" />
<glyph unicode="&#x2122;" horiz-adv-x="2091" d="M225 1227q20 106 66 196h678q6 -37 6 -69q0 -41 -12 -127l-80 -8q-14 117 -31 118q-31 6 -78 6h-72l-114 -620q0 -4 -2 -17.5t-4 -22.5t-2 -13q0 -16 34 -23l80 -12l-14 -66h-401v66q84 12 104 25.5t27 50.5l118 632h-69q-51 0 -82 -6q-8 -2 -13.5 -4t-10.5 -7t-8 -9 t-8 -15.5t-8 -20.5t-11.5 -27.5t-14.5 -34.5zM948 635q74 14 92.5 24.5t26.5 45.5l141 577q4 20 4 29q0 20 -17 28.5t-71 18.5l19 65h289l106 -542q0 -4 1 -15.5t1 -17.5h14q2 12 11 24l317 551h295l-6 -65l-86 -15q-29 -4 -31 -32l-74 -584q-4 -41 -4 -51q0 -25 29 -29 l68 -12l-7 -66h-378v66q100 14 110 76l80 508q6 31 14 47l-12 2l-358 -633h-119l-107 571q-2 12 -2 39v15h-12l-127 -543q-4 -25 -4 -31q0 -33 37 -41l57 -10l-8 -66h-285z" />
<glyph unicode="&#x2126;" horiz-adv-x="1470" d="M70 260q0 53 2 80l106 10q35 -123 48.5 -152.5t33.5 -31.5q57 -8 129 -8h53l11 14q-31 12 -54 39q-201 246 -200 518q0 313 196.5 511t532.5 198q246 0 386 -125t140 -330q0 -190 -99.5 -370.5t-334.5 -395.5q-33 -29 -72 -45l2 -14h64q76 0 133 8q20 2 46 32.5 t103 151.5l103 -10q-58 -190 -154 -340h-483l-8 66q111 117 179 198.5t141 193t108 227.5t35 241q0 176 -86.5 289.5t-245.5 113.5q-123 0 -216.5 -60.5t-145.5 -156.5t-76.5 -201.5t-24.5 -212.5q0 -59 10 -122.5t19.5 -105.5t36 -111.5t38 -95t48 -104.5t42.5 -93l-32 -66 h-486q-29 113 -28 260z" />
<glyph unicode="&#x212e;" horiz-adv-x="1701" d="M41 707q0 303 236.5 517t570.5 214q338 0 575.5 -214t237.5 -517v-19h-1313q-10 0 -10 -10v-395q0 -25 16 -47q215 -215 496 -216q154 0 290 64.5t232 177.5h119q-109 -129 -279 -204.5t-364 -75.5q-334 0 -570.5 213t-236.5 512zM338 741q0 -14 10 -14h1006q8 0 8 14 v398q0 29 -19 47q-211 207 -493 207q-281 0 -492 -211q-20 -20 -20 -52v-389z" />
<glyph unicode="&#x2190;" horiz-adv-x="1581" d="M152 707v30l524 527l82 -82l-330 -330q-55 -55 -76 -68l2 -8h1198v-108h-1198l-2 -9q25 -16 76 -67l330 -330l-82 -82z" />
<glyph unicode="&#x2191;" horiz-adv-x="1269" d="M135 897l524 522h39l525 -522l-84 -78l-332 330q-43 43 -57 72l-9 -2v-1219h-125v1219l-8 2q-20 -35 -57 -72l-332 -330z" />
<glyph unicode="&#x2192;" horiz-adv-x="1581" d="M152 668v108h1198l2 8q-20 12 -76 68l-330 330l82 82l524 -527v-30l-524 -527l-82 82l330 330q51 51 76 67l-2 9h-1198z" />
<glyph unicode="&#x2193;" horiz-adv-x="1269" d="M129 522l84 78l332 -330q37 -37 57 -71l8 2v1218h125v-1218l8 -2q14 29 58 71l332 330l84 -78l-525 -522h-39z" />
<glyph unicode="&#x2202;" horiz-adv-x="1036" d="M41 305q0 219 165 388t363 169q156 0 267 -100q25 131 24 231q0 170 -60.5 253t-160.5 83q-55 0 -110.5 -29.5t-82 -54t-75.5 -74.5q-29 8 -69 40t-62 75q166 152 383 152q219 0 334.5 -159t115.5 -398q0 -117 -30.5 -241t-91 -241.5t-143.5 -212t-197.5 -150.5 t-241.5 -56q-152 0 -240 88t-88 237zM236 289q0 -88 41.5 -145.5t121.5 -57.5q84 0 160 63.5t123 158.5t76 175.5t41 141.5q-14 57 -71.5 94t-127.5 37q-106 0 -194.5 -90.5t-129 -195.5t-40.5 -181z" />
<glyph unicode="&#x2206;" horiz-adv-x="1312" d="M33 0l14 82l744 1356h141l231 -1352l-16 -86h-1114zM201 109h741l-147 1034q-2 10 -2 31q0 25 2 28h-15z" />
<glyph unicode="&#x220f;" horiz-adv-x="1579" d="M193 -57q109 18 132 40.5t23 86.5v1142q0 63 -23.5 86t-131.5 41l12 80h1206l8 -80l-127 -24q-41 -8 -41 -53v-1242q0 -45 41 -53l127 -24l-8 -80h-502l-12 80q109 18 132.5 40.5t23.5 86.5v1124q0 66 -24.5 84t-131.5 18h-313q-37 0 -37 -53v-1223q0 -45 41 -53l127 -24 l-8 -80h-502z" />
<glyph unicode="&#x2211;" horiz-adv-x="1243" d="M86 -70l496 654l-496 782v53h979q18 -100 18 -213q0 -61 -4 -147l-129 -15q-53 256 -84 259q-86 12 -303 12h-196l-5 -15q18 -8 46 -47l372 -587l-487 -646h446q98 0 172 9q20 2 36 44t48 201l107 -10q4 -66 4 -102q0 -201 -33 -299h-987v67z" />
<glyph unicode="&#x2212;" horiz-adv-x="954" d="M113 500v108h770v-108h-770z" />
<glyph unicode="&#x221a;" horiz-adv-x="1208" d="M133 870q174 113 264 158l29 -10l389 -817l12 4l338 1636l101 -18l-408 -2026l-41 -12l-483 997q-20 43 -70 43q-31 0 -112 -20z" />
<glyph unicode="&#x221e;" horiz-adv-x="1554" d="M129 569q0 162 99.5 258.5t252.5 96.5q219 0 342 -197q133 197 330 197q129 0 223 -81t94 -227q0 -162 -99 -258t-253 -96q-219 0 -342 197q-133 -197 -330 -197q-129 0 -223 81t-94 226zM250 592q0 -94 59.5 -158.5t155.5 -64.5q160 0 254 182q-45 82 -77 128t-85 86 t-111 40q-80 0 -138 -61.5t-58 -151.5zM881 635q45 -82 77.5 -129t85 -86t111.5 -39q80 0 137.5 61.5t57.5 155.5t-52.5 156.5t-146.5 62.5q-84 0 -155.5 -52t-114.5 -130z" />
<glyph unicode="&#x222b;" horiz-adv-x="782" d="M25 -217q0 66 34 119q80 -20 127 -21q49 0 80 15q51 55 51 364q0 162 -10 486.5t-10 488.5q0 190 108.5 352t206.5 162q74 0 156 -14q6 -25 6 -49q0 -68 -35 -119q-80 20 -127 20q-53 0 -80 -14q-51 -61 -51 -369q0 -160 10.5 -483.5t10.5 -487.5q0 -188 -108.5 -351 t-207.5 -163q-73 1 -155 15q-6 25 -6 49z" />
<glyph unicode="&#x2248;" horiz-adv-x="954" d="M96 379q68 115 116 160t105 45q39 0 99 -19q10 -2 229 -84q57 -20 98 -20q31 0 59.5 15.5t45 31.5t51.5 53l72 -49q-31 -47 -48.5 -72.5t-47 -62.5t-61.5 -53.5t-64 -16.5q-37 0 -91 17q-20 6 -124.5 45t-124.5 45q-49 16 -86 16q-66 0 -156 -100zM96 686q68 115 116 160 t105 45q39 0 99 -19q10 -2 229 -84q57 -20 98 -20q31 0 59.5 15.5t45 31.5t51.5 53l72 -49q-31 -47 -48.5 -72.5t-47 -62.5t-61.5 -53.5t-64 -16.5q-37 0 -91 17q-20 6 -124.5 45t-124.5 45q-49 16 -86 16q-66 0 -156 -100z" />
<glyph unicode="&#x2260;" horiz-adv-x="954" d="M133 354v109h285l90 172h-375v108h430l137 267l113 -41l-117 -226h207v-108h-262l-90 -172h352v-109h-407l-138 -266l-110 41l114 225h-229z" />
<glyph unicode="&#x2264;" horiz-adv-x="954" d="M115 0v104h770v-104h-770zM115 641v154l768 436v-141l-654 -373l654 -369v-141z" />
<glyph unicode="&#x2265;" horiz-adv-x="954" d="M115 0v104h770v-104h-770zM117 207v141l653 369l-653 373v141l768 -436v-154z" />
<glyph unicode="&#x25a0;" horiz-adv-x="2048" d="M166 0v1716h1716v-1716h-1716z" />
<glyph unicode="&#x25a1;" horiz-adv-x="2048" d="M166 0v1716h1716v-1716h-1716zM289 123h1470v1470h-1470v-1470z" />
<glyph unicode="&#x25ca;" horiz-adv-x="1011" d="M84 723l369 858h176l393 -858l-393 -860h-176zM242 723l297 -729l325 729l-325 727z" />
<glyph unicode="&#x25cc;" horiz-adv-x="1024" d="M20 461h89q8 -123 86 -225l-62 -64q-100 119 -113 289zM20 543q12 154 119 278l62 -65q-76 -88 -92 -213h-89zM195 113l57 59q108 -84 233 -92v-88q-158 12 -290 121zM203 879q126 102 282 114v-88q-121 -12 -217 -84zM571 -8v88q121 8 230 92l59 -59 q-133 -109 -289 -121zM571 905v88q160 -12 283 -114l-63 -58q-100 72 -220 84zM854 758l61 63q105 -120 121 -278h-90q-8 123 -92 215zM860 233q78 109 86 228h90q-12 -170 -112 -289z" />
<glyph unicode="&#xe000;" horiz-adv-x="1000" d="M0 1000h1000v-1000h-1000v1000z" />
<glyph horiz-adv-x="491" d="M207 1608l405 264l115 -105l-25 -43l-446 -190z" />
<glyph horiz-adv-x="610" d="M248 1794q0 33 2 49h76q6 -147 200.5 -147t257.5 147h76q-31 -127 -122 -207t-236 -80q-129 0 -191.5 66t-62.5 172z" />
<glyph horiz-adv-x="671" d="M203 1587l319 285h115l237 -285l-61 -53l-250 186l-319 -186z" />
<glyph horiz-adv-x="612" d="M221 1681q0 53 37 92t88 39q96 0 96 -92q0 -53 -37 -93t-88 -40q-96 0 -96 94zM616 1681q0 53 37 92t88 39q96 0 97 -92q0 -53 -37 -93t-88 -40q-96 0 -97 94z" />
<glyph horiz-adv-x="466" d="M236 1767l131 105l307 -264l-53 -74l-377 190z" />
<glyph horiz-adv-x="509" d="M207 1647l22 122h510l-22 -122h-510z" />
<glyph horiz-adv-x="409" d="M221 1671q0 92 70.5 151.5t165.5 59.5q76 0 126 -44t50 -116q0 -88 -72 -148.5t-166 -60.5q-76 0 -125 43t-49 115zM322 1681q0 -37 23.5 -58t62.5 -21q51 0 85.5 32.5t34.5 81.5q0 35 -22.5 56.5t-61.5 21.5q-59 0 -90.5 -31.5t-31.5 -81.5z" />
<glyph horiz-adv-x="739" d="M207 1612q86 109 141 152.5t107 43.5q43 0 170 -27.5t168 -27.5q59 0 141 72l47 -25q-133 -207 -227 -207q-35 0 -166 28t-180 28q-78 0 -160 -70z" />
<glyph horiz-adv-x="671" d="M246 1825l61 53l250 -186l320 186l41 -53l-322 -285h-115z" />
<glyph horiz-adv-x="219" d="M31 1210q74 178 80 330l182 45l18 -39q-57 -198 -200 -364z" />
<glyph horiz-adv-x="839" d="M203 1589l293 285l182 -62l-8 -47l-406 -227zM608 1589l293 285l182 -62l-8 -47l-405 -227z" />
<glyph horiz-adv-x="620" d="M51 -283q0 123 146.5 229.5t371.5 106.5l-10 -53q-133 -4 -233.5 -72.5t-100.5 -165.5q0 -43 27 -65.5t70 -22.5q63 1 124 21l19 -41q-123 -94 -244 -94q-72 0 -121 44t-49 113z" />
<glyph horiz-adv-x="651" d="M6 674l596 348l41 -88l-596 -348z" />
<glyph horiz-adv-x="741" d="M8 299l524 547q74 16 127 16l21 -16l-102 -547q20 0 61 -1t61 -1l-20 -82h-119l-14 -82q-6 -31 -6 -37q0 -16 18 -22l76 -15l-8 -59h-369v59q80 10 110.5 25.5t34.5 42.5l17 88h-391l-6 4zM123 311l2 -6l311 -4l74 393q2 10 8 19l-6 4l-360 -383q-12 -14 -29 -23z" />
<glyph horiz-adv-x="567" d="M137 571v60q80 10 111 25.5t35 41.5l96 523q8 49 8 65q0 35 -25 35q-23 0 -120 -6v57q184 61 295 62l20 -17l-131 -704q-6 -37 -6 -43q0 -23 18 -25l101 -14l-9 -60h-393z" />
<glyph horiz-adv-x="667" d="M-39 0l14 74q268 197 390 323.5t122 247.5q0 68 -38.5 103.5t-108.5 35.5q-76 0 -115 -30q-27 -27 -39 -150l-94 6q0 121 17 191q106 61 264 61q131 0 204.5 -56t73.5 -155q0 -125 -120.5 -251t-376.5 -294v-10l98 8q47 4 115 5h67q39 0 58 4q16 4 43 98l79 -6 q-5 -105 -36 -205h-617z" />
<glyph horiz-adv-x="643" d="M98 590q4 104 39 178h84v-33q-2 -18 -2 -47q0 -33 8 -39q41 -20 107 -20q84 0 133 56t49 151q0 141 -156 141q-29 0 -75 -8l12 73q143 20 206.5 78t63.5 123q0 47 -35.5 80t-99.5 33q-37 0 -74 -17q-14 -6 -25 -31.5t-34 -109.5l-88 10q0 104 20 164q106 61 226 62 q106 0 181 -45.5t75 -131.5q0 -78 -57.5 -135.5t-137.5 -77.5v-8q70 -12 116 -58t46 -120q0 -125 -105.5 -215t-269.5 -90q-139 0 -207 37z" />
<glyph horiz-adv-x="1134" d="M100 535q0 205 80 399t227.5 323t321.5 129q195 0 307.5 -158.5t112.5 -398.5q0 -207 -82 -401.5t-229.5 -320t-317.5 -125.5q-195 0 -307.5 157.5t-112.5 395.5zM313 526q0 -436 252 -436q94 0 168 64.5t116 172t62.5 230.5t20.5 254q0 229 -63.5 348t-184.5 119 q-94 0 -169 -71.5t-117 -186.5t-63.5 -242t-21.5 -252z" />
<glyph horiz-adv-x="847" d="M96 0l2 80q121 18 166 42.5t55 74.5l164 886q14 72 15 107q0 25 -9.5 31t-37.5 6q-53 0 -183 -10v77q78 27 219.5 58.5t212.5 33.5l21 -20l-219 -1178q-4 -33 -4 -43q0 -37 39 -43l143 -22l-12 -80h-572z" />
<glyph horiz-adv-x="1013" d="M-12 0l20 109q205 158 336 270.5t242.5 231t163 223t51.5 208.5q0 113 -61.5 173.5t-174.5 60.5q-129 0 -184 -51q-49 -49 -68 -242l-114 8q0 174 26 299q158 96 391 96q190 0 297 -90t107 -245q0 -201 -189.5 -411t-578.5 -480l2 -15l164 7q317 12 319 12q12 4 20.5 13 t23 44t34.5 103l94 -9q-12 -155 -59 -315h-862z" />
<glyph horiz-adv-x="960" d="M-8 37q12 166 59 276h103q-4 -111 -4 -123q0 -59 18 -67q57 -35 166 -35q152 0 243 93t91 249q0 236 -246 236q-43 0 -98 -9l16 99q217 33 314.5 129t97.5 202q0 80 -54.5 135.5t-158.5 55.5q-68 0 -121 -27q-25 -12 -43.5 -52t-52.5 -173l-107 12q0 158 31 254 q164 94 329 94q154 0 262.5 -70.5t108.5 -205.5q0 -125 -90 -216t-207 -122l-2 -16q102 -16 171 -92t69 -199q0 -197 -168 -340t-428 -143q-92 0 -179 17t-120 38z" />
<glyph horiz-adv-x="1093" d="M41 475l813 885q121 27 180 26l21 -20l-168 -897l209 -4l-41 -117h-191l-30 -164q-4 -25 -5 -34q0 -39 39 -48l105 -22l-12 -80h-533l2 80q121 18 166 42.5t55 74.5l29 151h-614l-3 2zM188 494l7 -15l507 -8l121 649q14 55 17 62l-13 6l-594 -649q-16 -20 -45 -45z" />
<glyph horiz-adv-x="1021" d="M8 33q14 152 66 295h104q-8 -92 -8 -144q0 -55 25 -71q35 -25 131 -25q184 0 304 115.5t120 279.5q0 119 -66 189.5t-201 70.5q-102 0 -239 -26l-37 53l158 600h667l17 -22q-17 -81 -60 -144h-532l-90 -346q117 14 217 14q188 0 288.5 -83.5t100.5 -247.5 q0 -166 -102.5 -297t-258 -196.5t-327.5 -65.5q-180 0 -277 51z" />
<glyph horiz-adv-x="1054" d="M113 424q0 176 78.5 341t207.5 289t288 213t325 126l24 -84q-483 -189 -645 -576l17 -6q129 135 297 135q133 0 224 -100t91 -273q0 -221 -149.5 -364t-358.5 -143q-182 0 -290.5 115.5t-108.5 326.5zM305 412q0 -330 238 -330q143 0 209.5 115.5t66.5 265.5 q0 125 -47 191.5t-123 66.5q-129 0 -231 -59q-113 -66 -113 -250z" />
<glyph horiz-adv-x="921" d="M182 1051q10 86 15 102q29 147 53 217h842l-25 -123q-500 -606 -668 -1259q-23 -6 -59 -6q-104 0 -150 32q80 229 280 579.5t437 610.5l-2 15l-352 -7q-137 -4 -184 -8q-16 -2 -33 -28.5t-62 -135.5z" />
<glyph d="M47 274q0 125 81 219.5t179 145.5q59 31 84 31l2 18q-16 0 -33 10q-139 92 -139 273q0 172 128 293.5t337 121.5q94 0 176 -23.5t146.5 -90t64.5 -168.5q0 -106 -64.5 -199.5t-156.5 -144.5q-57 -31 -82 -31l-4 -18q12 0 31 -11q90 -47 144 -132t54 -185 q0 -174 -158.5 -287.5t-373.5 -113.5q-70 0 -137.5 13t-133 44t-105.5 92.5t-40 142.5zM223 313q0 -100 71 -159.5t202 -59.5q139 0 218 65.5t79 164.5q0 55 -26 103t-75 85t-92 61.5t-104 53.5q-14 -4 -51 -22.5t-90.5 -54.5t-92.5 -99.5t-39 -137.5zM412 1028 q0 -49 19.5 -89t61.5 -72.5t78 -52t97 -50.5q45 27 72.5 47t69.5 61t64.5 92.5t22.5 112.5q0 96 -59.5 151.5t-163.5 55.5q-129 0 -195.5 -81t-66.5 -175z" />
<glyph horiz-adv-x="1056" d="M127 -25v93q244 57 398.5 188t238.5 369l-14 6q-106 -119 -269 -119q-145 0 -240.5 104.5t-95.5 270.5q0 211 148.5 355t361.5 144q195 0 292 -124.5t97 -317.5q0 -115 -32.5 -234.5t-105 -242.5t-176 -222.5t-260.5 -173t-343 -96.5zM348 918q0 -129 57.5 -197 t137.5 -68q114 0 194 43q53 29 76 78q45 98 45 225q0 115 -59.5 201t-173.5 86q-129 0 -203 -111.5t-74 -256.5z" />
<glyph horiz-adv-x="763" d="M-25 -4q0 199 122 365.5t298 166.5q133 0 213 -100t80 -250q0 -203 -123 -366.5t-297 -163.5q-135 0 -214 99t-79 249zM137 -10q0 -264 160 -264q117 0 173 132t56 308q0 139 -42 212t-117 73q-80 0 -134.5 -78t-75 -177.5t-20.5 -205.5z" />
<glyph horiz-adv-x="567" d="M-33 -274q80 10 111 25.5t35 41.5l96 522q8 49 8 66q0 35 -24 35q-23 0 -121 -6v57q184 61 295 61l20 -16l-131 -705q-6 -37 -6 -43q0 -23 18 -24l101 -14l-9 -60h-393v60z" />
<glyph horiz-adv-x="667" d="M-100 -334l14 74q268 197 390 323.5t122 247.5q0 68 -39 104t-108 36q-76 0 -115 -31q-27 -27 -39 -150l-94 6q0 121 16 191q106 61 264 61q131 0 205 -56t74 -155q0 -125 -121 -250.5t-377 -293.5v-11l98 9q47 4 115 4h68q39 0 57 4q16 4 43 98l80 -6q-6 -105 -37 -205 h-616z" />
<glyph horiz-adv-x="643" d="M-70 -315q4 104 39 178h84v-33q-2 -18 -2 -47q0 -33 8 -39q41 -20 107 -20q84 0 133 56t49 150q0 141 -155 142q-29 0 -76 -9l12 74q143 20 206.5 77.5t63.5 123.5q0 47 -35.5 80t-99.5 33q-37 0 -74 -17q-14 -6 -25 -31.5t-34 -109.5l-88 10q0 104 20 164q106 61 226 61 q106 0 181 -45t75 -131q0 -78 -57.5 -135.5t-137.5 -77.5v-8q70 -12 116 -58t46 -120q0 -125 -105.5 -215t-269.5 -90q-139 0 -207 37z" />
<glyph horiz-adv-x="741" d="M-53 -35l524 547q74 16 127 16l20 -16l-102 -547q20 0 61 -1t62 -1l-21 -82h-118l-15 -82q-6 -31 -6 -37q0 -16 19 -22l75 -14l-8 -60h-368v60q80 10 110.5 25.5t34.5 41.5l16 88h-391l-6 4zM61 -23l2 -6l312 -4l74 393q2 10 8 19l-6 4l-361 -383q-12 -12 -29 -23z" />
<glyph horiz-adv-x="665" d="M-76 -317q12 109 43 188h86q0 -6 -2 -32.5t-2 -45.5q0 -47 12 -55q25 -14 82 -14q102 0 169 69.5t67 167.5q0 72 -42 113t-126 41q-59 0 -162 -17l-31 39l103 379h452l15 -18q-8 -48 -41 -95h-348l-54 -204q76 6 131 6q268 0 269 -209q0 -154 -130 -251t-298 -97 q-129 0 -193 35z" />
<glyph horiz-adv-x="716" d="M-12 -72q0 217 184 387.5t424 221.5l18 -62q-324 -123 -426 -342l9 -4q82 76 192 76q92 0 156.5 -64.5t64.5 -173.5q0 -139 -100 -229t-244 -90q-125 0 -201.5 73.5t-76.5 206.5zM135 -80q5 -201 152 -201q92 0 132 70t40 162q0 76 -30 115.5t-77 39.5q-84 0 -149 -36 q-68 -37 -68 -150z" />
<glyph horiz-adv-x="509" d="M-33 311q20 135 45 205h572l-19 -82q-319 -369 -426 -780q-20 -6 -47 -6q-74 0 -108 28q51 141 178 357.5t280 376.5l-2 6l-221 -8q-20 0 -49 -1t-46.5 -2.5t-23.5 -1.5q-10 0 -53 -100z" />
<glyph horiz-adv-x="704" d="M-55 -166q0 78 55 137.5t121 91.5q27 14 51 15v8q-6 0 -18 6q-96 61 -97 174q0 109 86 185.5t228 76.5q104 0 186 -43t82 -137q0 -68 -43 -127t-104 -90q-27 -16 -52 -18v-9q8 0 13 -2q61 -29 100 -84t39 -116q0 -111 -106.5 -182.5t-252.5 -71.5q-111 0 -199.5 43 t-88.5 143zM80 -141q0 -59 45 -95t129 -36q88 0 137 38.5t49 98.5q-2 102 -190 182q-18 -6 -41 -18.5t-54.5 -35t-53 -58t-21.5 -76.5zM201 301q0 -55 39.5 -88t121.5 -70q141 84 142 189q0 57 -38 90t-101 33q-82 0 -123 -48.5t-41 -105.5z" />
<glyph horiz-adv-x="714" d="M2 -293q158 35 261.5 113t158.5 215l-6 6q-70 -66 -172.5 -66t-170 65.5t-67.5 172.5q0 133 99.5 224t244.5 91q135 0 204 -79.5t69 -200.5q0 -90 -37 -185.5t-107.5 -184.5t-194.5 -153.5t-282 -82.5v65zM160 231q0 -76 35.5 -116.5t85.5 -40.5q78 -1 127 24 q29 16 45 47q29 68 28 138q-2 70 -40 122t-109 52q-82 0 -127 -67.5t-45 -158.5z" />
<glyph horiz-adv-x="763" d="M37 330q0 199 122 365.5t298 166.5q133 0 213 -100t80 -250q0 -203 -123 -366.5t-297 -163.5q-135 0 -214 99t-79 249zM199 324q-1 -265 159 -265q117 0 173.5 132.5t56.5 308.5q0 139 -42 211.5t-118 72.5q-80 0 -134 -77.5t-74.5 -177t-20.5 -205.5z" />
<glyph horiz-adv-x="763" d="M203 1221q0 199 121.5 365.5t298.5 166.5q133 0 212.5 -100.5t79.5 -249.5q0 -203 -122.5 -367t-296.5 -164q-135 0 -214 99.5t-79 249.5zM365 1214q-1 -264 159 -264q117 0 173.5 132t56.5 309q0 139 -42 211.5t-118 72.5q-80 0 -134 -77.5t-74.5 -177t-20.5 -206.5z " />
<glyph horiz-adv-x="741" d="M174 1190l524 547q74 16 127 16l21 -16l-103 -547q23 0 62 -1t61 -1l-20 -82h-119l-14 -82q-6 -31 -6 -37q0 -16 18 -22l76 -15l-8 -59h-369v59q80 10 110.5 25.5t34.5 42.5l17 88h-391l-7 4zM289 1202l2 -6l311 -4l74 393q2 10 8 19l-6 4l-361 -383q-14 -12 -28 -23z " />
<glyph horiz-adv-x="665" d="M152 907q12 109 43 189h86q0 -6 -2.5 -33t-2.5 -45q0 -47 13 -55q25 -14 82 -15q102 0 168.5 69.5t66.5 168.5q0 72 -42 112.5t-126 40.5q-59 0 -162 -16l-30 39l102 379h453l14 -19q-8 -47 -41 -94h-348l-53 -205q78 6 131 7q268 0 268 -209q0 -154 -130 -251.5 t-298 -97.5q-129 0 -192 35z" />
<glyph horiz-adv-x="716" d="M215 1153q0 217 184 387t424 221l19 -61q-324 -123 -426 -342l8 -4q82 76 192 76q92 0 157 -65t65 -173q0 -139 -100.5 -229.5t-243.5 -90.5q-125 0 -202 74t-77 207zM362 1145q5 -201 152 -201q92 0 132 69.5t40 162.5q0 76 -29.5 115.5t-76.5 39.5q-84 0 -150 -37 q-68 -37 -68 -149z" />
<glyph horiz-adv-x="509" d="M195 1536q20 135 45 205h571l-18 -82q-319 -369 -426 -780q-23 -6 -48 -7q-74 0 -108 29q51 141 178 357.5t281 375.5l-2 6l-222 -8q-20 0 -48.5 -1t-46 -2t-23.5 -1q-10 0 -54 -100z" />
<glyph horiz-adv-x="704" d="M172 1059q0 78 55.5 137t120.5 92q27 14 51 15v8q-6 0 -18 6q-96 61 -96 174q0 109 86 185.5t227 76.5q104 0 186 -43t82 -137q0 -68 -43 -127.5t-104 -89.5q-26 -17 -51 -19v-8q8 0 12 -2q61 -29 100 -84t39 -117q0 -111 -106.5 -182.5t-251.5 -71.5q-111 0 -200 43 t-89 144zM307 1083q0 -59 45 -95t129 -36q88 0 137.5 39t49.5 99q-3 102 -191 182q-18 -6 -40.5 -18.5t-54.5 -35t-53.5 -58.5t-21.5 -77zM428 1526q0 -55 40 -88t122 -70q141 84 141 188q0 57 -38 90t-101 33q-82 0 -123 -48t-41 -105z" />
<glyph horiz-adv-x="714" d="M229 866v66q158 35 261.5 113t158.5 215l-6 6q-70 -66 -172 -66t-170 65.5t-68 172.5q0 133 99.5 224t245.5 91q135 0 203.5 -80t68.5 -200q0 -90 -37 -185.5t-107.5 -184.5t-194.5 -153.5t-282 -83.5zM387 1456q0 -76 36 -117t85 -41q78 0 127 25q29 16 45 47 q29 68 29 137q-2 70 -40 122t-110 52q-82 0 -127 -67.5t-45 -157.5z" />
<glyph horiz-adv-x="786" d="M145 934q0 199 122 365.5t298 166.5q133 0 213 -100t80 -250q0 -203 -123 -366.5t-297 -163.5q-135 0 -214 99t-79 249zM307 928q0 -264 160 -264q117 0 173 132t56 308q0 139 -42 212t-117 73q-80 0 -134.5 -78t-75 -177.5t-20.5 -205.5z" />
<glyph d="M96 535q0 205 76 399t215 323t301 129q182 0 287.5 -158.5t105.5 -398.5q0 -207 -76.5 -401.5t-215 -320t-300.5 -125.5q-182 0 -287.5 157.5t-105.5 395.5zM309 526q1 -436 226 -436q86 0 151.5 64.5t103 172t56 230.5t18.5 254q0 467 -221 467q-86 0 -152.5 -71.5 t-104.5 -186.5t-57.5 -242t-19.5 -252z" />
<glyph d="M127 0l2 80q156 18 214 42.5t69 74.5l163 886q14 72 15 107q0 25 -9.5 31t-37.5 6q-59 0 -203 -10v77q82 27 229.5 58.5t225.5 33.5l18 -20l-219 -1176q-4 -25 -4 -38q0 -45 31 -48l213 -24l-13 -80h-694z" />
<glyph d="M-18 0l20 109q205 158 336 270.5t242.5 231t163 223t51.5 208.5q0 113 -61.5 173.5t-174.5 60.5q-129 0 -184 -51q-49 -49 -68 -242l-114 8q0 174 26 299q158 96 391 96q190 0 297 -90t107 -245q0 -201 -189.5 -411t-578.5 -480l2 -15l164 7q317 12 319 12q12 4 20.5 13 t22.5 44t35 103l94 -9q-12 -155 -59 -315h-862z" />
<glyph d="M53 37q12 166 60 276h102q-4 -111 -4 -123q0 -59 18 -67q57 -35 166 -35q152 0 243 93t91 249q0 236 -246 236q-43 0 -98 -9l16 99q217 33 314.5 129t97.5 202q0 80 -54 135.5t-159 55.5q-68 0 -121 -27q-25 -12 -43 -52t-53 -173l-107 12q0 158 31 254q164 94 330 94 q154 0 262.5 -70.5t108.5 -205.5q0 -125 -90 -216t-207 -122l-2 -16q102 -16 170.5 -92t68.5 -199q0 -197 -168 -340t-428 -143q-92 0 -179 17t-120 38z" />
<glyph d="M57 475l811 877q119 27 181 26l20 -20l-166 -889l164 -4l-37 -117h-149l-31 -164q-4 -25 -4 -34q0 -39 39 -48l104 -22l-12 -80h-533l2 80q121 18 166 42.5t56 74.5l28 151h-614l-2 2zM205 494l6 -15l508 -8l119 641q14 55 16 62l-12 6l-592 -641q-16 -20 -45 -45z" />
<glyph d="M37 33q14 152 65 295h105q-8 -92 -8 -144q0 -55 24 -71q35 -25 131 -25q184 0 304 115.5t120 279.5q0 119 -65.5 189.5t-200.5 70.5q-102 0 -240 -26l-36 53l157 600h668l16 -22q-16 -81 -59 -144h-533l-90 -346q117 14 217 14q188 0 288.5 -83.5t100.5 -247.5 q0 -166 -102 -297t-258 -196.5t-328 -65.5q-180 0 -276 51z" />
<glyph d="M111 424q0 176 78.5 341t207.5 289t288 213t325 126l24 -84q-483 -189 -645 -576l17 -6q129 135 296 135q133 0 224.5 -100t91.5 -273q0 -221 -149.5 -364t-358.5 -143q-182 0 -290.5 115.5t-108.5 326.5zM303 412q0 -330 238 -330q143 0 209.5 115.5t66.5 265.5 q0 125 -47 191.5t-123 66.5q-129 0 -231 -59q-113 -66 -113 -250z" />
<glyph d="M264 1051q10 86 15 102q29 147 53 217h842l-25 -123q-500 -606 -668 -1259q-23 -6 -59 -6q-104 0 -150 32q80 229 280 579.5t437 610.5l-2 15l-352 -7q-137 -4 -184 -8q-16 -2 -33 -28.5t-62 -135.5z" />
<glyph d="M59 274q0 125 81 219.5t179 145.5q59 31 84 31l3 18q-16 0 -33 10q-139 92 -140 273q0 172 128 293.5t337 121.5q94 0 176 -23.5t146.5 -90t64.5 -168.5q0 -106 -64.5 -199.5t-156.5 -144.5q-57 -31 -82 -31l-4 -18q12 0 31 -11q90 -47 144.5 -132t54.5 -185 q0 -174 -159 -287.5t-374 -113.5q-70 0 -137.5 13t-133 44t-105.5 92.5t-40 142.5zM236 313q0 -100 70.5 -159.5t201.5 -59.5q139 0 218 65.5t79 164.5q0 55 -25.5 103t-75 85t-92.5 61.5t-104 53.5q-14 -4 -51 -22.5t-90.5 -54.5t-92 -99.5t-38.5 -137.5zM424 1028 q0 -49 19.5 -89t61.5 -72.5t78 -52t97 -50.5q45 27 72.5 47t69.5 61t64.5 92.5t22.5 112.5q0 96 -59 151.5t-164 55.5q-129 0 -195.5 -81t-66.5 -175z" />
<glyph d="M137 -25v93q244 57 398.5 188t238.5 369l-14 6q-106 -119 -268 -119q-145 0 -240.5 104.5t-95.5 270.5q0 211 148.5 355t361.5 144q195 0 292 -124.5t97 -317.5q0 -115 -33 -234.5t-105.5 -242.5t-176 -222.5t-260.5 -173t-343 -96.5zM358 918q0 -129 57.5 -197 t137.5 -68q115 0 195 43q53 29 75 78q45 98 45 225q0 115 -59 201t-174 86q-129 0 -203 -111.5t-74 -256.5z" />
<glyph d="M66 406q0 317 160.5 520.5t445.5 203.5q172 0 274.5 -114.5t102.5 -310.5q0 -315 -162 -519t-447 -204q-170 0 -272 114.5t-102 309.5zM268 432.5q0 -149.5 57.5 -246t166.5 -96.5q116 0 186 72q63 68 114.5 218t51.5 300q0 152 -57.5 247t-165.5 95q-117 0 -185 -72 q-63 -68 -115.5 -218t-52.5 -299.5z" />
<glyph d="M150 0l2 80q156 18 214 42.5t68 74.5l117 628q14 72 14 107q0 25 -9 31t-38 6q-59 0 -203 -11v78q76 27 223.5 54.5t227.5 29.5l20 -20l-163 -879q-10 -72 -11 -74q0 -39 41 -45l203 -22l-12 -80h-694z" />
<glyph d="M66 0l20 109q150 106 218.5 154t161.5 122t130 113t79 95t54 104t12 106q0 90 -51 154.5t-151 64.5q-90 0 -133 -31q-55 -39 -80 -221l-109 12q0 168 25 254q135 94 364 94q162 0 251 -81.5t89 -206.5q0 -172 -137 -323.5t-479 -358.5l2 -15l125 5q213 6 256 14 q33 8 78 160l94 -9q-17 -170 -60 -315h-759z" />
<glyph d="M51 -283l12 115q623 80 623 371q0 92 -63.5 149.5t-190.5 57.5q-45 0 -100 -9l16 99q211 35 311.5 128t100.5 199q0 80 -52.5 137.5t-158.5 57.5q-76 0 -123 -27q-47 -25 -96 -225l-107 12q0 156 31 254q162 94 330 94q164 0 267 -74.5t103 -197.5q0 -106 -75.5 -190 t-188.5 -136v-16q219 -57 219 -270q0 -219 -238.5 -356.5t-619.5 -172.5z" />
<glyph d="M-12 217l805 877q121 27 180 26l20 -20l-166 -889l209 -4l-41 -117h-190l-64 -340q-66 -12 -163 -12l-19 20l62 332h-609l-2 2zM135 236l6 -15l502 -8l119 641q14 55 16 61l-12 7l-586 -641q-16 -20 -45 -45z" />
<glyph d="M23 -283l12 115q692 86 692 406q0 96 -64.5 165.5t-197.5 69.5q-102 0 -244 -27l-37 54l158 600h524q10 0 17.5 7t24 41t40.5 101l103 -14q-43 -186 -84 -301h-533l-90 -346q117 14 209 14q199 0 298 -84t99 -225q0 -231 -255.5 -385t-671.5 -191z" />
<glyph d="M115 424q0 176 78.5 341t207.5 289t288 213t325 126l24 -84q-483 -189 -645 -576l17 -6q129 135 297 135q133 0 224 -100t91 -273q0 -221 -149.5 -364t-358.5 -143q-182 0 -290.5 115.5t-108.5 326.5zM307 412q0 -330 238 -330q143 0 209.5 115.5t66.5 265.5 q0 125 -47 191.5t-123 66.5q-129 0 -231 -59q-113 -66 -113 -250z" />
<glyph d="M188 780q10 86 15 103q29 147 53 217h842l-25 -123q-500 -606 -665 -1251q-23 -6 -60 -7q-104 0 -149 33q78 227 277.5 574.5t436.5 607.5l-2 14l-352 -6q-137 -4 -184 -8q-16 -2 -32.5 -28.5t-61.5 -135.5z" />
<glyph d="M63 274q0 125 81 219.5t180 145.5q59 31 84 31l2 18q-16 0 -33 10q-139 92 -139 273q0 172 128 293.5t336 121.5q94 0 176.5 -23.5t147 -90t64.5 -168.5q0 -106 -64.5 -199.5t-157.5 -144.5q-57 -31 -82 -31l-4 -18q12 0 31 -11q90 -47 144.5 -132t54.5 -185 q0 -174 -159 -287.5t-374 -113.5q-70 0 -137.5 13t-133 44t-105.5 92.5t-40 142.5zM240 313q0 -100 70.5 -159.5t201.5 -59.5q139 0 218 65.5t79 164.5q0 55 -25.5 103t-75 85t-92.5 61.5t-104 53.5q-14 -4 -51 -22.5t-90.5 -54.5t-92 -99.5t-38.5 -137.5zM428 1028 q0 -49 19.5 -89t61.5 -72.5t78 -52t97 -50.5q45 27 72.5 47t69.5 61t64.5 92.5t22.5 112.5q0 96 -59 151.5t-164 55.5q-129 0 -195.5 -81t-66.5 -175z" />
<glyph d="M106 -281l3 93q244 57 398.5 188t237.5 369l-14 6q-106 -119 -268 -119q-145 0 -240.5 104.5t-95.5 270.5q0 211 148.5 355t361.5 144q195 0 292 -124.5t97 -317.5q0 -145 -54 -296.5t-160.5 -294t-290.5 -246t-415 -132.5zM330 662q0 -129 57 -197t137 -68q115 0 195 43 q53 29 76 78q45 98 45 225q0 115 -59.5 201t-174.5 86q-129 0 -202.5 -111.5t-73.5 -256.5z" />
<glyph horiz-adv-x="763" d="M37 330q0 199 122 365.5t298 166.5q133 0 213 -100t80 -250q0 -203 -123 -366.5t-297 -163.5q-135 0 -214 99t-79 249zM199 324q-1 -265 159 -265q117 0 173.5 132.5t56.5 308.5q0 139 -42 211.5t-118 72.5q-80 0 -134 -77.5t-74.5 -177t-20.5 -205.5z" />
<glyph horiz-adv-x="567" d="M31 0v59q80 10 110.5 25.5t34.5 42.5l96 522q8 49 9 66q0 35 -25 35q-23 0 -121 -7v58q184 61 295 61l21 -16l-132 -705q-6 -37 -6 -43q0 -23 19 -24l100 -15l-8 -59h-393z" />
<glyph horiz-adv-x="643" d="M-8 18q4 104 39 179h84v-33q-2 -18 -2 -47q0 -33 8 -39q41 -20 106 -21q84 0 133.5 56.5t49.5 150.5q0 141 -156 142q-29 0 -76 -9l12 74q143 20 207 77.5t64 123.5q0 47 -36 79.5t-99 32.5q-37 0 -74 -16q-14 -6 -25.5 -31.5t-33.5 -109.5l-89 10q0 104 21 164 q106 61 225 61q106 0 181 -45t75 -131q0 -78 -57 -135.5t-137 -77.5v-8q70 -12 115.5 -58.5t45.5 -119.5q0 -125 -105.5 -215t-268.5 -90q-139 0 -207 36z" />
<glyph horiz-adv-x="665" d="M-14 16q12 109 43 189h86q0 -4 -2 -33t-2 -45q0 -47 12 -55q25 -14 82 -15q102 0 168.5 70t66.5 168q0 72 -42 113t-126 41q-59 0 -161 -17l-31 39l102 379h453l14 -19q-8 -47 -41 -94h-348l-53 -205q76 6 131 7q268 0 268 -209q0 -154 -130 -251t-298 -97 q-129 0 -192 34z" />
<glyph horiz-adv-x="716" d="M49 262q0 217 184 387t424 221l19 -61q-324 -123 -426 -342l8 -4q82 76 193 76q92 0 156.5 -64.5t64.5 -173.5q0 -139 -100.5 -229t-243.5 -90q-125 0 -202 73.5t-77 206.5zM197 254q4 -201 151 -201q92 0 132 70t40 162q0 76 -29.5 115.5t-76.5 39.5q-84 0 -150 -37 q-68 -37 -67 -149z" />
<glyph horiz-adv-x="509" d="M29 645q20 135 45 205h571l-18 -82q-319 -369 -426 -780q-20 -6 -47 -6q-74 0 -109 28q51 141 178 357.5t281 375.5l-2 7l-221 -9q-20 0 -49 -1t-46.5 -2t-23.5 -1q-10 0 -53 -100z" />
<glyph horiz-adv-x="704" d="M6 168q0 78 55.5 137.5t120.5 91.5q27 14 51 15v8q-6 0 -18 6q-96 61 -96 174q0 109 86 185.5t227 76.5q104 0 186 -43t82 -137q0 -68 -43 -127t-104 -90q-26 -17 -51 -19v-8q8 0 12 -2q61 -29 100 -84t39 -116q0 -111 -106.5 -182.5t-251.5 -71.5q-111 0 -200 43 t-89 143zM141 193q0 -59 45 -95.5t129 -36.5q88 0 137.5 39t49.5 99q-3 102 -191 182q-18 -6 -40.5 -18.5t-54.5 -35t-53.5 -58.5t-21.5 -76zM262 635q0 -55 40 -88t122 -70q141 84 141 189q0 57 -38 89.5t-101 32.5q-82 0 -123 -48t-41 -105z" />
<glyph horiz-adv-x="714" d="M63 -25v66q158 35 261.5 113t158.5 215l-6 6q-70 -66 -172 -66t-169.5 65.5t-67.5 172.5q0 133 99 224t245 91q135 0 203.5 -80t68.5 -200q0 -90 -37 -185.5t-107.5 -184.5t-194.5 -153.5t-282 -83.5zM221 565q0 -76 36 -116.5t85 -40.5q78 -1 127 24q29 16 45 47 q29 68 29 137q-2 70 -40 122.5t-110 52.5q-82 0 -127 -68t-45 -158z" />
<glyph horiz-adv-x="763" d="M143 901q0 199 122 366t298 167q133 0 213 -100.5t80 -250.5q0 -203 -123 -366.5t-297 -163.5q-135 0 -214 99.5t-79 248.5zM305 895q0 -264 160 -264q117 0 173 132t56 308q0 139 -42 212t-117 73q-80 0 -134.5 -78t-75 -177.5t-20.5 -205.5z" />
<glyph horiz-adv-x="667" d="M68 571l14 74q268 197 390 324t122 248q0 68 -39 103.5t-109 35.5q-76 0 -114 -31q-27 -27 -39 -149l-94 6q0 121 16 190q106 61 264 62q131 0 205 -56.5t74 -154.5q0 -125 -121 -251t-377 -294v-10l98 8q47 4 115 4h68q39 0 57 4q16 4 43 98l80 -6q-6 -105 -37 -205 h-616z" />
<glyph horiz-adv-x="741" d="M115 870l524 547q74 16 127 17l20 -17l-102 -547q20 0 61 -1t62 -1l-21 -82h-118l-15 -81q-6 -31 -6 -37q0 -16 19 -23l75 -14l-8 -60h-368v60q80 10 110.5 25.5t34.5 41.5l16 88h-391l-6 5zM229 883l2 -6l312 -5l73 394q2 10 9 18l-7 4l-360 -383q-12 -12 -29 -22z" />
<glyph horiz-adv-x="665" d="M92 588q12 109 43 188h86q0 -6 -2 -32.5t-2 -45.5q0 -47 12 -55q25 -14 82 -14q102 0 169 69.5t67 167.5q0 72 -42 113t-126 41q-59 0 -162 -16l-31 38l103 379h452l15 -18q-8 -47 -41 -94h-348l-54 -205q76 6 131 6q268 0 269 -209q0 -154 -130 -251t-298 -97 q-129 0 -193 35z" />
<glyph horiz-adv-x="716" d="M156 834q0 217 184 387t424 221l18 -62q-324 -123 -426 -342l9 -4q82 76 192 76q92 0 156.5 -64.5t64.5 -173.5q0 -139 -100 -229t-244 -90q-125 0 -201.5 73.5t-76.5 207.5zM303 825q5 -200 152 -200q92 0 132 69.5t40 161.5q0 76 -30 116t-77 40q-84 0 -149 -37 q-68 -37 -68 -150z" />
<glyph horiz-adv-x="509" d="M135 1217q20 135 45 204h572l-19 -82q-319 -369 -426 -780q-20 -6 -47 -6q-74 0 -108 29q51 141 178 357t280 376l-2 6l-221 -8q-20 0 -49 -1t-46.5 -2t-23.5 -1q-10 0 -53 -101z" />
<glyph horiz-adv-x="704" d="M113 739q0 78 55 137.5t121 92.5q27 14 51 14v8q-6 0 -18 6q-96 61 -97 174q0 109 86 186t228 77q104 0 186 -43t82 -138q0 -68 -43 -127t-105 -90q-26 -16 -51 -18v-8q8 0 13 -2q61 -29 100 -84.5t39 -116.5q0 -111 -106.5 -182.5t-252.5 -71.5q-111 0 -199.5 43 t-88.5 143zM248 764q0 -59 45 -95t129 -36q88 0 137 39t49 98q-2 102 -190 182q-18 -6 -41 -18t-54.5 -34.5t-53 -58.5t-21.5 -77zM369 1206q0 -55 39.5 -87.5t121.5 -69.5q141 84 142 188q0 57 -38 90t-102 33q-82 0 -122.5 -48t-40.5 -106z" />
<glyph horiz-adv-x="714" d="M170 547v65q158 35 261.5 113t158.5 215l-6 6q-70 -66 -172.5 -65.5t-170 66t-67.5 171.5q0 133 99.5 224.5t244.5 91.5q135 0 204 -80t69 -201q0 -90 -37 -185.5t-108 -184.5t-194.5 -153.5t-281.5 -82.5zM328 1137q0 -76 35.5 -117t85.5 -41q77 0 126 25q29 16 46 47 q29 68 28 137q-2 70 -40 122t-109 52q-82 0 -127 -67.5t-45 -157.5z" />
<glyph horiz-adv-x="800" d="M74 528l800 469l41 -88l-800 -469z" />
<glyph d="M59 504l19 104h690l-18 -104h-359q14 -205 81 -306.5t159 -101.5q43 0 81 18.5t50 32.5q30 23 106 263l113 -4q-16 -174 -49 -332q-53 -35 -156.5 -63.5t-206.5 -28.5q-186 0 -293.5 145t-119.5 377h-97zM84 754l20 104h89q59 229 206.5 377.5t395.5 148.5 q84 0 175 -20.5t117 -36.5q1 -135 -40 -344l-119 -16q-10 225 -43 262q-10 14 -54.5 30.5t-87.5 16.5q-131 0 -215 -114.5t-114 -303.5h401l-20 -104h-711z" />
<glyph horiz-adv-x="880" d="M133 600q0 197 121 339t309 173l47 258h107l-47 -250q119 -4 217 -22q0 -113 -41 -262h-109q0 18 2 41.5t2 42.5q0 27 -4 43t-25.5 29.5t-62.5 13.5l-108 -600q115 6 274 100l49 -53q-57 -63 -153.5 -115.5t-194.5 -67.5l-49 -270h-107l50 268q-119 14 -198 97.5 t-79 234.5zM322 602q-1 -151 114 -186l105 579q-72 -12 -101 -32q-31 -25 -74.5 -139.5t-43.5 -221.5z" />
<glyph d="M215 600q0 197 121 339t309 173l47 258h107l-47 -250q119 -4 217 -22q0 -113 -41 -262h-109q0 18 2 41.5t2 42.5q0 27 -4 43t-25.5 29.5t-62.5 13.5l-108 -600q115 6 274 100l49 -53q-57 -63 -153.5 -115.5t-194.5 -67.5l-49 -270h-107l50 268q-119 14 -198 97.5 t-79 234.5zM403 602q0 -151 115 -186l105 579q-72 -12 -101 -32q-31 -25 -75 -139.5t-44 -221.5z" />
<glyph d="M199 600q0 197 120.5 339t309.5 173l47 258h106l-47 -250q119 -4 217 -22q0 -113 -41 -262h-108q0 18 2 41.5t2 42.5q0 27 -4 43t-25.5 29.5t-62.5 13.5l-109 -600q115 6 275 100l49 -53q-57 -63 -153.5 -115.5t-194.5 -67.5l-50 -270h-106l49 268q-119 14 -197.5 97.5 t-78.5 234.5zM387 602q0 -151 115 -186l104 579q-72 -12 -100 -32q-31 -25 -75 -139.5t-44 -221.5z" />
<glyph horiz-adv-x="1120" d="M61 70q0 141 78 340l119 6q-8 -147 -8 -164q0 -68 20 -84q59 -49 162 -66l94 510q-2 2 -10 5.5t-12 5.5q-121 57 -186.5 134t-65.5 199q0 162 112.5 277t301.5 143l36 203h107l-35 -193h12q158 0 283 -55q-8 -150 -78 -346l-121 -14q10 127 11 168q0 70 -21 90 q-33 29 -108 39l-86 -473l39 -17q260 -115 260 -350q0 -172 -120 -297t-327 -145l-26 -150h-107l27 146q-113 4 -210.5 31.5t-140.5 56.5zM438 1042q0 -118 131 -196l76 422q-57 -10 -108 -45q-98 -72 -99 -181zM539 98q66 8 118 47q102 74 103 201q0 121 -137 213z" />
<glyph d="M45 70q0 141 78 340l119 6q-8 -147 -9 -164q0 -68 21 -84q59 -49 162 -66l94 510q-2 2 -10 5.5t-13 5.5q-121 57 -186 134t-65 199q0 162 112.5 277t300.5 143l37 203h107l-35 -193h12q158 0 283 -55q-8 -150 -78 -346l-121 -14q10 127 10 168q0 70 -20 90 q-33 29 -109 39l-86 -473l39 -17q260 -115 260 -350q0 -172 -119.5 -297t-326.5 -145l-27 -150h-106l26 146q-113 4 -210 31.5t-140 56.5zM422 1042q0 -118 131 -196l76 422q-57 -10 -109 -45q-98 -72 -98 -181zM522 98q66 8 119 47q102 74 102 201q0 121 -137 213z" />
<glyph d="M147 51q4 150 58 316h114q-8 -82 -8 -136q0 -115 117 -131l70 389q-74 39 -118 70t-83 93.5t-39 140.5q0 135 96.5 227t259.5 106l45 244h107l-45 -242q104 -8 211 -45q-14 -143 -53 -278h-117q6 76 6 94q0 61 -11.5 85t-56.5 32l-69 -379q66 -35 99.5 -54.5t79.5 -55 t66.5 -77.5t20.5 -92q0 -145 -103.5 -247.5t-279.5 -122.5l-45 -250h-107l44 244q-162 8 -259 69zM416 844q0 -82 119 -154l61 328q-96 -6 -135 -35q-18 -14 -31.5 -57t-13.5 -82zM535 98q106 6 135 35q18 16 33.5 63.5t15.5 84.5q0 87 -123 157z" />
<glyph d="M18 47q88 78 138.5 147.5t65 108.5t24.5 94q16 80 20 221h-170l21 109h151q6 125 45 238.5t109 209t184.5 152.5t257.5 57q111 0 240 -51q0 -117 -70 -252l-96 -10q2 25 6 66t4 55q0 39 -14 51q-23 33 -127 33q-123 0 -186.5 -93t-108.5 -317q-16 -88 -20 -139h354 l-21 -109h-348q-2 -27 -10 -65q-39 -213 -174 -346l4 -10q63 41 152 41q66 0 173 -37t140 -37q60 0 164 84l63 -47q-51 -72 -79.5 -107t-93 -73.5t-136.5 -38.5q-61 0 -176 44t-201 44q-51 0 -95 -13.5t-71.5 -29t-79.5 -47.5z" />
<glyph d="M154 1288l12 82h489l-6 -84l-143 -37q-16 -4 -17 -16q0 -6 9 -31l118 -350q10 -31 11 -59h20l236 337q59 88 59 103q0 18 -23.5 29.5t-89.5 25.5l11 82h430l-6 -86q-92 -18 -131 -39.5t-74 -70.5l-289 -422h223l-20 -109h-770l20 109h221l-163 448q-16 45 -36 57.5 t-91 30.5zM158 393l18 109h770l-18 -109h-303l-35 -198q-4 -20 -4 -37q0 -51 47 -56l135 -22l-10 -80h-576v80q133 20 166 41.5t45 85.5l33 186h-268z" />
<glyph horiz-adv-x="1222" d="M150 950q0 211 113.5 340t318.5 129h712l-6 -80l-131 -24q-43 -8 -51 -53l-184 -1000q-35 -186 -161 -346t-229 -160q-85 1 -167 17v18q0 80 67 162q90 -23 133 -23q37 0 66 17q45 27 73.5 118t59.5 259l184 987h-96l-231 -1241q-66 -12 -148 -13l-18 21l92 491 q-195 4 -296 110.5t-101 270.5zM369 911q-1 -233 196 -233l109 582q4 20 4 28q0 23 -25 23h-22q-41 0 -82 -17.5t-84 -57.5t-69.5 -124t-26.5 -201z" />
<glyph horiz-adv-x="1222" d="M188 940q0 223 129 351t367 128h590l-6 -80l-131 -24q-43 -8 -52 -53l-196 -1061q-10 -61 -10 -64q0 -25 32 -33l123 -24l-10 -80h-340l244 1311h-97l-243 -1311h-314l5 80q113 18 140 40.5t40 86.5l67 362q-164 4 -251 108.5t-87 262.5z" />
<glyph horiz-adv-x="1222" d="M164 614q0 115 23.5 224.5t79 216t138 186.5t209.5 129t285 49h436l-6 -80l-131 -24q-43 -8 -51 -53l-197 -1061q-10 -61 -10 -64q0 -25 33 -33l123 -24l-11 -80h-403q-111 0 -201 36t-147.5 95t-97 139t-56 166t-16.5 178zM670 109h96l223 1202h-96z" />
<glyph horiz-adv-x="1222" d="M84 -209q0 80 68 162q90 -23 133 -23q37 0 65 17q43 27 71 119t58 258l47 245q-164 4 -251 108.5t-87 262.5q0 223 129 351t367 128h590l-6 -80l-131 -24q-43 -8 -52 -53l-196 -1061q-10 -61 -10 -64q0 -25 32 -33l123 -24l-10 -80h-340l244 1311h-97l-194 -1049 q-35 -186 -160 -346t-225 -160q-86 0 -168 17v18z" />
<glyph horiz-adv-x="499" d="M51 -444l4 63q98 12 157.5 47t59.5 84q0 66 -82 66q-43 0 -88 -21l-12 23l125 264l96 -27l-71 -151q20 4 57 4q72 0 112 -30t40 -81q0 -92 -109 -162.5t-289 -78.5z" />
<glyph horiz-adv-x="501" />
<glyph horiz-adv-x="2048" d="M-141 -459l360 2048h2048l-362 -2048h-2046z" />
<glyph horiz-adv-x="884" d="M72 1198l20 109h742l-21 -109h-741z" />
<glyph horiz-adv-x="522" d="M6 -430l375 2011h133l-375 -2011h-133z" />
<glyph horiz-adv-x="1372" d="M141 -123l1090 1704l106 -41l-1091 -1704z" />
<glyph horiz-adv-x="972" d="M39 -94l803 1265l104 -41l-805 -1265z" />
<glyph horiz-adv-x="1075" d="M86 406q0 317 161 520.5t445 203.5q172 0 274.5 -114.5t102.5 -310.5q0 -315 -161.5 -519t-446.5 -204q-170 0 -272.5 114.5t-102.5 309.5zM289 432.5q0 -149.5 57 -246t166 -96.5q116 0 186 72q63 68 114.5 218t51.5 300q0 152 -57 247t-166 95q-117 0 -184 -72 q-63 -68 -115.5 -218t-52.5 -299.5zM442 537q0 63 41 105t107 42q49 0 88 -32t39 -85q0 -66 -42 -107.5t-110 -41.5q-49 0 -86 32.5t-37 86.5z" />
<glyph horiz-adv-x="884" d="M100 692l33 123h731l-33 -123h-731z" />
<glyph horiz-adv-x="352" d="M51 784q0 57 41 99.5t101 42.5q109 0 108 -103q0 -57 -42 -101t-101 -44q-47 0 -77 27.5t-30 78.5z" />
<glyph horiz-adv-x="1134" d="M106 535q0 205 80 399t227.5 323t321.5 129q195 0 307.5 -158.5t112.5 -398.5q0 -207 -82 -401.5t-229.5 -320t-317.5 -125.5q-195 0 -307.5 157.5t-112.5 395.5zM319 526q0 -436 252 -436q94 0 168 64.5t116 172t62.5 230.5t20.5 254q0 229 -63.5 348t-184.5 119 q-94 0 -169 -71.5t-117 -186.5t-63.5 -242t-21.5 -252zM481 672q0 63 41 105t107 42q49 0 88 -32t39 -85q0 -66 -42 -107.5t-110 -41.5q-49 0 -86 32.5t-37 86.5z" />
<glyph d="M96 535q0 205 76 399t215 323t301 129q182 0 287.5 -158.5t105.5 -398.5q0 -207 -76.5 -401.5t-215 -320t-300.5 -125.5q-182 0 -287.5 157.5t-105.5 395.5zM309 526q1 -436 226 -436q86 0 151.5 64.5t103 172t56 230.5t18.5 254q0 467 -221 467q-86 0 -152.5 -71.5 t-104.5 -186.5t-57.5 -242t-19.5 -252zM446 672q0 63 41 105t107 42q49 0 88 -32t39 -85q0 -66 -42 -107.5t-110 -41.5q-49 0 -86 32.5t-37 86.5z" />
<glyph d="M66 406q0 317 160.5 520.5t445.5 203.5q172 0 274.5 -114.5t102.5 -310.5q0 -315 -162 -519t-447 -204q-170 0 -272 114.5t-102 309.5zM268 432.5q0 -149.5 57.5 -246t166.5 -96.5q116 0 186 72q63 68 114.5 218t51.5 300q0 152 -57.5 247t-165.5 95q-117 0 -185 -72 q-63 -68 -115.5 -218t-52.5 -299.5zM406 543q0 63 40.5 105t106.5 42q49 0 88 -32t39 -85q0 -66 -42 -107.5t-110 -41.5q-49 0 -85.5 32.5t-36.5 86.5z" />
</font>
</defs>
</svg>
