<?xml version="1.0" standalone="no"?>
<!DOCTYPE svg PUBLIC "-//W3C//DTD SVG 1.1//EN" "http://www.w3.org/Graphics/SVG/1.1/DTD/svg11.dtd" >
<svg xmlns="http://www.w3.org/2000/svg">
<metadata>
This is a custom SVG webfont generated by Font Squirrel.
Copyright   : Copyright c 2010 by Jos Nicols Silva Schwarzenberginfonsilvacom with Reserved Font Names Poly
Designer    : Jos Nicols Silva Schwarzenberg
Foundry     : Jose Nicolas Silva Schwarzenberg
Foundry URL : httpnsilvacom
</metadata>
<defs>
<font id="PolyRegular" horiz-adv-x="1062" >
<font-face units-per-em="2048" ascent="1638" descent="-410" />
<missing-glyph horiz-adv-x="501" />
<glyph unicode="&#xfb00;" horiz-adv-x="1404" d="M92 80q100 20 122 41.5t22 75.5v632h-134l-8 89l101 24q27 6 35 22.5t10 49.5q4 49 12 98t35.5 128t68.5 136.5t115 100.5t170 43q106 0 225 -45q0 -127 -28 -228l-101 -12q-31 143 -49 154q-23 23 -84 22q-96 0 -140 -128t-44 -329h442q27 0 42.5 11.5t18.5 25t5 35.5 q2 35 5 62.5t13 89t25.5 108.5t46.5 105.5t69.5 97.5t99 65.5t134.5 26.5q111 0 233 -47q0 -156 -26 -248l-109 -10q-33 166 -49 176q-33 20 -86 21q-176 0 -176 -519h242l-17 -96l-225 -31v-680q0 -14 2 -20t10 -12t29 -11l100 -24l-8 -80h-448l-13 80q100 20 122 41.5 t22 75.5v643q-373 0 -504 -13v-680q0 -20 8 -29t37 -14l133 -24l-8 -80h-486z" />
<glyph unicode="&#xfb01;" horiz-adv-x="1351" d="M92 80q100 20 122 41.5t22 75.5v632h-134l-8 89l101 24q27 6 35 22.5t10 49.5q2 37 7 71.5t20.5 95t37 110.5t60 105.5t89 94.5t125 64.5t164.5 25.5q125 0 277 -45q0 -139 -35 -248l-111 -12q-20 111 -29 140.5t-20 33.5q-45 23 -135 23q-135 0 -202.5 -147.5 t-67.5 -356.5h242q141 0 291.5 5t152.5 5l22 -21v-811q0 -14 2.5 -20t11.5 -12t27 -11l101 -24l-8 -80h-449l-12 80q100 20 121.5 41.5t21.5 75.5v587q0 45 -33.5 63.5t-107.5 18.5q-109 0 -383 -24v-695q0 -20 8 -29t37 -14l133 -24l-8 -80h-486z" />
<glyph unicode="&#xfb02;" horiz-adv-x="1337" d="M92 80q100 20 122 41.5t22 75.5v632h-134l-8 89l101 24q27 6 35 22.5t10 49.5q10 113 40.5 206t94 178t179.5 134t273 49q133 0 252 -18l35 -54v-1362q0 -14 2 -20t10.5 -12t28.5 -11l100 -24l-8 -80h-448l-13 80q100 20 122 41.5t22 75.5v1189q0 43 -33 64 q-41 29 -133 29q-174 0 -259 -138.5t-85 -386.5h242l-17 -96l-225 -31v-680q0 -20 8 -29t37 -14l133 -24l-8 -80h-486z" />
<glyph unicode="&#xfb03;" horiz-adv-x="2039" d="M92 80q100 20 122 41.5t22 75.5v632h-134l-8 89l101 24q27 6 35 22.5t10 49.5q4 49 12 98t35.5 128t68.5 136.5t115 100.5t170 43q106 0 225 -45q0 -127 -28 -228l-101 -12q-31 143 -49 154q-23 23 -84 22q-96 0 -140 -124t-44 -318h442q41 0 53.5 18.5t14.5 54.5 q6 59 18.5 115.5t47 138.5t86 140.5t142.5 101.5t208 43q125 0 276 -45q0 -139 -35 -248l-110 -12q-20 111 -29.5 140.5t-20.5 33.5q-45 23 -135 23q-135 0 -202.5 -147.5t-67.5 -356.5h242q141 0 291.5 5t152.5 5l23 -21v-811q0 -14 2 -20t10 -12t29 -11l100 -24l-8 -80 h-449l-12 80q100 20 121.5 41.5t21.5 75.5v587q0 45 -33.5 63.5t-107.5 18.5q-109 0 -383 -24v-695q0 -14 2 -20t10 -12t29 -11l137 -24l-8 -80h-485l-13 80q100 20 122 41.5t22 75.5v657q-373 0 -504 -12v-695q0 -20 8 -29t37 -14l133 -24l-8 -80h-486z" />
<glyph unicode="&#xfb04;" horiz-adv-x="2025" d="M92 80q100 20 122 41.5t22 75.5v632h-134l-8 89l101 24q27 6 35 22.5t10 49.5q4 49 12 98t35.5 128t68.5 136.5t115 100.5t170 43q106 0 225 -45q0 -127 -28 -228l-101 -12q-29 133 -49 154q-23 23 -84 22q-96 0 -140 -128t-44 -329h442q37 0 50.5 17.5t15.5 52.5 q68 557 588 557q132 0 251 -18l35 -54v-1362q0 -14 2 -20t10.5 -12t28.5 -11l101 -24l-9 -80h-448l-12 80q100 20 121.5 41.5t21.5 75.5v1189q0 41 -33 64q-41 29 -133 29q-174 0 -259 -138.5t-85 -386.5h242l-17 -96l-225 -31v-680q0 -14 2 -20t10 -12t29 -11l137 -24 l-8 -80h-485l-13 80q100 20 122 41.5t22 75.5v643q-373 0 -504 -13v-680q0 -20 8 -29t37 -14l133 -24l-8 -80h-486z" />
<glyph unicode="fk" horiz-adv-x="1882" d="M92 80q100 20 122 41.5t22 75.5v632h-134l-8 89l101 24q27 6 35 22.5t10 49.5q10 113 40.5 206t94 178t179.5 134t273 49q133 0 252 -18l35 -54v-1036l352 330q16 16 17 35q0 31 -142 51l13 80h407l8 -80q-94 -14 -112 -33l-281 -268l297 -424q29 -41 70 -59.5t119 -24.5 l-13 -80h-284l-318 463l-133 -127v-189q0 -18 7 -26t34 -17l90 -24l-8 -80h-438l-13 80q100 20 122 41.5t22 75.5v1189q0 43 -33 64q-41 29 -133 29q-174 0 -259 -138.5t-85 -386.5h242l-17 -96l-225 -31v-680q0 -20 8 -29t37 -14l133 -24l-8 -80h-486z" />
<glyph unicode="fb" horiz-adv-x="1830" d="M92 80q100 20 122 41.5t22 75.5v632h-134l-8 89l101 24q27 6 35 22.5t10 49.5q10 113 40.5 206t94 178t179.5 134t273 49q109 0 209 -18l35 -54v-524q0 -113 -14 -160l16 -6l21 27q119 154 292 153q158 0 264.5 -132t106.5 -359q0 -236 -122 -381t-351 -145 q-109 0 -221.5 28.5t-175.5 59.5v1316q0 43 -33 64q-29 29 -90 29q-174 0 -259 -138.5t-85 -386.5h242l-17 -96l-225 -31v-680q0 -20 8 -29t37 -14l133 -24l-8 -80h-486zM1071 172q88 -74 238 -74q119 0 166 56q35 43 59.5 131t24.5 196q0 182 -66 276.5t-162 94.5t-205 -72 q-35 -23 -45 -41t-10 -51v-516z" />
<glyph unicode="fh" horiz-adv-x="1937" d="M92 80q100 20 122 41.5t22 75.5v632h-134l-8 89l101 24q27 6 35 22.5t10 49.5q10 113 40.5 206t94 178t179.5 134t273 49q133 0 252 -18l35 -54v-524q0 -113 -14 -160l16 -6l25 29q127 152 317 151q137 0 214 -79.5t77 -219.5v-553q0 -18 7 -26t34 -17l100 -24l-8 -80 h-438l-12 80q92 18 112.5 40.5t20.5 76.5v442q0 98 -36 155.5t-140 57.5q-111 0 -228 -80q-27 -18 -37 -35.5t-10 -62.5v-527q0 -18 7 -26t34 -17l90 -24l-8 -80h-438l-13 80q100 20 122 41.5t22 75.5v1189q0 43 -33 64q-41 29 -133 29q-174 0 -259 -138.5t-85 -386.5h242 l-17 -96l-225 -31v-680q0 -20 8 -29t37 -14l133 -24l-8 -80h-486z" />
<glyph unicode="fj" horiz-adv-x="1290" d="M92 80q100 20 122 41.5t22 75.5v632h-134l-8 89l101 24q27 6 35 22.5t10 49.5q2 37 7 71.5t20.5 95t37 110.5t60 105.5t89 94.5t125 64.5t164.5 25.5q125 0 277 -45q0 -139 -35 -248l-111 -12q-20 111 -29 140.5t-20 33.5q-45 23 -135 23q-135 0 -202.5 -147.5 t-67.5 -356.5h242q133 0 276 5t145 5l23 -21v-880q0 -193 -114.5 -360t-221.5 -167q-74 0 -156 15q-6 25 -6 49q0 61 35 119q82 -20 127 -21q43 0 59 15q43 29 68 146.5t25 264.5v645q0 45 -34 63.5t-108 18.5q-102 0 -360 -24v-695q0 -20 8 -29t37 -14l133 -24l-8 -80h-486 z" />
<glyph unicode="TT" horiz-adv-x="2234" d="M14 1147q0 121 19 272h2169q18 -152 18 -272q0 -57 -2 -88l-104 -8q-18 106 -35 162.5t-26 67.5t-21 17q-25 10 -289 15v-1155q0 -47 41 -54l158 -24l-9 -80h-563l-12 80q129 20 157.5 41.5t28.5 85.5v1106h-854v-1155q0 -47 41 -54l158 -24l-8 -80h-564l-12 80 q129 20 158 41.5t29 85.5v1106q-264 -4 -289 -15q-12 -6 -21.5 -17t-26 -67.5t-34.5 -162.5l-105 8q-2 31 -2 88z" />
<glyph unicode="ft" horiz-adv-x="1433" d="M92 80q100 20 122 41.5t22 75.5v632h-134l-8 89l101 24q27 6 35 22.5t10 49.5q2 45 7 82t17 112.5t40 133t69 116t107.5 91t152.5 32.5q110 0 233 -47q0 -156 -26 -248l-109 -10q-33 166 -49 176q-33 20 -86 21q-176 0 -176 -519h409q61 0 72 47q0 14 6 43t19.5 81.5 t23.5 105.5l125 12v-289h283l-17 -96l-266 -31v-485q0 -213 131 -213q74 0 156 61l43 -59q-111 -150 -270 -149q-115 0 -179.5 79.5t-64.5 219.5v563q-307 0 -471 -17v-680q0 -20 8 -29t37 -14l153 -24l-8 -80h-506z" />
<glyph unicode="f&#xed;" horiz-adv-x="1351" d="M92 80q100 20 122 41.5t22 75.5v632h-134l-8 89l101 24q27 6 35 22.5t10 49.5q2 47 6 81.5t16 111.5t36 133.5t60.5 116t97 92t136.5 32.5q110 0 233 -47q0 -145 -26 -227l-109 -11q-23 100 -31 125t-18 31q-33 20 -76 21q-82 0 -113.5 -128t-31.5 -376h242 q141 0 291.5 5t152.5 5l22 -21v-811q0 -14 2.5 -20t11.5 -12t27 -11l101 -24l-8 -80h-449l-12 80q100 20 121.5 41.5t21.5 75.5v587q0 45 -33.5 63.5t-107.5 18.5q-109 0 -383 -24v-695q0 -20 8 -29t37 -14l133 -24l-8 -80h-486zM950 1200l219 367l164 -62v-47l-311 -309z " />
<glyph unicode="ffb" horiz-adv-x="2519" d="M92 80q100 20 122 41.5t22 75.5v632h-134l-8 89l101 24q27 6 35 22.5t10 49.5q4 49 12 98t35.5 128t68.5 136.5t115 100.5t170 43q106 0 225 -45q0 -127 -28 -228l-101 -12q-31 137 -49 154q-33 23 -84 22q-96 0 -140 -128t-44 -329h442q61 0 66 64q14 115 46 205 t95.5 176t176 134t270.5 48q109 0 208 -18l35 -54v-524q0 -113 -14 -160l16 -6l21 27q119 154 293 153q158 0 264 -132t106 -359q0 -236 -121.5 -381t-351.5 -145q-109 0 -221.5 28.5t-175.5 59.5v1316q0 43 -33 64q-29 29 -90 29q-174 0 -259 -138.5t-85 -386.5h242 l-17 -96l-225 -31v-680q0 -14 2 -20t10 -12t29 -11l137 -24l-8 -80h-485l-13 80q100 20 122 41.5t22 75.5v643q-373 0 -504 -13v-680q0 -20 8 -29t37 -14l133 -24l-8 -80h-486zM1759 172q88 -74 238 -74q115 0 166 56q35 43 59.5 131t24.5 196q0 182 -65.5 276.5t-162 94.5 t-204.5 -72q-35 -23 -45.5 -41t-10.5 -51v-516z" />
<glyph unicode="ffk" horiz-adv-x="2570" d="M92 80q100 20 122 41.5t22 75.5v632h-134l-8 89l101 24q27 6 35 22.5t10 49.5q4 49 12 98t35.5 128t68.5 136.5t115 100.5t170 43q106 0 225 -45q0 -127 -28 -228l-101 -12q-31 137 -49 154q-33 23 -84 22q-96 0 -140 -128t-44 -329h442q61 0 66 64q14 115 46 205 t95.5 176t176 134t270.5 48q133 0 251 -18l35 -54v-1036l352 330q16 16 17 35q0 31 -141 51l12 80h407l9 -80q-94 -14 -113 -33l-281 -268l297 -424q29 -41 69 -59.5t120 -24.5l-13 -80h-284l-318 463l-133 -127v-189q0 -14 2 -20t10.5 -12t28.5 -11l90 -24l-8 -80h-438 l-12 80q100 20 121.5 41.5t21.5 75.5v1189q0 43 -33 64q-41 29 -133 29q-174 0 -259 -138.5t-85 -386.5h242l-17 -96l-225 -31v-680q0 -14 2 -20t10 -12t29 -11l137 -24l-8 -80h-485l-13 80q100 20 122 41.5t22 75.5v643q-373 0 -504 -13v-680q0 -20 8 -29t37 -14l133 -24 l-8 -80h-486z" />
<glyph unicode="ffh" horiz-adv-x="2625" d="M92 80q100 20 122 41.5t22 75.5v632h-134l-8 89l101 24q27 6 35 22.5t10 49.5q4 49 12 98t35.5 128t68.5 136.5t115 100.5t170 43q106 0 225 -45q0 -127 -28 -228l-101 -12q-31 137 -49 154q-33 23 -84 22q-96 0 -140 -128t-44 -329h442q61 0 66 64q14 115 46 205 t95.5 176t176 134t270.5 48q133 0 251 -18l35 -54v-524q0 -113 -14 -160l16 -6l25 29q127 152 317 151q137 0 214 -79.5t77 -219.5v-553q0 -14 2 -20t10.5 -12t28.5 -11l100 -24l-8 -80h-438l-12 80q92 18 112.5 40.5t20.5 76.5v442q0 98 -36 155.5t-140 57.5 q-111 0 -228 -80q-27 -18 -37 -35.5t-10 -62.5v-527q0 -14 2 -20t10.5 -12t28.5 -11l90 -24l-8 -80h-438l-12 80q100 20 121.5 41.5t21.5 75.5v1189q0 43 -33 64q-41 29 -133 29q-174 0 -259 -138.5t-85 -386.5h242l-17 -96l-225 -31v-680q0 -14 2 -20t10 -12t29 -11 l137 -24l-8 -80h-485l-13 80q100 20 122 41.5t22 75.5v643q-373 0 -504 -13v-680q0 -20 8 -29t37 -14l133 -24l-8 -80h-486z" />
<glyph unicode="fft" horiz-adv-x="2121" d="M92 80q100 20 122 41.5t22 75.5v632h-134l-8 89l101 24q27 6 35 22.5t10 49.5q4 49 12 98t35.5 128t68.5 136.5t115 100.5t170 43q106 0 225 -45q0 -127 -28 -228l-101 -12q-31 137 -49 154q-33 23 -84 22q-96 0 -140 -128t-44 -329h442q27 0 42.5 11.5t18.5 25t5 35.5 q2 35 5 62.5t13 89t25.5 108.5t46.5 105.5t69.5 97.5t99 65.5t134.5 26.5q111 0 233 -47q0 -156 -26 -248l-109 -10q-33 166 -49 176q-33 20 -86 21q-176 -1 -176 -519h410q49 0 71 47q0 14 6.5 43t19.5 81.5t23 105.5l125 12v-289h283l-16 -96l-267 -31v-485 q0 -213 131 -213q74 0 156 61l43 -59q-111 -150 -270 -149q-115 0 -179.5 79.5t-64.5 219.5v563q-307 0 -471 -17v-680q0 -20 8 -29t37 -14l154 -24l-9 -80h-505l-13 80q100 20 122 41.5t22 75.5v643q-373 0 -504 -13v-680q0 -20 8 -29t37 -14l133 -24l-8 -80h-486z" />
<glyph unicode="ffj" horiz-adv-x="1978" d="M92 80q100 20 122 41.5t22 75.5v632h-134l-8 89l101 24q27 6 35 22.5t10 49.5q4 49 12 98t35.5 128t68.5 136.5t115 100.5t170 43q106 0 225 -45q0 -127 -28 -228l-101 -12q-31 137 -49 154q-33 23 -84 22q-96 0 -140 -124t-44 -318h442q41 0 53.5 18.5t14.5 54.5 q6 59 18.5 115.5t47 138.5t86 140.5t142.5 101.5t208 43q125 0 276 -45q0 -139 -35 -248l-110 -12q-20 111 -29.5 140.5t-20.5 33.5q-45 23 -135 23q-135 0 -202.5 -147.5t-67.5 -356.5h242q133 0 276 5t146 5l22 -21v-880q0 -193 -114.5 -360t-221.5 -167q-74 0 -155 15 q-6 25 -7 49q0 61 35 119q80 -20 127 -21q37 0 60 15q43 29 67.5 145.5t24.5 265.5v645q0 45 -34 63.5t-108 18.5q-102 0 -360 -24v-695q0 -14 2 -20t10 -12t29 -11l137 -24l-8 -80h-485l-13 80q100 20 122 41.5t22 75.5v657q-373 0 -504 -12v-695q0 -20 8 -29t37 -14 l133 -24l-8 -80h-486z" />
<glyph unicode=" "  horiz-adv-x="501" />
<glyph unicode="&#x09;" horiz-adv-x="501" />
<glyph unicode="&#xa0;" horiz-adv-x="501" />
<glyph unicode="!" horiz-adv-x="462" d="M82 94q0 47 31.5 78t87.5 31q117 0 116 -109q0 -47 -31.5 -79.5t-84.5 -32.5q-51 0 -85 28.5t-34 83.5zM131 1378l211 62l25 -39l-107 -1039l-102 5z" />
<glyph unicode="&#x22;" horiz-adv-x="677" d="M100 1542l156 51l27 -39l-84 -501l-88 6zM410 1542l155 51l27 -39l-84 -501l-88 6z" />
<glyph unicode="#" horiz-adv-x="1128" d="M72 455v120h215l41 312h-213v121h227l55 411h119l-55 -411h270l55 411h119l-55 -411h205v-121h-219l-41 -312h217v-120h-232l-59 -455h-121l59 455h-268l-59 -455h-121l59 455h-198zM406 575h270l41 312h-271z" />
<glyph unicode="$" horiz-adv-x="983" d="M113 131q0 96 18 229l117 11q18 -158 26.5 -192t26.5 -44q43 -27 131 -39v381q-74 31 -117 54.5t-95 63.5t-77.5 92t-25.5 120q0 121 85 205t230 108v248h117v-238q154 -2 299 -57q2 -18 2 -55q0 -127 -29 -230l-102 -12q-14 188 -49 213q-39 25 -121 29v-361 q78 -33 123 -56t101 -64t83 -95.5t27 -122.5q0 -123 -89 -214t-245 -115v-252h-117v244q-195 4 -315 55q-4 31 -4 94zM281 879q0 -100 151 -170v307q-68 -6 -102 -33q-49 -36 -49 -104zM549 94q68 6 102 35q54 41 54 115q0 102 -156 182v-332z" />
<glyph unicode="%" horiz-adv-x="1654" d="M51 997q0 182 95.5 311.5t256.5 129.5q154 0 243 -121t89 -293q0 -180 -95 -309t-257 -129q-154 0 -243 119.5t-89 291.5zM219 1028q0 -176 50 -265t137 -89q162 0 161 307q0 174 -50 271.5t-138 97.5q-78 0 -119 -85t-41 -237zM291 0l915 1419h133l-913 -1419h-135z M920 393q0 182 95 311.5t257 129.5q154 0 243 -121t89 -293q0 -180 -95.5 -309t-257.5 -129q-154 0 -242.5 119.5t-88.5 291.5zM1087 424q0 -176 50.5 -265t136.5 -89q162 0 162 307q0 174 -50.5 271t-138.5 97q-78 0 -119 -85t-41 -236z" />
<glyph unicode="&#x26;" horiz-adv-x="1402" d="M82 352q0 137 75.5 238.5t207.5 159.5q-168 180 -168 354q0 150 105.5 242t279.5 92q129 0 262 -52q2 -16 2 -49q0 -119 -27 -202l-94 -11q-14 160 -41 179q-37 27 -143 26q-94 0 -142 -47q-41 -41 -41 -121q0 -66 37 -132t148 -185l426 -461q92 170 92 352 q0 78 -37 108.5t-160 45.5l13 80h466l9 -80l-127 -25q-41 -8 -41 -53q-10 -299 -135 -514l147 -158q51 -51 166 -59l-12 -80h-295l-131 139q-168 -158 -414 -157q-201 0 -314.5 100t-113.5 270zM295 399q0 -125 74 -206.5t209 -81.5q152 0 272 110l-410 445 q-145 -84 -145 -267z" />
<glyph unicode="'" horiz-adv-x="368" d="M100 1542l156 51l27 -39l-84 -501l-88 6z" />
<glyph unicode="(" horiz-adv-x="595" d="M86 612q0 281 129 536t287 411l69 -58q-139 -162 -228 -406.5t-89 -482.5q0 -262 88 -519t229 -423l-69 -57q-160 160 -288 426t-128 573z" />
<glyph unicode=")" horiz-adv-x="595" d="M25 -330q141 166 229 423t88 519q0 238 -89 482.5t-228 406.5l69 58q158 -156 287 -411t129 -536q0 -307 -128 -573t-288 -426z" />
<glyph unicode="*" horiz-adv-x="800" d="M51 1010l10 26l220 88q39 16 61 17v16q-27 0 -61 12l-199 84l22 127l29 4l186 -145q39 -33 46 -45l14 8q-16 33 -19 62l-26 215l121 45l18 -25l-33 -233q-8 -49 -16 -62l14 -8q12 25 41 47l174 129l97 -82l-11 -26l-217 -90q-39 -16 -61 -17v-16q37 0 59 -11l199 -86 l-23 -124l-28 -5l-187 144q-39 33 -45 45l-14 -8q18 -37 20 -60l27 -215l-121 -43l-18 23l32 233q8 49 17 62l-14 8q-12 -27 -43 -47l-172 -129z" />
<glyph unicode="+" horiz-adv-x="954" d="M92 500v108h334v342h102v-342h334v-108h-334v-350h-102v350h-334z" />
<glyph unicode="," horiz-adv-x="516" d="M131 -227q84 100 84 184q0 47 -36 90t-36 78q0 49 34 77.5t81 28.5q55 0 92 -44t37 -124q0 -184 -201 -344z" />
<glyph unicode="-" horiz-adv-x="604" d="M70 416l24 151l447 29l-33 -127z" />
<glyph unicode="." horiz-adv-x="516" d="M133 109q0 49 34 85.5t89 36.5q127 0 127 -122q0 -53 -35 -90t-92 -37q-53 0 -88 31.5t-35 95.5z" />
<glyph unicode="/" horiz-adv-x="800" d="M31 -123l598 1704h141l-596 -1704h-143z" />
<glyph unicode="0" horiz-adv-x="1093" d="M66 539q0 270 130 430.5t363 160.5q223 0 346 -149.5t123 -409.5q0 -270 -130 -429.5t-363 -159.5q-223 0 -346 148.5t-123 408.5zM264 571q0 -211 76.5 -346t226.5 -135q119 0 176 72q37 47 61.5 151.5t24.5 227.5q0 211 -76.5 346t-226.5 135q-119 0 -176 -72 q-37 -47 -61.5 -151.5t-24.5 -227.5z" />
<glyph unicode="1" horiz-adv-x="724" d="M78 1036q61 27 184 54.5t191 29.5l22 -20v-953q0 -14 2 -20t11.5 -12t27.5 -11l158 -24l-8 -80h-562l-12 80q117 18 158 42.5t41 74.5v628q0 102 -9.5 123t-50.5 21q-39 0 -137 -11z" />
<glyph unicode="2" horiz-adv-x="968" d="M61 0v109q121 98 175.5 143t136.5 116.5t115.5 111.5t73.5 95.5t53.5 102.5t13.5 98q0 106 -61.5 176t-180.5 70q-90 0 -129 -31q-25 -20 -47 -221l-111 12q-16 74 -16 168q0 66 2 86q119 94 348 94q186 0 289.5 -88t103.5 -233q0 -156 -127 -307.5t-403 -341.5l4 -15 l123 5q264 8 295 14q37 8 80 160l94 -9q2 -18 2 -61q0 -141 -33 -254h-801z" />
<glyph unicode="3" horiz-adv-x="960" d="M88 950q0 66 2 86q143 94 340 94q176 0 283.5 -75.5t107.5 -204.5q0 -104 -57 -184t-146 -121l3 -17q117 -23 192.5 -94.5t75.5 -193.5q0 -205 -215 -346.5t-561 -176.5l-11 115q262 35 417 128t155 239q0 96 -72 153.5t-217 57.5q-55 0 -106 -9l6 99q178 29 260 113.5 t82 193.5q0 92 -58.5 153.5t-177.5 61.5q-80 0 -121 -27q-14 -8 -21 -20t-17.5 -62.5t-16.5 -142.5l-109 12q-18 92 -18 168z" />
<glyph unicode="4" horiz-adv-x="1093" d="M16 217l650 877q115 27 176 26l22 -20v-889l209 -4l-18 -117h-191v-340q-66 -12 -162 -12l-22 20v332h-614l-3 2zM162 236l8 -15l510 -8v641q0 43 4 61l-12 7l-473 -641q-17 -25 -37 -45z" />
<glyph unicode="5" horiz-adv-x="987" d="M102 -168q285 37 450 143.5t165 262.5q0 98 -75 166.5t-214 68.5q-127 0 -254 -47l-45 53l45 621h524q10 0 16.5 7t16.5 41t23 101l104 -14q-8 -193 -29 -301h-532l-25 -367q102 35 228 35q203 0 316.5 -87t113.5 -236q0 -215 -225 -372t-592 -190z" />
<glyph unicode="6" horiz-adv-x="1056" d="M92 504q0 332 211 573.5t510 315.5l41 -84q-451 -188 -539 -576l17 -6q104 135 272 135q154 0 266.5 -120t112.5 -306q0 -193 -125 -323.5t-328 -130.5q-205 0 -321.5 141t-116.5 381zM287 520q0 -438 284 -438q86 0 140 57q77 84 77 260q0 147 -59 234.5t-149 87.5 q-43 0 -112 -14.5t-114 -44.5q-47 -33 -59 -78q-8 -33 -8 -64z" />
<glyph unicode="7" horiz-adv-x="921" d="M47 883q0 141 12 217h842v-123q-436 -680 -475 -1251q-20 -6 -59 -7q-105 0 -156 33q33 203 192.5 557.5t356.5 624.5l-4 14l-363 -6q-137 -4 -184 -8q-16 -2 -27.5 -29.5t-36.5 -134.5l-94 10q-4 66 -4 103z" />
<glyph unicode="8" d="M66 305q0 199 198 332q55 33 78 33v18q-12 0 -33 10q-192 117 -192 316q0 164 116.5 268t298.5 104q59 0 122 -14t132.5 -46t114.5 -99.5t45 -161.5q0 -184 -160 -303q-47 -33 -75 -33v-18q12 0 32 -11q123 -63 188.5 -141t65.5 -194q0 -170 -132 -276.5t-345 -106.5 q-70 0 -137.5 12t-144 43t-124.5 100.5t-48 167.5zM238 328q0 -113 81.5 -173.5t212.5 -60.5q141 0 207 68.5t66 156.5q0 59 -26.5 106.5t-84 84.5t-99.5 57.5t-121 51.5q-14 6 -19 8q-12 -4 -42 -23.5t-72 -55.5t-72.5 -95.5t-30.5 -124.5zM295 1059q0 -57 23.5 -101.5 t75.5 -81t92 -58t116 -54.5q172 117 172 283q0 115 -70.5 176t-183.5 61q-115 0 -170 -69.5t-55 -155.5z" />
<glyph unicode="9" horiz-adv-x="1056" d="M74 680q0 190 126 320t324 130q203 0 322 -144t119 -382q0 -139 -43 -280.5t-129 -272.5t-240 -222t-352 -110l-15 93q238 55 369 187t186 370l-16 6q-96 -119 -264 -119q-158 0 -272.5 121t-114.5 303zM268 723q0 -158 75 -242t165 -84q109 0 192 45q49 27 60 76 q12 49 12 121q0 176 -68.5 283.5t-209.5 107.5q-90 0 -146 -57q-80 -84 -80 -250z" />
<glyph unicode=":" horiz-adv-x="516" d="M133 109q0 49 34 85.5t89 36.5q127 0 127 -122q0 -53 -35 -90t-92 -37q-53 0 -88 31.5t-35 95.5zM133 877q0 49 34 85.5t89 36.5q127 0 127 -122q0 -53 -35 -90t-92 -37q-53 0 -88 31.5t-35 95.5z" />
<glyph unicode=";" horiz-adv-x="516" d="M131 -227q84 100 84 184q0 47 -36 90t-36 78q0 49 34 77.5t81 28.5q55 0 92 -44t37 -124q0 -184 -201 -344zM133 877q0 49 34 85.5t89 36.5q127 0 127 -122q0 -53 -35 -90t-92 -37q-53 0 -88 31.5t-35 95.5z" />
<glyph unicode="&#x3c;" horiz-adv-x="1058" d="M53 461v102l951 471v-141l-791 -381l791 -379v-141z" />
<glyph unicode="=" horiz-adv-x="954" d="M92 354v109h770v-109h-770zM92 635v108h770v-108h-770z" />
<glyph unicode="&#x3e;" horiz-adv-x="1058" d="M53 -8v141l791 379l-791 381v141l951 -471v-102z" />
<glyph unicode="?" horiz-adv-x="868" d="M72 1286q0 45 2 66q59 35 161.5 60.5t198.5 25.5q168 0 276.5 -83t108.5 -237q0 -80 -31.5 -147.5t-80 -110.5t-104.5 -86t-104 -74.5t-80 -72.5t-32 -86q1 -41 21 -123l-97 -29q-94 131 -94 217q0 57 44 108.5t106.5 92.5t124 84t105.5 104.5t44 134.5 q0 100 -72.5 149.5t-171.5 49.5q-94 0 -155 -33q-16 -8 -24.5 -38.5t-18.5 -143.5l-111 12q-16 63 -16 160zM250 92q0 51 31.5 81t89.5 30q115 0 114 -105q0 -51 -31.5 -83.5t-84.5 -32.5q-51 0 -85 29.5t-34 80.5z" />
<glyph unicode="@" horiz-adv-x="1628" d="M63 379q0 365 231.5 597t596.5 232q291 0 482.5 -147.5t191.5 -427.5q0 -147 -64.5 -316.5t-185.5 -289.5q-215 -23 -244 -29q-90 14 -90 135q0 39 10 107l13 86l-15 4q-129 -326 -338 -326q-221 0 -221 330q0 256 129 427t320 171q88 0 204 -39l82 20l39 -24 q-2 -18 -27.5 -172t-40 -273.5t-14.5 -207.5q0 -68 13.5 -101t52.5 -33q53 0 98 61.5t69.5 149.5t39 174t14.5 148q0 199 -148.5 335t-400.5 136q-162 0 -286.5 -60.5t-197.5 -163t-109 -225t-36 -262.5q0 -535 535 -534q74 0 246 41q0 -12 11 -39t11 -43l-18 -25 q-217 -43 -316 -43q-319 0 -478 169t-159 458zM604 346q0 -217 98 -217q70 0 143 107.5t119 258t52 279.5q-106 53 -187 53q-94 0 -120 -30q-43 -53 -74 -190.5t-31 -260.5z" />
<glyph unicode="A" horiz-adv-x="1372" d="M14 82q78 20 95.5 32.5t33.5 55.5l459 1268h170l469 -1301q10 -31 121 -51l-8 -86h-477l-13 82q143 29 144 68q0 16 -9 43l-90 266h-530l-105 -291q-8 -25 -8 -31q0 -12 13 -14l145 -39l-8 -84h-387zM418 567h456l-200 576q-14 43 -15 59h-20z" />
<glyph unicode="B" horiz-adv-x="1267" d="M90 80q109 18 132.5 40.5t23.5 86.5v1005q0 63 -23.5 86t-132.5 41l12 80h541q223 0 342 -89t119 -249q0 -127 -68.5 -214t-146.5 -111v-15q131 -25 219 -123t88 -223q0 -156 -122 -275.5t-374 -119.5h-598zM444 199q0 -59 31 -72q31 -20 125 -21q197 0 283 70t86 201 q0 70 -21.5 124t-54.5 85.5t-78 53.5t-87 29t-85 7h-199v-477zM444 784h115q168 0 247 73t79 200q0 254 -303 254h-138v-527z" />
<glyph unicode="C" horiz-adv-x="1269" d="M72 678q0 111 21.5 213t74.5 203.5t133 176.5t205 121t282 46q113 0 238 -20.5t164 -37.5q12 -76 12 -192q0 -49 -4 -152l-117 -16q-45 238 -80 262q-18 14 -95 30.5t-152 16.5q-225 0 -340 -166t-115 -436q0 -319 145.5 -475t360.5 -156q78 0 146.5 18.5t86.5 32.5 q25 18 70 263l113 -4q0 -156 -23 -332q-63 -35 -191 -63.5t-262 -28.5q-334 0 -503.5 196.5t-169.5 499.5z" />
<glyph unicode="D" horiz-adv-x="1460" d="M90 80q109 18 132.5 40.5t23.5 86.5v1005q0 63 -23.5 86t-132.5 41l12 80h641q176 0 305.5 -56t201 -153.5t105.5 -211t34 -244.5q0 -141 -38 -270.5t-117 -240t-217 -177t-319 -66.5h-596zM444 190q0 -45 43 -53q138 -28 213 -28h5q227 0 341.5 161.5t114.5 431.5 q0 170 -44 295t-116.5 189.5t-148.5 94.5t-156 30h-252v-1121z" />
<glyph unicode="E" horiz-adv-x="1212" d="M90 80q109 18 132.5 40.5t23.5 86.5v1005q0 63 -23.5 86t-132.5 41l12 80h955q12 -76 12 -162q0 -63 -4 -157l-117 -15q-29 141 -41 177t-28 38q-49 6 -125 9l-310 6v-551h308q27 0 65 145l64 -6q0 -57 1 -101t2 -69.5t4 -61.5t4 -48.5t8 -59.5t9 -65l-73 -13 q-33 117 -44.5 143.5t-25.5 26.5h-322v-551l183 2q63 0 113.5 3.5t78 5.5t49 6t28.5 6t13 5t9 3q35 10 90 242l112 -10q2 -35 2 -105q0 -109 -22 -262h-998z" />
<glyph unicode="F" horiz-adv-x="1118" d="M90 80q109 18 132.5 40.5t23.5 86.5v1005q0 63 -23.5 86t-132.5 41l12 80h955q12 -76 12 -162q0 -63 -4 -157l-117 -15q-29 141 -41 177t-28 38q-49 6 -125 9l-310 6v-570h316q51 0 90 146l63 -6q0 -57 1 -101.5t2.5 -70t4.5 -61.5l4 -48q1 -12 8 -59t9 -66l-74 -12 q-49 170 -94 170h-330v-479q0 -49 41 -54l207 -24l-8 -80h-582z" />
<glyph unicode="G" horiz-adv-x="1394" d="M72 678q0 111 21.5 213t74.5 203.5t133 176.5t205 121t282 46q113 0 238 -20.5t164 -37.5q12 -76 12 -192q0 -49 -4 -152l-117 -16q-45 238 -80 262q-18 14 -95 30.5t-152 16.5q-225 0 -340 -166t-115 -436q0 -319 145.5 -475t360.5 -156q113 0 199 33v285q0 63 -24 85.5 t-132 41.5l12 80h479l9 -80l-105 -25q-41 -8 -41 -53v-387q-68 -35 -195.5 -64.5t-261.5 -29.5q-334 0 -503.5 196.5t-169.5 499.5z" />
<glyph unicode="H" horiz-adv-x="1570" d="M90 80q109 18 132.5 40.5t23.5 86.5v1005q0 63 -23.5 86t-132.5 41l12 80h502l8 -80l-127 -24q-41 -8 -41 -53v-469h682v419q0 63 -23.5 86t-131.5 41l12 80h502l8 -80l-127 -24q-41 -8 -41 -53v-1104q0 -45 41 -54l127 -24l-8 -80h-502l-12 80q109 18 132 40.5t23 86.5 v463h-682v-512q0 -45 41 -54l127 -24l-8 -80h-502z" />
<glyph unicode="I" horiz-adv-x="690" d="M90 80q109 18 132.5 40.5t23.5 86.5v1005q0 63 -23.5 86t-132.5 41l12 80h502l8 -80l-127 -24q-41 -8 -41 -53v-1104q0 -45 41 -54l127 -24l-8 -80h-502z" />
<glyph unicode="J" horiz-adv-x="688" d="M-49 -174q0 66 39 127q96 -23 137 -23q37 0 63 17q59 41 60 377v888q0 61 -32 84t-144 43l12 80h543l8 -80l-148 -24q-40 -8 -40 -41v-1012q0 -186 -105.5 -346t-216.5 -160q-88 0 -170 17q-6 25 -6 53z" />
<glyph unicode="K" horiz-adv-x="1335" d="M90 80q109 18 132.5 40.5t23.5 86.5v1005q0 63 -23.5 86t-132.5 41l12 80h502l8 -80l-127 -24q-41 -8 -41 -53v-541l494 524q31 31 31 49q0 37 -156 43l12 82h435l8 -86q-23 0 -42.5 -6t-32.5 -11t-28.5 -16.5t-21.5 -17.5t-19.5 -20.5t-15.5 -16.5l-455 -483l494 -598 q33 -41 73 -59.5t115 -24.5l-12 -80h-311l-498 612l-70 -73v-381q0 -45 41 -54l113 -24l-8 -80h-488z" />
<glyph unicode="L" horiz-adv-x="1142" d="M90 80q109 18 132.5 40.5t23.5 86.5v1005q0 63 -23.5 86t-132.5 41l12 80h502l8 -80l-127 -24q-41 -8 -41 -53v-1158l183 2q227 4 266 15q33 10 115 315l112 -10q2 -35 2 -104q0 -145 -22 -322h-998z" />
<glyph unicode="M" horiz-adv-x="1869" d="M76 80q111 20 140.5 42.5t29.5 84.5v1005q0 63 -23.5 86t-132.5 41l12 80h430l394 -1077q10 -33 14 -51h21q2 23 10 41l399 1087h371l8 -80l-86 -24q-39 -12 -39 -47v-1110q0 -45 41 -54l127 -24l-8 -80h-506l-12 80q100 18 129.5 39.5t29.5 70.5v936q0 47 7 78h-17 l-432 -1163h-147l-437 1167h-16v-1003q0 -49 19.5 -74t70.5 -33l100 -18l-8 -80h-477z" />
<glyph unicode="N" horiz-adv-x="1587" d="M90 80q109 18 132.5 40.5t23.5 86.5v1005q0 63 -23.5 86t-132.5 41l12 80h279l20 -207h-18v-1007q0 -51 19.5 -76t70.5 -31l143 -18l-8 -80h-506zM260 1419h234l831 -1224l-4 -193l-102 -2zM1012 1339l12 80h481l8 -80l-127 -24q-41 -8 -40 -53v-1262h-121l-33 387h16 v784q0 92 -33.5 123t-162.5 45z" />
<glyph unicode="O" horiz-adv-x="1456" d="M72 692q0 338 178 542t493 204q305 0 473 -187.5t168 -505.5q0 -348 -178 -555.5t-493 -207.5q-305 0 -473 191t-168 519zM299 727q0 -283 114.5 -460t331.5 -177q111 0 194 51.5t129 141.5t67.5 196.5t21.5 231.5q0 274 -115.5 446t-330.5 172q-111 0 -194 -50 t-129 -138t-67.5 -191.5t-21.5 -222.5z" />
<glyph unicode="P" horiz-adv-x="1144" d="M90 80q109 18 132.5 40.5t23.5 86.5v1005q0 63 -23.5 86t-132.5 41l12 80h572q217 0 325.5 -105.5t108.5 -281.5q0 -209 -142.5 -346t-414.5 -137h-107v-391q0 -49 41 -54l207 -24l-8 -80h-582zM444 657h91q68 0 124 14.5t111 49.5t87 105.5t32 172.5q0 94 -26.5 160 t-72 96.5t-88.5 43t-90 12.5h-127q-41 0 -41 -49v-605z" />
<glyph unicode="Q" horiz-adv-x="1456" d="M72 692q0 338 178 542t493 204q305 0 473 -187.5t168 -505.5q0 -272 -111.5 -462.5t-316.5 -262.5v-8q39 -14 141.5 -89t157.5 -75q39 0 119 31l47 -74q-45 -37 -72.5 -56t-74.5 -39.5t-90 -20.5q-68 0 -140.5 44t-127 97t-130 101.5t-147.5 54.5q-272 23 -419.5 211 t-147.5 495zM299 727q0 -283 114.5 -460t331.5 -177q111 0 194 51.5t129 141.5t67.5 196.5t21.5 231.5q0 274 -115.5 446t-330.5 172q-111 0 -194 -50t-129 -138t-67.5 -191.5t-21.5 -222.5z" />
<glyph unicode="R" horiz-adv-x="1294" d="M90 80q109 18 132.5 40.5t23.5 86.5v1005q0 63 -23.5 86t-132.5 41l12 80h570q219 0 325.5 -90t106.5 -254q0 -143 -84 -256.5t-236 -165.5v-10q20 -6 45 -45l289 -434q31 -45 60.5 -61.5t107.5 -22.5l-12 -80h-291l-405 623h-134v-465q0 -45 41 -54l113 -24l-8 -80h-488 zM444 727h113q162 0 245 70.5t83 259.5q0 254 -277 254h-123q-41 0 -41 -49v-535z" />
<glyph unicode="S" horiz-adv-x="1071" d="M72 160q0 119 24 250l117 6q16 -147 27.5 -190.5t29.5 -57.5q35 -25 114 -48.5t157 -23.5q109 0 172 49q78 59 78 170q0 66 -26 117t-79 89t-99 61.5t-119 53.5q-15 7 -22 9q-66 27 -104.5 46.5t-90.5 55t-81 71.5t-50.5 92.5t-21.5 123.5q0 186 138.5 295t359.5 109 q168 -1 315 -56q6 -49 7 -104q0 -106 -23 -242l-119 -14q-23 231 -55 258q-49 43 -193 43q-117 0 -184 -49q-76 -55 -76 -156q0 -57 22.5 -102t82 -84t93.5 -56.5t123 -54.5q23 -10 34 -14q80 -35 131 -63.5t109.5 -77t87 -116t28.5 -155.5q0 -188 -130 -300.5t-355 -112.5 q-121 0 -241 29.5t-175 58.5q-6 25 -6 90z" />
<glyph unicode="T" horiz-adv-x="1181" d="M14 1147q0 121 19 272h1116q18 -152 18 -272q0 -57 -2 -88l-104 -8q-18 106 -34.5 162.5t-26 67.5t-21.5 17q-25 10 -289 15v-1155q0 -47 41 -54l158 -24l-8 -80h-564l-12 80q129 20 158 41.5t29 85.5v1106q-264 -4 -289 -15q-12 -6 -21.5 -17t-26 -67.5t-34.5 -162.5 l-105 8q-2 31 -2 88z" />
<glyph unicode="U" horiz-adv-x="1507" d="M80 1339l12 80h502l8 -80l-127 -24q-41 -8 -41 -53v-721q0 -209 86 -315.5t277 -106.5q197 0 288 114.5t91 276.5v664q0 90 -34 120.5t-163 44.5l12 80h482l8 -80l-127 -24q-18 -4 -28.5 -13.5t-11.5 -16.5t-1 -23v-736q0 -252 -137.5 -398t-411.5 -146q-528 0 -528 528 v702q0 63 -24 86t-132 41z" />
<glyph unicode="V" horiz-adv-x="1341" d="M6 1337l14 82h488l8 -84l-145 -39q-14 -2 -15 -14q0 -6 9 -31l315 -927q18 -51 18 -70h21l319 911q29 80 29 105q0 39 -149 67l12 82h403l8 -86q-84 -16 -106.5 -36.5t-42.5 -77.5l-451 -1237h-141l-457 1267q-16 43 -38.5 56.5t-98.5 31.5z" />
<glyph unicode="W" horiz-adv-x="1904" d="M-8 1337l14 82h457l8 -84l-115 -39q-14 -2 -14 -14q0 -6 8 -31l285 -919q18 -66 18 -70h21l235 746l-71 241q-12 43 -33 56.5t-90 31.5l14 82h432l8 -84l-145 -39q-14 -2 -14 -14q0 -6 8 -31l270 -919q18 -66 19 -70h20l287 903q23 76 22 101q0 45 -157 71l12 82h420 l8 -86q-84 -18 -108.5 -38.5t-43.5 -75.5l-409 -1237h-148l-221 745q-10 31 -10 53h-16q0 -23 -13 -53l-248 -745h-145l-428 1267q-14 43 -36.5 56.5t-100.5 31.5z" />
<glyph unicode="X" horiz-adv-x="1308" d="M29 82q84 23 111.5 35t52.5 49l362 532l-367 551q-29 43 -50 57.5t-89 30.5l14 82h488l8 -84l-137 -37q-14 -2 -14 -16q0 -12 14 -31l233 -348q20 -31 21 -55h20l228 332q51 72 51 94t-26.5 34.5t-98.5 28.5l12 82h400l8 -86q-25 -6 -43.5 -10t-33.5 -11t-23.5 -10.5 t-18.5 -15.5t-13 -15t-14.5 -20.5t-15.5 -23.5l-338 -494l399 -594q23 -31 140 -53l-9 -86h-493l-12 82q33 6 44 9t34.5 10.5t32.5 17.5t9 24q0 18 -14 41l-229 340q-20 31 -21 62h-20l-283 -414q-16 -23 -16 -37q0 -16 20 -22l97 -29l-9 -84h-397z" />
<glyph unicode="Y" horiz-adv-x="1224" d="M10 1337l15 82h481l8 -84l-137 -37q-14 -2 -15 -14q0 -8 15 -33l235 -452q20 -35 21 -60h20l228 441q43 82 43 98q0 20 -26 31.5t-97 27.5l12 82h406l8 -86q-90 -18 -125 -39.5t-60 -70.5l-323 -635v-430q0 -47 41 -54l158 -24l-9 -80h-563l-12 80q129 20 157.5 41.5 t28.5 85.5v364l-368 678q-27 45 -48.5 58.5t-93.5 29.5z" />
<glyph unicode="Z" horiz-adv-x="1243" d="M72 0v53l780 1200q27 39 45 47l-4 15h-197q-281 0 -366 -12q-31 -3 -84 -259l-129 15q-4 86 -4 147q0 113 18 213h1043v-53l-783 -1200q-27 -39 -45 -47l4 -13h307q215 0 267 15q33 10 114 315l113 -10q2 -35 2 -104q0 -145 -23 -322h-1058z" />
<glyph unicode="[" horiz-adv-x="581" d="M143 -336v1905h330v-109h-186v-1687h186v-109h-330z" />
<glyph unicode="\" horiz-adv-x="800" d="M31 1581h141l598 -1704h-143z" />
<glyph unicode="]" horiz-adv-x="581" d="M109 -227h186v1687h-186v109h329v-1905h-329v109z" />
<glyph unicode="^" horiz-adv-x="1026" d="M49 664l371 755h158l399 -755h-139l-340 641l-310 -641h-139z" />
<glyph unicode="_" horiz-adv-x="880" d="M-12 -150h905v-98h-905v98z" />
<glyph unicode="`" horiz-adv-x="413" d="M0 1458v47l164 62l219 -367l-72 -51z" />
<glyph unicode="a" horiz-adv-x="1048" d="M86 252q0 154 131 229.5t426 77.5v66q0 266 -192 266q-92 0 -117 -27q-23 -27 -49 -174l-111 12q-16 63 -16 156q0 45 2 66q119 75 336 75h6q172 0 248.5 -75.5t76.5 -249.5v-471q0 -53 26 -75t130 -42l-12 -66l-246 -26q-20 0 -43 39t-23 84q0 23 3 39l-17 6l-24 -37 q-96 -143 -265 -143q-115 0 -192.5 71.5t-77.5 198.5zM285 270q0 -74 38.5 -111.5t102.5 -37.5q80 0 170 69q47 37 47 78v201q-184 -4 -271 -49.5t-87 -149.5z" />
<glyph unicode="b" horiz-adv-x="1114" d="M14 1487l13 65q219 29 305 29l22 -20v-576q0 -113 -14 -160l16 -6l21 27q118 153 291 153h2q158 0 264 -132t106 -359q0 -236 -121.5 -381t-351.5 -145q-109 0 -221.5 28.5t-175.5 59.5v1316q0 43 -33 62.5t-123 38.5zM354 172q88 -74 238 -74q119 0 166 56 q37 41 60.5 130t23.5 197q0 182 -65.5 276.5t-162 94.5t-204.5 -72q-35 -23 -45.5 -41t-10.5 -51v-516z" />
<glyph unicode="c" horiz-adv-x="958" d="M70 483q0 96 23.5 181.5t74.5 164t150.5 124.5t236.5 46q156 0 299 -57q2 -16 2 -57q0 -137 -25 -223l-114 -13q-33 207 -62 219q-43 18 -153 18q-1 0 -2 1q-109 0 -160 -76q-72 -109 -72 -309q0 -199 87 -290t225 -91q143 0 274 90l57 -68q-165 -161 -396 -161h-3 q-215 0 -328.5 140t-113.5 361z" />
<glyph unicode="d" horiz-adv-x="1165" d="M74 469q0 236 120.5 383t337.5 147q150 0 222 -53l14 6q-8 33 -8 90v344q0 43 -42 65t-151 36l13 65q219 29 342 29l22 -20v-1360q0 -53 25.5 -75t130.5 -42l-13 -66l-245 -26q-20 0 -45 41t-25 84q0 23 2 39l-16 6l-21 -27q-119 -153 -293 -153q-158 0 -264 132 t-106 355zM272 506q0 -184 65 -280.5t159 -96.5q102 0 209 70q55 37 55 94v489q-84 100 -262 101q-88 0 -140 -58q-86 -96 -86 -319z" />
<glyph unicode="e" horiz-adv-x="978" d="M70 471q0 225 131 376.5t346 151.5q348 0 364 -428l-53 -39l-594 -32q0 -379 324 -379q141 0 276 69l43 -67q-68 -55 -176 -98t-227 -43q-207 0 -320.5 141t-113.5 348zM270 594l424 37q20 2 21 39q0 90 -48.5 155.5t-160.5 65.5q-117 0 -169.5 -77t-66.5 -220z" />
<glyph unicode="f" horiz-adv-x="716" d="M92 80q100 20 122 41.5t22 75.5v632h-134l-8 89l101 24q27 6 35 22.5t10 49.5q2 45 7 82t17 112.5t40 133t69 116t107.5 91t152.5 32.5q111 0 233 -47q0 -156 -26 -248l-109 -10q-33 166 -49 176q-33 20 -86 21q-176 0 -176 -519h242l-17 -96l-225 -31v-680q0 -20 8 -29 t37 -14l153 -24l-8 -80h-506z" />
<glyph unicode="g" horiz-adv-x="1134" d="M113 -256q0 70 40 120t115 105q-116 37 -116 156q0 82 60 156.5t138 124.5l31 -29q-80 -84 -80 -162q0 -31 16.5 -49.5t53.5 -24.5t63.5 -8t77.5 -2q74 0 116 -1t107.5 -7t103.5 -20.5t77.5 -37t58 -61.5t18.5 -90q0 -147 -147.5 -255t-396.5 -108q-336 0 -336 193z M152 657q0 168 112.5 255t284.5 87q166 0 269.5 -82.5t103.5 -242.5q0 -168 -113 -255t-285 -87q-166 0 -269 82t-103 243zM270 -195q0 -66 61.5 -108.5t194.5 -42.5q164 0 246 61.5t82 128.5q0 55 -67.5 68.5t-214 16t-244.5 22.5q-57 -63 -58 -146zM340 674 q0 -242 203 -242q190 0 190 225q0 242 -203 242q-190 0 -190 -225zM776 928q141 72 275 76q20 -35 20 -103q0 -29 -6 -47q-70 16 -147 16q-74 0 -115 -6z" />
<glyph unicode="h" horiz-adv-x="1220" d="M57 1487l13 65q219 29 305 29l22 -20v-576q0 -113 -14 -160l16 -6l25 29q126 151 315 151h2q137 0 214 -79.5t77 -219.5v-553q0 -14 2 -20t11.5 -12t27.5 -11l101 -24l-9 -80h-438l-12 80q92 18 112.5 40.5t20.5 76.5v442q0 98 -36 155.5t-140 57.5q-111 0 -228 -80 q-27 -18 -37 -35.5t-10 -62.5v-527q0 -14 2 -20t11.5 -12t27.5 -11l90 -24l-8 -80h-438l-12 80q100 20 121.5 41.5t21.5 75.5v1189q0 43 -33 62.5t-123 38.5z" />
<glyph unicode="i" horiz-adv-x="634" d="M72 885l12 65q219 29 305 29l23 -21v-811q0 -14 2 -20t11 -12t28 -11l100 -24l-8 -80h-449l-12 80q100 20 121.5 41.5t21.5 75.5v587q0 43 -32.5 62.5t-122.5 38.5zM178 1343q0 49 32 82t87 33q117 0 117 -115q0 -51 -32 -85.5t-85 -34.5q-51 0 -85 30.5t-34 89.5z" />
<glyph unicode="j" horiz-adv-x="573" d="M-109 -385q0 61 35 119q82 -20 127 -21q39 0 60 15q43 29 67.5 146.5t24.5 264.5v645q0 43 -33 62.5t-123 38.5l12 65q219 29 306 29l22 -21v-880q0 -193 -114.5 -360t-221.5 -167q-74 0 -155 15q-6 25 -7 49zM156 1343q0 49 31.5 82t86.5 33q117 0 117 -115 q0 -51 -32 -85.5t-85 -34.5q-51 0 -84.5 30.5t-33.5 89.5z" />
<glyph unicode="k" horiz-adv-x="1165" d="M57 1487l13 65q219 29 305 29l22 -20v-1088l353 330q16 18 16 35q0 31 -141 51l12 80h407l9 -80q-94 -14 -113 -33l-281 -268l297 -424q33 -41 73 -59.5t116 -24.5l-12 -80h-285l-318 463l-133 -127v-189q0 -14 2 -20t11.5 -12t27.5 -11l90 -24l-8 -80h-438l-12 80 q100 20 121.5 41.5t21.5 75.5v1189q0 43 -33 62.5t-123 38.5z" />
<glyph unicode="l" horiz-adv-x="620" d="M57 1487l13 65q219 29 305 29l22 -20v-1414q0 -14 2 -20t11.5 -12t27.5 -11l101 -24l-9 -80h-448l-12 80q100 20 121.5 41.5t21.5 75.5v1189q0 43 -33 62.5t-123 38.5z" />
<glyph unicode="m" horiz-adv-x="1759" d="M72 903l12 66l264 26q14 0 29.5 -56t15.5 -101v-13l15 -6l20 27q51 66 130 109.5t167 43.5q197 0 250 -176l14 -2l23 29q116 149 291 149h2q125 0 195.5 -79.5t70.5 -219.5v-553q0 -14 2 -20t11 -12t28 -11l100 -24l-8 -80h-438l-13 80q92 18 112.5 40.5t20.5 76.5v465 q0 190 -153 190q-80 0 -201 -80q-25 -14 -33 -31.5t-8 -62.5v-531q0 -14 2 -20t11.5 -12t27.5 -11l90 -24l-8 -80h-428l-12 80q92 18 112.5 40.5t20.5 76.5v465q0 190 -154 190q-80 0 -200 -80q-25 -14 -33 -31.5t-8 -62.5v-531q0 -14 2 -20t11 -12t28 -11l90 -24l-8 -80 h-439l-12 80q100 20 121.5 41.5t21.5 75.5v589q0 53 -25.5 75t-129.5 42z" />
<glyph unicode="n" horiz-adv-x="1220" d="M72 903l12 66l264 26q14 0 29.5 -57t15.5 -100v-13l17 -6l24 29q128 151 314 151h2q131 0 206.5 -78.5t75.5 -220.5v-553q0 -14 2 -20t11.5 -12t27.5 -11l101 -24l-9 -80h-438l-12 80q92 18 112.5 40.5t20.5 76.5v442q0 96 -35 154.5t-133 58.5q-104 0 -223 -80 q-18 -12 -25.5 -19.5t-13.5 -25.5t-6 -49v-528q0 -23 7 -31t34 -15l90 -24l-8 -80h-439l-12 80q100 20 121.5 41.5t21.5 75.5v589q0 53 -25.5 75t-129.5 42z" />
<glyph unicode="o" horiz-adv-x="1064" d="M66 475q0 240 125.5 382t353.5 142q217 0 335.5 -132t118.5 -363q0 -240 -125.5 -381t-353.5 -141q-217 0 -335.5 131t-118.5 362zM264 506q0 -182 74 -299t213 -117q115 0 168 62q37 41 59.5 130t22.5 193q0 182 -74 299t-213 117q-115 0 -168 -62q-37 -41 -59.5 -130 t-22.5 -193z" />
<glyph unicode="p" horiz-adv-x="1140" d="M41 903l12 66q245 26 263 26h1q14 0 32 -54t18 -95v-21l16 -6l20 27q118 153 291 153h2q158 0 264.5 -132t106.5 -355q0 -236 -121 -383t-338 -147q-154 0 -221 53l-14 -6q8 -45 8 -90v-222q0 -14 2 -21t11 -13.5t28 -8.5l186 -24l-8 -80h-534l-13 80q100 20 122 42 t22 75v1019q0 53 -26 75t-130 42zM381 199q84 -100 262 -101q88 0 139 58q86 96 86 319q0 184 -64.5 280.5t-158.5 96.5q-102 0 -209 -70q-55 -37 -55 -94v-489z" />
<glyph unicode="q" horiz-adv-x="1112" d="M74 473q0 236 121.5 381t351.5 145q109 0 221.5 -28.5t175.5 -59.5v-1194q0 -14 2 -20t11.5 -12.5t27.5 -10.5l100 -24l-8 -80h-532l-13 80q147 18 187.5 44.5t40.5 82.5v219q0 113 14 160l-16 6l-21 -27q-119 -153 -293 -153q-158 0 -264 132t-106 359zM272 500 q0 -182 65.5 -276.5t162 -94.5t205.5 72q35 23 45 41t10 51v516q-88 74 -238 74q-119 0 -166 -56q-37 -41 -60.5 -130t-23.5 -197z" />
<glyph unicode="r" horiz-adv-x="884" d="M57 903l13 66l278 26q14 0 30.5 -41t16.5 -90q0 -39 -8 -96l16 -6l27 59q37 82 111.5 130t158.5 48q70 0 136 -32q0 -168 -31 -336l-100 -10q-16 172 -37 200q-12 18 -41 19q-47 0 -98.5 -34t-82.5 -71q-35 -39 -34 -125v-463q0 -14 2 -21t11 -13.5t28 -8.5l186 -24 l-8 -80h-549l-12 80q76 12 110.5 29.5t40.5 34t6 53.5v589q0 53 -27.5 77t-142.5 40z" />
<glyph unicode="s" horiz-adv-x="894" d="M113 115q0 106 18 202l107 9q14 -131 21 -161t22 -38q66 -37 172 -37q82 0 120 33q45 37 45 100q0 20 -7 40t-15 34t-26.5 29.5t-32 24.5t-41 23.5t-42 21.5t-49 21.5t-47.5 20.5q-115 51 -178 111.5t-63 163.5q0 127 104.5 206.5t272.5 79.5q127 0 249 -51q2 -16 2 -49 q0 -119 -26 -203l-94 -10q-14 160 -41 178q-37 27 -125 27q-100 0 -140 -33q-40 -32 -40 -87q0 -26 6 -45t24.5 -36.5t29.5 -29t44 -28t46 -23.5t55 -24.5t55 -23.5q123 -53 189.5 -113.5t66.5 -164.5q0 -129 -103.5 -215t-283.5 -86q-80 0 -166 16.5t-125 32.5q-4 27 -4 84 z" />
<glyph unicode="t" horiz-adv-x="716" d="M33 932l100 24q39 10 52.5 46t47.5 229l125 12v-274h285l-16 -97l-269 -30v-500q0 -213 131 -213q74 0 156 61l43 -59q-110 -149 -268 -149h-2q-115 0 -179.5 80t-64.5 219v563h-133z" />
<glyph unicode="u" horiz-adv-x="1181" d="M33 895l12 66q212 28 299 28h6l23 -20v-627q0 -213 162 -213q104 0 217 80q27 18 35 35.5t8 58.5v492q0 43 -33 62.5t-123 37.5l12 66q212 28 299 28h6l23 -20v-766q0 -53 25.5 -75t130.5 -42l-13 -66l-264 -28h-1q-15 0 -29 54q-16 56 -15 97v13l-16 6l-25 -29 q-128 -151 -313 -151h-2q-125 0 -197 66.5t-72 205.5v541q0 43 -32.5 62.5t-122.5 37.5z" />
<glyph unicode="v" horiz-adv-x="1015" d="M0 889l12 80h422l8 -80l-125 -31q-14 -2 -14 -16q0 -2 8 -27l185 -516q25 -72 24 -113h17l227 582q12 33 12 49q0 27 -29.5 41t-105.5 31l12 80h365l8 -80q-66 -16 -80 -21.5t-16 -13.5l-365 -872h-133l-323 833q-14 39 -28.5 49t-80.5 25z" />
<glyph unicode="w" horiz-adv-x="1544" d="M16 889l13 80h379l8 -80l-90 -29q-14 -2 -15 -14q0 -2 8 -27l189 -590q8 -20 8 -49v-8h16q0 23 17 61l186 465l-39 117q-12 37 -25.5 48t-64.5 26l12 80h336l9 -80l-91 -29q-14 -2 -14 -14q0 -2 8 -27l187 -590q8 -25 8 -49v-8h16q0 12 17 61l186 535q12 33 12 49 q0 6 -1 11.5t-5 10.5t-7 8t-10 7t-12.5 7t-15.5 7t-17 6.5t-19.5 7.5t-20.5 7l12 80h336l8 -80q-66 -16 -80 -21.5t-16 -13.5l-340 -872h-133l-168 516q-10 31 -10 55h-17q0 -23 -12 -53l-207 -518h-133l-297 833q-14 39 -28.5 49t-82.5 25z" />
<glyph unicode="x" horiz-adv-x="1134" d="M25 80q104 16 116 29l322 376l-293 351q-16 20 -41 28l-74 25l8 80h406l12 -80l-63 -15q-27 -8 -27 -24q0 -14 31 -51l162 -195l159 199q14 16 15 33q0 35 -92 53l12 80h381l8 -80q-94 -14 -113 -33l-292 -346l315 -377q16 -20 41 -29l74 -24l-9 -80h-405l-12 80l63 14 q27 8 27 25q0 14 -31 51l-188 225l-189 -229q-14 -16 -14 -33q0 -35 92 -53l-12 -80h-381z" />
<glyph unicode="y" horiz-adv-x="1024" d="M8 889l12 80h422l9 -80l-125 -31q-14 -2 -15 -16q0 -2 8 -27l209 -547q10 -29 11 -63h16l217 563q12 33 12 49q0 27 -29.5 41t-105.5 31l13 80h364l8 -80q-90 -20 -96 -35l-324 -803q-41 -102 -65.5 -156.5t-67.5 -122t-90 -103.5t-117.5 -68.5t-164.5 -49.5 q-53 53 -54 168q0 12 4 41q49 -6 131 -6q92 0 138 19q57 25 129 227l-340 815q-16 39 -29.5 49t-79.5 25z" />
<glyph unicode="z" horiz-adv-x="907" d="M57 0v53l518 750q33 41 46 47l-5 14h-233q-80 0 -135 -6q-14 -2 -24.5 -29.5t-39.5 -142.5l-94 10q-4 66 -4 111q0 86 12 162h750v-58l-512 -745q-27 -39 -45 -47l4 -15l100 2q219 4 260 15q37 8 82 203l107 -9q-4 -164 -23 -315h-764z" />
<glyph unicode="{" horiz-adv-x="661" d="M61 578v77q45 18 68 29.5t46.5 32t33.5 49.5q14 43 14 88q0 80 -10 239.5t-10 241.5q0 106 61.5 170t157.5 64q29 0 131 -8v-88q-96 -10 -141 -40t-45 -116v-518q0 -53 -15 -90q-23 -59 -106 -84l-23 -7v-4l23 -6q84 -20 106 -84q14 -31 15 -90v-518q0 -86 45 -115.5 t141 -40.5v-88q-102 -8 -131 -8q-96 0 -157.5 63.5t-61.5 170.5q0 80 10 239.5t10 241.5q0 45 -14 88q-14 41 -48 62.5t-100 48.5z" />
<glyph unicode="|" horiz-adv-x="522" d="M195 -430v2011h133v-2011h-133z" />
<glyph unicode="}" horiz-adv-x="661" d="M109 -240q96 10 141 40t45 116v518q0 59 14 90q23 63 107 84l22 6v4l-22 7q-84 25 -107 84q-14 37 -14 90v518q0 86 -45 115.5t-141 40.5v88q102 8 131 8q96 0 157.5 -63.5t61.5 -170.5q0 -82 -10.5 -241.5t-10.5 -239.5q0 -45 15 -88q14 -41 47.5 -62.5t99.5 -48.5v-77 q-45 -18 -67.5 -29.5t-46 -32t-33.5 -49.5q-14 -43 -15 -88q0 -82 10.5 -242t10.5 -239q0 -106 -61.5 -170t-157.5 -64q-29 0 -131 8v88z" />
<glyph unicode="~" horiz-adv-x="993" d="M61 481q68 115 116 160t106 45q41 0 98 -18q10 -2 229 -84q57 -20 99 -21q31 0 59.5 15.5t44.5 32t51 53.5l72 -50q-31 -47 -48.5 -72.5t-47 -62.5t-61 -53t-64.5 -16q-37 0 -90 16q-20 6 -125 45t-125 45q-49 16 -86 16q-66 0 -156 -100z" />
<glyph unicode="&#xa1;" horiz-adv-x="462" d="M96 -412l107 1039l102 -4l27 -1012l-211 -62zM145 895q0 47 32 80t85 33q51 0 85 -29t34 -84q0 -47 -32 -78t-87 -31q-117 0 -117 109z" />
<glyph unicode="&#xa2;" horiz-adv-x="868" d="M70 696q0 147 76.5 263t252.5 149v260h117v-250q139 0 252 -47q2 -12 2 -47q0 -115 -20 -182l-88 -11q-20 111 -28.5 140.5t-21.5 34.5q-29 8 -96 12v-615h12q127 0 240 76l53 -61q-133 -119 -305 -133v-285h-117v289q-162 25 -245.5 135.5t-83.5 271.5zM254 711 q0 -207 145 -277v576q-41 -8 -69 -43q-76 -92 -76 -256z" />
<glyph unicode="&#xa3;" horiz-adv-x="1067" d="M33 643v109h151q-10 66 -10 127q0 272 144.5 415.5t379.5 143.5q111 0 250 -52q2 -16 2 -49q0 -119 -26 -202l-95 -11q-12 154 -34 172q-33 33 -133 33q-147 0 -204 -98t-57 -332q0 -74 7 -147h395v-109h-389q2 -25 2 -70q0 -229 -113 -366l6 -10q59 41 146 41 q74 0 202.5 -37t163.5 -37q12 0 24.5 2t25 8t19.5 9t21.5 14.5t18.5 14.5t21.5 18.5t19.5 17.5l71 -47q-29 -53 -44 -79t-49 -66t-77 -57t-98 -17q-68 0 -204 44t-230 44q-49 0 -93 -14.5t-66.5 -28t-69.5 -47.5l-52 67q74 82 113 153.5t46 112.5t7 99q0 88 -22 231h-170z " />
<glyph unicode="&#xa4;" horiz-adv-x="1234" d="M72 229l186 187q-86 100 -86 270q0 158 80 266l-178 181l94 92l180 -183q115 74 283 74q160 0 262 -65l174 174l96 -95l-172 -169q74 -98 74 -250q0 -178 -96 -287l194 -197l-94 -92l-207 205q-109 -57 -256 -57q-139 0 -241 51l-199 -199zM371 713q0 -141 68.5 -231.5 t197.5 -90.5q111 0 166 55q63 72 63 240q0 141 -68.5 231.5t-197.5 90.5q-111 0 -166 -56q-63 -72 -63 -239z" />
<glyph unicode="&#xa5;" horiz-adv-x="1216" d="M29 1337l14 82h481l8 -84l-137 -37q-14 -2 -14 -14q0 -8 14 -33l213 -411q20 -35 21 -60h20l207 400q43 82 43 98q0 20 -25.5 31.5t-97.5 27.5l12 82h406l8 -86q-90 -18 -125 -39.5t-59 -70.5l-260 -508h-297l-291 534q-27 45 -48.5 58.5t-92.5 29.5zM229 393v109h770 v-109h-770zM229 643v109h770v-109h-770zM330 80q129 20 157.5 41.5t28.5 85.5v233l199 4v-286q0 -47 41 -54l157 -24l-8 -80h-563z" />
<glyph unicode="&#xa6;" horiz-adv-x="522" d="M195 426h133v-856h-133v856zM195 727v854h133v-854h-133z" />
<glyph unicode="&#xa7;" horiz-adv-x="894" d="M51 573q0 168 213 301q-141 106 -141 279q0 117 99.5 201t266.5 84q147 0 263 -49q4 -27 4 -84q0 -106 -19 -203l-106 -8q-10 190 -41 209q-43 27 -127 26.5t-127 -24.5q-51 -29 -51 -107q0 -84 44 -139t128 -101l125 -67q16 -10 65 -35t70.5 -37t58.5 -39.5t54.5 -51 t32 -60.5t14.5 -78q0 -164 -209 -299q127 -90 127 -236q0 -127 -110 -213t-298 -86q-80 0 -166 16.5t-125 32.5q-4 27 -4 84q0 150 19 203l106 8q14 -135 20.5 -162.5t22.5 -35.5q66 -37 172 -37q96 0 141 33q45 37 45 100q0 80 -52 131t-154 107l-66 36q-16 10 -65.5 35 t-71 37t-58 40t-54 51.5t-32 60t-14.5 77.5zM213 629q0 -23 10 -44.5t22.5 -37t40 -34.5t44 -28.5t55.5 -31t55 -29.5l138 -76q137 104 137 187q0 29 -10.5 51t-40 44.5t-46 34t-66.5 38t-65 34.5l-137 78q-137 -106 -137 -186z" />
<glyph unicode="&#xa8;" horiz-adv-x="630" d="M10 1343q0 45 30 78t77 33q109 0 108 -111q0 -47 -30.5 -80.5t-77.5 -33.5q-106 0 -107 114zM406 1343q0 45 29.5 78t76.5 33q109 0 109 -111q0 -47 -31 -80.5t-78 -33.5q-106 0 -106 114z" />
<glyph unicode="&#xa9;" horiz-adv-x="1722" d="M92 692q0 338 211 542t584 204q365 0 564.5 -187.5t199.5 -505.5q0 -348 -211 -555.5t-584 -207.5q-365 0 -564.5 191.5t-199.5 518.5zM291 727q0 -283 154.5 -460t443.5 -177q152 0 264.5 51.5t176 141.5t93 196.5t29.5 231.5q0 272 -154.5 445t-443.5 173 q-152 0 -264.5 -50t-176 -138t-93 -191.5t-29.5 -222.5zM442 713q0 84 27 163.5t81 150.5t150.5 114t221.5 43q139 0 301 -105v-45q0 -117 -19 -194l-139 -13q-22 193 -30 203q-2 2 -5 4q-31 41 -123 41q-133 0 -199.5 -98t-66.5 -264q0 -182 91 -276.5t208 -94.5q37 0 72 9 t39 22q20 20 36 170l121 -8q20 -66 21 -160q0 -45 -2 -62q-33 -29 -127 -54.5t-154 -25.5q-270 0 -387 132.5t-117 347.5z" />
<glyph unicode="&#xaa;" horiz-adv-x="774" d="M59 465v108h676v-108h-676zM72 893q0 113 90 170t295 59v43q0 180 -117 181q-57 0 -72 -19q-14 -25 -28 -127l-103 8q-14 49 -14 115q0 37 2 59q88 55 250 56q127 0 183 -53.5t56 -180.5v-340q0 -37 18.5 -52t94.5 -30l-8 -61l-180 -19q-14 0 -30.5 30t-16.5 63v28l-11 4 l-18 -26q-72 -109 -195 -109q-84 0 -140 52.5t-56 148.5zM240 909q0 -100 84 -100q49 0 104 45q29 26 29 53v137q-113 -4 -165 -34.5t-52 -100.5z" />
<glyph unicode="&#xab;" horiz-adv-x="942" d="M123 500v32l334 349l43 -33l-215 -332l215 -356l-43 -33zM483 500v32l334 349l43 -33l-215 -332l215 -356l-43 -33z" />
<glyph unicode="&#xac;" horiz-adv-x="1056" d="M92 686v109h873v-459h-117v350h-756z" />
<glyph unicode="&#xad;" horiz-adv-x="604" d="M70 416l24 151l447 29l-33 -127z" />
<glyph unicode="&#xae;" horiz-adv-x="1722" d="M92 692q0 338 211 542t584 204q365 0 564.5 -187.5t199.5 -505.5q0 -348 -211 -555.5t-584 -207.5q-365 0 -564.5 191.5t-199.5 518.5zM291 727q0 -283 154.5 -460t443.5 -177q152 0 264.5 51.5t176 141.5t93 196.5t29.5 231.5q0 272 -154.5 445t-443.5 173 q-152 0 -264.5 -50t-176 -138t-93 -191.5t-29.5 -222.5zM506 1098l8 73h395q299 0 299 -215q0 -76 -56 -153.5t-155 -116.5v-8q12 -2 33 -29l164 -266q27 -43 88 -53l-8 -76h-203l-225 389h-78v-266q0 -27 27 -33l71 -14l-4 -76h-344l-8 76q47 12 63.5 26.5t16.5 49.5v616 q0 37 -13.5 50t-70.5 26zM768 741h45q100 0 151.5 41t51.5 148q0 147 -172 147h-51q-25 0 -25 -26v-310z" />
<glyph unicode="&#xaf;" horiz-adv-x="774" d="M45 1315v123h510v-123h-510z" />
<glyph unicode="&#xb0;" horiz-adv-x="747" d="M92 1157q0 129 76 205t211 76q131 0 202.5 -71t71.5 -196q0 -127 -76.5 -203.5t-211.5 -76.5q-129 0 -201 70.5t-72 195.5zM209 1157q0 -76 41 -119t115 -43q82 0 127 48.5t45 127.5q0 76 -41 119t-117 43q-80 0 -125 -48t-45 -128z" />
<glyph unicode="&#xb1;" horiz-adv-x="954" d="M92 -2v108h770v-108h-770zM92 627v108h334v342h102v-342h334v-108h-334v-351h-102v351h-334z" />
<glyph unicode="&#xb2;" horiz-adv-x="675" d="M16 891v86q211 168 314.5 297t103.5 235q0 68 -43 114t-131 46q-74 0 -102 -33q-23 -23 -31 -139l-90 8q-12 59 -12 113q0 49 2 63q43 33 120.5 52.5t143.5 19.5q160 0 245 -68.5t85 -177.5q0 -121 -102.5 -235.5t-342.5 -284.5l2 -10l125 4q168 4 176 8q25 4 53 125 l82 -4v-39q0 -111 -20 -180h-578z" />
<glyph unicode="&#xb3;" horiz-adv-x="641" d="M2 905q15 131 23 182l90 7q6 -115 26 -121q37 -12 105 -12q72 0 120 44t48 115q0 176 -176 176q-20 0 -70 -4l4 74q111 16 162 68.5t51 115.5q0 55 -38 89t-95 34q-66 0 -90 -16q-25 -18 -35 -141l-88 8q-12 66 -12 104q0 51 2 68q102 57 243 57q125 0 203 -48t78 -132 q0 -66 -47 -122t-111 -81l2 -10q82 -12 141.5 -69.5t59.5 -147.5q0 -102 -103.5 -183t-267.5 -81q-139 0 -225 26z" />
<glyph unicode="&#xb4;" horiz-adv-x="405" d="M25 1200l219 367l164 -62v-47l-312 -309z" />
<glyph unicode="&#xb5;" horiz-adv-x="1181" d="M33 895l12 66q219 29 305 28l23 -20v-627q0 -213 162 -213q104 0 217 80q27 18 35 35.5t8 58.5v492q0 43 -33 62.5t-123 37.5l12 66q219 29 305 28l23 -20v-774q0 -53 25.5 -75t130.5 -42l-13 -66l-264 -26q-14 -2 -29.5 56t-15.5 101v13l-16 6l-25 -29 q-129 -151 -315 -151q-86 0 -127 24l-15 -12l70 -369l-166 -82l-31 35v1217q0 43 -32.5 62.5t-122.5 37.5z" />
<glyph unicode="&#xb6;" horiz-adv-x="1222" d="M133 1030q0 176 105.5 282.5t308.5 106.5h590l8 -80l-127 -24q-41 -8 -41 -53v-1000q0 -186 -97.5 -346t-197.5 -160q-88 0 -170 17q-6 25 -6 53q0 66 39 127q96 -23 137 -23q37 0 63 17q41 27 52.5 120t11.5 257v987h-96v-1241q-66 -12 -146 -13l-22 21v491 q-197 6 -304.5 137.5t-107.5 323.5z" />
<glyph unicode="&#xb7;" horiz-adv-x="491" d="M113 530q0 53 36.5 92.5t94.5 39.5q59 0 97 -32t38 -100q0 -55 -38 -95t-97 -40q-57 0 -94 34t-37 101z" />
<glyph unicode="&#xb8;" horiz-adv-x="993" d="M420 -182l78 264l100 -27l-66 -231zM420 -182l98 76q45 14 92 14q82 0 128 -35t46 -96q0 -86 -95 -149.5t-259 -71.5l-8 63q195 27 194 119q0 33 -24.5 55.5t-69.5 22.5q-47 0 -84 -21z" />
<glyph unicode="&#xb9;" horiz-adv-x="546" d="M68 1700q154 53 272 53l16 -14v-742v-9q0 -3 1 -6t4.5 -5t8.5 -3t13 -3l102 -17l-6 -63h-395l-8 63q78 12 104.5 27.5t26.5 44.5v528q0 63 -6 75.5t-33 12.5q-53 0 -90 -6z" />
<glyph unicode="&#xba;" horiz-adv-x="786" d="M51 1055q0 176 92.5 279.5t257.5 103.5q158 0 246 -97.5t88 -265.5q0 -174 -92 -278.5t-258 -104.5q-160 0 -247 96.5t-87 266.5zM55 465v108h676v-108h-676zM217 1077q0 -129 48 -211t141 -82q74 0 110 45q51 66 51 226q0 127 -48 207.5t-138 80.5q-76 0 -109 -43 q-55 -66 -55 -223z" />
<glyph unicode="&#xbb;" horiz-adv-x="942" d="M82 160l215 356l-215 332l43 33l334 -349v-32l-334 -373zM442 160l215 356l-215 332l43 33l334 -349v-32l-334 -373z" />
<glyph unicode="&#xbc;" horiz-adv-x="1730" d="M150 1378q154 53 272 54l16 -15v-741v-9q0 -3 1 -6.5t4 -5.5t8.5 -3t13.5 -3l102 -16l-6 -64h-395l-8 64q78 12 104.5 27.5t26.5 44.5v528q0 63 -6.5 75.5t-32.5 12.5q-53 0 -90 -6zM336 0l915 1419h133l-913 -1419h-135zM911 317l414 529q94 16 143 16l15 -12v-522 l137 -2l-12 -103h-125v-117q0 -23 26 -26l76 -17l-4 -63h-369l-8 63q78 12 103.5 26.5t25.5 45.5v88h-391zM1032 342l4 -8l297 -6v348q0 27 4 39l-8 4l-274 -348q-4 -6 -12.5 -16.5t-10.5 -12.5z" />
<glyph unicode="&#xbd;" horiz-adv-x="1843" d="M150 1378q154 53 272 54l16 -15v-741v-9q0 -3 1 -6.5t4 -5.5t8.5 -3t13.5 -3l102 -16l-6 -64h-395l-8 64q78 12 104.5 27.5t26.5 44.5v528q0 63 -6.5 75.5t-32.5 12.5q-53 0 -90 -6zM336 0l915 1419h133l-913 -1419h-135zM1102 0v86q211 168 314.5 297t103.5 235 q0 68 -43 114t-131 46q-74 0 -103 -33q-23 -23 -31 -139l-90 8q-12 57 -12 113q0 49 2 64q43 33 121 52t143 19q160 0 245 -68.5t85 -177.5q0 -121 -102.5 -235.5t-341.5 -284.5l2 -10l125 4q168 4 176 8q25 4 53 125l82 -4v-39q0 -111 -21 -180h-577z" />
<glyph unicode="&#xbe;" horiz-adv-x="1730" d="M84 584q14 131 22 182l91 6q6 -115 26 -121q37 -12 105 -12q72 0 120 44t48 116q0 176 -177 176q-20 0 -69 -4l4 73q111 16 162 68.5t51 116.5q0 55 -38 89t-95 34q-66 0 -90 -17q-25 -18 -35 -141l-88 8q-12 66 -12 105q0 51 2 67q102 57 243 58q125 0 203 -48.5 t78 -132.5q0 -66 -47 -122t-111 -80l2 -11q82 -12 141.5 -69.5t59.5 -147.5q0 -102 -103.5 -183t-267.5 -81q-139 0 -225 27zM336 0l915 1419h133l-913 -1419h-135zM911 317l414 529q94 16 143 16l15 -12v-522l137 -2l-12 -103h-125v-117q0 -23 26 -26l76 -17l-4 -63h-369 l-8 63q78 12 103.5 26.5t25.5 45.5v88h-391zM1032 342l4 -8l297 -6v348q0 27 4 39l-8 4l-274 -348q-4 -6 -12.5 -16.5t-10.5 -12.5z" />
<glyph unicode="&#xbf;" horiz-adv-x="868" d="M49 -129q0 80 32 147.5t80 110.5t104.5 86t104.5 75t79.5 72.5t31.5 86.5q0 40 -20 122l96 29q94 -131 94 -217q0 -57 -44 -108.5t-105.5 -92.5t-124 -84t-106.5 -104.5t-44 -134.5q0 -100 73 -149.5t171 -49.5q94 0 156 33q16 8 24 38.5t19 143.5l110 -12 q16 -63 17 -160q0 -45 -2 -65q-59 -35 -162 -61t-199 -26q-168 0 -276.5 83t-108.5 237zM383 891q0 51 32 84t85 33q51 0 84.5 -30t33.5 -81t-31.5 -81t-88.5 -30q-115 0 -115 105z" />
<glyph unicode="&#xc0;" horiz-adv-x="1372" d="M14 82q78 20 95.5 32.5t33.5 55.5l459 1268h170l469 -1301q10 -31 121 -51l-8 -86h-477l-13 82q143 29 144 68q0 16 -9 43l-90 266h-530l-105 -291q-8 -25 -8 -31q0 -12 13 -14l145 -39l-8 -84h-387zM348 1767l123 105l356 -264l-51 -74l-411 190zM418 567h456l-200 576 q-14 43 -15 59h-20z" />
<glyph unicode="&#xc1;" horiz-adv-x="1372" d="M14 82q78 20 95.5 32.5t33.5 55.5l459 1268h170l469 -1301q10 -31 121 -51l-8 -86h-477l-13 82q143 29 144 68q0 16 -9 43l-90 266h-530l-105 -291q-8 -25 -8 -31q0 -12 13 -14l145 -39l-8 -84h-387zM418 567h456l-200 576q-14 43 -15 59h-20zM553 1608l356 264l123 -105 l-16 -43l-412 -190z" />
<glyph unicode="&#xc2;" horiz-adv-x="1372" d="M14 82q78 20 95.5 32.5t33.5 55.5l459 1268h170l469 -1301q10 -31 121 -51l-8 -86h-477l-13 82q143 29 144 68q0 16 -9 43l-90 266h-530l-105 -291q-8 -25 -8 -31q0 -12 13 -14l145 -39l-8 -84h-387zM354 1587l279 285h115l278 -285l-51 -53l-285 186l-284 -186zM418 567 h456l-200 576q-14 43 -15 59h-20z" />
<glyph unicode="&#xc3;" horiz-adv-x="1372" d="M14 82q78 20 95.5 32.5t33.5 55.5l459 1268h170l469 -1301q10 -31 121 -51l-8 -86h-477l-13 82q143 29 144 68q0 16 -9 43l-90 266h-530l-105 -291q-8 -25 -8 -31q0 -12 13 -14l145 -39l-8 -84h-387zM322 1612q66 109 112.5 152.5t97.5 43.5q43 0 175.5 -27.5 t173.5 -27.5q61 0 129 72l51 -25q-43 -94 -87 -150.5t-102 -56.5q-35 0 -171 28t-185 28q-78 0 -147 -70zM418 567h456l-200 576q-14 43 -15 59h-20z" />
<glyph unicode="&#xc4;" horiz-adv-x="1372" d="M14 82q78 20 95.5 32.5t33.5 55.5l459 1268h170l469 -1301q10 -31 121 -51l-8 -86h-477l-13 82q143 29 144 68q0 16 -9 43l-90 266h-530l-105 -291q-8 -25 -8 -31q0 -12 13 -14l145 -39l-8 -84h-387zM385 1702q0 45 29.5 77.5t77.5 32.5q109 0 108 -110q0 -47 -30.5 -81 t-77.5 -34q-106 0 -107 115zM418 567h456l-200 576q-14 43 -15 59h-20zM780 1702q0 45 30 77.5t77 32.5q109 0 108 -110q0 -47 -30.5 -81t-77.5 -34q-106 0 -107 115z" />
<glyph unicode="&#xc5;" horiz-adv-x="1372" d="M14 82q78 20 95.5 32.5t33.5 55.5l459 1268h170l469 -1301q10 -31 121 -51l-8 -86h-477l-13 82q143 29 144 68q0 16 -9 43l-90 266h-530l-105 -291q-8 -25 -8 -31q0 -12 13 -14l145 -39l-8 -84h-387zM418 567h456l-200 576q-14 43 -15 59h-20zM498 1694q0 84 60 136 t147 52q82 0 139 -49t57 -129q0 -84 -60.5 -137.5t-146.5 -53.5q-84 0 -140 48.5t-56 132.5zM598 1694q0 -43 26.5 -67.5t69.5 -24.5q45 0 75 28.5t30 73.5q0 41 -27 65.5t-67 24.5q-106 0 -107 -100z" />
<glyph unicode="&#xc6;" horiz-adv-x="1802" d="M29 82q70 18 86 29.5t43 58.5l614 1071q12 20 12 35q0 41 -125 63l13 80h1018q12 -76 12 -162q0 -63 -4 -157l-117 -15q-29 141 -41 177t-29 38q-49 6 -125 9l-311 6v-551h309q27 0 66 145l63 -6q0 -57 1.5 -101t2.5 -69.5t4 -61.5t4 -48.5t8 -59.5t9 -65l-74 -13 q-33 117 -44 143.5t-25 26.5h-324v-551l174 2q266 4 301 29q20 14 86 240l113 -8q2 -27 2 -80q0 -135 -22 -287h-996l-12 80q109 18 132.5 40.5t23.5 86.5v448h-314l-274 -477q-18 -33 -19 -39q0 -12 23 -18l139 -37l-8 -84h-381zM625 764h252v438h-13z" />
<glyph unicode="&#xc7;" horiz-adv-x="1269" d="M72 678q0 111 21.5 213t74.5 203.5t133 176.5t205 121t282 46q113 0 238 -20.5t164 -37.5q12 -76 12 -192q0 -49 -4 -152l-117 -16q-45 238 -80 262q-18 14 -95 30.5t-152 16.5q-225 0 -340 -166t-115 -436q0 -319 145.5 -475t360.5 -156q78 0 146.5 18.5t86.5 32.5 q25 18 70 263l113 -4q0 -156 -23 -332q-63 -35 -191 -63.5t-262 -28.5q-334 0 -503.5 196.5t-169.5 499.5zM596 -182l78 264l100 -27l-65 -231zM596 -182l98 76q45 14 92 14q82 0 128.5 -35t46.5 -96q0 -86 -95.5 -149.5t-259.5 -71.5l-8 63q90 10 142.5 42t52.5 77 q0 33 -25 55.5t-70 22.5q-47 0 -84 -21z" />
<glyph unicode="&#xc8;" horiz-adv-x="1212" d="M90 80q109 18 132.5 40.5t23.5 86.5v1005q0 63 -23.5 86t-132.5 41l12 80h955q12 -76 12 -162q0 -63 -4 -157l-117 -15q-29 141 -41 177t-28 38q-49 6 -125 9l-310 6v-551h308q27 0 65 145l64 -6q0 -57 1 -101t2 -69.5t4 -61.5t4 -48.5t8 -59.5t9 -65l-73 -13 q-33 117 -44.5 143.5t-25.5 26.5h-322v-551l183 2q63 0 113.5 3.5t78 5.5t49 6t28.5 6t13 5t9 3q35 10 90 242l112 -10q2 -35 2 -105q0 -109 -22 -262h-998zM254 1767l123 105l356 -264l-51 -74l-412 190z" />
<glyph unicode="&#xc9;" horiz-adv-x="1212" d="M90 80q109 18 132.5 40.5t23.5 86.5v1005q0 63 -23.5 86t-132.5 41l12 80h955q12 -76 12 -162q0 -63 -4 -157l-117 -15q-29 141 -41 177t-28 38q-49 6 -125 9l-310 6v-551h308q27 0 65 145l64 -6q0 -57 1 -101t2 -69.5t4 -61.5t4 -48.5t8 -59.5t9 -65l-73 -13 q-33 117 -44.5 143.5t-25.5 26.5h-322v-551l183 2q63 0 113.5 3.5t78 5.5t49 6t28.5 6t13 5t9 3q35 10 90 242l112 -10q2 -35 2 -105q0 -109 -22 -262h-998zM418 1608l356 264l123 -105l-16 -43l-412 -190z" />
<glyph unicode="&#xca;" horiz-adv-x="1212" d="M90 80q109 18 132.5 40.5t23.5 86.5v1005q0 63 -23.5 86t-132.5 41l12 80h955q12 -76 12 -162q0 -63 -4 -157l-117 -15q-29 141 -41 177t-28 38q-49 6 -125 9l-310 6v-551h308q27 0 65 145l64 -6q0 -57 1 -101t2 -69.5t4 -61.5t4 -48.5t8 -59.5t9 -65l-73 -13 q-33 117 -44.5 143.5t-25.5 26.5h-322v-551l183 2q63 0 113.5 3.5t78 5.5t49 6t28.5 6t13 5t9 3q35 10 90 242l112 -10q2 -35 2 -105q0 -109 -22 -262h-998zM260 1587l279 285h114l279 -285l-51 -53l-285 186l-285 -186z" />
<glyph unicode="&#xcb;" horiz-adv-x="1212" d="M90 80q109 18 132.5 40.5t23.5 86.5v1005q0 63 -23.5 86t-132.5 41l12 80h955q12 -76 12 -162q0 -63 -4 -157l-117 -15q-29 141 -41 177t-28 38q-49 6 -125 9l-310 6v-551h308q27 0 65 145l64 -6q0 -57 1 -101t2 -69.5t4 -61.5t4 -48.5t8 -59.5t9 -65l-73 -13 q-33 117 -44.5 143.5t-25.5 26.5h-322v-551l183 2q63 0 113.5 3.5t78 5.5t49 6t28.5 6t13 5t9 3q35 10 90 242l112 -10q2 -35 2 -105q0 -109 -22 -262h-998zM293 1702q0 45 29.5 77.5t76.5 32.5q109 0 109 -110q0 -47 -31 -81t-78 -34q-106 0 -106 115zM688 1702 q0 45 30 77.5t77 32.5q109 0 108 -110q0 -47 -30.5 -81t-77.5 -34q-106 0 -107 115z" />
<glyph unicode="&#xcc;" horiz-adv-x="690" d="M14 1767l123 105l357 -264l-52 -74l-411 190zM90 80q109 18 132.5 40.5t23.5 86.5v1005q0 63 -23.5 86t-132.5 41l12 80h502l8 -80l-127 -24q-41 -8 -41 -53v-1104q0 -45 41 -54l127 -24l-8 -80h-502z" />
<glyph unicode="&#xcd;" horiz-adv-x="690" d="M90 80q109 18 132.5 40.5t23.5 86.5v1005q0 63 -23.5 86t-132.5 41l12 80h502l8 -80l-127 -24q-41 -8 -41 -53v-1104q0 -45 41 -54l127 -24l-8 -80h-502zM160 1608l356 264l123 -105l-16 -43l-412 -190z" />
<glyph unicode="&#xce;" horiz-adv-x="690" d="M8 1587l279 285h114l279 -285l-51 -53l-285 186l-285 -186zM90 80q109 18 132.5 40.5t23.5 86.5v1005q0 63 -23.5 86t-132.5 41l12 80h502l8 -80l-127 -24q-41 -8 -41 -53v-1104q0 -45 41 -54l127 -24l-8 -80h-502z" />
<glyph unicode="&#xcf;" horiz-adv-x="690" d="M39 1702q0 45 29.5 77.5t76.5 32.5q109 0 109 -110q0 -47 -31 -81t-78 -34q-106 0 -106 115zM90 80q109 18 132.5 40.5t23.5 86.5v1005q0 63 -23.5 86t-132.5 41l12 80h502l8 -80l-127 -24q-41 -8 -41 -53v-1104q0 -45 41 -54l127 -24l-8 -80h-502zM434 1702 q0 45 30 77.5t77 32.5q109 0 108 -110q0 -47 -30.5 -81t-77.5 -34q-106 0 -107 115z" />
<glyph unicode="&#xd0;" horiz-adv-x="1460" d="M55 692v123h191v397q0 63 -23.5 86t-132.5 41l12 80h641q176 0 305.5 -56t201 -153.5t105.5 -211t34 -244.5q0 -141 -38 -270.5t-117 -240t-217 -177t-319 -66.5h-596l-12 80q109 18 132.5 40.5t23.5 86.5v485h-191zM444 190q0 -45 43 -53q143 -29 218 -28 q227 0 341.5 161.5t114.5 431.5q0 170 -44 295t-116.5 189.5t-148.5 94.5t-156 30h-252v-496h342v-123h-342v-502z" />
<glyph unicode="&#xd1;" horiz-adv-x="1587" d="M90 80q109 18 132.5 40.5t23.5 86.5v1005q0 63 -23.5 86t-132.5 41l12 80h279l20 -207h-18v-1007q0 -51 19.5 -76t70.5 -31l143 -18l-8 -80h-506zM260 1419h234l831 -1224l-4 -193l-102 -2zM438 1612q66 109 113 152.5t98 43.5q43 0 175 -27.5t173 -27.5q61 0 129 72 l52 -25q-43 -94 -87 -150.5t-102 -56.5q-35 0 -171 28t-185 28q-78 0 -148 -70zM1012 1339l12 80h481l8 -80l-127 -24q-41 -8 -40 -53v-1262h-121l-33 387h16v784q0 92 -33.5 123t-162.5 45z" />
<glyph unicode="&#xd2;" horiz-adv-x="1456" d="M72 692q0 338 178 542t493 204q305 0 473 -187.5t168 -505.5q0 -348 -178 -555.5t-493 -207.5q-305 0 -473 191t-168 519zM299 727q0 -283 114.5 -460t331.5 -177q111 0 194 51.5t129 141.5t67.5 196.5t21.5 231.5q0 274 -115.5 446t-330.5 172q-111 0 -194 -50 t-129 -138t-67.5 -191.5t-21.5 -222.5zM446 1767l123 105l357 -264l-52 -74l-411 190z" />
<glyph unicode="&#xd3;" horiz-adv-x="1456" d="M72 692q0 338 178 542t493 204q305 0 473 -187.5t168 -505.5q0 -348 -178 -555.5t-493 -207.5q-305 0 -473 191t-168 519zM299 727q0 -283 114.5 -460t331.5 -177q111 0 194 51.5t129 141.5t67.5 196.5t21.5 231.5q0 274 -115.5 446t-330.5 172q-111 0 -194 -50 t-129 -138t-67.5 -191.5t-21.5 -222.5zM539 1608l356 264l123 -105l-17 -43l-411 -190z" />
<glyph unicode="&#xd4;" horiz-adv-x="1456" d="M72 692q0 338 178 542t493 204q305 0 473 -187.5t168 -505.5q0 -348 -178 -555.5t-493 -207.5q-305 0 -473 191t-168 519zM299 727q0 -283 114.5 -460t331.5 -177q111 0 194 51.5t129 141.5t67.5 196.5t21.5 231.5q0 274 -115.5 446t-330.5 172q-111 0 -194 -50 t-129 -138t-67.5 -191.5t-21.5 -222.5zM391 1587l279 285h114l279 -285l-51 -53l-285 186l-285 -186z" />
<glyph unicode="&#xd5;" horiz-adv-x="1456" d="M72 692q0 338 178 542t493 204q305 0 473 -187.5t168 -505.5q0 -348 -178 -555.5t-493 -207.5q-305 0 -473 191t-168 519zM299 727q0 -283 114.5 -460t331.5 -177q111 0 194 51.5t129 141.5t67.5 196.5t21.5 231.5q0 274 -115.5 446t-330.5 172q-111 0 -194 -50 t-129 -138t-67.5 -191.5t-21.5 -222.5zM367 1612q66 109 112.5 152.5t98.5 43.5q43 0 175 -27.5t173 -27.5q61 0 129 72l51 -25q-43 -94 -87 -150.5t-101 -56.5q-35 0 -171.5 28t-185.5 28q-78 0 -147 -70z" />
<glyph unicode="&#xd6;" horiz-adv-x="1456" d="M72 692q0 338 178 542t493 204q305 0 473 -187.5t168 -505.5q0 -348 -178 -555.5t-493 -207.5q-305 0 -473 191t-168 519zM299 727q0 -283 114.5 -460t331.5 -177q111 0 194 51.5t129 141.5t67.5 196.5t21.5 231.5q0 274 -115.5 446t-330.5 172q-111 0 -194 -50 t-129 -138t-67.5 -191.5t-21.5 -222.5zM414 1702q0 45 29.5 77.5t76.5 32.5q109 0 109 -110q0 -47 -31 -81t-78 -34q-106 0 -106 115zM809 1702q0 45 29.5 77.5t76.5 32.5q109 0 109 -110q0 -47 -31 -81t-78 -34q-106 0 -106 115z" />
<glyph unicode="&#xd7;" d="M174 227l285 285l-283 283l74 71l280 -280l283 280l76 -73l-285 -281l285 -287l-74 -71l-283 284l-284 -284z" />
<glyph unicode="&#xd8;" horiz-adv-x="1452" d="M72 692q0 338 178 542t493 204q154 0 277 -54l102 197l113 -41l-111 -213q260 -184 260 -602q0 -338 -178 -540.5t-493 -202.5q-135 0 -258 43l-99 -189l-110 41l102 201q-276 182 -276 614zM299 727q0 -311 133 -485l518 1007q-98 80 -239 80q-111 0 -194 -50t-129 -137 t-67.5 -190.5t-21.5 -224.5zM522 156q98 -66 223 -66q111 0 194 50t129 137.5t67.5 189.5t21.5 223q0 291 -121 467z" />
<glyph unicode="&#xd9;" horiz-adv-x="1507" d="M80 1339l12 80h502l8 -80l-127 -24q-41 -8 -41 -53v-721q0 -209 86 -315.5t277 -106.5q197 0 288 114.5t91 276.5v664q0 90 -34 120.5t-163 44.5l12 80h482l8 -80l-127 -24q-18 -4 -28.5 -13.5t-11.5 -16.5t-1 -23v-736q0 -252 -137.5 -398t-411.5 -146q-528 0 -528 528 v702q0 63 -24 86t-132 41zM430 1767l123 105l356 -264l-51 -74l-412 190z" />
<glyph unicode="&#xda;" horiz-adv-x="1507" d="M80 1339l12 80h502l8 -80l-127 -24q-41 -8 -41 -53v-721q0 -209 86 -315.5t277 -106.5q197 0 288 114.5t91 276.5v664q0 90 -34 120.5t-163 44.5l12 80h482l8 -80l-127 -24q-18 -4 -28.5 -13.5t-11.5 -16.5t-1 -23v-736q0 -252 -137.5 -398t-411.5 -146q-528 0 -528 528 v702q0 63 -24 86t-132 41zM657 1608l357 264l123 -105l-17 -43l-411 -190z" />
<glyph unicode="&#xdb;" horiz-adv-x="1507" d="M80 1339l12 80h502l8 -80l-127 -24q-41 -8 -41 -53v-721q0 -209 86 -315.5t277 -106.5q197 0 288 114.5t91 276.5v664q0 90 -34 120.5t-163 44.5l12 80h482l8 -80l-127 -24q-18 -4 -28.5 -13.5t-11.5 -16.5t-1 -23v-736q0 -252 -137.5 -398t-411.5 -146q-528 0 -528 528 v702q0 63 -24 86t-132 41zM436 1587l279 285h114l279 -285l-51 -53l-285 186l-285 -186z" />
<glyph unicode="&#xdc;" horiz-adv-x="1507" d="M80 1339l12 80h502l8 -80l-127 -24q-41 -8 -41 -53v-721q0 -209 86 -315.5t277 -106.5q197 0 288 114.5t91 276.5v664q0 90 -34 120.5t-163 44.5l12 80h482l8 -80l-127 -24q-18 -4 -28.5 -13.5t-11.5 -16.5t-1 -23v-736q0 -252 -137.5 -398t-411.5 -146q-528 0 -528 528 v702q0 63 -24 86t-132 41zM475 1702q0 45 30 77.5t77 32.5q109 0 108 -110q0 -47 -30.5 -81t-77.5 -34q-106 0 -107 115zM870 1702q0 45 30 77.5t77 32.5q109 0 108 -110q0 -47 -30.5 -81t-77.5 -34q-106 0 -107 115z" />
<glyph unicode="&#xdd;" horiz-adv-x="1224" d="M10 1337l15 82h481l8 -84l-137 -37q-14 -2 -15 -14q0 -8 15 -33l235 -452q20 -35 21 -60h20l228 441q43 82 43 98q0 20 -26 31.5t-97 27.5l12 82h406l8 -86q-90 -18 -125 -39.5t-60 -70.5l-323 -635v-430q0 -47 41 -54l158 -24l-9 -80h-563l-12 80q129 20 157.5 41.5 t28.5 85.5v364l-368 678q-27 45 -48.5 58.5t-93.5 29.5zM516 1608l356 264l123 -105l-16 -43l-412 -190z" />
<glyph unicode="&#xde;" horiz-adv-x="1161" d="M90 80q109 18 132.5 41t23.5 86v1005q0 63 -23.5 86t-132.5 41l12 80h502l8 -80l-127 -24q-41 -8 -41 -53v-121h220q229 0 344.5 -100.5t115.5 -268.5q0 -188 -153.5 -314t-440.5 -126h-86v-174q0 -49 41 -54l179 -24l-9 -80h-553zM444 440h50q70 0 133 12.5t127.5 43 t103.5 95t39 154.5q0 84 -28.5 144.5t-76 89.5t-93.5 41t-97 12h-117q-41 0 -41 -45v-547z" />
<glyph unicode="&#xdf;" horiz-adv-x="1386" d="M92 80q100 20 122 41.5t22 75.5v632h-134l-8 89l101 24q27 6 35 22.5t10 49.5q2 37 6 65.5t17 92t32.5 111.5t58.5 107.5t89.5 98.5t127 65.5t170.5 26.5q147 0 256 -90t109 -246q0 -82 -48 -151.5t-105.5 -110.5t-105.5 -99.5t-48 -119.5q0 -18 6 -36.5t13 -31t25.5 -28 t29 -24.5t38 -23.5t39 -19.5t45 -20.5t43.5 -21.5q57 -27 93 -47t76 -54t59.5 -78t19.5 -99q0 -127 -103.5 -213t-275.5 -86q-166 0 -270 49q-4 20 -4 65q0 119 18 162l99 6q14 -96 21 -118.5t20 -26.5q70 -29 151 -29q86 0 123 33q45 37 45 102q0 33 -13.5 60.5t-46 51 t-56 37t-77 37t-71.5 33.5q-100 49 -155.5 110.5t-55.5 164.5q0 61 29.5 115.5t71.5 96.5t84 83t72 95t30 114q0 113 -63.5 181.5t-160.5 68.5q-139 0 -208.5 -138.5t-69.5 -380.5v-954h-316z" />
<glyph unicode="&#xe0;" horiz-adv-x="1048" d="M86 252q0 154 131 229.5t426 77.5v66q0 266 -192 266q-92 0 -117 -27q-23 -27 -49 -174l-111 12q-16 63 -16 156q0 45 2 66q119 75 336 75h6q172 0 248.5 -75.5t76.5 -249.5v-471q0 -53 26 -75t130 -42l-12 -66l-246 -26q-20 0 -43 39t-23 84q0 23 3 39l-17 6l-24 -37 q-96 -143 -265 -143q-115 0 -192.5 71.5t-77.5 198.5zM285 270q0 -74 38.5 -111.5t102.5 -37.5q80 0 170 69q47 37 47 78v201q-184 -4 -271 -49.5t-87 -149.5zM256 1458v47l164 62l219 -367l-72 -51z" />
<glyph unicode="&#xe1;" horiz-adv-x="1048" d="M86 252q0 154 131 229.5t426 77.5v66q0 266 -192 266q-92 0 -117 -27q-23 -27 -49 -174l-111 12q-16 63 -16 156q0 45 2 66q121 76 342 75q172 0 248.5 -75.5t76.5 -249.5v-471q0 -53 26 -75t130 -42l-12 -66l-246 -26q-20 0 -43 39t-23 84q0 23 3 39l-17 6l-24 -37 q-96 -143 -265 -143q-115 0 -192.5 71.5t-77.5 198.5zM285 270q0 -74 38.5 -111.5t102.5 -37.5q80 0 170 69q47 37 47 78v201q-184 -4 -271 -49.5t-87 -149.5zM387 1200l219 367l164 -62v-47l-311 -309z" />
<glyph unicode="&#xe2;" horiz-adv-x="1048" d="M86 252q0 154 131 229.5t426 77.5v66q0 266 -192 266q-92 0 -117 -27q-23 -27 -49 -174l-111 12q-16 63 -16 156q0 45 2 66q119 75 336 75h6q172 0 248.5 -75.5t76.5 -249.5v-471q0 -53 26 -75t130 -42l-12 -66l-246 -26q-20 0 -43 39t-23 84q0 23 3 39l-17 6l-24 -37 q-96 -143 -265 -143q-115 0 -192.5 71.5t-77.5 198.5zM285 270q0 -74 38.5 -111.5t102.5 -37.5q80 0 170 69q47 37 47 78v201q-184 -4 -271 -49.5t-87 -149.5zM188 1200l242 346h129l241 -346l-71 -51l-236 242l-233 -242z" />
<glyph unicode="&#xe3;" horiz-adv-x="1048" d="M86 252q0 154 131 229.5t426 77.5v66q0 266 -192 266q-92 0 -117 -27q-23 -27 -49 -174l-111 12q-16 63 -16 156q0 45 2 66q121 76 342 75q172 0 248.5 -75.5t76.5 -249.5v-471q0 -53 26 -75t130 -42l-12 -66l-246 -26q-20 0 -43 39t-23 84q0 23 3 39l-17 6l-24 -37 q-96 -143 -265 -143q-115 0 -192.5 71.5t-77.5 198.5zM139 1253q66 115 113 162t98 47q43 0 175 -43t173 -43q59 0 129 88l52 -26q-43 -100 -87 -159.5t-102 -59.5q-35 0 -171 43t-185 43q-78 0 -148 -86zM285 270q0 -74 38.5 -111.5t102.5 -37.5q80 0 170 69q47 37 47 78 v201q-184 -4 -271 -49.5t-87 -149.5z" />
<glyph unicode="&#xe4;" horiz-adv-x="1048" d="M86 252q0 154 131 229.5t426 77.5v66q0 266 -192 266q-92 0 -117 -27q-23 -27 -49 -174l-111 12q-16 63 -16 156q0 45 2 66q121 76 342 75q172 0 248.5 -75.5t76.5 -249.5v-471q0 -53 26 -75t130 -42l-12 -66l-246 -26q-20 0 -43 39t-23 84q0 23 3 39l-17 6l-24 -37 q-96 -143 -265 -143q-115 0 -192.5 71.5t-77.5 198.5zM186 1343q0 45 30 78t77 33q109 0 108 -111q0 -47 -30.5 -80.5t-77.5 -33.5q-106 0 -107 114zM285 270q0 -74 38.5 -111.5t102.5 -37.5q80 0 170 69q47 37 47 78v201q-184 -4 -271 -49.5t-87 -149.5zM582 1343 q0 45 29.5 78t76.5 33q109 0 109 -111q0 -47 -31 -80.5t-78 -33.5q-106 0 -106 114z" />
<glyph unicode="&#xe5;" horiz-adv-x="1048" d="M86 252q0 154 131 229.5t426 77.5v66q0 266 -192 266q-92 0 -117 -27q-23 -27 -49 -174l-111 12q-16 63 -16 156q0 45 2 66q119 75 336 75h6q172 0 248.5 -75.5t76.5 -249.5v-471q0 -53 26 -75t130 -42l-12 -66l-246 -26q-20 0 -43 39t-23 84q0 23 3 39l-17 6l-24 -37 q-96 -143 -265 -143q-115 0 -192.5 71.5t-77.5 198.5zM285 270q0 -74 38.5 -111.5t102.5 -37.5q80 0 170 69q47 37 47 78v201q-184 -4 -271 -49.5t-87 -149.5zM297 1346q0 94 54.5 147t152.5 53q94 0 145.5 -50t51.5 -138q0 -92 -54.5 -147.5t-152.5 -55.5q-94 0 -145.5 50 t-51.5 141zM398 1346q0 -103 96 -103q49 0 76.5 32t27.5 83q0 100 -94 100q-49 0 -77.5 -30.5t-28.5 -81.5z" />
<glyph unicode="&#xe6;" horiz-adv-x="1562" d="M86 252q0 152 130 229.5t427 96.5v47q0 266 -192 266q-92 0 -117 -27q-22 -27 -49 -174l-111 12q-16 63 -16 156q0 45 2 66q121 76 342 75q229 0 293 -139q133 139 335 139q348 0 365 -428l-53 -39l-594 -32q0 -379 323 -379q141 0 277 69l43 -67q-68 -55 -176.5 -98 t-227.5 -43q-260 0 -372 219h-13q-51 -94 -140 -156.5t-206 -62.5q-115 0 -192.5 71.5t-77.5 198.5zM285 270q0 -72 38.5 -109.5t102.5 -37.5q84 0 170 67q47 37 47 78v219q-188 -18 -273 -66t-85 -151zM854 594l424 37q20 2 20 39q0 90 -48 155.5t-160 65.5 q-117 0 -169.5 -77t-66.5 -220z" />
<glyph unicode="&#xe7;" horiz-adv-x="958" d="M70 483q0 96 23.5 181.5t74.5 164t150.5 124.5t236.5 46q156 0 299 -57q2 -16 2 -57q0 -137 -25 -223l-114 -13q-33 207 -62 219q-43 18 -153 18q-1 0 -2 1q-109 0 -160 -76q-72 -109 -72 -309q0 -199 87 -290t225 -91q143 0 274 90l57 -68q-165 -161 -396 -161h-3 q-215 0 -328.5 140t-113.5 361zM402 -182l78 264l100 -27l-66 -231zM402 -182l98 76q45 14 92 14q82 0 128 -35t46 -96q0 -86 -95 -149.5t-259 -71.5l-8 63q195 27 194 119q0 33 -24.5 55.5t-69.5 22.5q-47 0 -84 -21z" />
<glyph unicode="&#xe8;" horiz-adv-x="978" d="M70 471q0 225 131 376.5t346 151.5q348 0 364 -428l-53 -39l-594 -32q0 -379 324 -379q141 0 276 69l43 -67q-68 -55 -176 -98t-227 -43q-207 0 -320.5 141t-113.5 348zM270 594l424 37q20 2 21 39q0 90 -48.5 155.5t-160.5 65.5q-117 0 -169.5 -77t-66.5 -220zM213 1458 v47l164 62l219 -367l-72 -51z" />
<glyph unicode="&#xe9;" horiz-adv-x="978" d="M70 471q0 225 131 376.5t346 151.5q348 0 364 -428l-53 -39l-594 -32q0 -379 324 -379q141 0 276 69l43 -67q-68 -55 -176 -98t-227 -43q-207 0 -320.5 141t-113.5 348zM270 594l424 37q20 2 21 39q0 90 -48.5 155.5t-160.5 65.5q-117 0 -169.5 -77t-66.5 -220zM426 1200 l219 367l164 -62v-47l-312 -309z" />
<glyph unicode="&#xea;" horiz-adv-x="978" d="M70 471q0 225 131 376.5t346 151.5q348 0 364 -428l-53 -39l-594 -32q0 -379 324 -379q141 0 276 69l43 -67q-68 -55 -176 -98t-227 -43q-207 0 -320.5 141t-113.5 348zM197 1200l241 346h129l242 -346l-72 -51l-235 242l-234 -242zM270 594l424 37q20 2 21 39 q0 90 -48.5 155.5t-160.5 65.5q-117 0 -169.5 -77t-66.5 -220z" />
<glyph unicode="&#xeb;" horiz-adv-x="978" d="M70 471q0 225 131 376.5t346 151.5q348 0 364 -428l-53 -39l-594 -32q0 -379 324 -379q141 0 276 69l43 -67q-68 -55 -176 -98t-227 -43q-207 0 -320.5 141t-113.5 348zM270 594l424 37q20 2 21 39q0 90 -48.5 155.5t-160.5 65.5q-117 0 -169.5 -77t-66.5 -220zM211 1343 q0 45 30 78t77 33q109 0 108 -111q0 -47 -30.5 -80.5t-77.5 -33.5q-106 0 -107 114zM607 1343q0 45 29.5 78t76.5 33q109 0 109 -111q0 -47 -31 -80.5t-78 -33.5q-106 0 -106 114z" />
<glyph unicode="&#xec;" horiz-adv-x="634" d="M33 1458v47l164 62l219 -367l-72 -51zM72 885l12 65q219 29 305 29l23 -21v-811q0 -14 2 -20t11 -12t28 -11l100 -24l-8 -80h-449l-12 80q100 20 121.5 41.5t21.5 75.5v587q0 43 -32.5 62.5t-122.5 38.5z" />
<glyph unicode="&#xed;" horiz-adv-x="634" d="M72 885l12 65q219 29 305 29l23 -21v-811q0 -14 2 -20t11 -12t28 -11l100 -24l-8 -80h-449l-12 80q100 20 121.5 41.5t21.5 75.5v587q0 43 -32.5 62.5t-122.5 38.5zM207 1200l219 367l164 -62v-47l-311 -309z" />
<glyph unicode="&#xee;" horiz-adv-x="634" d="M-10 1200l241 346h129l242 -346l-72 -51l-235 242l-234 -242zM72 885l12 65q219 29 305 29l23 -21v-811q0 -14 2 -20t11 -12t28 -11l100 -24l-8 -80h-449l-12 80q100 20 121.5 41.5t21.5 75.5v587q0 43 -32.5 62.5t-122.5 38.5z" />
<glyph unicode="&#xef;" horiz-adv-x="634" d="M-6 1343q0 45 29.5 78t76.5 33q109 0 109 -111q0 -47 -31 -80.5t-78 -33.5q-106 0 -106 114zM72 885l12 65q219 29 305 29l23 -21v-811q0 -14 2 -20t11 -12t28 -11l100 -24l-8 -80h-449l-12 80q100 20 121.5 41.5t21.5 75.5v587q0 43 -32.5 62.5t-122.5 38.5zM389 1343 q0 45 30 78t77 33q109 0 108 -111q0 -47 -30.5 -80.5t-77.5 -33.5q-106 0 -107 114z" />
<glyph unicode="&#xf0;" horiz-adv-x="1091" d="M66 475q0 240 125.5 382t353.5 142q100 0 188 -32q-66 219 -196 381l-232 -95l-80 72l244 100q-55 59 -121 109l107 57q68 -49 137 -114l260 108l82 -74l-270 -110q336 -385 335 -897q0 -240 -125.5 -381t-353.5 -141q-217 0 -335.5 131t-118.5 362zM264 506 q0 -182 74 -299t213 -117q115 0 168 62q37 41 59.5 130t22.5 193q0 186 -75 301t-212 115q-115 0 -168 -62q-37 -41 -59.5 -130t-22.5 -193z" />
<glyph unicode="&#xf1;" horiz-adv-x="1220" d="M72 903l12 66l264 26q14 0 29.5 -57t15.5 -100v-13l17 -6l24 29q128 151 314 151h2q131 0 206.5 -78.5t75.5 -220.5v-553q0 -14 2 -20t11.5 -12t27.5 -11l101 -24l-9 -80h-438l-12 80q92 18 112.5 40.5t20.5 76.5v442q0 96 -35 154.5t-133 58.5q-104 0 -223 -80 q-18 -12 -25.5 -19.5t-13.5 -25.5t-6 -49v-528q0 -23 7 -31t34 -15l90 -24l-8 -80h-439l-12 80q100 20 121.5 41.5t21.5 75.5v589q0 53 -25.5 75t-129.5 42zM260 1253q66 115 113 162t98 47q43 0 175 -43t173 -43q59 0 129 88l51 -26q-43 -100 -87 -159.5t-101 -59.5 q-35 0 -171 43t-185 43q-78 0 -148 -86z" />
<glyph unicode="&#xf2;" horiz-adv-x="1064" d="M66 475q0 240 125.5 382t353.5 142q217 0 335.5 -132t118.5 -363q0 -240 -125.5 -381t-353.5 -141q-217 0 -335.5 131t-118.5 362zM262 1458v47l164 62l219 -367l-72 -51zM264 506q0 -182 74 -299t213 -117q115 0 168 62q37 41 59.5 130t22.5 193q0 182 -74 299t-213 117 q-115 0 -168 -62q-37 -41 -59.5 -130t-22.5 -193z" />
<glyph unicode="&#xf3;" horiz-adv-x="1064" d="M66 475q0 240 125.5 382t353.5 142q217 0 335.5 -132t118.5 -363q0 -240 -125.5 -381t-353.5 -141q-217 0 -335.5 131t-118.5 362zM264 506q0 -182 74 -299t213 -117q115 0 168 62q37 41 59.5 130t22.5 193q0 182 -74 299t-213 117q-115 0 -168 -62q-37 -41 -59.5 -130 t-22.5 -193zM416 1200l219 367l164 -62v-47l-312 -309z" />
<glyph unicode="&#xf4;" horiz-adv-x="1064" d="M66 475q0 240 125.5 382t353.5 142q217 0 335.5 -132t118.5 -363q0 -240 -125.5 -381t-353.5 -141q-217 0 -335.5 131t-118.5 362zM264 506q0 -182 74 -299t213 -117q115 0 168 62q37 41 59.5 130t22.5 193q0 182 -74 299t-213 117q-115 0 -168 -62q-37 -41 -59.5 -130 t-22.5 -193zM215 1200l242 346h129l241 -346l-71 -51l-236 242l-233 -242z" />
<glyph unicode="&#xf5;" horiz-adv-x="1064" d="M66 475q0 240 125.5 382t353.5 142q217 0 335.5 -132t118.5 -363q0 -240 -125.5 -381t-353.5 -141q-217 0 -335.5 131t-118.5 362zM264 506q0 -182 74 -299t213 -117q115 0 168 62q37 41 59.5 130t22.5 193q0 182 -74 299t-213 117q-115 0 -168 -62q-37 -41 -59.5 -130 t-22.5 -193zM162 1253q66 115 113 162t98 47q43 0 175 -43t173 -43q59 0 129 88l51 -26q-43 -100 -87 -159.5t-101 -59.5q-35 0 -171 43t-185 43q-78 0 -148 -86z" />
<glyph unicode="&#xf6;" horiz-adv-x="1064" d="M66 475q0 240 125.5 382t353.5 142q217 0 335.5 -132t118.5 -363q0 -240 -125.5 -381t-353.5 -141q-217 0 -335.5 131t-118.5 362zM264 506q0 -182 74 -299t213 -117q115 0 168 62q37 41 59.5 130t22.5 193q0 182 -74 299t-213 117q-115 0 -168 -62q-37 -41 -59.5 -130 t-22.5 -193zM209 1343q0 45 30 78t77 33q109 0 108 -111q0 -47 -30.5 -80.5t-77.5 -33.5q-106 0 -107 114zM605 1343q0 45 29.5 78t76.5 33q109 0 109 -111q0 -47 -31 -80.5t-78 -33.5q-106 0 -106 114z" />
<glyph unicode="&#xf7;" horiz-adv-x="954" d="M92 500v108h770v-108h-770zM346 252q0 47 33 82t84 35q121 0 121 -117q0 -49 -34 -85t-87 -36q-51 0 -84 31t-33 90zM346 891q0 47 33 82t84 35q121 0 121 -117q0 -49 -34 -85t-87 -36q-51 0 -84 30.5t-33 90.5z" />
<glyph unicode="&#xf8;" horiz-adv-x="1064" d="M66 475q0 240 125.5 382t353.5 142q76 0 151 -20l101 192l112 -41l-104 -200q195 -125 194 -426q0 -240 -126 -381t-353 -141q-106 0 -186 30l-76 -147l-111 41l84 164q-166 129 -165 405zM264 506q0 -162 53 -266l320 620q-57 31 -123 31q-115 0 -168 -62 q-37 -41 -59.5 -130t-22.5 -193zM399 139q61 -49 152 -49q115 0 168 62q37 41 59.5 130t22.5 193q0 184 -74 299z" />
<glyph unicode="&#xf9;" horiz-adv-x="1181" d="M33 895l12 66q212 28 299 28h6l23 -20v-627q0 -213 162 -213q104 0 217 80q27 18 35 35.5t8 58.5v492q0 43 -33 62.5t-123 37.5l12 66q212 28 299 28h6l23 -20v-766q0 -53 25.5 -75t130.5 -42l-13 -66l-264 -28h-1q-15 0 -29 54q-16 56 -15 97v13l-16 6l-25 -29 q-128 -151 -313 -151h-2q-125 0 -197 66.5t-72 205.5v541q0 43 -32.5 62.5t-122.5 37.5zM283 1458v47l164 62l219 -367l-72 -51z" />
<glyph unicode="&#xfa;" horiz-adv-x="1181" d="M33 895l12 66q219 29 305 28l23 -20v-627q0 -213 162 -213q104 0 217 80q27 18 35 35.5t8 58.5v492q0 43 -33 62.5t-123 37.5l12 66q219 29 305 28l23 -20v-766q0 -53 25.5 -75t130.5 -42l-13 -66l-264 -28q-14 -2 -29.5 54t-15.5 97v13l-16 6l-25 -29 q-129 -152 -315 -151q-125 0 -197 66.5t-72 205.5v541q0 43 -32.5 62.5t-122.5 37.5zM481 1200l219 367l164 -62v-47l-311 -309z" />
<glyph unicode="&#xfb;" horiz-adv-x="1181" d="M33 895l12 66q219 29 305 28l23 -20v-627q0 -213 162 -213q104 0 217 80q27 18 35 35.5t8 58.5v492q0 43 -33 62.5t-123 37.5l12 66q219 29 305 28l23 -20v-766q0 -53 25.5 -75t130.5 -42l-13 -66l-264 -28q-14 -2 -29.5 54t-15.5 97v13l-16 6l-25 -29 q-129 -152 -315 -151q-125 0 -197 66.5t-72 205.5v541q0 43 -32.5 62.5t-122.5 37.5zM256 1200l242 346h129l241 -346l-71 -51l-236 242l-233 -242z" />
<glyph unicode="&#xfc;" horiz-adv-x="1181" d="M33 895l12 66q219 29 305 28l23 -20v-627q0 -213 162 -213q104 0 217 80q27 18 35 35.5t8 58.5v492q0 43 -33 62.5t-123 37.5l12 66q219 29 305 28l23 -20v-766q0 -53 25.5 -75t130.5 -42l-13 -66l-264 -28q-14 -2 -29.5 54t-15.5 97v13l-16 6l-25 -29 q-129 -152 -315 -151q-125 0 -197 66.5t-72 205.5v541q0 43 -32.5 62.5t-122.5 37.5zM254 1343q0 45 29.5 78t76.5 33q109 0 109 -111q0 -47 -31 -80.5t-78 -33.5q-106 0 -106 114zM649 1343q0 45 30 78t77 33q109 0 108 -111q0 -47 -30.5 -80.5t-77.5 -33.5 q-106 0 -107 114z" />
<glyph unicode="&#xfd;" horiz-adv-x="1024" d="M8 889l12 80h422l9 -80l-125 -31q-14 -2 -15 -16q0 -2 8 -27l209 -547q10 -29 11 -63h16l217 563q12 33 12 49q0 27 -29.5 41t-105.5 31l13 80h364l8 -80q-90 -20 -96 -35l-324 -803q-41 -102 -65.5 -156.5t-67.5 -122t-90 -103.5t-117.5 -68.5t-164.5 -49.5 q-53 53 -54 168q0 12 4 41q49 -6 131 -6q92 0 138 19q57 25 129 227l-340 815q-16 39 -29.5 49t-79.5 25zM474 1200l219 367l164 -62v-47l-312 -309z" />
<glyph unicode="&#xfe;" horiz-adv-x="1159" d="M41 1487l12 65q219 29 305 29l23 -20v-576q0 -113 -14 -160l16 -6l20 27q119 154 293 153q158 0 264.5 -132t106.5 -355q0 -236 -121 -383t-338 -147q-154 0 -221 53l-14 -6q8 -45 8 -90v-222q0 -14 2 -21t11 -13.5t28 -8.5l186 -24l-8 -80h-534l-13 80q100 20 122 41.5 t22 75.5v1619q0 43 -33 62.5t-123 38.5zM381 199q84 -100 262 -101q88 0 139 58q86 96 86 319q0 184 -64.5 280.5t-158.5 96.5q-102 0 -209 -70q-55 -37 -55 -94v-489z" />
<glyph unicode="&#xff;" horiz-adv-x="1024" d="M8 889l12 80h422l9 -80l-125 -31q-14 -2 -15 -16q0 -2 8 -27l209 -547q10 -29 11 -63h16l217 563q12 33 12 49q0 27 -29.5 41t-105.5 31l13 80h364l8 -80q-90 -20 -96 -35l-324 -803q-41 -102 -65.5 -156.5t-67.5 -122t-90 -103.5t-117.5 -68.5t-164.5 -49.5 q-53 53 -54 168q0 12 4 41q49 -6 131 -6q92 0 138 19q57 25 129 227l-340 815q-16 39 -29.5 49t-79.5 25zM238 1343q0 45 29.5 78t76.5 33q109 0 109 -111q0 -47 -31 -80.5t-78 -33.5q-106 0 -106 114zM633 1343q0 45 29.5 78t76.5 33q109 0 109 -111q0 -47 -31 -80.5 t-78 -33.5q-106 0 -106 114z" />
<glyph unicode="&#x100;" horiz-adv-x="1372" d="M14 82q78 20 95.5 32.5t33.5 55.5l459 1268h170l469 -1301q10 -31 121 -51l-8 -86h-477l-13 82q143 29 144 68q0 16 -9 43l-90 266h-530l-105 -291q-8 -25 -8 -31q0 -12 13 -14l145 -39l-8 -84h-387zM418 567h456l-200 576q-14 43 -15 59h-20zM436 1589v123h510v-123 h-510z" />
<glyph unicode="&#x101;" horiz-adv-x="1048" d="M86 252q0 154 131 229.5t426 77.5v66q0 266 -192 266q-92 0 -117 -27q-23 -27 -49 -174l-111 12q-16 63 -16 156q0 45 2 66q121 76 342 75q172 0 248.5 -75.5t76.5 -249.5v-471q0 -53 26 -75t130 -42l-12 -66l-246 -26q-20 0 -43 39t-23 84q0 23 3 39l-17 6l-24 -37 q-96 -143 -265 -143q-115 0 -192.5 71.5t-77.5 198.5zM246 1315v123h510v-123h-510zM285 270q0 -74 38.5 -111.5t102.5 -37.5q80 0 170 69q47 37 47 78v201q-184 -4 -271 -49.5t-87 -149.5z" />
<glyph unicode="&#x102;" horiz-adv-x="1372" d="M14 82q78 20 95.5 32.5t33.5 55.5l459 1268h170l469 -1301q10 -31 121 -51l-8 -86h-477l-13 82q143 29 144 68q0 16 -9 43l-90 266h-530l-105 -291q-8 -25 -8 -31q0 -12 13 -14l145 -39l-8 -84h-387zM389 1843h76q35 -147 229.5 -147t229.5 147h75q-8 -127 -83.5 -207 t-221 -80t-221.5 80t-84 207zM418 567h456l-200 576q-14 43 -15 59h-20z" />
<glyph unicode="&#x103;" horiz-adv-x="1048" d="M86 252q0 154 131 229.5t426 77.5v66q0 266 -192 266q-92 0 -117 -27q-23 -27 -49 -174l-111 12q-16 63 -16 156q0 45 2 66q119 75 336 75h6q172 0 248.5 -75.5t76.5 -249.5v-471q0 -53 26 -75t130 -42l-12 -66l-246 -26q-20 0 -43 39t-23 84q0 23 3 39l-17 6l-24 -37 q-96 -143 -265 -143q-115 0 -192.5 71.5t-77.5 198.5zM285 270q0 -74 38.5 -111.5t102.5 -37.5q80 0 170 69q47 37 47 78v201q-184 -4 -271 -49.5t-87 -149.5zM211 1475h76q35 -174 229.5 -174t229.5 174h76q-8 -137 -84 -225.5t-221.5 -88.5t-221 88t-84.5 226z" />
<glyph unicode="&#x104;" horiz-adv-x="1372" d="M14 82q78 20 95.5 32.5t33.5 55.5l459 1268h170l469 -1301q10 -31 121 -51l-8 -86h-477l-13 82q143 29 144 68q0 16 -9 43l-90 266h-530l-105 -291q-8 -25 -8 -31q0 -12 13 -14l145 -39l-8 -84h-387zM418 567h456l-200 576q-14 43 -15 59h-20zM860 -256q0 119 125 214 t332 95v-53q-123 -4 -207 -64.5t-84 -150.5q0 -53 32 -82t81 -29q63 0 123 21l24 -41q-104 -94 -225 -94q-80 0 -140.5 52t-60.5 132z" />
<glyph unicode="&#x105;" horiz-adv-x="1048" d="M86 252q0 154 131 229.5t426 77.5v66q0 266 -192 266q-92 0 -117 -27q-23 -27 -49 -174l-111 12q-16 63 -16 156q0 45 2 66q121 76 342 75q172 0 248.5 -75.5t76.5 -249.5v-471q0 -53 26 -75t130 -42l-12 -66l-246 -26q-20 0 -43 39t-23 84q0 23 3 39l-17 6l-24 -37 q-96 -143 -265 -143q-115 0 -192.5 71.5t-77.5 198.5zM285 270q0 -74 38.5 -111.5t102.5 -37.5q80 0 170 69q47 37 47 78v201q-184 -4 -271 -49.5t-87 -149.5zM561 -256q0 125 111.5 227.5t296.5 102.5v-54q-100 -4 -171 -70.5t-71 -164.5q0 -53 32 -82t81 -29q63 0 123 21 l24 -41q-104 -94 -225 -94q-80 0 -140.5 52t-60.5 132z" />
<glyph unicode="&#x106;" horiz-adv-x="1269" d="M72 678q0 111 21.5 213t74.5 203.5t133 176.5t205 121t282 46q113 0 238 -20.5t164 -37.5q12 -76 12 -192q0 -49 -4 -152l-117 -16q-45 238 -80 262q-18 14 -95 30.5t-152 16.5q-225 0 -340 -166t-115 -436q0 -319 145.5 -475t360.5 -156q78 0 146.5 18.5t86.5 32.5 q25 18 70 263l113 -4q0 -156 -23 -332q-63 -35 -191 -63.5t-262 -28.5q-334 0 -503.5 196.5t-169.5 499.5zM588 1608l356 264l123 -105l-16 -43l-412 -190z" />
<glyph unicode="&#x107;" horiz-adv-x="958" d="M70 483q0 96 23.5 181.5t74.5 164t150.5 124.5t236.5 46q156 0 299 -57q2 -16 2 -57q0 -137 -25 -223l-114 -13q-33 207 -62 219q-43 18 -153 18q-1 0 -2 1q-109 0 -160 -76q-72 -109 -72 -309q0 -199 87 -290t225 -91q143 0 274 90l57 -68q-165 -161 -396 -161h-3 q-215 0 -328.5 140t-113.5 361zM471 1200l219 367l164 -62v-47l-312 -309z" />
<glyph unicode="&#x108;" horiz-adv-x="1269" d="M72 678q0 111 21.5 213t74.5 203.5t133 176.5t205 121t282 46q113 0 238 -20.5t164 -37.5q12 -76 12 -192q0 -49 -4 -152l-117 -16q-45 238 -80 262q-18 14 -95 30.5t-152 16.5q-225 0 -340 -166t-115 -436q0 -319 145.5 -475t360.5 -156q78 0 146.5 18.5t86.5 32.5 q25 18 70 263l113 -4q0 -156 -23 -332q-63 -35 -191 -63.5t-262 -28.5q-334 0 -503.5 196.5t-169.5 499.5zM383 1587l279 285h114l279 -285l-51 -53l-285 186l-285 -186z" />
<glyph unicode="&#x109;" horiz-adv-x="958" d="M70 483q0 96 23.5 181.5t74.5 164t150.5 124.5t236.5 46q156 0 299 -57q2 -16 2 -57q0 -137 -25 -223l-114 -13q-33 207 -62 219q-43 18 -153 18q-1 0 -2 1q-109 0 -160 -76q-72 -109 -72 -309q0 -199 87 -290t225 -91q143 0 274 90l57 -68q-165 -161 -396 -161h-3 q-215 0 -328.5 140t-113.5 361zM217 1200l242 346h129l241 -346l-71 -51l-236 242l-233 -242z" />
<glyph unicode="&#x10c;" horiz-adv-x="1269" d="M72 678q0 111 21.5 213t74.5 203.5t133 176.5t205 121t282 46q113 0 238 -20.5t164 -37.5q12 -76 12 -192q0 -49 -4 -152l-117 -16q-45 238 -80 262q-18 14 -95 30.5t-152 16.5q-225 0 -340 -166t-115 -436q0 -319 145.5 -475t360.5 -156q78 0 146.5 18.5t86.5 32.5 q25 18 70 263l113 -4q0 -156 -23 -332q-63 -35 -191 -63.5t-262 -28.5q-334 0 -503.5 196.5t-169.5 499.5zM426 1825l51 53l285 -186l285 186l51 -53l-279 -285h-114z" />
<glyph unicode="&#x10d;" horiz-adv-x="958" d="M70 483q0 96 23.5 181.5t74.5 164t150.5 124.5t236.5 46q156 0 299 -57q2 -16 2 -57q0 -137 -25 -223l-114 -13q-33 207 -62 219q-43 18 -153 18q-1 0 -2 1q-109 0 -160 -76q-72 -109 -72 -309q0 -199 87 -290t225 -91q143 0 274 90l57 -68q-165 -161 -396 -161h-3 q-215 0 -328.5 140t-113.5 361zM223 1505l72 51l235 -241l234 241l71 -51l-241 -346h-129z" />
<glyph unicode="&#x10e;" horiz-adv-x="1460" d="M90 80q109 18 132.5 40.5t23.5 86.5v1005q0 63 -23.5 86t-132.5 41l12 80h641q176 0 305.5 -56t201 -153.5t105.5 -211t34 -244.5q0 -141 -38 -270.5t-117 -240t-217 -177t-319 -66.5h-596zM301 1825l51 53l285 -186l285 186l51 -53l-279 -285h-114zM444 190 q0 -45 43 -53q143 -29 218 -28q227 0 341.5 161.5t114.5 431.5q0 170 -44 295t-116.5 189.5t-148.5 94.5t-156 30h-252v-1121z" />
<glyph unicode="&#x10f;" horiz-adv-x="1165" d="M74 469q0 236 120.5 383t337.5 147q150 0 222 -53l14 6q-8 33 -8 90v344q0 43 -42 65t-151 36l13 65q219 29 342 29l22 -20v-1360q0 -53 25.5 -75t130.5 -42l-13 -66l-245 -26q-20 0 -45 41t-25 84q0 23 2 39l-16 6l-21 -27q-119 -153 -293 -153q-158 0 -264 132 t-106 355zM272 506q0 -184 65 -280.5t159 -96.5q102 0 209 70q55 37 55 94v489q-84 100 -262 101q-88 0 -140 -58q-86 -96 -86 -319zM1053 1210q29 109 28 211q0 63 -8 119l174 45l25 -39q-18 -197 -133 -364z" />
<glyph unicode="&#x110;" horiz-adv-x="1460" d="M55 692v123h191v397q0 63 -23.5 86t-132.5 41l12 80h641q176 0 305.5 -56t201 -153.5t105.5 -211t34 -244.5q0 -141 -38 -270.5t-117 -240t-217 -177t-319 -66.5h-596l-12 80q109 18 132.5 40.5t23.5 86.5v485h-191zM444 190q0 -45 43 -53q143 -29 218 -28 q227 0 341.5 161.5t114.5 431.5q0 170 -44 295t-116.5 189.5t-148.5 94.5t-156 30h-252v-496h342v-123h-342v-502z" />
<glyph unicode="&#x111;" horiz-adv-x="1165" d="M74 469q0 236 120.5 383t337.5 147q150 0 222 -53l14 6q-8 33 -8 90v344q0 43 -42 65t-151 36l13 65q219 29 342 29l22 -20v-1360q0 -53 25.5 -75t130.5 -42l-13 -66l-245 -26q-20 0 -45 41t-25 84q0 23 2 39l-16 6l-21 -27q-119 -153 -293 -153q-158 0 -264 132 t-106 355zM272 506q0 -184 65 -280.5t159 -96.5q102 0 209 70q55 37 55 94v489q-84 100 -262 101q-88 0 -140 -58q-86 -96 -86 -319zM494 1198v109h616v-109h-616z" />
<glyph unicode="&#x112;" horiz-adv-x="1212" d="M90 80q109 18 132.5 40.5t23.5 86.5v1005q0 63 -23.5 86t-132.5 41l12 80h955q12 -76 12 -162q0 -63 -4 -157l-117 -15q-29 141 -41 177t-28 38q-49 6 -125 9l-310 6v-551h308q27 0 65 145l64 -6q0 -57 1 -101t2 -69.5t4 -61.5t4 -48.5t8 -59.5t9 -65l-73 -13 q-33 117 -44.5 143.5t-25.5 26.5h-322v-551l183 2q63 0 113.5 3.5t78 5.5t49 6t28.5 6t13 5t9 3q35 10 90 242l112 -10q2 -35 2 -105q0 -109 -22 -262h-998zM373 1589v123h510v-123h-510z" />
<glyph unicode="&#x113;" horiz-adv-x="978" d="M70 471q0 225 131 376.5t346 151.5q348 0 364 -428l-53 -39l-594 -32q0 -379 324 -379q141 0 276 69l43 -67q-68 -55 -176 -98t-227 -43q-207 0 -320.5 141t-113.5 348zM270 594l424 37q20 2 21 39q0 90 -48.5 155.5t-160.5 65.5q-117 0 -169.5 -77t-66.5 -220zM283 1315 v123h510v-123h-510z" />
<glyph unicode="&#x114;" horiz-adv-x="1212" d="M90 80q109 18 132.5 40.5t23.5 86.5v1005q0 63 -23.5 86t-132.5 41l12 80h955q12 -76 12 -162q0 -63 -4 -157l-117 -15q-29 141 -41 177t-28 38q-49 6 -125 9l-310 6v-551h308q27 0 65 145l64 -6q0 -57 1 -101t2 -69.5t4 -61.5t4 -48.5t8 -59.5t9 -65l-73 -13 q-33 117 -44.5 143.5t-25.5 26.5h-322v-551l183 2q63 0 113.5 3.5t78 5.5t49 6t28.5 6t13 5t9 3q35 10 90 242l112 -10q2 -35 2 -105q0 -109 -22 -262h-998zM311 1843h76q35 -147 229.5 -147t229.5 147h76q-8 -127 -84 -207t-221.5 -80t-221.5 80t-84 207z" />
<glyph unicode="&#x115;" horiz-adv-x="978" d="M70 471q0 225 131 376.5t346 151.5q348 0 364 -428l-53 -39l-594 -32q0 -379 324 -379q141 0 276 69l43 -67q-68 -55 -176 -98t-227 -43q-207 0 -320.5 141t-113.5 348zM270 594l424 37q20 2 21 39q0 90 -48.5 155.5t-160.5 65.5q-117 0 -169.5 -77t-66.5 -220zM219 1475 h76q35 -174 229.5 -174t229.5 174h76q-8 -137 -84 -225.5t-221.5 -88.5t-221 88t-84.5 226z" />
<glyph unicode="&#x118;" horiz-adv-x="1212" d="M90 80q109 18 132.5 40.5t23.5 86.5v1005q0 63 -23.5 86t-132.5 41l12 80h955q12 -76 12 -162q0 -63 -4 -157l-117 -15q-29 141 -41 177t-28 38q-49 6 -125 9l-310 6v-551h308q27 0 65 145l64 -6q0 -57 1 -101t2 -69.5t4 -61.5t4 -48.5t8 -59.5t9 -65l-73 -13 q-33 117 -44.5 143.5t-25.5 26.5h-322v-551l183 2q63 0 113.5 3.5t78 5.5t49 6t28.5 6t13 5t9 3q35 10 90 242l112 -10q2 -35 2 -105q0 -109 -22 -262h-998zM641 -256q0 119 125 214t332 95v-53q-123 -4 -207 -64.5t-84 -150.5q0 -53 31.5 -82t81.5 -29q63 0 122 21l25 -41 q-104 -94 -225 -94q-80 0 -140.5 52t-60.5 132z" />
<glyph unicode="&#x119;" horiz-adv-x="978" d="M70 471q0 225 131 376.5t346 151.5q348 0 364 -428l-53 -39l-594 -32q0 -379 324 -379q141 0 276 69l43 -67q-68 -55 -176 -98t-227 -43q-207 0 -320.5 141t-113.5 348zM270 594l424 37q20 2 21 39q0 90 -48.5 155.5t-160.5 65.5q-117 0 -169.5 -77t-66.5 -220zM494 -233 q0 106 91 201t292 196l24 -45q-123 -88 -182 -162t-59 -168q0 -53 31.5 -84t80.5 -31q66 0 123 21l25 -41q-104 -94 -226 -94q-82 0 -141 56t-59 151z" />
<glyph unicode="&#x11a;" horiz-adv-x="1212" d="M90 80q109 18 132.5 40.5t23.5 86.5v1005q0 63 -23.5 86t-132.5 41l12 80h955q12 -76 12 -162q0 -63 -4 -157l-117 -15q-29 141 -41 177t-28 38q-49 6 -125 9l-310 6v-551h308q27 0 65 145l64 -6q0 -57 1 -101t2 -69.5t4 -61.5t4 -48.5t8 -59.5t9 -65l-73 -13 q-33 117 -44.5 143.5t-25.5 26.5h-322v-551l183 2q63 0 113.5 3.5t78 5.5t49 6t28.5 6t13 5t9 3q35 10 90 242l112 -10q2 -35 2 -105q0 -109 -22 -262h-998zM256 1825l51 53l285 -186l285 186l51 -53l-279 -285h-114z" />
<glyph unicode="&#x11b;" horiz-adv-x="978" d="M70 471q0 225 131 376.5t346 151.5q348 0 364 -428l-53 -39l-594 -32q0 -379 324 -379q141 0 276 69l43 -67q-68 -55 -176 -98t-227 -43q-207 0 -320.5 141t-113.5 348zM270 594l424 37q20 2 21 39q0 90 -48.5 155.5t-160.5 65.5q-117 0 -169.5 -77t-66.5 -220zM205 1505 l72 51l235 -241l234 241l71 -51l-241 -346h-129z" />
<glyph unicode="&#x11c;" horiz-adv-x="1394" d="M72 678q0 111 21.5 213t74.5 203.5t133 176.5t205 121t282 46q113 0 238 -20.5t164 -37.5q12 -76 12 -192q0 -49 -4 -152l-117 -16q-45 238 -80 262q-18 14 -95 30.5t-152 16.5q-225 0 -340 -166t-115 -436q0 -319 145.5 -475t360.5 -156q113 0 199 33v285q0 63 -24 85.5 t-132 41.5l12 80h479l9 -80l-105 -25q-41 -8 -41 -53v-387q-68 -35 -195.5 -64.5t-261.5 -29.5q-334 0 -503.5 196.5t-169.5 499.5zM379 1587l278 285h115l279 -285l-52 -53l-284 186l-285 -186z" />
<glyph unicode="&#x11d;" horiz-adv-x="1134" d="M113 -256q0 70 40 120t115 105q-116 37 -116 156q0 82 60 156.5t138 124.5l31 -29q-80 -84 -80 -162q0 -31 16.5 -49.5t53.5 -24.5t63.5 -8t77.5 -2q74 0 116 -1t107.5 -7t103.5 -20.5t77.5 -37t58 -61.5t18.5 -90q0 -147 -147.5 -255t-396.5 -108q-336 0 -336 193z M152 657q0 168 112.5 255t284.5 87q166 0 269.5 -82.5t103.5 -242.5q0 -168 -113 -255t-285 -87q-166 0 -269 82t-103 243zM270 -195q0 -66 61.5 -108.5t194.5 -42.5q164 0 246 61.5t82 128.5q0 55 -67.5 68.5t-214 16t-244.5 22.5q-57 -63 -58 -146zM340 674 q0 -242 203 -242q190 0 190 225q0 242 -203 242q-190 0 -190 -225zM776 928q141 72 275 76q20 -35 20 -103q0 -29 -6 -47q-70 16 -147 16q-74 0 -115 -6zM225 1200l242 346h129l241 -346l-71 -51l-236 242l-233 -242z" />
<glyph unicode="&#x11e;" horiz-adv-x="1394" d="M72 678q0 111 21.5 213t74.5 203.5t133 176.5t205 121t282 46q113 0 238 -20.5t164 -37.5q12 -76 12 -192q0 -49 -4 -152l-117 -16q-45 238 -80 262q-18 14 -95 30.5t-152 16.5q-225 0 -340 -166t-115 -436q0 -319 145.5 -475t360.5 -156q113 0 199 33v285q0 63 -24 85.5 t-132 41.5l12 80h479l9 -80l-105 -25q-41 -8 -41 -53v-387q-68 -35 -195.5 -64.5t-261.5 -29.5q-334 0 -503.5 196.5t-169.5 499.5zM469 1843h76q35 -147 229.5 -147t229.5 147h75q-8 -127 -83.5 -207t-221 -80t-221.5 80t-84 207z" />
<glyph unicode="&#x11f;" horiz-adv-x="1134" d="M113 -256q0 70 40 120t115 105q-116 37 -116 156q0 82 60 156.5t138 124.5l31 -29q-80 -84 -80 -162q0 -31 16.5 -49.5t53.5 -24.5t63.5 -8t77.5 -2q74 0 116 -1t107.5 -7t103.5 -20.5t77.5 -37t58 -61.5t18.5 -90q0 -147 -147.5 -255t-396.5 -108q-336 0 -336 193z M152 657q0 168 112.5 255t284.5 87q166 0 269.5 -82.5t103.5 -242.5q0 -168 -113 -255t-285 -87q-166 0 -269 82t-103 243zM270 -195q0 -66 61.5 -108.5t194.5 -42.5q164 0 246 61.5t82 128.5q0 55 -67.5 68.5t-214 16t-244.5 22.5q-57 -63 -58 -146zM340 674 q0 -242 203 -242q190 0 190 225q0 242 -203 242q-190 0 -190 -225zM776 928q141 72 275 76q20 -35 20 -103q0 -29 -6 -47q-70 16 -147 16q-74 0 -115 -6zM239 1475h76q35 -174 229.5 -174t229.5 174h76q-8 -137 -84 -225.5t-221.5 -88.5t-221 88t-84.5 226z" />
<glyph unicode="&#x124;" horiz-adv-x="1570" d="M90 80q109 18 132.5 40.5t23.5 86.5v1005q0 63 -23.5 86t-132.5 41l12 80h502l8 -80l-127 -24q-41 -8 -41 -53v-469h682v419q0 63 -23.5 86t-131.5 41l12 80h502l8 -80l-127 -24q-41 -8 -41 -53v-1104q0 -45 41 -54l127 -24l-8 -80h-502l-12 80q109 18 132 40.5t23 86.5 v463h-682v-512q0 -45 41 -54l127 -24l-8 -80h-502zM461 1587l278 285h115l279 -285l-52 -53l-284 186l-285 -186z" />
<glyph unicode="&#x125;" horiz-adv-x="1220" d="M-82 1587l279 285h114l279 -285l-51 -53l-285 186l-285 -186zM57 1444l13 65q219 29 305 29l22 -20v-533q0 -113 -14 -160l16 -6l25 29q127 152 317 151q137 0 214 -79.5t77 -219.5v-553q0 -14 2 -20t11.5 -12t27.5 -11l101 -24l-9 -80h-438l-12 80q92 18 112.5 40.5 t20.5 76.5v442q0 98 -36 155.5t-140 57.5q-111 0 -228 -80q-27 -18 -37 -35.5t-10 -62.5v-527q0 -14 2 -20t11.5 -12t27.5 -11l90 -24l-8 -80h-438l-12 80q100 20 121.5 41.5t21.5 75.5v1146q0 43 -33 62.5t-123 38.5z" />
<glyph unicode="&#x126;" horiz-adv-x="1570" d="M90 80q109 18 132.5 40.5t23.5 86.5v1005q0 63 -23.5 86t-132.5 41l12 80h502l8 -80l-127 -24q-41 -8 -41 -53v-469h682v419q0 63 -23.5 86t-131.5 41l12 80h502l8 -80l-127 -24q-41 -8 -41 -53v-1104q0 -45 41 -54l127 -24l-8 -80h-502l-12 80q109 18 132 40.5t23 86.5 v463h-682v-512q0 -45 41 -54l127 -24l-8 -80h-502zM102 1008v108h1379v-108h-1379z" />
<glyph unicode="&#x127;" horiz-adv-x="1220" d="M47 1198v109h617v-109h-617zM57 1487l13 65q219 29 305 29l22 -20v-576q0 -113 -14 -160l16 -6l25 29q127 152 317 151q137 0 214 -79.5t77 -219.5v-553q0 -14 2 -20t11.5 -12t27.5 -11l101 -24l-9 -80h-438l-12 80q92 18 112.5 40.5t20.5 76.5v442q0 98 -36 155.5 t-140 57.5q-111 0 -228 -80q-27 -18 -37 -35.5t-10 -62.5v-527q0 -14 2 -20t11.5 -12t27.5 -11l90 -24l-8 -80h-438l-12 80q100 20 121.5 41.5t21.5 75.5v1189q0 43 -33 62.5t-123 38.5z" />
<glyph unicode="&#x128;" horiz-adv-x="690" d="M-10 1612q66 109 113 152.5t98 43.5q43 0 175 -27.5t173 -27.5q61 0 129 72l51 -25q-43 -94 -87 -150.5t-101 -56.5q-35 0 -171.5 28t-185.5 28q-78 0 -147 -70zM90 80q109 18 132.5 40.5t23.5 86.5v1005q0 63 -23.5 86t-132.5 41l12 80h502l8 -80l-127 -24 q-41 -8 -41 -53v-1104q0 -45 41 -54l127 -24l-8 -80h-502z" />
<glyph unicode="&#x129;" horiz-adv-x="634" d="M-82 1253q66 115 113 162t98 47q43 0 175 -43t173 -43q59 0 129 88l51 -26q-43 -100 -87 -159.5t-101 -59.5q-35 0 -171 43t-185 43q-78 0 -148 -86zM72 885l12 65q219 29 305 29l23 -21v-811q0 -14 2 -20t11 -12t28 -11l100 -24l-8 -80h-449l-12 80q100 20 121.5 41.5 t21.5 75.5v587q0 43 -32.5 62.5t-122.5 38.5z" />
<glyph unicode="&#x12a;" horiz-adv-x="690" d="M90 80q109 18 132.5 40.5t23.5 86.5v1005q0 63 -23.5 86t-132.5 41l12 80h502l8 -80l-127 -24q-41 -8 -41 -53v-1104q0 -45 41 -54l127 -24l-8 -80h-502zM94 1589v123h510v-123h-510z" />
<glyph unicode="&#x12b;" horiz-adv-x="634" d="M72 885l12 65q219 29 305 29l23 -21v-811q0 -14 2 -20t11 -12t28 -11l100 -24l-8 -80h-449l-12 80q100 20 121.5 41.5t21.5 75.5v587q0 43 -32.5 62.5t-122.5 38.5zM22 1315v123h510v-123h-510z" />
<glyph unicode="&#x12c;" horiz-adv-x="690" d="M41 1843h76q35 -147 229 -147t229 147h76q-8 -127 -83.5 -207t-221 -80t-221.5 80t-84 207zM90 80q109 18 132.5 40.5t23.5 86.5v1005q0 63 -23.5 86t-132.5 41l12 80h502l8 -80l-127 -24q-41 -8 -41 -53v-1104q0 -45 41 -54l127 -24l-8 -80h-502z" />
<glyph unicode="&#x12d;" horiz-adv-x="634" d="M72 885l12 65q219 29 305 29l23 -21v-811q0 -14 2 -20t11 -12t28 -11l100 -24l-8 -80h-449l-12 80q100 20 121.5 41.5t21.5 75.5v587q0 43 -32.5 62.5t-122.5 38.5zM-13 1475h76q35 -174 229.5 -174t229.5 174h76q-8 -137 -84 -225.5t-221.5 -88.5t-221 88t-84.5 226z " />
<glyph unicode="&#x12e;" horiz-adv-x="690" d="M90 80q109 18 132.5 40.5t23.5 86.5v1005q0 63 -23.5 86t-132.5 41l12 80h502l8 -80l-127 -24q-41 -8 -41 -53v-1104q0 -45 41 -54l127 -24l-8 -80h-502zM111 -256q0 119 124.5 214t331.5 95v-53q-123 -4 -207 -64.5t-84 -150.5q0 -53 32 -82t81 -29q63 0 123 21l25 -41 q-104 -94 -226 -94q-80 0 -140 52t-60 132z" />
<glyph unicode="&#x12f;" horiz-adv-x="634" d="M70 -256q0 119 124.5 214t331.5 95v-53q-123 -4 -206.5 -64.5t-83.5 -150.5q0 -53 31.5 -82t80.5 -29q63 0 123 21l25 -41q-104 -94 -226 -94q-80 0 -140 52t-60 132zM72 885l12 65q219 29 305 29l23 -21v-811q0 -14 2 -20t11 -12t28 -11l100 -24l-8 -80h-449l-12 80 q100 20 121.5 41.5t21.5 75.5v587q0 43 -32.5 62.5t-122.5 38.5zM178 1343q0 49 32 82t87 33q117 0 117 -115q0 -51 -32 -85.5t-85 -34.5q-51 0 -85 30.5t-34 89.5z" />
<glyph unicode="&#x131;" horiz-adv-x="634" d="M72 885l12 65q219 29 305 29l23 -21v-811q0 -14 2 -20t11 -12t28 -11l100 -24l-8 -80h-449l-12 80q100 20 121.5 41.5t21.5 75.5v587q0 43 -32.5 62.5t-122.5 38.5z" />
<glyph unicode="&#x132;" horiz-adv-x="1378" d="M90 80q109 18 132.5 40.5t23.5 86.5v1005q0 63 -23.5 86t-132.5 41l12 80h502l8 -80l-127 -24q-41 -8 -41 -53v-1104q0 -45 41 -54l127 -24l-8 -80h-502zM641 -174q0 66 39 127q96 -23 137 -23q37 0 64 17q59 41 59 377v888q0 61 -31.5 84t-144.5 43l12 80h543l8 -80 l-147 -24q-41 -8 -41 -41v-1012q0 -186 -105.5 -346t-216.5 -160q-88 0 -170 17q-6 25 -6 53z" />
<glyph unicode="&#x133;" horiz-adv-x="1208" d="M72 885l12 65q219 29 305 29l23 -21v-811q0 -14 2 -20t11 -12t28 -11l100 -24l-8 -80h-449l-12 80q100 20 121.5 41.5t21.5 75.5v587q0 43 -32.5 62.5t-122.5 38.5zM178 1343q0 49 32 82t87 33q117 0 117 -115q0 -51 -32 -85.5t-85 -34.5q-51 0 -85 30.5t-34 89.5z M526 -385q0 61 35 119q82 -20 127 -21q39 0 60 15q43 29 67.5 146.5t24.5 264.5v645q0 43 -33 62.5t-123 38.5l12 65q219 29 305 29l23 -21v-880q0 -193 -114.5 -360t-221.5 -167q-74 0 -156 15q-6 25 -6 49zM791 1343q0 49 31.5 82t86.5 33q117 0 117 -115q0 -51 -32 -85.5 t-85 -34.5q-51 0 -84.5 30.5t-33.5 89.5z" />
<glyph unicode="&#x134;" horiz-adv-x="688" d="M-49 -174q0 66 39 127q96 -23 137 -23q37 0 63 17q59 41 60 377v888q0 61 -32 84t-144 43l12 80h543l8 -80l-148 -24q-40 -8 -40 -41v-1012q0 -186 -105.5 -346t-216.5 -160q-88 0 -170 17q-6 25 -6 53zM16 1587l279 285h115l278 -285l-51 -53l-285 186l-284 -186z" />
<glyph unicode="&#x135;" horiz-adv-x="573" d="M-109 -385q0 61 35 119q82 -20 127 -21q39 0 60 15q43 29 67.5 146.5t24.5 264.5v645q0 43 -33 62.5t-123 38.5l12 65q219 29 306 29l22 -21v-880q0 -193 -114.5 -360t-221.5 -167q-74 0 -155 15q-6 25 -7 49zM-33 1200l242 346h129l242 -346l-72 -51l-236 242l-233 -242 z" />
<glyph unicode="&#x137;" horiz-adv-x="1165" d="M57 1487l13 65q219 29 305 29l22 -20v-1088l353 330q16 18 16 35q0 31 -141 51l12 80h407l9 -80q-94 -14 -113 -33l-281 -268l297 -424q33 -41 73 -59.5t116 -24.5l-12 -80h-285l-318 463l-133 -127v-189q0 -14 2 -20t11.5 -12t27.5 -11l90 -24l-8 -80h-438l-12 80 q100 20 121.5 41.5t21.5 75.5v1189q0 43 -33 62.5t-123 38.5zM516 -379q92 63 92 121q0 33 -23.5 66.5t-23.5 62.5q0 39 27.5 62.5t66.5 23.5q45 0 75 -34t30 -97q0 -61 -48.5 -133t-142.5 -123z" />
<glyph unicode="&#x138;" horiz-adv-x="1165" d="M57 899l13 66q219 29 305 28l22 -20v-500l353 330q16 18 16 35q0 31 -141 51l12 80h407l9 -80q-94 -14 -113 -33l-281 -268l297 -424q33 -41 73 -59.5t116 -24.5l-12 -80h-285l-318 463l-133 -127v-189q0 -14 2 -20t11.5 -12t27.5 -11l90 -24l-8 -80h-438l-12 80 q100 20 121.5 41.5t21.5 75.5v602q0 43 -33 62.5t-123 37.5z" />
<glyph unicode="&#x139;" horiz-adv-x="1142" d="M90 80q109 18 132.5 40.5t23.5 86.5v1005q0 63 -23.5 86t-132.5 41l12 80h502l8 -80l-127 -24q-41 -8 -41 -53v-1158l183 2q227 4 266 15q33 10 115 315l112 -10q2 -35 2 -104q0 -145 -22 -322h-998zM217 1608l356 264l123 -105l-16 -43l-412 -190z" />
<glyph unicode="&#x13a;" horiz-adv-x="618" d="M55 1608l357 264l123 -105l-17 -43l-412 -190zM57 1378l13 66q219 29 305 29l22 -21v-1305q0 -14 2 -20t11.5 -12t27.5 -11l101 -24l-9 -80h-448l-12 80q100 20 121.5 41.5t21.5 75.5v1081q0 43 -33 62.5t-123 37.5z" />
<glyph unicode="&#x13d;" horiz-adv-x="1142" d="M90 80q109 18 132.5 40.5t23.5 86.5v1005q0 63 -23.5 86t-132.5 41l12 80h502l8 -80l-127 -24q-41 -8 -41 -53v-1158l183 2q227 4 266 15q33 10 115 315l112 -10q2 -35 2 -104q0 -145 -22 -322h-998zM727 1210q29 109 29 211q0 63 -8 119l174 45l24 -39 q-18 -197 -133 -364z" />
<glyph unicode="&#x13e;" horiz-adv-x="620" d="M57 1487l13 65q219 29 305 29l22 -20v-1414q0 -14 2 -20t11.5 -12t27.5 -11l101 -24l-9 -80h-448l-12 80q100 20 121.5 41.5t21.5 75.5v1189q0 43 -33 62.5t-123 38.5zM518 1210q29 109 29 211q0 63 -8 119l174 45l24 -39q-18 -197 -133 -364z" />
<glyph unicode="&#x13f;" horiz-adv-x="1142" d="M90 80q109 18 132.5 40.5t23.5 86.5v1005q0 63 -23.5 86t-132.5 41l12 80h502l8 -80l-127 -24q-41 -8 -41 -53v-1158l183 2q227 4 266 15q33 10 115 315l112 -10q2 -35 2 -104q0 -145 -22 -322h-998zM815 805q0 47 33 81t84 34q119 0 119 -115q0 -49 -33 -85t-86 -36 q-49 0 -83 30.5t-34 90.5z" />
<glyph unicode="&#x140;" horiz-adv-x="694" d="M57 1487l13 65q219 29 305 29l22 -20v-1414q0 -14 2 -20t11.5 -12t27.5 -11l101 -24l-9 -80h-448l-12 80q100 20 121.5 41.5t21.5 75.5v1189q0 43 -33 62.5t-123 38.5zM522 805q0 47 33 81t84 34q119 0 119 -115q0 -49 -33 -85t-86 -36q-49 0 -83 30.5t-34 90.5z" />
<glyph unicode="&#x141;" horiz-adv-x="1142" d="M70 528l712 469l58 -88l-713 -469zM90 80q109 18 132.5 40.5t23.5 86.5v1005q0 63 -23.5 86t-132.5 41l12 80h502l8 -80l-127 -24q-41 -8 -41 -53v-1158l183 2q227 4 266 15q33 10 115 315l112 -10q2 -35 2 -104q0 -145 -22 -322h-998z" />
<glyph unicode="&#x142;" horiz-adv-x="620" d="M31 674l532 348l58 -88l-533 -348zM57 1487l13 65q219 29 305 29l22 -20v-1414q0 -14 2 -20t11.5 -12t27.5 -11l101 -24l-9 -80h-448l-12 80q100 20 121.5 41.5t21.5 75.5v1189q0 43 -33 62.5t-123 38.5z" />
<glyph unicode="&#x143;" horiz-adv-x="1587" d="M90 80q109 18 132.5 40.5t23.5 86.5v1005q0 63 -23.5 86t-132.5 41l12 80h279l20 -207h-18v-1007q0 -51 19.5 -76t70.5 -31l143 -18l-8 -80h-506zM260 1419h234l831 -1224l-4 -193l-102 -2zM627 1608l356 264l123 -105l-16 -43l-412 -190zM1012 1339l12 80h481l8 -80 l-127 -24q-41 -8 -40 -53v-1262h-121l-33 387h16v784q0 92 -33.5 123t-162.5 45z" />
<glyph unicode="&#x144;" horiz-adv-x="1220" d="M72 903l12 66l264 26q14 0 29.5 -57t15.5 -100v-13l17 -6l24 29q128 151 314 151h2q131 0 206.5 -78.5t75.5 -220.5v-553q0 -14 2 -20t11.5 -12t27.5 -11l101 -24l-9 -80h-438l-12 80q92 18 112.5 40.5t20.5 76.5v442q0 96 -35 154.5t-133 58.5q-104 0 -223 -80 q-18 -12 -25.5 -19.5t-13.5 -25.5t-6 -49v-528q0 -23 7 -31t34 -15l90 -24l-8 -80h-439l-12 80q100 20 121.5 41.5t21.5 75.5v589q0 53 -25.5 75t-129.5 42zM549 1200l219 367l164 -62v-47l-312 -309z" />
<glyph unicode="&#x147;" horiz-adv-x="1587" d="M90 80q109 18 132.5 40.5t23.5 86.5v1005q0 63 -23.5 86t-132.5 41l12 80h279l20 -207h-18v-1007q0 -51 19.5 -76t70.5 -31l143 -18l-8 -80h-506zM260 1419h234l831 -1224l-4 -193l-102 -2zM430 1825l51 53l285 -186l285 186l51 -53l-279 -285h-114zM1012 1339l12 80h481 l8 -80l-127 -24q-41 -8 -40 -53v-1262h-121l-33 387h16v784q0 92 -33.5 123t-162.5 45z" />
<glyph unicode="&#x148;" horiz-adv-x="1220" d="M72 903l12 66l264 26q14 0 29.5 -57t15.5 -100v-13l17 -6l24 29q128 151 314 151h2q131 0 206.5 -78.5t75.5 -220.5v-553q0 -14 2 -20t11.5 -12t27.5 -11l101 -24l-9 -80h-438l-12 80q92 18 112.5 40.5t20.5 76.5v442q0 96 -35 154.5t-133 58.5q-104 0 -223 -80 q-18 -12 -25.5 -19.5t-13.5 -25.5t-6 -49v-528q0 -23 7 -31t34 -15l90 -24l-8 -80h-439l-12 80q100 20 121.5 41.5t21.5 75.5v589q0 53 -25.5 75t-129.5 42zM285 1505l72 51l235 -241l234 241l71 -51l-241 -346h-129z" />
<glyph unicode="&#x149;" horiz-adv-x="1220" d="M72 903l12 66l264 26q14 0 29.5 -57t15.5 -100v-13l17 -6l24 29q129 152 316 151q131 0 206.5 -78.5t75.5 -220.5v-553q0 -14 2 -20t11.5 -12t27.5 -11l101 -24l-9 -80h-438l-12 80q92 18 112.5 40.5t20.5 76.5v442q0 96 -35 154.5t-133 58.5q-104 0 -223 -80 q-18 -12 -25.5 -19.5t-13.5 -25.5t-6 -49v-528q0 -23 7 -31t34 -15l90 -24l-8 -80h-439l-12 80q100 20 121.5 41.5t21.5 75.5v589q0 53 -25.5 75t-129.5 42zM127 1188q68 80 68 172q0 29 -28 63.5t-28 61.5q0 39 25.5 61.5t60.5 22.5q104 0 105 -146q0 -163 -154 -282z" />
<glyph unicode="&#x14a;" horiz-adv-x="1587" d="M90 80q109 18 132.5 40.5t23.5 86.5v1005q0 63 -23.5 86t-132.5 41l12 80h279l20 -207h-18v-1007q0 -51 19.5 -76t70.5 -31l143 -18l-8 -80h-506zM260 1419h234l831 -1224l-4 -193l-102 -2zM895 -385q0 61 35 119q82 -20 127 -21q39 0 59 15q43 29 67.5 146.5t24.5 264.5 v1137l138 92v-1157q0 -659 -338 -660q-53 0 -107 15q-6 25 -6 49zM1012 1339l12 80h481l8 -80l-127 -24q-41 -8 -40 -53v-916l-37 -160l-117 201h16v784q0 92 -33.5 123t-162.5 45z" />
<glyph unicode="&#x14b;" horiz-adv-x="1216" d="M72 903l12 66l264 26q14 0 29.5 -57t15.5 -100v-13l17 -6l24 29q129 152 316 151q131 0 206.5 -78.5t75.5 -220.5v-622q0 -193 -114.5 -360t-221.5 -167q-74 0 -155 15q-6 25 -6 49q0 61 34 119q82 -20 127 -21q39 0 60 15q43 29 67.5 146.5t24.5 264.5v500 q0 96 -35 154.5t-133 58.5q-104 0 -223 -80q-18 -12 -25.5 -19.5t-13.5 -25.5t-6 -49v-528q0 -23 7 -31t34 -15l90 -24l-8 -80h-439l-12 80q100 20 121.5 41.5t21.5 75.5v589q0 53 -25.5 75t-129.5 42z" />
<glyph unicode="&#x14c;" horiz-adv-x="1456" d="M72 692q0 338 178 542t493 204q305 0 473 -187.5t168 -505.5q0 -348 -178 -555.5t-493 -207.5q-305 0 -473 191t-168 519zM299 727q0 -283 114.5 -460t331.5 -177q111 0 194 51.5t129 141.5t67.5 196.5t21.5 231.5q0 274 -115.5 446t-330.5 172q-111 0 -194 -50 t-129 -138t-67.5 -191.5t-21.5 -222.5zM489 1589v123h510v-123h-510z" />
<glyph unicode="&#x14d;" horiz-adv-x="1064" d="M66 475q0 240 125.5 382t353.5 142q217 0 335.5 -132t118.5 -363q0 -240 -125.5 -381t-353.5 -141q-217 0 -335.5 131t-118.5 362zM264 506q0 -182 74 -299t213 -117q115 0 168 62q37 41 59.5 130t22.5 193q0 182 -74 299t-213 117q-115 0 -168 -62q-37 -41 -59.5 -130 t-22.5 -193zM289 1315v123h510v-123h-510z" />
<glyph unicode="&#x14e;" horiz-adv-x="1456" d="M72 692q0 338 178 542t493 204q305 0 473 -187.5t168 -505.5q0 -348 -178 -555.5t-493 -207.5q-305 0 -473 191t-168 519zM299 727q0 -283 114.5 -460t331.5 -177q111 0 194 51.5t129 141.5t67.5 196.5t21.5 231.5q0 274 -115.5 446t-330.5 172q-111 0 -194 -50 t-129 -138t-67.5 -191.5t-21.5 -222.5zM444 1843h76q35 -147 229.5 -147t229.5 147h76q-8 -127 -84 -207t-221.5 -80t-221 80t-84.5 207z" />
<glyph unicode="&#x14f;" horiz-adv-x="1064" d="M66 475q0 240 125.5 382t353.5 142q217 0 335.5 -132t118.5 -363q0 -240 -125.5 -381t-353.5 -141q-217 0 -335.5 131t-118.5 362zM264 506q0 -182 74 -299t213 -117q115 0 168 62q37 41 59.5 130t22.5 193q0 182 -74 299t-213 117q-115 0 -168 -62q-37 -41 -59.5 -130 t-22.5 -193zM241 1475h76q35 -174 229.5 -174t229.5 174h76q-8 -137 -84 -225.5t-221.5 -88.5t-221 88t-84.5 226z" />
<glyph unicode="&#x150;" horiz-adv-x="1456" d="M72 692q0 338 178 542t493 204q305 0 473 -187.5t168 -505.5q0 -348 -178 -555.5t-493 -207.5q-305 0 -473 191t-168 519zM299 727q0 -283 114.5 -460t331.5 -177q111 0 194 51.5t129 141.5t67.5 196.5t21.5 231.5q0 274 -115.5 446t-330.5 172q-111 0 -194 -50 t-129 -138t-67.5 -191.5t-21.5 -222.5zM430 1589l240 285l194 -62v-47l-362 -227zM836 1589l239 285l195 -62v-47l-363 -227z" />
<glyph unicode="&#x151;" horiz-adv-x="1064" d="M66 475q0 240 125.5 382t353.5 142q217 0 335.5 -132t118.5 -363q0 -240 -125.5 -381t-353.5 -141q-217 0 -335.5 131t-118.5 362zM264 506q0 -182 74 -299t213 -117q115 0 168 62q37 41 59.5 130t22.5 193q0 182 -74 299t-213 117q-115 0 -168 -62q-37 -41 -59.5 -130 t-22.5 -193zM185 1200l219 367l195 -62v-47l-343 -309zM590 1200l219 367l195 -62v-47l-342 -309z" />
<glyph unicode="&#x152;" horiz-adv-x="2033" d="M72 692q0 338 178 542t493 204q39 0 135.5 -4t344 -9.5t655.5 -5.5q12 -76 12 -162q0 -63 -4 -157l-117 -15q-29 141 -41 177t-28 38q-49 6 -125 9l-309 6v-551h307q27 0 65 145l64 -6q0 -57 1 -101t2 -69.5t4 -61.5t4 -48.5t8.5 -59.5t9.5 -65l-74 -13 q-33 117 -44 143.5t-26 26.5h-321v-551l176 2q266 4 301 29q20 14 86 240l113 -8q2 -27 2 -80q0 -135 -23 -287q-403 0 -674.5 -4t-388 -9t-145.5 -5q-305 0 -473 191.5t-168 518.5zM299 727q0 -283 114.5 -460t331.5 -177q72 0 110 2t86 13.5t70.5 34t39 64.5t16.5 103v817 q0 129 -65.5 167t-239.5 38q-463 0 -463 -602z" />
<glyph unicode="&#x153;" horiz-adv-x="1710" d="M66 475q0 240 125.5 382t353.5 142q246 0 358 -198q127 199 375 198q348 0 364 -428l-53 -39l-594 -32q0 -209 80 -294t232 -85q141 0 276 69l43 -67q-68 -55 -176.5 -98t-226.5 -43q-229 0 -338 186q-117 -186 -365 -186q-217 0 -335.5 131t-118.5 362zM264 506 q0 -182 74 -299t213 -117q115 0 168 62q78 92 78 323q0 184 -72 300t-211 116q-115 0 -168 -62q-37 -41 -59.5 -130t-22.5 -193zM1001 594l424 37q20 2 21 39q0 90 -48 155.5t-161 65.5q-117 0 -169.5 -77t-66.5 -220z" />
<glyph unicode="&#x154;" horiz-adv-x="1294" d="M90 80q109 18 132.5 40.5t23.5 86.5v1005q0 63 -23.5 86t-132.5 41l12 80h570q219 0 325.5 -90t106.5 -254q0 -143 -84 -256.5t-236 -165.5v-10q20 -6 45 -45l289 -434q31 -45 60.5 -61.5t107.5 -22.5l-12 -80h-291l-405 623h-134v-465q0 -45 41 -54l113 -24l-8 -80h-488 zM422 1608l356 264l123 -105l-16 -43l-412 -190zM444 727h113q162 0 245 70.5t83 259.5q0 254 -277 254h-123q-41 0 -41 -49v-535z" />
<glyph unicode="&#x155;" horiz-adv-x="884" d="M57 903l13 66l278 26q14 0 30.5 -41t16.5 -90q0 -39 -8 -96l16 -6l27 59q37 82 111.5 130t158.5 48q70 0 136 -32q0 -168 -31 -336l-100 -10q-16 172 -37 200q-12 18 -41 19q-47 0 -98.5 -34t-82.5 -71q-35 -39 -34 -125v-463q0 -14 2 -21t11 -13.5t28 -8.5l186 -24 l-8 -80h-549l-12 80q76 12 110.5 29.5t40.5 34t6 53.5v589q0 53 -27.5 77t-142.5 40zM365 1200l219 367l164 -62v-47l-312 -309z" />
<glyph unicode="&#x156;" horiz-adv-x="1294" d="M90 80q109 18 132.5 40.5t23.5 86.5v1005q0 63 -23.5 86t-132.5 41l12 80h570q219 0 325.5 -90t106.5 -254q0 -143 -84 -256.5t-236 -165.5v-10q20 -6 45 -45l289 -434q31 -45 60.5 -61.5t107.5 -22.5l-12 -80h-291l-405 623h-134v-465q0 -45 41 -54l113 -24l-8 -80h-488 zM444 727h113q162 0 245 70.5t83 259.5q0 254 -277 254h-123q-41 0 -41 -49v-535zM563 -379q92 63 92 121q0 33 -23.5 66.5t-23.5 62.5q0 39 28 62.5t66 23.5q45 0 75 -34t30 -97q0 -61 -48.5 -133t-142.5 -123z" />
<glyph unicode="&#x157;" horiz-adv-x="884" d="M57 903l13 66l278 26q14 0 30.5 -41t16.5 -90q0 -39 -8 -96l16 -6l27 59q37 82 111.5 130t158.5 48q70 0 136 -32q0 -168 -31 -336l-100 -10q-16 172 -37 200q-12 18 -41 19q-47 0 -98.5 -34t-82.5 -71q-35 -39 -34 -125v-463q0 -14 2 -21t11 -13.5t28 -8.5l186 -24 l-8 -80h-549l-12 80q76 12 110.5 29.5t40.5 34t6 53.5v589q0 53 -27.5 77t-142.5 40zM188 -379q92 63 93 121q0 33 -24 66.5t-24 62.5q0 39 28 62.5t67 23.5q45 0 74.5 -34t29.5 -97q0 -61 -48 -133t-142 -123z" />
<glyph unicode="&#x158;" horiz-adv-x="1294" d="M90 80q109 18 132.5 40.5t23.5 86.5v1005q0 63 -23.5 86t-132.5 41l12 80h570q219 0 325.5 -90t106.5 -254q0 -143 -84 -256.5t-236 -165.5v-10q20 -6 45 -45l289 -434q31 -45 60.5 -61.5t107.5 -22.5l-12 -80h-291l-405 623h-134v-465q0 -45 41 -54l113 -24l-8 -80h-488 zM260 1825l51 53l285 -186l285 186l51 -53l-279 -285h-114zM444 727h113q162 0 245 70.5t83 259.5q0 254 -277 254h-123q-41 0 -41 -49v-535z" />
<glyph unicode="&#x159;" horiz-adv-x="884" d="M57 903l13 66l278 26q14 0 30.5 -41t16.5 -90q0 -39 -8 -96l16 -6l27 59q37 82 111.5 130t158.5 48q70 0 136 -32q0 -168 -31 -336l-100 -10q-16 172 -37 200q-12 18 -41 19q-47 0 -98.5 -34t-82.5 -71q-35 -39 -34 -125v-463q0 -14 2 -21t11 -13.5t28 -8.5l186 -24 l-8 -80h-549l-12 80q76 12 110.5 29.5t40.5 34t6 53.5v589q0 53 -27.5 77t-142.5 40zM94 1505l72 51l235 -241l234 241l71 -51l-241 -346h-129z" />
<glyph unicode="&#x15a;" horiz-adv-x="1071" d="M72 160q0 119 24 250l117 6q16 -147 27.5 -190.5t29.5 -57.5q35 -25 114 -48.5t157 -23.5q109 0 172 49q78 59 78 170q0 66 -26 117t-79 89t-99 61.5t-119 53.5q-15 7 -22 9q-66 27 -104.5 46.5t-90.5 55t-81 71.5t-50.5 92.5t-21.5 123.5q0 186 138.5 295t359.5 109 q168 -1 315 -56q6 -49 7 -104q0 -106 -23 -242l-119 -14q-23 231 -55 258q-49 43 -193 43q-117 0 -184 -49q-76 -55 -76 -156q0 -57 22.5 -102t82 -84t93.5 -56.5t123 -54.5q23 -10 34 -14q80 -35 131 -63.5t109.5 -77t87 -116t28.5 -155.5q0 -188 -130 -300.5t-355 -112.5 q-121 0 -241 29.5t-175 58.5q-6 25 -6 90zM397 1608l357 264l123 -105l-17 -43l-411 -190z" />
<glyph unicode="&#x15b;" horiz-adv-x="894" d="M113 115q0 106 18 202l107 9q14 -131 21 -161t22 -38q66 -37 172 -37q82 0 120 33q45 37 45 100q0 20 -7 40t-15 34t-26.5 29.5t-32 24.5t-41 23.5t-42 21.5t-49 21.5t-47.5 20.5q-115 51 -178 111.5t-63 163.5q0 127 104.5 206.5t272.5 79.5q127 0 249 -51q2 -16 2 -49 q0 -119 -26 -203l-94 -10q-14 160 -41 178q-37 27 -125 27q-100 0 -140 -33q-40 -32 -40 -87q0 -26 6 -45t24.5 -36.5t29.5 -29t44 -28t46 -23.5t55 -24.5t55 -23.5q123 -53 189.5 -113.5t66.5 -164.5q0 -129 -103.5 -215t-283.5 -86q-80 0 -166 16.5t-125 32.5q-4 27 -4 84 zM396 1200l219 367l164 -62v-47l-312 -309z" />
<glyph unicode="&#x15c;" horiz-adv-x="1071" d="M72 160q0 119 24 250l117 6q16 -147 27.5 -190.5t29.5 -57.5q35 -25 114 -48.5t157 -23.5q109 0 172 49q78 59 78 170q0 66 -26 117t-79 89t-99 61.5t-119 53.5q-15 7 -22 9q-66 27 -104.5 46.5t-90.5 55t-81 71.5t-50.5 92.5t-21.5 123.5q0 186 138.5 295t359.5 109 q168 -1 315 -56q6 -49 7 -104q0 -106 -23 -242l-119 -14q-23 231 -55 258q-49 43 -193 43q-117 0 -184 -49q-76 -55 -76 -156q0 -57 22.5 -102t82 -84t93.5 -56.5t123 -54.5q23 -10 34 -14q80 -35 131 -63.5t109.5 -77t87 -116t28.5 -155.5q0 -188 -130 -300.5t-355 -112.5 q-121 0 -241 29.5t-175 58.5q-6 25 -6 90zM223 1587l279 285h114l279 -285l-51 -53l-285 186l-285 -186z" />
<glyph unicode="&#x15d;" horiz-adv-x="894" d="M113 115q0 106 18 202l107 9q14 -131 21 -161t22 -38q66 -37 172 -37q82 0 120 33q45 37 45 100q0 20 -7 40t-15 34t-26.5 29.5t-32 24.5t-41 23.5t-42 21.5t-49 21.5t-47.5 20.5q-115 51 -178 111.5t-63 163.5q0 127 104.5 206.5t272.5 79.5q127 0 249 -51q2 -16 2 -49 q0 -119 -26 -203l-94 -10q-14 160 -41 178q-37 27 -125 27q-100 0 -140 -33q-40 -32 -40 -87q0 -26 6 -45t24.5 -36.5t29.5 -29t44 -28t46 -23.5t55 -24.5t55 -23.5q123 -53 189.5 -113.5t66.5 -164.5q0 -129 -103.5 -215t-283.5 -86q-80 0 -166 16.5t-125 32.5q-4 27 -4 84 zM166 1200l242 346h129l241 -346l-71 -51l-236 242l-233 -242z" />
<glyph unicode="&#x15e;" horiz-adv-x="1071" d="M72 160q0 119 24 250l117 6q16 -147 27.5 -190.5t29.5 -57.5q35 -25 114 -48.5t157 -23.5q109 0 172 49q78 59 78 170q0 66 -26 117t-79 89t-99 61.5t-119 53.5q-15 7 -22 9q-66 27 -104.5 46.5t-90.5 55t-81 71.5t-50.5 92.5t-21.5 123.5q0 186 138.5 295t359.5 109 q168 -1 315 -56q6 -49 7 -104q0 -106 -23 -242l-119 -14q-23 231 -55 258q-49 43 -193 43q-117 0 -184 -49q-76 -55 -76 -156q0 -57 22.5 -102t82 -84t93.5 -56.5t123 -54.5q23 -10 34 -14q80 -35 131 -63.5t109.5 -77t87 -116t28.5 -155.5q0 -188 -130 -300.5t-355 -112.5 q-121 0 -241 29.5t-175 58.5q-6 25 -6 90zM412 -182l77 264l101 -27l-66 -231zM412 -182l98 76q45 14 92 14q82 0 128 -35t46 -96q0 -86 -95 -149.5t-259 -71.5l-8 63q90 10 142 42t52 77q0 33 -24.5 55.5t-69.5 22.5q-47 0 -84 -21z" />
<glyph unicode="&#x15f;" horiz-adv-x="894" d="M113 115q0 106 18 202l107 9q14 -131 21 -161t22 -38q66 -37 172 -37q82 0 120 33q45 37 45 100q0 20 -7 40t-15 34t-26.5 29.5t-32 24.5t-41 23.5t-42 21.5t-49 21.5t-47.5 20.5q-115 51 -178 111.5t-63 163.5q0 127 104.5 206.5t272.5 79.5q127 0 249 -51q2 -16 2 -49 q0 -119 -26 -203l-94 -10q-14 160 -41 178q-37 27 -125 27q-100 0 -140 -33q-40 -32 -40 -87q0 -26 6 -45t24.5 -36.5t29.5 -29t44 -28t46 -23.5t55 -24.5t55 -23.5q123 -53 189.5 -113.5t66.5 -164.5q0 -129 -103.5 -215t-283.5 -86q-80 0 -166 16.5t-125 32.5q-4 27 -4 84 zM318 -182l78 264l100 -27l-66 -231zM318 -182l98 76q45 14 92 14q82 0 128 -35t46 -96q0 -86 -95 -149.5t-259 -71.5l-8 63q195 27 194 119q0 33 -24.5 55.5t-69.5 22.5q-47 0 -84 -21z" />
<glyph unicode="&#x160;" horiz-adv-x="1071" d="M72 160q0 119 24 250l117 6q16 -147 27.5 -190.5t29.5 -57.5q35 -25 114 -48.5t157 -23.5q109 0 172 49q78 59 78 170q0 66 -26 117t-79 89t-99 61.5t-119 53.5q-15 7 -22 9q-66 27 -104.5 46.5t-90.5 55t-81 71.5t-50.5 92.5t-21.5 123.5q0 186 138.5 295t359.5 109 q168 -1 315 -56q6 -49 7 -104q0 -106 -23 -242l-119 -14q-23 231 -55 258q-49 43 -193 43q-117 0 -184 -49q-76 -55 -76 -156q0 -57 22.5 -102t82 -84t93.5 -56.5t123 -54.5q23 -10 34 -14q80 -35 131 -63.5t109.5 -77t87 -116t28.5 -155.5q0 -188 -130 -300.5t-355 -112.5 q-121 0 -241 29.5t-175 58.5q-6 25 -6 90zM240 1825l51 53l284 -186l285 186l51 -53l-278 -285h-115z" />
<glyph unicode="&#x161;" horiz-adv-x="894" d="M113 115q0 106 18 202l107 9q14 -131 21 -161t22 -38q66 -37 172 -37q82 0 120 33q45 37 45 100q0 20 -7 40t-15 34t-26.5 29.5t-32 24.5t-41 23.5t-42 21.5t-49 21.5t-47.5 20.5q-115 51 -178 111.5t-63 163.5q0 127 104.5 206.5t272.5 79.5q127 0 249 -51q2 -16 2 -49 q0 -119 -26 -203l-94 -10q-14 160 -41 178q-37 27 -125 27q-100 0 -140 -33q-40 -32 -40 -87q0 -26 6 -45t24.5 -36.5t29.5 -29t44 -28t46 -23.5t55 -24.5t55 -23.5q123 -53 189.5 -113.5t66.5 -164.5q0 -129 -103.5 -215t-283.5 -86q-80 0 -166 16.5t-125 32.5q-4 27 -4 84 zM141 1505l72 51l235 -241l234 241l71 -51l-241 -346h-129z" />
<glyph unicode="&#x164;" horiz-adv-x="1181" d="M14 1147q0 121 19 272h1116q18 -152 18 -272q0 -57 -2 -88l-104 -8q-18 106 -34.5 162.5t-26 67.5t-21.5 17q-25 10 -289 15v-1155q0 -47 41 -54l158 -24l-8 -80h-564l-12 80q129 20 158 41.5t29 85.5v1106q-264 -4 -289 -15q-12 -6 -21.5 -17t-26 -67.5t-34.5 -162.5 l-105 8q-2 31 -2 88zM254 1825l51 53l285 -186l284 186l52 -53l-279 -285h-115z" />
<glyph unicode="&#x165;" horiz-adv-x="716" d="M33 932l100 24q39 10 52.5 46t47.5 229l125 12v-274h285l-16 -97l-269 -30v-500q0 -213 131 -213q74 0 156 61l43 -59q-111 -150 -270 -149q-115 0 -179.5 80t-64.5 219v563h-133zM455 1210q29 109 28 211q0 63 -8 119l174 45l25 -39q-18 -197 -133 -364z" />
<glyph unicode="&#x166;" horiz-adv-x="1181" d="M14 1147q0 121 19 272h1116q18 -152 18 -272q0 -57 -2 -88l-104 -8q-18 106 -34.5 162.5t-26 67.5t-21.5 17q-25 10 -289 15v-1155q0 -47 41 -54l158 -24l-8 -80h-564l-12 80q129 20 158 41.5t29 85.5v1106q-264 -4 -289 -15q-12 -6 -21.5 -17t-26 -67.5t-34.5 -162.5 l-105 8q-2 31 -2 88zM129 705v108h924v-108h-924z" />
<glyph unicode="&#x167;" horiz-adv-x="716" d="M33 932l100 24q39 10 52.5 46t47.5 229l125 12v-274h285l-16 -97l-269 -30v-500q0 -213 131 -213q74 0 156 61l43 -59q-111 -150 -270 -149q-115 0 -179.5 80t-64.5 219v563h-133zM37 516v109h600v-109h-600z" />
<glyph unicode="&#x168;" horiz-adv-x="1507" d="M80 1339l12 80h502l8 -80l-127 -24q-41 -8 -41 -53v-721q0 -209 86 -315.5t277 -106.5q197 0 288 114.5t91 276.5v664q0 90 -34 120.5t-163 44.5l12 80h482l8 -80l-127 -24q-18 -4 -28.5 -13.5t-11.5 -16.5t-1 -23v-736q0 -252 -137.5 -398t-411.5 -146q-528 0 -528 528 v702q0 63 -24 86t-132 41zM418 1612q66 109 113 152.5t98 43.5q43 0 175 -27.5t173 -27.5q61 0 129 72l51 -25q-43 -94 -87 -150.5t-101 -56.5q-35 0 -171 28t-186 28q-78 0 -147 -70z" />
<glyph unicode="&#x169;" horiz-adv-x="1181" d="M33 895l12 66q212 28 299 28h6l23 -20v-627q0 -213 162 -213q104 0 217 80q27 18 35 35.5t8 58.5v492q0 43 -33 62.5t-123 37.5l12 66q212 28 299 28h6l23 -20v-766q0 -53 25.5 -75t130.5 -42l-13 -66l-264 -28h-1q-15 0 -29 54q-16 56 -15 97v13l-16 6l-25 -29 q-128 -151 -313 -151h-2q-125 0 -197 66.5t-72 205.5v541q0 43 -32.5 62.5t-122.5 37.5zM221 1253q66 115 113 162t98 47q43 0 175 -43t173 -43q59 0 129 88l51 -26q-43 -100 -87 -159.5t-101 -59.5q-35 0 -171 43t-185 43q-78 0 -148 -86z" />
<glyph unicode="&#x16a;" horiz-adv-x="1507" d="M80 1339l12 80h502l8 -80l-127 -24q-41 -8 -41 -53v-721q0 -209 86 -315.5t277 -106.5q197 0 288 114.5t91 276.5v664q0 90 -34 120.5t-163 44.5l12 80h482l8 -80l-127 -24q-18 -4 -28.5 -13.5t-11.5 -16.5t-1 -23v-736q0 -252 -137.5 -398t-411.5 -146q-528 0 -528 528 v702q0 63 -24 86t-132 41zM514 1589v123h510v-123h-510z" />
<glyph unicode="&#x16b;" horiz-adv-x="1181" d="M33 895l12 66q219 29 305 28l23 -20v-627q0 -213 162 -213q104 0 217 80q27 18 35 35.5t8 58.5v492q0 43 -33 62.5t-123 37.5l12 66q219 29 305 28l23 -20v-766q0 -53 25.5 -75t130.5 -42l-13 -66l-264 -28q-14 -2 -29.5 54t-15.5 97v13l-16 6l-25 -29 q-129 -152 -315 -151q-125 0 -197 66.5t-72 205.5v541q0 43 -32.5 62.5t-122.5 37.5zM311 1315v123h510v-123h-510z" />
<glyph unicode="&#x16c;" horiz-adv-x="1507" d="M80 1339l12 80h502l8 -80l-127 -24q-41 -8 -41 -53v-721q0 -209 86 -315.5t277 -106.5q197 0 288 114.5t91 276.5v664q0 90 -34 120.5t-163 44.5l12 80h482l8 -80l-127 -24q-18 -4 -28.5 -13.5t-11.5 -16.5t-1 -23v-736q0 -252 -137.5 -398t-411.5 -146q-528 0 -528 528 v702q0 63 -24 86t-132 41zM471 1843h76q35 -147 229.5 -147t229.5 147h75q-8 -127 -83.5 -207t-221 -80t-221.5 80t-84 207z" />
<glyph unicode="&#x16d;" horiz-adv-x="1181" d="M33 895l12 66q212 28 299 28h6l23 -20v-627q0 -213 162 -213q104 0 217 80q27 18 35 35.5t8 58.5v492q0 43 -33 62.5t-123 37.5l12 66q212 28 299 28h6l23 -20v-766q0 -53 25.5 -75t130.5 -42l-13 -66l-264 -28h-1q-15 0 -29 54q-16 56 -15 97v13l-16 6l-25 -29 q-128 -151 -313 -151h-2q-125 0 -197 66.5t-72 205.5v541q0 43 -32.5 62.5t-122.5 37.5zM264 1475h76q35 -174 229.5 -174t229.5 174h76q-8 -137 -84 -225.5t-221.5 -88.5t-221 88t-84.5 226z" />
<glyph unicode="&#x16e;" horiz-adv-x="1507" d="M80 1339l12 80h502l8 -80l-127 -24q-41 -8 -41 -53v-721q0 -209 86 -315.5t277 -106.5q197 0 288 114.5t91 276.5v664q0 90 -34 120.5t-163 44.5l12 80h482l8 -80l-127 -24q-18 -4 -28.5 -13.5t-11.5 -16.5t-1 -23v-736q0 -252 -137.5 -398t-411.5 -146q-528 0 -528 528 v702q0 63 -24 86t-132 41zM563 1694q0 84 60.5 136t146.5 52q82 0 139.5 -49t57.5 -129q0 -84 -60.5 -137.5t-146.5 -53.5q-84 0 -140.5 48.5t-56.5 132.5zM664 1694q0 -43 26.5 -67.5t69.5 -24.5q45 0 74.5 28.5t29.5 73.5q0 41 -26.5 65.5t-67.5 24.5q-106 0 -106 -100z " />
<glyph unicode="&#x16f;" horiz-adv-x="1181" d="M33 895l12 66q212 28 299 28h6l23 -20v-627q0 -213 162 -213q104 0 217 80q27 18 35 35.5t8 58.5v492q0 43 -33 62.5t-123 37.5l12 66q212 28 299 28h6l23 -20v-766q0 -53 25.5 -75t130.5 -42l-13 -66l-264 -28h-1q-15 0 -29 54q-16 56 -15 97v13l-16 6l-25 -29 q-128 -151 -313 -151h-2q-125 0 -197 66.5t-72 205.5v541q0 43 -32.5 62.5t-122.5 37.5zM342 1346q0 94 54.5 147t152.5 53q94 0 145.5 -50t51.5 -138q0 -92 -54.5 -147.5t-152.5 -55.5q-94 0 -145.5 50t-51.5 141zM443 1346q0 -103 96 -103q49 0 76.5 32t27.5 83 q0 100 -94 100q-49 0 -77.5 -30.5t-28.5 -81.5z" />
<glyph unicode="&#x170;" horiz-adv-x="1507" d="M80 1339l12 80h502l8 -80l-127 -24q-41 -8 -41 -53v-721q0 -209 86 -315.5t277 -106.5q197 0 288 114.5t91 276.5v664q0 90 -34 120.5t-163 44.5l12 80h482l8 -80l-127 -24q-18 -4 -28.5 -13.5t-11.5 -16.5t-1 -23v-736q0 -252 -137.5 -398t-411.5 -146q-528 0 -528 528 v702q0 63 -24 86t-132 41zM477 1589l240 285l194 -62v-47l-362 -227zM883 1589l239 285l195 -62v-47l-363 -227z" />
<glyph unicode="&#x171;" horiz-adv-x="1181" d="M33 895l12 66q212 28 299 28h6l23 -20v-627q0 -213 162 -213q104 0 217 80q27 18 35 35.5t8 58.5v492q0 43 -33 62.5t-123 37.5l12 66q212 28 299 28h6l23 -20v-766q0 -53 25.5 -75t130.5 -42l-13 -66l-264 -28h-1q-15 0 -29 54q-16 56 -15 97v13l-16 6l-25 -29 q-128 -151 -313 -151h-2q-125 0 -197 66.5t-72 205.5v541q0 43 -32.5 62.5t-122.5 37.5zM217 1200l219 367l195 -62v-47l-343 -309zM622 1200l219 367l195 -62v-47l-342 -309z" />
<glyph unicode="&#x172;" horiz-adv-x="1507" d="M80 1339l12 80h502l8 -80l-127 -24q-41 -8 -41 -53v-721q0 -209 86 -315.5t277 -106.5q197 0 288 114.5t91 276.5v664q0 90 -34 120.5t-163 44.5l12 80h482l8 -80l-127 -24q-18 -4 -28.5 -13.5t-11.5 -16.5t-1 -23v-736q0 -252 -137.5 -398t-411.5 -146q-528 0 -528 528 v702q0 63 -24 86t-132 41zM586 -244q0 98 94 179t289 128l8 -53q-109 -35 -167 -92t-58 -129q0 -53 31.5 -84t80.5 -31q63 0 123 21l25 -41q-104 -94 -226 -94q-80 0 -140 56t-60 140z" />
<glyph unicode="&#x173;" horiz-adv-x="1181" d="M33 895l12 66q219 29 305 28l23 -20v-627q0 -213 162 -213q104 0 217 80q27 18 35 35.5t8 58.5v492q0 43 -33 62.5t-123 37.5l12 66q219 29 305 28l23 -20v-766q0 -53 25.5 -75t130.5 -42l-13 -66l-264 -28q-14 -2 -29.5 54t-15.5 97v13l-16 6l-25 -29 q-129 -152 -315 -151q-125 0 -197 66.5t-72 205.5v541q0 43 -32.5 62.5t-122.5 37.5zM713 -256q0 125 111.5 227.5t295.5 102.5v-54q-100 -4 -170.5 -70.5t-70.5 -164.5q0 -53 31.5 -82t80.5 -29q63 0 123 21l25 -41q-104 -94 -226 -94q-80 0 -140 52t-60 132z" />
<glyph unicode="&#x174;" horiz-adv-x="1904" d="M-8 1337l14 82h457l8 -84l-115 -39q-14 -2 -14 -14q0 -6 8 -31l285 -919q18 -66 18 -70h21l235 746l-71 241q-12 43 -33 56.5t-90 31.5l14 82h432l8 -84l-145 -39q-14 -2 -14 -14q0 -6 8 -31l270 -919q18 -66 19 -70h20l287 903q23 76 22 101q0 45 -157 71l12 82h420 l8 -86q-84 -18 -108.5 -38.5t-43.5 -75.5l-409 -1237h-148l-221 745q-10 31 -10 53h-16q0 -23 -13 -53l-248 -745h-145l-428 1267q-14 43 -36.5 56.5t-100.5 31.5zM616 1587l279 285h115l278 -285l-51 -53l-285 186l-284 -186z" />
<glyph unicode="&#x175;" horiz-adv-x="1544" d="M16 889l13 80h379l8 -80l-90 -29q-14 -2 -15 -14q0 -2 8 -27l189 -590q8 -20 8 -49v-8h16q0 23 17 61l186 465l-39 117q-12 37 -25.5 48t-64.5 26l12 80h336l9 -80l-91 -29q-14 -2 -14 -14q0 -2 8 -27l187 -590q8 -25 8 -49v-8h16q0 12 17 61l186 535q12 33 12 49 q0 6 -1 11.5t-5 10.5t-7 8t-10 7t-12.5 7t-15.5 7t-17 6.5t-19.5 7.5t-20.5 7l12 80h336l8 -80q-66 -16 -80 -21.5t-16 -13.5l-340 -872h-133l-168 516q-10 31 -10 55h-17q0 -23 -12 -53l-207 -518h-133l-297 833q-14 39 -28.5 49t-82.5 25zM471 1200l242 346h129l241 -346 l-71 -51l-236 242l-233 -242z" />
<glyph unicode="&#x176;" horiz-adv-x="1224" d="M10 1337l15 82h481l8 -84l-137 -37q-14 -2 -15 -14q0 -8 15 -33l235 -452q20 -35 21 -60h20l228 441q43 82 43 98q0 20 -26 31.5t-97 27.5l12 82h406l8 -86q-90 -18 -125 -39.5t-60 -70.5l-323 -635v-430q0 -47 41 -54l158 -24l-9 -80h-563l-12 80q129 20 157.5 41.5 t28.5 85.5v364l-368 678q-27 45 -48.5 58.5t-93.5 29.5zM305 1587l279 285h114l279 -285l-51 -53l-285 186l-285 -186z" />
<glyph unicode="&#x177;" horiz-adv-x="1024" d="M8 889l12 80h422l9 -80l-125 -31q-14 -2 -15 -16q0 -2 8 -27l209 -547q10 -29 11 -63h16l217 563q12 33 12 49q0 27 -29.5 41t-105.5 31l13 80h364l8 -80q-90 -20 -96 -35l-324 -803q-41 -102 -65.5 -156.5t-67.5 -122t-90 -103.5t-117.5 -68.5t-164.5 -49.5 q-53 53 -54 168q0 12 4 41q49 -6 131 -6q92 0 138 19q57 25 129 227l-340 815q-16 39 -29.5 49t-79.5 25zM242 1200l241 346h129l242 -346l-72 -51l-235 242l-234 -242z" />
<glyph unicode="&#x178;" horiz-adv-x="1224" d="M10 1337l15 82h481l8 -84l-137 -37q-14 -2 -15 -14q0 -8 15 -33l235 -452q20 -35 21 -60h20l228 441q43 82 43 98q0 20 -26 31.5t-97 27.5l12 82h406l8 -86q-90 -18 -125 -39.5t-60 -70.5l-323 -635v-430q0 -47 41 -54l158 -24l-9 -80h-563l-12 80q129 20 157.5 41.5 t28.5 85.5v364l-368 678q-27 45 -48.5 58.5t-93.5 29.5zM346 1702q0 45 30 77.5t77 32.5q109 0 108 -110q0 -47 -30.5 -81t-77.5 -34q-106 0 -107 115zM741 1702q0 45 30 77.5t77 32.5q109 0 108 -110q0 -47 -30.5 -81t-77.5 -34q-106 0 -107 115z" />
<glyph unicode="&#x179;" horiz-adv-x="1243" d="M72 0v53l780 1200q27 39 45 47l-4 15h-197q-281 0 -366 -12q-31 -3 -84 -259l-129 15q-4 86 -4 147q0 113 18 213h1043v-53l-783 -1200q-27 -39 -45 -47l4 -13h307q215 0 267 15q33 10 114 315l113 -10q2 -35 2 -104q0 -145 -23 -322h-1058zM453 1608l356 264l123 -105 l-17 -43l-411 -190z" />
<glyph unicode="&#x17a;" horiz-adv-x="907" d="M57 0v53l518 750q33 41 46 47l-5 14h-233q-80 0 -135 -6q-14 -2 -24.5 -29.5t-39.5 -142.5l-94 10q-4 66 -4 111q0 86 12 162h750v-58l-512 -745q-27 -39 -45 -47l4 -15l100 2q219 4 260 15q37 8 82 203l107 -9q-4 -164 -23 -315h-764zM383 1200l219 367l164 -62v-47 l-312 -309z" />
<glyph unicode="&#x17d;" horiz-adv-x="1243" d="M72 0v53l780 1200q27 39 45 47l-4 15h-197q-281 0 -366 -12q-31 -3 -84 -259l-129 15q-4 86 -4 147q0 113 18 213h1043v-53l-783 -1200q-27 -39 -45 -47l4 -13h307q215 0 267 15q33 10 114 315l113 -10q2 -35 2 -104q0 -145 -23 -322h-1058zM328 1825l51 53l285 -186 l284 186l51 -53l-278 -285h-115z" />
<glyph unicode="&#x17e;" horiz-adv-x="907" d="M57 0v53l518 750q33 41 46 47l-5 14h-233q-80 0 -135 -6q-14 -2 -24.5 -29.5t-39.5 -142.5l-94 10q-4 66 -4 111q0 86 12 162h750v-58l-512 -745q-27 -39 -45 -47l4 -15l100 2q219 4 260 15q37 8 82 203l107 -9q-4 -164 -23 -315h-764zM154 1505l72 51l235 -241l234 241 l71 -51l-241 -346h-129z" />
<glyph unicode="&#x17f;" horiz-adv-x="716" d="M92 80q100 20 122 41.5t22 75.5v632h-134l-8 89l101 24q27 6 35 22.5t10 49.5q2 45 7 82t17 112.5t40 133t69 116t107.5 91t152.5 32.5q110 0 233 -47q0 -156 -26 -248l-109 -10q-33 166 -49 176q-33 20 -86 21q-176 0 -176 -519v-807q0 -20 8 -29t37 -14l153 -24l-8 -80 h-506z" />
<glyph unicode="&#x192;" horiz-adv-x="716" d="M-170 -401q0 145 27 227l108 10q23 -100 31 -124.5t18 -30.5q33 -20 76 -21q145 0 146 518v651h-134l-8 89l101 24q27 6 35 22.5t10 49.5q2 47 6 81.5t16 111.5t36 133.5t60.5 116t97 92t136.5 32.5q111 0 233 -47q1 -145 -26 -227l-109 -11q-23 100 -31 125t-18 31 q-33 20 -76 21q-145 0 -145 -519h242l-17 -96l-225 -31v-583q0 -88 -6 -167t-27.5 -180.5t-57.5 -173t-104.5 -122t-161.5 -50.5q-111 0 -233 48z" />
<glyph unicode="&#x1e6;" horiz-adv-x="1394" d="M72 678q0 111 21.5 213t74.5 203.5t133 176.5t205 121t282 46q113 0 238 -20.5t164 -37.5q12 -76 12 -192q0 -49 -4 -152l-117 -16q-45 238 -80 262q-18 14 -95 30.5t-152 16.5q-225 0 -340 -166t-115 -436q0 -319 145.5 -475t360.5 -156q113 0 199 33v285q0 63 -24 85.5 t-132 41.5l12 80h479l9 -80l-105 -25q-41 -8 -41 -53v-387q-68 -35 -195.5 -64.5t-261.5 -29.5q-334 0 -503.5 196.5t-169.5 499.5zM385 1825l51 53l285 -186l285 186l51 -53l-279 -285h-114z" />
<glyph unicode="&#x1e7;" horiz-adv-x="1134" d="M113 -256q0 70 40 120t115 105q-116 37 -116 156q0 82 60 156.5t138 124.5l31 -29q-80 -84 -80 -162q0 -31 16.5 -49.5t53.5 -24.5t63.5 -8t77.5 -2q74 0 116 -1t107.5 -7t103.5 -20.5t77.5 -37t58 -61.5t18.5 -90q0 -147 -147.5 -255t-396.5 -108q-336 0 -336 193z M152 657q0 168 112.5 255t284.5 87q166 0 269.5 -82.5t103.5 -242.5q0 -168 -113 -255t-285 -87q-166 0 -269 82t-103 243zM270 -195q0 -66 61.5 -108.5t194.5 -42.5q164 0 246 61.5t82 128.5q0 55 -67.5 68.5t-214 16t-244.5 22.5q-57 -63 -58 -146zM340 674 q0 -242 203 -242q190 0 190 225q0 242 -203 242q-190 0 -190 -225zM776 928q141 72 275 76q20 -35 20 -103q0 -29 -6 -47q-70 16 -147 16q-74 0 -115 -6zM205 1505l72 51l235 -241l234 241l71 -51l-241 -346h-129z" />
<glyph unicode="&#x237;" horiz-adv-x="573" d="M-109 -385q0 61 35 119q82 -20 127 -21q39 0 60 15q43 29 67.5 146.5t24.5 264.5v645q0 43 -33 62.5t-123 38.5l12 65q219 29 306 29l22 -21v-880q0 -193 -114.5 -360t-221.5 -167q-74 0 -155 15q-6 25 -7 49z" />
<glyph unicode="&#x2bc;" horiz-adv-x="223" d="M0 1188q68 80 68 172q0 29 -28 63.5t-28 61.5q0 39 25.5 61.5t60.5 22.5q104 0 105 -146q0 -163 -154 -282z" />
<glyph unicode="&#x2c6;" horiz-adv-x="612" d="M0 1200l242 346h129l241 -346l-71 -51l-236 242l-233 -242z" />
<glyph unicode="&#x2c7;" horiz-adv-x="612" d="M0 1505l72 51l235 -241l234 241l71 -51l-241 -346h-129z" />
<glyph unicode="&#x2d8;" horiz-adv-x="1048" d="M184 1475h76q35 -174 229.5 -174t229.5 174h76q-8 -137 -84 -225.5t-221.5 -88.5t-221 88t-84.5 226z" />
<glyph unicode="&#x2d9;" horiz-adv-x="638" d="M178 1343q0 49 32 82t87 33q117 0 117 -115q0 -51 -32 -85.5t-85 -34.5q-51 0 -85 30.5t-34 89.5z" />
<glyph unicode="&#x2da;" horiz-adv-x="1060" d="M272 1346q0 94 54.5 147t152.5 53q94 0 145.5 -50t51.5 -138q0 -92 -54.5 -147.5t-152.5 -55.5q-94 0 -145.5 50t-51.5 141zM373 1346q0 -103 96 -103q49 0 76.5 32t27.5 83q0 100 -94 100q-49 0 -77.5 -30.5t-28.5 -81.5z" />
<glyph unicode="&#x2db;" horiz-adv-x="1269" d="M496 -233q0 106 91 201t292 196l24 -45q-123 -88 -182 -162t-59 -168q0 -53 31.5 -84t80.5 -31q66 0 123 21l25 -41q-104 -94 -226 -94q-82 0 -141 56t-59 151z" />
<glyph unicode="&#x2dc;" horiz-adv-x="739" d="M0 1253q66 115 113 162t98 47q43 0 175 -43t173 -43q59 0 129 88l51 -26q-43 -100 -87 -159.5t-101 -59.5q-35 0 -171 43t-185 43q-78 0 -148 -86z" />
<glyph unicode="&#x2dd;" horiz-adv-x="811" d="M-8 1200l219 367l195 -62v-47l-343 -309zM397 1200l219 367l195 -62v-47l-342 -309z" />
<glyph unicode="&#x307;" horiz-adv-x="638" d="M178 1343q0 49 32 82t87 33q117 0 117 -115q0 -51 -32 -85.5t-85 -34.5q-51 0 -85 30.5t-34 89.5z" />
<glyph unicode="&#x308;" horiz-adv-x="471" d="M-70 1702q0 45 30 77.5t77 32.5q109 0 108 -110q0 -47 -30.5 -81t-77.5 -34q-106 0 -107 115zM326 1702q0 45 29.5 77.5t76.5 32.5q109 0 109 -110q0 -47 -31 -81t-78 -34q-106 0 -106 115z" />
<glyph unicode="&#x387;" horiz-adv-x="475" d="M119 805q0 47 32.5 81t84.5 34q119 0 118 -115q0 -49 -32.5 -85t-85.5 -36q-49 0 -83 30.5t-34 90.5z" />
<glyph unicode="&#x3c0;" horiz-adv-x="1220" d="M47 752q0 141 12 217h770q90 0 119 8q37 12 80 160l94 -9q2 -18 2 -61q0 -141 -32 -254h-213q-27 -262 -27 -565q0 -86 11 -117t52 -31q64 0 105 6l10 -79q-139 -45 -211 -45q-119 0 -119 145q0 186 41 684h-280q-8 -184 -37 -442t-55 -369h-238l-12 80q84 18 110 55 q66 96 95 674q-111 -4 -115 -6q-16 -4 -27.5 -32t-36.5 -132l-94 10q-4 66 -4 103z" />
<glyph unicode="&#x2000;" horiz-adv-x="941" />
<glyph unicode="&#x2001;" horiz-adv-x="1882" />
<glyph unicode="&#x2002;" horiz-adv-x="941" />
<glyph unicode="&#x2003;" horiz-adv-x="1882" />
<glyph unicode="&#x2004;" horiz-adv-x="627" />
<glyph unicode="&#x2005;" horiz-adv-x="470" />
<glyph unicode="&#x2006;" horiz-adv-x="313" />
<glyph unicode="&#x2007;" horiz-adv-x="313" />
<glyph unicode="&#x2008;" horiz-adv-x="235" />
<glyph unicode="&#x2009;" horiz-adv-x="376" />
<glyph unicode="&#x200a;" horiz-adv-x="104" />
<glyph unicode="&#x2010;" horiz-adv-x="604" d="M70 416l24 151l447 29l-33 -127z" />
<glyph unicode="&#x2011;" horiz-adv-x="604" d="M70 416l24 151l447 29l-33 -127z" />
<glyph unicode="&#x2012;" horiz-adv-x="604" d="M70 416l24 151l447 29l-33 -127z" />
<glyph unicode="&#x2013;" horiz-adv-x="1024" d="M-4 446l24 109h1008l-24 -109h-1008z" />
<glyph unicode="&#x2014;" horiz-adv-x="2048" d="M-4 446l24 109h2032l-24 -109h-2032z" />
<glyph unicode="&#x2018;" horiz-adv-x="440" d="M86 1208q0 90 50.5 187.5t148.5 173.5l55 -53q-96 -115 -96 -218q0 -37 32.5 -76.5t32.5 -72.5q0 -43 -31.5 -69.5t-74.5 -26.5q-51 0 -84 40t-33 115z" />
<glyph unicode="&#x2019;" horiz-adv-x="440" d="M100 1106q96 115 97 217q0 37 -33 77t-33 73q0 43 32 69.5t75 26.5q51 0 83.5 -40t32.5 -116q0 -90 -50 -187t-148 -173z" />
<glyph unicode="&#x201a;" horiz-adv-x="479" d="M113 -231q96 115 96 217q0 37 -33 76.5t-33 72.5q0 43 32 69.5t75 26.5q51 0 84 -39.5t33 -115.5q0 -90 -50.5 -187.5t-148.5 -173.5z" />
<glyph unicode="&#x201c;" horiz-adv-x="831" d="M86 1208q0 90 50.5 187.5t148.5 173.5l55 -53q-96 -115 -96 -218q0 -37 32.5 -76.5t32.5 -72.5q0 -43 -31.5 -69.5t-74.5 -26.5q-51 0 -84 40t-33 115zM477 1208q0 90 50.5 187.5t148.5 173.5l55 -53q-96 -115 -96 -218q0 -37 32.5 -76.5t32.5 -72.5q0 -43 -31.5 -69.5 t-74.5 -26.5q-51 0 -84 40t-33 115z" />
<glyph unicode="&#x201d;" horiz-adv-x="831" d="M100 1106q96 115 97 217q0 37 -33 77t-33 73q0 43 32 69.5t75 26.5q51 0 83.5 -40t32.5 -116q0 -90 -50 -187t-148 -173zM492 1106q96 115 96 217q0 37 -33 77t-33 73q0 43 32 69.5t75 26.5q51 0 83.5 -40t32.5 -116q0 -90 -50 -187t-148 -173z" />
<glyph unicode="&#x201e;" horiz-adv-x="870" d="M113 -231q96 115 96 217q0 37 -33 76.5t-33 72.5q0 43 32 69.5t75 26.5q51 0 84 -39.5t33 -115.5q0 -90 -50.5 -187.5t-148.5 -173.5zM504 -231q96 115 96 217q0 37 -32.5 76.5t-32.5 72.5q0 43 31.5 69.5t74.5 26.5q51 0 84 -39.5t33 -115.5q0 -90 -50.5 -187.5 t-148.5 -173.5z" />
<glyph unicode="&#x2020;" horiz-adv-x="1040" d="M72 961l37 28l258 -49q82 -16 94 -27l22 19q-23 47 -28 94l-41 354l184 70l29 -37l-49 -383q-12 -76 -27 -94l22 -25q57 25 93 31l237 41l66 -184l-35 -29l-266 49q-80 16 -95 27l-24 -23q27 -63 31 -92l41 -358l-70 -822h-82l-61 791l49 387q10 72 26 94l-18 23 q-39 -18 -94 -29l-230 -41z" />
<glyph unicode="&#x2021;" horiz-adv-x="1040" d="M72 188l37 29l258 -49q82 -16 94 -27l22 19q-20 39 -28 94l-43 231l45 244q16 80 26 94l-18 23q-39 -18 -94 -29l-230 -41l-69 185l37 28l258 -49q82 -16 94 -27l22 19q-23 47 -28 94l-41 354l184 70l29 -37l-49 -383q-12 -76 -27 -94l22 -25q57 25 93 31l237 41l66 -184 l-35 -29l-266 49q-80 16 -95 27l-24 -23q25 -57 31 -92l45 -213l-47 -260q-12 -76 -27 -94l22 -25q57 25 93 31l237 41l66 -184l-35 -29l-266 49q-80 16 -95 27l-24 -23q27 -63 31 -92l41 -342l-185 -66l-28 35l49 371q10 72 26 94l-18 23q-39 -20 -94 -29l-230 -41z" />
<glyph unicode="&#x2022;" horiz-adv-x="702" d="M82 524q0 109 72.5 184.5t197.5 75.5q117 0 193 -62.5t76 -197.5q0 -111 -74 -187.5t-195 -76.5q-119 0 -194.5 66.5t-75.5 197.5z" />
<glyph unicode="&#x2026;" horiz-adv-x="1761" d="M195 109q0 49 33.5 85.5t88.5 36.5q127 0 127 -122q0 -53 -35 -90t-92 -37q-53 0 -87.5 31.5t-34.5 95.5zM756 109q0 49 33.5 85.5t89.5 36.5q127 0 127 -122q0 -53 -35 -90t-92 -37q-53 0 -88 31.5t-35 95.5zM1317 109q0 49 33.5 85.5t89.5 36.5q127 0 127 -122 q0 -53 -35 -90t-92 -37q-53 0 -88 31.5t-35 95.5z" />
<glyph unicode="&#x202f;" horiz-adv-x="376" />
<glyph unicode="&#x2030;" horiz-adv-x="2430" d="M51 997q0 182 95.5 311.5t256.5 129.5q154 0 243 -121t89 -293q0 -180 -95 -309t-257 -129q-154 0 -243 119.5t-89 291.5zM219 1028q0 -176 50 -265t137 -89q162 0 161 307q0 174 -50 271.5t-138 97.5q-78 0 -119 -85t-41 -237zM291 0l915 1419h133l-913 -1419h-135z M920 393q0 182 95 311.5t257 129.5q154 0 243 -121t89 -293q0 -180 -95.5 -309t-257.5 -129q-154 0 -242.5 119.5t-88.5 291.5zM1087 424q0 -176 50.5 -265t136.5 -89q162 0 162 307q0 174 -50.5 271t-138.5 97q-78 0 -119 -85t-41 -236zM1696 393q0 182 95 311.5t257 129.5 q154 0 243 -121t89 -293q0 -180 -95 -309t-257 -129q-154 0 -243 119.5t-89 291.5zM1864 424q0 -176 50 -265t136 -89q162 0 162 307q0 174 -50.5 271t-138.5 97q-78 0 -118.5 -85t-40.5 -236z" />
<glyph unicode="&#x2039;" horiz-adv-x="581" d="M123 500v32l334 349l43 -33l-215 -332l215 -356l-43 -33z" />
<glyph unicode="&#x203a;" horiz-adv-x="581" d="M82 160l215 356l-215 332l43 33l334 -349v-32l-334 -373z" />
<glyph unicode="&#x2042;" horiz-adv-x="1579" d="M51 317l10 27l220 88q39 16 61 17v16q-27 0 -61 12l-199 84l22 127l29 4l186 -145q39 -33 46 -45l14 8q-16 33 -19 61l-26 215l121 45l18 -24l-33 -234q-8 -49 -16 -61l14 -8q12 25 41 47l174 129l97 -82l-11 -27l-217 -90q-39 -16 -61 -16v-16q37 0 59 -11l199 -86 l-23 -125l-28 -4l-187 144q-39 33 -45 45l-14 -9q18 -37 20 -59l27 -215l-121 -43l-18 23l32 233q8 49 17 61l-14 9q-12 -27 -43 -47l-172 -129zM440 1010l11 26l219 88q39 16 61 17v16q-27 0 -61 12l-199 84l23 127l28 4l187 -145q39 -33 45 -45l14 8q-16 33 -18 62 l-27 215l121 45l18 -25l-33 -233q-8 -49 -16 -62l14 -8q12 25 41 47l174 129l97 -82l-11 -26l-217 -90q-39 -16 -61 -17v-16q37 0 59 -11l199 -86l-23 -124l-28 -5l-187 144q-39 33 -45 45l-14 -8q18 -37 20 -60l27 -215l-121 -43l-18 23l33 233q8 49 16 62l-14 8 q-12 -27 -43 -47l-172 -129zM829 317l11 27l219 88q39 16 61 17v16q-27 0 -61 12l-199 84l23 127l28 4l187 -145q39 -33 45 -45l14 8q-16 33 -18 61l-27 215l121 45l18 -24l-32 -234q-8 -49 -17 -61l15 -8q12 25 40 47l175 129l96 -82l-10 -27l-218 -90q-39 -16 -61 -16v-16 q37 0 59 -11l199 -86l-22 -125l-29 -4l-186 144q-39 33 -46 45l-14 -9q18 -37 21 -59l26 -215l-121 -43l-18 23l33 233q8 49 16 61l-14 9q-12 -27 -43 -47l-172 -129z" />
<glyph unicode="&#x2044;" horiz-adv-x="92" d="M-483 0l915 1419h133l-913 -1419h-135z" />
<glyph unicode="&#x205f;" horiz-adv-x="470" />
<glyph unicode="&#x20ac;" horiz-adv-x="1198" d="M20 504v104h768v-104h-385q37 -207 135.5 -307.5t229.5 -100.5q55 0 103.5 18.5t60.5 32.5q25 18 69 263l113 -4q0 -156 -22 -332q-53 -35 -162 -63.5t-221 -28.5q-231 0 -365.5 143t-171.5 379h-152zM20 754v104h152q39 250 180.5 415t399.5 165q92 0 195.5 -20.5 t135.5 -37.5q12 -76 13 -192q0 -49 -4 -152l-117 -16q-45 238 -80 262q-12 14 -68.5 30.5t-109.5 16.5q-143 0 -224 -127t-100 -344h395v-104h-768z" />
<glyph unicode="&#x2116;" horiz-adv-x="1994" d="M31 80q109 18 132 40.5t23 86.5v1005q0 63 -23.5 86t-131.5 41l12 80h369l465 -839q35 -66 34 -76h17v667q0 92 -34 123t-163 45l12 80h467l9 -80l-127 -24q-41 -8 -41 -53v-1262l-95 -18l-596 1081q-33 57 -34 76h-17v-934q0 -51 19.5 -76t70.5 -31l144 -18l-8 -80h-492 zM1219 948q0 176 92 279.5t258 103.5q158 0 246 -97t88 -265q0 -174 -92.5 -278.5t-258.5 -104.5q-160 0 -246.5 96t-86.5 266zM1223 358v109h675v-109h-675zM1384 971q0 -129 48.5 -211t140.5 -82q74 0 110 45q51 66 52 225q0 127 -48.5 208t-138.5 81q-76 0 -108 -43 q-55 -66 -56 -223z" />
<glyph unicode="&#x211e;" horiz-adv-x="1335" d="M90 80q109 18 132.5 40.5t23.5 86.5v1005q0 63 -23.5 86t-132.5 41l12 80h574q428 0 428 -344q0 -106 -68.5 -218t-187.5 -177l162 -246l88 113q12 10 12 22q0 23 -63 37l8 53h258l8 -53q-66 -10 -78 -22l-186 -222l131 -198q20 -41 62 -59.5t126 -24.5l-12 -80h-320 l-135 207l-78 -92q-8 -14 -8 -25q0 -23 62 -37l-8 -53h-261l-4 53q68 12 80 21l172 200l-227 349h-27h-166v-465q0 -41 41 -54l72 -24l-8 -80h-447zM444 727h113q162 0 245 70.5t83 259.5q-1 254 -273 254h-135q-33 -4 -33 -49v-535z" />
<glyph unicode="&#x2122;" horiz-adv-x="2091" d="M61 1227q0 109 29 196h678q27 -80 31 -196l-78 -8q-31 88 -37 102t-16 16q-16 6 -80 6h-72v-663q0 -27 27 -31l98 -14l-4 -66h-401l-11 66q80 12 98.5 25.5t18.5 50.5v632h-70q-63 0 -79 -6q-12 -2 -18.5 -16t-33.5 -102zM895 635q72 14 87 23.5t17 46.5l35 577 q2 39 -14 51.5t-84 24.5l6 65h289l207 -542l8 -33h14q0 6 6 24l215 551h295l6 -65l-84 -15q-25 -4 -24 -26v-6l37 -631q4 -27 26 -31l82 -14l-6 -66h-373l-6 66q63 10 80 23.5t17 41.5v11l-15 508q0 23 4 47l-12 2l-240 -633h-118l-222 590q-6 16 -6 35h-10l-27 -543 q0 -20 2.5 -32.5t13.5 -24t32 -15.5l59 -10l-4 -66h-285z" />
<glyph unicode="&#x2126;" horiz-adv-x="1470" d="M72 340l104 10q57 -123 76.5 -152.5t40.5 -31.5q57 -8 131 -8h53l6 14q-33 12 -59 39q-166 166 -235.5 316.5t-69.5 316.5q0 270 167 432t459 162q283 0 439.5 -147.5t156.5 -399.5q0 -348 -299 -674q-27 -29 -63 -45l6 -14h64q74 0 131 8q20 2 39.5 32.5t74.5 151.5 l105 -10q-20 -186 -90 -340h-484l-20 66q147 190 228 366t81 379q0 229 -103.5 373.5t-297.5 144.5q-129 0 -215 -75.5t-119 -183t-33 -245.5q0 -78 15.5 -154.5t33 -131t58.5 -131t63.5 -111.5t77.5 -120t74 -111l-21 -66h-485q-66 154 -90 340z" />
<glyph unicode="&#x212e;" horiz-adv-x="1701" d="M41 707q0 303 236.5 517t570.5 214q338 0 575.5 -214t237.5 -517v-19h-1313q-10 0 -10 -10v-395q0 -25 16 -47q215 -215 496 -216q154 0 290 65t232 177h119q-109 -129 -279 -204.5t-364 -75.5q-334 0 -570.5 213t-236.5 512zM338 741q0 -14 10 -14h1006q8 0 8 14v398 q0 29 -19 47q-211 207 -493 207q-281 0 -492 -211q-20 -20 -20 -52v-389z" />
<glyph unicode="&#x2190;" horiz-adv-x="1581" d="M90 707v30l524 527l82 -82l-329 -330q-55 -55 -76 -68l2 -8h1198v-108h-1198l-2 -9q25 -16 76 -67l329 -330l-82 -82z" />
<glyph unicode="&#x2191;" horiz-adv-x="1269" d="M94 897l524 522h39l525 -522l-84 -78l-332 330q-43 43 -57 72l-9 -2v-1219h-125v1219l-8 2q-20 -35 -57 -72l-332 -330z" />
<glyph unicode="&#x2192;" horiz-adv-x="1581" d="M90 668v108h1198l2 8q-20 12 -76 68l-329 330l82 82l524 -527v-30l-524 -527l-82 82l329 330q51 51 76 67l-2 9h-1198z" />
<glyph unicode="&#x2193;" horiz-adv-x="1269" d="M88 522l84 78l332 -330q37 -37 57 -71l8 2v1218h125v-1218l8 -2q14 29 58 71l332 330l84 -78l-525 -522h-39z" />
<glyph unicode="&#x2202;" horiz-adv-x="1036" d="M43 379q0 201 128 342t302 141q156 0 285 -100q0 287 -85 427t-216 140q-55 0 -105.5 -29.5t-73 -54t-61.5 -74.5q-31 8 -76.5 40t-74.5 75q137 152 354 152q262 0 412.5 -206t150.5 -501q0 -184 -56.5 -350t-184.5 -283.5t-306 -117.5q-176 0 -284.5 109.5t-108.5 289.5 zM242 342q0 -109 55 -182.5t149 -73.5q84 0 147.5 63.5t94.5 158.5t44 175t13 142q-27 57 -89 94t-132 37q-96 0 -163.5 -77t-93 -167t-25.5 -170z" />
<glyph unicode="&#x2206;" horiz-adv-x="1312" d="M96 0v82l492 1356h141l481 -1352v-86h-1114zM233 109h742l-338 1034q-12 37 -12 59h-15z" />
<glyph unicode="&#x220f;" horiz-adv-x="1394" d="M90 -57q109 18 132.5 40.5t23.5 86.5v1142q0 63 -23.5 86t-132.5 41l12 80h1207l8 -80l-127 -24q-41 -8 -41 -53v-1242q0 -45 41 -53l127 -24l-8 -80h-502l-12 80q109 18 132 40.5t23 86.5v1124q0 66 -24.5 84t-130.5 18h-314q-37 0 -37 -53v-1223q0 -45 41 -53l127 -24 l-8 -80h-502z" />
<glyph unicode="&#x2211;" horiz-adv-x="1243" d="M86 -70l496 654l-496 782v53h979q18 -100 18 -213q0 -61 -4 -147l-129 -15q-53 256 -84 259q-86 12 -303 12h-196l-5 -15q18 -8 46 -47l372 -587l-487 -646h446q98 0 172 9q20 2 35.5 43.5t48.5 201.5l107 -10q4 -66 4 -102q0 -201 -33 -299h-987v67z" />
<glyph unicode="&#x2212;" horiz-adv-x="954" d="M92 500v108h770v-108h-770z" />
<glyph unicode="&#x221a;" horiz-adv-x="1208" d="M51 870q174 113 264 158l29 -10l389 -817l12 4l338 1636l101 -18l-408 -2026l-41 -12l-483 997q-18 39 -57 43t-125 -20z" />
<glyph unicode="&#x221e;" horiz-adv-x="1554" d="M106 569q0 162 99.5 258.5t253.5 96.5q219 0 342 -197q133 197 329 197q129 0 223.5 -81t94.5 -227q0 -162 -99 -258t-253 -96q-219 0 -342 197q-133 -197 -330 -197q-129 0 -223.5 81t-94.5 226zM227 592q0 -94 59.5 -158.5t155.5 -64.5q160 0 254 182q-45 82 -76.5 128 t-85 86t-110.5 40q-80 0 -138.5 -61.5t-58.5 -151.5zM858 635q45 -82 78 -129t85.5 -86t111.5 -39q80 0 137 61.5t57 155.5t-52 156.5t-147 62.5q-84 0 -155.5 -52t-114.5 -130z" />
<glyph unicode="&#x222b;" horiz-adv-x="782" d="M16 -217q0 66 35 119q80 -20 127 -21q49 0 80 15q51 55 51 364q0 162 -10 486.5t-10 488.5q0 190 108.5 352t206.5 162q74 0 156 -14q6 -25 6 -49q0 -68 -35 -119q-80 20 -127 20q-53 0 -80 -14q-51 -61 -51 -369q0 -160 10.5 -483.5t10.5 -487.5q0 -188 -109 -351 t-207 -163q-74 0 -155 15q-6 25 -7 49z" />
<glyph unicode="&#x2248;" horiz-adv-x="954" d="M41 379q68 115 116 160t105 45q41 0 98 -19q10 -2 230 -84q57 -20 98 -20q31 0 59.5 15.5t45 31.5t51.5 53l71 -49q-31 -47 -48 -72.5t-46.5 -62.5t-61.5 -53.5t-65 -16.5q-37 0 -90 17q-20 6 -124.5 45t-125.5 45q-49 16 -86 16q-66 0 -155 -100zM41 686q68 115 116 160 t105 45q41 0 98 -19q10 -2 230 -84q57 -20 98 -20q31 0 59.5 15.5t45 31.5t51.5 53l71 -49q-31 -47 -48 -72.5t-46.5 -62.5t-61.5 -53.5t-65 -16.5q-37 0 -90 17q-20 6 -124.5 45t-125.5 45q-49 16 -86 16q-66 0 -155 -100z" />
<glyph unicode="&#x2260;" horiz-adv-x="954" d="M92 354v109h770v-109h-770zM92 635v108h770v-108h-770zM207 129l452 881l113 -41l-455 -881z" />
<glyph unicode="&#x2264;" horiz-adv-x="954" d="M92 0v104h770v-104h-770zM92 641v154l768 436v-141l-653 -373l653 -369v-141z" />
<glyph unicode="&#x2265;" horiz-adv-x="954" d="M92 0v104h770v-104h-770zM94 207v141l654 369l-654 373v141l768 -436v-154z" />
<glyph unicode="&#x25a0;" horiz-adv-x="2048" d="M166 0v1716h1716v-1716h-1716z" />
<glyph unicode="&#x25a1;" horiz-adv-x="2048" d="M166 0v1716h1716v-1716h-1716zM289 123h1470v1470h-1470v-1470z" />
<glyph unicode="&#x25ca;" horiz-adv-x="1011" d="M45 723l369 858h176l393 -858l-393 -860h-176zM203 723l297 -729l325 729l-325 727z" />
<glyph unicode="&#x25cc;" horiz-adv-x="1024" d="M0 461h88q8 -123 86 -225l-61 -64q-100 119 -113 289zM0 543q12 154 119 278l61 -65q-76 -88 -92 -213h-88zM174 113l57 59q109 -84 234 -92v-88q-158 12 -291 121zM182 879q127 102 283 114v-88q-121 -12 -217 -84zM551 -8v88q121 8 229 92l60 -59q-133 -109 -289 -121z M551 905v88q160 -12 283 -114l-64 -58q-100 72 -219 84zM834 758l61 63q104 -121 121 -278h-90q-8 123 -92 215zM840 233q78 109 86 228h90q-12 -170 -113 -289z" />
<glyph unicode="&#xe000;" horiz-adv-x="970" d="M0 970h970v-970h-970v970z" />
<glyph horiz-adv-x="2048" d="M0 -455v2048h2048v-2048h-2048z" />
<glyph horiz-adv-x="198" d="M-20 1210q29 109 28 211q0 63 -8 119l174 45l25 -39q-18 -197 -133 -364z" />
<glyph horiz-adv-x="479" d="M0 1608l356 264l123 -105l-16 -43l-412 -190z" />
<glyph horiz-adv-x="471" d="M-133 1612q66 109 113 152.5t98 43.5q43 0 175 -27.5t173 -27.5q61 0 129 72l51 -25q-43 -94 -87 -150.5t-101 -56.5q-35 0 -171 28t-186 28q-78 0 -147 -70z" />
<glyph horiz-adv-x="479" d="M0 1767l123 105l356 -264l-51 -74l-412 190z" />
<glyph horiz-adv-x="671" d="M0 1587l279 285h114l279 -285l-51 -53l-285 186l-285 -186z" />
<glyph horiz-adv-x="671" d="M0 1825l51 53l285 -186l285 186l51 -53l-279 -285h-114z" />
<glyph horiz-adv-x="786" d="M51 393q0 182 95.5 311.5t256.5 129.5q154 0 243 -121t89 -293q0 -180 -95 -309t-257 -129q-154 0 -243 119.5t-89 291.5zM219 424q0 -176 50 -265t137 -89q162 0 161 307q0 174 -50 271t-138 97q-78 0 -119 -85t-41 -236z" />
<glyph horiz-adv-x="786" d="M51 997q0 182 95.5 311.5t256.5 129.5q154 0 243 -121t89 -293q0 -180 -95 -309t-257 -129q-154 0 -243 119.5t-89 291.5zM219 1028q0 -176 50 -265t137 -89q162 0 161 307q0 174 -50 271.5t-138 97.5q-78 0 -119 -85t-41 -237z" />
<glyph horiz-adv-x="976" d="M420 -182l78 264l100 -27l-66 -231zM420 -182l98 76q45 14 92 14q82 0 128 -35t46 -96q0 -86 -95 -149.5t-259 -71.5l-8 63q90 10 142 42t52 77q0 33 -24.5 55.5t-69.5 22.5q-47 0 -84 -21z" />
<glyph horiz-adv-x="1222" d="M133 1030q0 176 105.5 282.5t308.5 106.5h590l8 -80l-127 -24q-41 -8 -41 -53v-1104q0 -45 41 -54l127 -24l-8 -80h-328v1311h-96v-1311h-312l-12 80q109 18 132.5 40.5t23.5 86.5v362q-197 6 -304.5 137.5t-107.5 323.5z" />
<glyph horiz-adv-x="1222" d="M106 754q0 131 31 244.5t97.5 211t186.5 153.5t279 56h437l8 -80l-127 -24q-41 -8 -41 -53v-1104q0 -45 41 -54l127 -24l-8 -80h-392q-168 0 -295.5 66.5t-199.5 177t-108 239.5t-36 271zM713 109h96v1202h-96v-1202z" />
<glyph horiz-adv-x="1222" d="M133 1030q0 176 105.5 282.5t308.5 106.5h590l8 -80l-127 -24q-41 -8 -41 -53v-1104q0 -45 41 -54l127 -24l-8 -80h-328v1311h-96v-1049q0 -186 -95.5 -346t-195.5 -160q-88 0 -170 17q-6 25 -6 53q0 66 39 127q96 -23 137 -23q37 0 63 17q59 41 60 377v245 q-197 6 -304.5 137.5t-107.5 323.5z" />
<glyph horiz-adv-x="868" d="M90 696q0 147 71.5 262t235.5 148l-6 262h133l-8 -250q139 0 252 -47q2 -12 2 -47q0 -115 -20 -182l-99 -11q-27 164 -49 175q-37 14 -131 14q-96 0 -137 -62q-59 -82 -60 -247q0 -160 71 -234t183 -74q127 0 240 76l53 -61q-125 -117 -303 -131l6 -287h-133l6 289 q-152 25 -229.5 135.5t-77.5 271.5z" />
<glyph horiz-adv-x="1222" d="M72 1030q0 176 90 282.5t262 106.5h713l8 -80l-127 -24q-41 -8 -41 -53v-1000q0 -186 -96.5 -346t-198.5 -160q-88 0 -170 17q-6 25 -6 53q0 66 39 127q96 -23 137 -23q37 0 63 17q41 27 52.5 120t11.5 257v987h-96v-1241q-66 -12 -146 -13l-22 21v491q-227 6 -350 137.5 t-123 323.5zM299 1004q0 -184 71.5 -255t174.5 -71v602q0 31 -31 31h-22q-76 0 -134.5 -68.5t-58.5 -238.5z" />
<glyph horiz-adv-x="1060" d="M463 1694q0 84 60.5 136t146.5 52q82 0 139 -49t57 -129q0 -84 -60.5 -137.5t-146.5 -53.5q-84 0 -140 48.5t-56 132.5zM563 1694q0 -43 26.5 -67.5t69.5 -24.5q45 0 75 28.5t30 73.5q0 41 -26.5 65.5t-67.5 24.5q-106 0 -107 -100z" />
<glyph horiz-adv-x="542" d="M-158 1589l240 285l194 -62v-47l-362 -227zM248 1589l239 285l195 -62v-47l-363 -227z" />
<glyph horiz-adv-x="1495" d="M446 1843h76q35 -147 229.5 -147t229.5 147h76q-8 -127 -84 -207t-221.5 -80t-221 80t-84.5 207z" />
<glyph d="M49 539q0 270 130 430.5t364 160.5q223 0 346 -149.5t123 -409.5q0 -270 -130.5 -429.5t-363.5 -159.5q-223 0 -346 148.5t-123 408.5zM248 571q0 -211 76.5 -346t226.5 -135q119 0 176 72q37 47 61.5 151.5t24.5 227.5q0 211 -77 346t-226 135q-119 0 -176 -72 q-37 -47 -61.5 -151.5t-24.5 -227.5z" />
<glyph d="M186 1036q72 27 214.5 54.5t222.5 29.5l22 -20v-953q0 -14 2 -21t11.5 -13.5t27.5 -8.5l219 -24l-8 -80h-684l-12 80q154 18 207 42.5t53 74.5v628q0 102 -9.5 123t-50.5 21q-55 0 -198 -11z" />
<glyph d="M90 0v109q121 98 175 143t136 116.5t116 111.5t74 95.5t53 102.5t13 98q0 106 -61 176t-180 70q-90 0 -129 -31q-25 -20 -47 -221l-111 12q-16 74 -16 168q0 66 2 86q119 94 348 94q186 0 289.5 -88t103.5 -233q0 -156 -127 -307.5t-403 -341.5l4 -15l123 5q264 8 295 14 q37 8 79 160l95 -9q2 -18 2 -61q0 -141 -33 -254h-801z" />
<glyph d="M82 -238q12 171 35 269l110 10q6 -88 12.5 -131t11.5 -52.5t17 -15.5q37 -16 105 -16q145 0 241.5 88t96.5 231q0 264 -289 265q-55 0 -107 -9l7 99q178 29 260 113.5t82 193.5q0 98 -62.5 156.5t-157.5 58.5q-100 0 -137 -27q-14 -10 -21 -21t-17.5 -60.5t-16.5 -143.5 l-109 12q-18 92 -18 168q0 66 2 86q147 94 350 94q168 0 274.5 -77.5t106.5 -208.5q0 -106 -68.5 -196.5t-162.5 -131.5l2 -16q123 -14 210 -100.5t87 -219.5q0 -180 -162 -320.5t-420 -140.5q-164 0 -262 43z" />
<glyph d="M10 217l649 877q115 27 177 26l22 -20v-889l209 -4l-18 -117h-191v-340q-66 -12 -162 -12l-22 20v332h-615l-2 2zM156 236l8 -15l510 -8v641q0 43 4 61l-12 7l-473 -641q-17 -25 -37 -45z" />
<glyph d="M82 -238q0 141 41 295l108 6q12 -139 19.5 -176t21.5 -45q35 -16 125 -16q143 0 239.5 97t96.5 263q0 125 -73.5 206t-215.5 81q-127 0 -254 -47l-45 53l45 621h525q10 0 16 7t16.5 41t22.5 101l104 -14q-8 -193 -28 -301h-533l-24 -367q102 35 227 35 q203 0 316.5 -100.5t113.5 -274.5q0 -225 -171 -366.5t-417 -141.5q-172 0 -276 43z" />
<glyph d="M98 504q0 332 211 573.5t510 315.5l41 -84q-451 -188 -538 -576l16 -6q104 135 272 135q154 0 266.5 -120t112.5 -306q0 -193 -125 -323.5t-327 -130.5q-205 0 -322 141t-117 381zM293 520q0 -438 285 -438q86 0 139 57q78 84 78 260q0 147 -59.5 234.5t-149.5 87.5 q-135 0 -226 -59q-47 -33 -59 -78q-8 -33 -8 -64z" />
<glyph d="M106 883q0 141 13 217h842v-123q-436 -680 -476 -1251q-23 -6 -59 -7q-105 0 -156 33q33 203 193 557.5t356 624.5l-4 14l-362 -6q-137 -4 -185 -8q-16 -2 -27.5 -29.5t-35.5 -134.5l-94 10q-4 66 -5 103z" />
<glyph d="M66 305q0 199 198 332q55 33 78 33v18q-12 0 -33 10q-192 117 -192 316q0 164 116.5 268t298.5 104q59 0 122 -14t132.5 -46t114.5 -99.5t45 -161.5q0 -184 -160 -303q-47 -33 -75 -33v-18q12 0 32 -11q123 -63 188.5 -141t65.5 -194q0 -170 -132 -276.5t-345 -106.5 q-70 0 -137.5 12t-144 43t-124.5 100.5t-48 167.5zM238 328q0 -113 81.5 -173.5t212.5 -60.5q141 0 207 68.5t66 156.5q0 59 -26.5 106.5t-84 84.5t-99.5 57.5t-121 51.5q-14 6 -19 8q-12 -4 -42 -23.5t-72 -55.5t-72.5 -95.5t-30.5 -124.5zM295 1059q0 -57 23.5 -101.5 t75.5 -81t92 -58t116 -54.5q172 117 172 283q0 115 -70.5 176t-183.5 61q-115 0 -170 -69.5t-55 -155.5z" />
<glyph d="M74 680q0 190 126 320t324 130q203 0 322 -144t119 -382q0 -139 -43 -280.5t-129 -272.5t-240 -222t-352 -110l-15 93q238 55 369 187t186 370l-16 6q-96 -119 -264 -119q-158 0 -272.5 121t-114.5 303zM268 723q0 -158 75 -242t165 -84q109 0 192 45q49 27 60 76 q12 49 12 121q0 176 -68.5 283.5t-209.5 107.5q-90 0 -146 -57q-80 -84 -80 -250z" />
<glyph d="M143 131q0 96 19 229l117 11q18 -158 26 -192t27 -44q43 -27 131 -39v381q-74 31 -117 54.5t-95 63.5t-78 92t-26 120q0 121 85 205t231 108v248h117v-238q154 -2 299 -57q2 -18 2 -55q0 -127 -29 -230l-102 -12q-14 188 -50 213q-39 25 -120 29v-361q78 -33 123 -56 t101 -64t82.5 -95.5t26.5 -122.5q0 -123 -89 -214t-244 -115v-252h-117v244q-195 4 -316 55q-4 31 -4 94zM311 879q0 -100 152 -170v307q-68 -6 -103 -33q-49 -36 -49 -104zM580 94q68 6 102 35q53 41 53 115q0 102 -155 182v-332z" />
<glyph d="M143 696q0 147 77 263t253 149v260h117v-250q139 0 252 -47q2 -12 2 -47q0 -115 -21 -182l-88 -11q-20 111 -28.5 140.5t-20.5 34.5q-29 8 -96 12v-615h12q127 0 240 76l53 -61q-133 -119 -305 -133v-285h-117v289q-162 25 -246 135.5t-84 271.5zM328 711 q0 -207 145 -277v576q-41 -8 -70 -43q-75 -92 -75 -256z" />
<glyph d="M31 662q0 299 140 511.5t378 212.5q223 0 354 -199.5t131 -481.5q0 -299 -141 -511t-379 -212q-223 0 -353 197.5t-130 482.5zM246 711q0 -307 83 -464t224 -157q266 0 266 543q0 307 -83 476t-228 169q-129 0 -195.5 -149.5t-66.5 -417.5z" />
<glyph d="M160 1294q72 27 214 54.5t222 29.5l22 -20v-1211q0 -14 2.5 -20t11.5 -12t27 -11l220 -24l-9 -80h-684l-12 80q154 18 207 42.5t53 74.5v886q0 102 -9 123t-50 21q-55 0 -199 -10z" />
<glyph d="M72 0v109q133 135 182 185t143.5 152.5t129 152.5t81.5 128t62.5 140.5t15.5 129.5q0 127 -64.5 203t-189.5 76q-111 0 -160 -41q-23 -18 -47 -252l-121 12q-16 74 -16 168q0 78 2 107q63 55 172 84.5t217 29.5q201 0 310.5 -94t109.5 -264q0 -188 -141.5 -381.5 t-456.5 -480.5l4 -14l164 6q299 10 303 12q10 2 18.5 20.5t23.5 77.5q11 37 17 62l95 -9q2 -20 2 -69q0 -162 -21 -250h-835z" />
<glyph d="M86 25q12 170 35 268l110 10q6 -84 12.5 -127t12.5 -53t16 -14q66 -20 166 -21q119 0 198 78t79 205q0 295 -289 295q-55 0 -107 -9l7 99q178 29 260 113.5t82 193.5q0 98 -62.5 156.5t-156.5 58.5q-100 0 -138 -27q-14 -10 -21 -21t-17.5 -60.5t-16.5 -143.5l-109 12 q-18 92 -18 168q0 66 2 86q147 94 350 94q168 0 274.5 -77.5t106.5 -208.5q0 -106 -68.5 -196.5t-162.5 -131.5l2 -16q123 -18 210 -110.5t87 -239.5q0 -166 -144.5 -295t-375.5 -129q-94 0 -190.5 14t-133.5 29z" />
<glyph d="M16 475l650 877q115 27 176 26l22 -20v-889l209 -4l-18 -117h-191v-201q0 -14 2 -20t11.5 -12t27.5 -11l117 -24l-8 -80h-520l-13 80q117 18 158 42.5t41 74.5v151h-614l-3 2zM162 494l8 -15l510 -8v641q0 43 4 62l-12 6l-473 -641q-17 -25 -37 -45z" />
<glyph d="M92 33q0 141 41 295l109 6q12 -139 19 -176t22 -45q39 -25 145 -25q129 0 221 99.5t92 248.5q0 133 -73.5 220t-212.5 87q-127 0 -254 -47l-45 54l45 620h667l21 -22q0 -78 -33 -144h-532l-25 -366q102 35 227 34q203 0 316.5 -105t113.5 -290q0 -219 -164.5 -357 t-402.5 -138q-182 0 -297 51z" />
<glyph d="M88 504q0 332 211 573.5t510 315.5l41 -84q-451 -188 -539 -576l17 -6q104 135 272 135q154 0 266.5 -120t112.5 -306q0 -193 -125 -323.5t-328 -130.5q-205 0 -321.5 141t-116.5 381zM283 520q0 -438 284 -438q86 0 140 57q77 84 77 260q0 147 -59 234.5t-150 87.5 q-43 0 -111.5 -14.5t-113.5 -44.5q-47 -33 -59 -78q-8 -33 -8 -64z" />
<glyph d="M129 1153q0 141 12 217h842v-123q-436 -686 -475 -1259q-20 -6 -59 -6q-105 -1 -156 32q33 203 192.5 560.5t356.5 629.5l-4 15l-363 -7q-137 -4 -184 -8q-16 -2 -27.5 -29.5t-36.5 -134.5l-94 11q-4 66 -4 102z" />
<glyph d="M66 305q0 199 198 332q55 33 78 33v18q-12 0 -33 10q-192 117 -192 316q0 164 116.5 268t298.5 104q59 0 122 -14t132.5 -46t114.5 -99.5t45 -161.5q0 -184 -160 -303q-47 -33 -75 -33v-18q12 0 32 -11q123 -63 188.5 -141t65.5 -194q0 -170 -132 -276.5t-345 -106.5 q-70 0 -137.5 12t-144 43t-124.5 100.5t-48 167.5zM238 328q0 -113 81.5 -173.5t212.5 -60.5q141 0 207 68.5t66 156.5q0 59 -26.5 106.5t-84 84.5t-99.5 57.5t-121 51.5q-14 6 -19 8q-12 -4 -42 -23.5t-72 -55.5t-72.5 -95.5t-30.5 -124.5zM295 1059q0 -57 23.5 -101.5 t75.5 -81t92 -58t116 -54.5q172 117 172 283q0 115 -70.5 176t-183.5 61q-115 0 -170 -69.5t-55 -155.5z" />
<glyph d="M84 936q0 190 126 320t325 130q203 0 321.5 -144t118.5 -382q0 -139 -43 -280.5t-129 -272.5t-239.5 -222t-352.5 -110l-14 93q238 55 368.5 187t186.5 370l-17 6q-96 -119 -264 -119q-158 0 -272.5 121t-114.5 303zM279 979q0 -158 74.5 -242t164.5 -84q109 0 193 45 q49 27 59 76q12 49 12 121q0 176 -68.5 283.5t-209.5 107.5q-90 0 -146 -57q-79 -84 -79 -250z" />
<glyph d="M86 160q0 119 25 250l116 6q16 -147 27.5 -190.5t30.5 -57.5q37 -25 114.5 -48.5t157.5 -23.5q106 0 170 47q78 57 78 160q0 100 -71.5 167t-173 106.5t-203 84t-173 127t-71.5 205.5q0 182 138 286.5t359 104.5q169 0 316 -55q6 -49 6 -104q0 -106 -23 -242l-118 -14 q-23 231 -56 258q-51 43 -192 43q-115 0 -185 -47q-76 -51 -75 -148q0 -70 38.5 -122t101 -84.5t139.5 -62.5t153 -63.5t138 -76.5t101 -117t39 -170q0 -180 -131 -288.5t-352 -108.5q-121 0 -242 29.5t-176 58.5q-6 25 -6 90zM494 -164v1745h116v-1745h-116z" />
<glyph d="M164 696q0 147 76.5 263t253.5 149v260h116v-250q139 0 252 -47q2 -12 2 -47q0 -115 -20 -182l-88 -11q-20 111 -28.5 140.5t-20.5 34.5q-29 8 -97 12v-615h13q127 0 239 76l53 -61q-133 -119 -305 -133v-285h-116v289q-162 25 -246 135.5t-84 271.5zM348 711 q0 -207 146 -277v576q-41 -8 -70 -43q-76 -92 -76 -256z" />
<glyph horiz-adv-x="1134" d="M66 662q0 299 140 511.5t378 212.5q223 0 354 -199.5t131 -481.5q0 -299 -141 -511t-379 -212q-223 0 -353 197.5t-130 482.5zM281 711q0 -307 82.5 -464t224.5 -157q266 0 266 543q0 307 -83 476t-228 169q-129 0 -195.5 -149.5t-66.5 -417.5z" />
<glyph horiz-adv-x="847" d="M98 1294q68 27 204 54.5t212 29.5l23 -20v-1211q0 -14 2 -20t11 -12t28 -11l157 -24l-8 -80h-561l-12 80q117 18 157.5 42.5t40.5 74.5v886q0 102 -9 123t-50 21q-51 0 -178 -10z" />
<glyph horiz-adv-x="1013" d="M49 0v109q133 135 182.5 185t143.5 152.5t129 152.5t82 128t62.5 140.5t15.5 129.5q0 127 -64.5 203t-189.5 76q-111 0 -160 -41q-23 -18 -47 -252l-121 12q-16 74 -16 168q0 78 2 107q63 55 171.5 84.5t217.5 29.5q201 0 310.5 -94t109.5 -264q0 -188 -141.5 -381.5 t-456.5 -480.5l4 -14l163 6q299 10 304 12q10 2 18 20.5t24 77.5q11 37 17 62l94 -9q2 -20 2 -69q0 -162 -20 -250h-836z" />
<glyph horiz-adv-x="960" d="M25 25q11 170 34 268l111 10q6 -84 12 -127t12.5 -53t16.5 -14q66 -20 166 -21q119 0 197.5 78t78.5 205q0 295 -288 295q-55 0 -107 -9l6 99q178 29 260 113.5t82 193.5q0 98 -62.5 156.5t-156.5 58.5q-100 0 -137 -27q-14 -10 -21.5 -21t-17.5 -60.5t-16 -143.5 l-109 12q-18 92 -18 168q0 66 2 86q147 94 350 94q168 0 274.5 -77.5t106.5 -208.5q0 -106 -68.5 -196.5t-163.5 -131.5l2 -16q123 -18 210 -110.5t87 -239.5q0 -166 -144 -295t-376 -129q-94 0 -190.5 14t-132.5 29z" />
<glyph horiz-adv-x="1093" d="M16 475l650 877q115 27 176 26l22 -20v-889l209 -4l-18 -117h-191v-201q0 -14 2 -20t11.5 -12t27.5 -11l117 -24l-8 -80h-520l-13 80q117 18 158 42.5t41 74.5v151h-614l-3 2zM162 494l8 -15l510 -8v641q0 43 4 62l-12 6l-473 -641q-17 -25 -37 -45z" />
<glyph horiz-adv-x="1021" d="M66 33q0 141 40 295l109 6q12 -139 19.5 -176t21.5 -45q39 -25 145 -25q129 0 221.5 99.5t92.5 248.5q0 133 -74 220t-213 87q-127 0 -254 -47l-45 54l45 620h668l20 -22q0 -78 -33 -144h-532l-25 -366q102 35 228 34q203 0 316.5 -105t113.5 -290q0 -219 -165 -357 t-403 -138q-182 0 -296 51z" />
<glyph horiz-adv-x="1054" d="M98 504q0 332 211 573.5t510 315.5l41 -84q-451 -188 -538 -576l16 -6q104 135 272 135q154 0 266.5 -120t112.5 -306q0 -193 -125 -323.5t-327 -130.5q-205 0 -322 141t-117 381zM293 520q0 -438 285 -438q86 0 139 57q78 84 78 260q0 147 -59.5 234.5t-149.5 87.5 q-135 0 -226 -59q-47 -33 -59 -78q-8 -33 -8 -64z" />
<glyph horiz-adv-x="921" d="M47 1153q0 141 12 217h842v-123q-436 -686 -475 -1259q-20 -6 -59 -6q-105 -1 -156 32q33 203 192.5 560.5t356.5 629.5l-4 15l-363 -7q-137 -4 -184 -8q-16 -2 -27.5 -29.5t-36.5 -134.5l-94 11q-4 66 -4 102z" />
<glyph d="M66 305q0 199 198 332q55 33 78 33v18q-12 0 -33 10q-192 117 -192 316q0 164 116.5 268t298.5 104q59 0 122 -14t132.5 -46t114.5 -99.5t45 -161.5q0 -184 -160 -303q-47 -33 -75 -33v-18q12 0 32 -11q123 -63 188.5 -141t65.5 -194q0 -170 -132 -276.5t-345 -106.5 q-70 0 -137.5 12t-144 43t-124.5 100.5t-48 167.5zM238 328q0 -113 81.5 -173.5t212.5 -60.5q141 0 207 68.5t66 156.5q0 59 -26.5 106.5t-84 84.5t-99.5 57.5t-121 51.5q-14 6 -19 8q-12 -4 -42 -23.5t-72 -55.5t-72.5 -95.5t-30.5 -124.5zM295 1059q0 -57 23.5 -101.5 t75.5 -81t92 -58t116 -54.5q172 117 172 283q0 115 -70.5 176t-183.5 61q-115 0 -170 -69.5t-55 -155.5z" />
<glyph horiz-adv-x="1056" d="M74 936q0 190 126 320t324 130q203 0 322 -144t119 -382q0 -139 -43 -280.5t-129 -272.5t-240 -222t-352 -110l-15 93q238 55 369 187t186 370l-16 6q-96 -119 -264 -119q-158 0 -272.5 121t-114.5 303zM268 979q0 -158 75 -242t165 -84q109 0 192 45q49 27 60 76 q12 49 12 121q0 176 -68.5 283.5t-209.5 107.5q-90 0 -146 -57q-80 -84 -80 -250z" />
<glyph horiz-adv-x="880" d="M82 696q0 147 77 263t253 149v260h116v-250q139 0 252 -47q2 -12 2 -47q0 -115 -20 -182l-88 -11q-20 111 -28.5 140.5t-20.5 34.5q-29 8 -97 12v-615h13q127 0 239 76l54 -61q-133 -119 -306 -133v-285h-116v289q-162 25 -246 135.5t-84 271.5zM266 711q0 -207 146 -277 v576q-41 -8 -70 -43q-76 -92 -76 -256z" />
<glyph horiz-adv-x="1120" d="M102 160q0 119 25 250l117 6q16 -147 27.5 -190.5t29.5 -57.5q37 -25 115 -48.5t157 -23.5q106 0 170 47q78 57 78 160q0 100 -71.5 167t-173 106.5t-203 84t-173 127t-71.5 205.5q0 182 138.5 286.5t359.5 104.5q168 0 315 -55q6 -49 6 -104q0 -106 -22 -242l-119 -14 q-23 231 -55 258q-51 43 -193 43q-115 0 -184 -47q-76 -51 -76 -148q0 -70 39 -122t101.5 -84.5t139 -62.5t152.5 -63.5t138.5 -76.5t101.5 -117t39 -170q0 -180 -131 -288.5t-353 -108.5q-121 0 -241.5 29.5t-175.5 58.5q-6 25 -7 90zM510 -164v1745h117v-1745h-117z" />
<glyph d="M78 643v109h151q-10 66 -10 127q0 272 133 415.5t350 143.5q111 0 250 -52q2 -16 2 -49q0 -137 -26 -202l-94 -11q-8 96 -14.5 128t-20.5 44q-29 33 -133 33q-125 0 -172.5 -98t-47.5 -332q0 -74 7 -147h354v-109h-348q2 -25 2 -70q0 -229 -113 -366l6 -10q59 41 146 41 q66 0 179.5 -37t145.5 -37q12 0 24.5 2t25 8t19.5 9t21.5 14.5t18.5 14.5t21.5 18.5t19.5 17.5l72 -47q-29 -53 -44.5 -79t-49 -66t-76.5 -57t-99 -17q-61 0 -184 44t-209 44q-49 0 -93 -14.5t-66.5 -28t-69.5 -47.5l-52 67q74 82 113 153.5t46 112.5t7 99q0 88 -22 231 h-170z" />
<glyph d="M-49 1337l14 82h481l9 -84l-138 -37q-14 -2 -14 -14q0 -8 14 -33l213 -411q20 -35 21 -60h20l207 400q43 82 43 98q0 20 -25.5 31.5t-97.5 27.5l13 82h405l8 -86q-90 -18 -124.5 -39.5t-59.5 -70.5l-260 -508h-297l-291 534q-27 45 -48 58.5t-93 29.5zM156 393v109h770 v-109h-770zM156 643v109h770v-109h-770zM252 80q129 20 157.5 41.5t28.5 85.5v233l199 4v-286q0 -47 41 -54l158 -24l-9 -80h-563z" />
<glyph d="M35 504v104h667v-104h-344q33 -207 125 -307.5t213 -100.5q51 0 95.5 18.5t54.5 32.5q25 18 69 263l113 -4q0 -156 -22 -332q-51 -35 -156 -63.5t-213 -28.5q-219 0 -347 143t-163 379h-92zM35 754v104h92q16 117 54 216.5t102.5 183t166 132t230.5 48.5 q90 0 188.5 -20.5t128.5 -37.5q12 -76 13 -192q0 -49 -4 -152l-117 -16q-45 238 -80 262q-10 14 -62.5 30.5t-101.5 16.5q-131 0 -205.5 -127t-93.5 -344h356v-104h-667z" />
<glyph horiz-adv-x="1093" d="M66 539q0 270 130 430.5t363 160.5q223 0 346 -149.5t123 -409.5q0 -270 -130 -429.5t-363 -159.5q-223 0 -346 148.5t-123 408.5zM264 571q0 -211 76.5 -346t226.5 -135q119 0 176 72q37 47 61.5 151.5t24.5 227.5q0 211 -76.5 346t-226.5 135q-119 0 -176 -72 q-37 -47 -61.5 -151.5t-24.5 -227.5zM412 553q0 53 36.5 92t94.5 39q59 0 97 -31.5t38 -99.5q0 -55 -38 -95t-97 -40q-57 0 -94 33.5t-37 101.5z" />
<glyph d="M49 539q0 270 130 430.5t364 160.5q223 0 346 -149.5t123 -409.5q0 -270 -130.5 -429.5t-363.5 -159.5q-223 0 -346 148.5t-123 408.5zM248 571q0 -211 76.5 -346t226.5 -135q119 0 176 72q37 47 61.5 151.5t24.5 227.5q0 211 -77 346t-226 135q-119 0 -176 -72 q-37 -47 -61.5 -151.5t-24.5 -227.5zM395 559q0 53 37 92t94 39q59 0 97.5 -31.5t38.5 -99.5q0 -55 -38.5 -95t-97.5 -40q-57 0 -94 34t-37 101z" />
<glyph d="M31 662q0 299 140 511.5t378 212.5q223 0 354 -199.5t131 -481.5q0 -299 -141 -511t-379 -212q-223 0 -353 197.5t-130 482.5zM246 711q0 -307 83 -464t224 -157q266 0 266 543q0 307 -83 476t-228 169q-129 0 -195.5 -149.5t-66.5 -417.5zM395 688q0 53 37 92t94 39 q59 0 97.5 -31.5t38.5 -99.5q0 -55 -38.5 -95t-97.5 -40q-57 0 -94 34t-37 101z" />
<glyph horiz-adv-x="1134" d="M66 662q0 299 140 511.5t378 212.5q223 0 354 -199.5t131 -481.5q0 -299 -141 -511t-379 -212q-223 0 -353 197.5t-130 482.5zM281 711q0 -307 82.5 -464t224.5 -157q266 0 266 543q0 307 -83 476t-228 169q-129 0 -195.5 -149.5t-66.5 -417.5zM430 688q0 53 37 92t94 39 q59 0 97 -31.5t38 -99.5q0 -55 -38 -95t-97 -40q-57 0 -94 34t-37 101z" />
<glyph horiz-adv-x="782" d="M37 410q0 184 100.5 318t263.5 134q154 0 249 -125t95 -301q0 -182 -101 -315t-265 -133q-154 0 -248 124t-94 298zM219 440q0 -182 50 -276t134 -94q160 0 160 323q0 184 -50 286.5t-138 102.5q-156 0 -156 -342z" />
<glyph horiz-adv-x="546" d="M68 809q154 53 272 53l16 -14v-742v-9q0 -3 1 -6t4.5 -5t8.5 -3t13 -3l102 -17l-6 -63h-395l-8 63q78 12 104.5 27.5t26.5 44.5v529q0 63 -6 75.5t-33 12.5q-53 0 -90 -7z" />
<glyph horiz-adv-x="675" d="M16 0v86q211 168 314.5 297t103.5 235q0 68 -43 114t-131 46q-74 0 -102 -33q-23 -23 -31 -139l-90 8q-12 57 -12 113q0 49 2 64q43 33 120.5 52t143.5 19q160 0 245 -68.5t85 -177.5q0 -121 -102.5 -235.5t-342.5 -284.5l2 -10l125 4q168 4 176 8q25 4 53 125l82 -4v-39 q0 -111 -20 -180h-578z" />
<glyph horiz-adv-x="641" d="M2 14q15 132 23 183l90 6q6 -115 26 -121q37 -12 105 -12q72 0 120 44t48 115q0 176 -176 177q-20 0 -70 -5l4 74q111 16 162 68.5t51 115.5q0 55 -38 89t-95 34q-66 0 -90 -16q-25 -18 -35 -141l-88 8q-12 66 -12 104q0 51 2 68q102 57 243 57q125 0 203 -48t78 -132 q0 -66 -47 -122t-111 -81l2 -10q82 -12 141.5 -69.5t59.5 -147.5q0 -102 -103.5 -183t-267.5 -81q-139 0 -225 26z" />
<glyph horiz-adv-x="727" d="M10 317l414 529q94 16 143 16l15 -12v-522l137 -2l-12 -103h-125v-117q0 -23 26 -26l76 -17l-4 -63h-369l-8 63q78 12 103.5 26.5t25.5 45.5v88h-391zM131 342l4 -8l297 -6v348q0 27 4 39l-8 4l-274 -348q-4 -6 -12.5 -16.5t-10.5 -12.5z" />
<glyph horiz-adv-x="681" d="M37 20q4 88 24 185l86 6q12 -121 27 -127q20 -14 88 -14q86 0 140.5 56t54.5 144q0 76 -43 126t-129 50q-84 0 -164 -30l-49 49l28 385h480l14 -14q0 -57 -23 -103h-368l-17 -213q76 20 164 21q131 0 210 -66.5t79 -179.5q0 -135 -111.5 -221t-271.5 -86q-133 0 -219 32z " />
<glyph horiz-adv-x="702" d="M43 313q0 211 152.5 359.5t371.5 193.5l29 -69q-309 -106 -365 -314l11 -4q66 55 164 56q111 0 190.5 -73t79.5 -192q0 -121 -89 -201.5t-233 -80.5q-145 0 -228 88t-83 237zM211 326q0 -260 168 -260q49 0 82 32q45 52 45 156q0 88 -34 139t-89 51q-78 0 -133 -32 q-29 -14 -33 -50q-6 -20 -6 -36z" />
<glyph horiz-adv-x="614" d="M25 700q0 102 8 150h579v-90q-285 -422 -309 -768q-20 -4 -51 -4q-76 0 -131 20q23 125 130 341t241 384l-3 8l-233 -4q-94 -4 -106 -4q-10 -2 -17.5 -18.5t-23.5 -83.5l-82 6q-2 20 -2 63z" />
<glyph horiz-adv-x="702" d="M29 186q0 127 137 209q25 12 39 13v14q-10 0 -21 4q-123 66 -123 195q0 109 85 175t212 66q63 0 124 -15.5t113 -63.5t52 -124q0 -113 -104 -178q-18 -18 -45 -24v-11q2 0 8 -2t14 -6q160 -80 160 -209q0 -106 -92 -173.5t-244 -67.5q-49 0 -96 7t-100.5 26.5t-86 61.5 t-32.5 103zM176 203q0 -63 49 -99t129 -36q86 0 126 39t40 90q0 16 -3 30.5t-13 27.5t-17.5 22.5t-25 19.5t-27.5 17.5t-33.5 16.5t-33 13t-38 14.5t-36.5 14.5q-10 -6 -25.5 -16.5t-38 -32t-38 -53t-15.5 -68.5zM213 662q0 -33 13.5 -58.5t45 -47t58 -34t76.5 -33.5 q94 63 94 162q0 63 -41 99t-108.5 36t-102.5 -36.5t-35 -87.5z" />
<glyph horiz-adv-x="704" d="M29 584q0 117 88 197.5t223 80.5q150 0 237 -89t87 -236q0 -70 -18.5 -139.5t-60.5 -140.5t-103.5 -127t-157 -96t-209.5 -48l-11 69q295 61 365 303l-10 4q-61 -45 -160 -45q-111 0 -190.5 76t-79.5 191zM199 604q0 -96 44 -146t97 -50q63 0 113 26q29 18 34 49 q8 29 9 72q0 104 -40 167.5t-124 63.5q-53 0 -86 -34q-47 -48 -47 -148z" />
<glyph horiz-adv-x="1067" d="M12 76q61 14 74.5 23.5t26.5 43.5l352 971h131l365 -997q8 -25 94 -39l-6 -78h-406l-10 76q113 23 112 51q0 12 -6 33l-63 184h-381l-72 -203q-6 -14 -6 -24q0 -8 8 -11l115 -30l-6 -76h-311zM326 440h319l-139 416q-10 31 -10 45h-11z" />
<glyph horiz-adv-x="1064" d="M98 74q84 14 102.5 31.5t18.5 66.5v756q0 49 -18.5 66.5t-102.5 31.5l11 74h440q182 0 279.5 -69.5t97.5 -192.5q0 -98 -54.5 -166t-113.5 -86v-11q102 -20 170.5 -97t68.5 -171q0 -121 -99 -214t-304 -93h-485zM410 166q0 -43 22 -55q16 -16 90 -17q264 0 264 199 q0 123 -70.5 174t-162.5 51h-143v-352zM410 614h82q229 0 229 205q0 184 -213 185h-98v-390z" />
<glyph horiz-adv-x="1048" d="M78 565q0 92 30.5 184.5t93 176.5t174 136t255.5 52q178 0 342 -82q2 -18 2 -63q0 -141 -25 -234l-123 -14q-18 168 -25 204t-20 44q-57 49 -155 49q-166 0 -252 -125t-86 -328q0 -240 114.5 -361.5t264.5 -121.5q45 0 87 11t50 24q31 55 49 205l111 -7q18 -88 18 -196 q0 -37 -4 -74q-39 -20 -147.5 -39.5t-176.5 -19.5q-160 0 -275.5 46t-180 129t-93 182t-28.5 222z" />
<glyph horiz-adv-x="1212" d="M98 74q84 14 102.5 31.5t18.5 66.5v756q0 49 -18.5 66.5t-102.5 31.5l11 74h518q141 0 245.5 -44t162 -120t84 -163t26.5 -189q0 -86 -18.5 -167t-60.5 -158t-104.5 -133t-158.5 -91t-213 -35h-481zM410 160q0 -35 34 -43q88 -20 152 -21q168 0 254 122t86 327 q0 127 -33 221t-87 143t-110.5 72t-115.5 23h-180v-844z" />
<glyph horiz-adv-x="976" d="M98 74q84 14 102.5 31.5t18.5 66.5v756q0 49 -18.5 66.5t-102.5 31.5l11 74h735q10 -66 10 -137q0 -51 -4 -121l-102 -13q-23 111 -32 138.5t-22 29.5q-63 4 -98 7l-186 4v-410h190q20 0 51 113l62 -4q0 -162 22 -326l-69 -10q-25 86 -34 108.5t-20 22.5h-202v-410l120 2 q164 2 218 10q29 12 79 197l88 -10q2 -25 3 -82q0 -137 -27 -209h-782z" />
<glyph horiz-adv-x="905" d="M98 74q84 14 102.5 31.5t18.5 66.5v756q0 49 -18.5 66.5t-102.5 31.5l11 74h735q10 -66 10 -137q0 -51 -4 -121l-102 -13q-23 111 -32 138.5t-22 29.5q-63 4 -98 7l-186 4v-424h190q20 0 51 112l62 -4q0 -162 22 -325l-69 -11q-25 86 -34 108.5t-20 22.5h-202v-354 q0 -37 32 -41l162 -18l-6 -74h-489z" />
<glyph horiz-adv-x="1146" d="M68 565q0 92 32.5 185.5t96 176.5t175 135t255.5 52q162 0 348 -65v-45q0 -154 -23 -238l-123 -14q-26 211 -35 225q-3 4 -8 8q-41 33 -163 33q-168 0 -256 -122t-88 -331q0 -246 115.5 -364.5t254.5 -118.5q88 0 144 18v222q0 49 -18.5 66.5t-102.5 31.5l10 61h410 l6 -61l-82 -21q-33 -6 -33 -41v-327q-207 -45 -369 -45q-283 0 -414.5 161.5t-131.5 417.5z" />
<glyph horiz-adv-x="1292" d="M98 74q84 14 102.5 31.5t18.5 66.5v768q0 47 -16.5 59.5t-104.5 26.5l11 74h426l6 -74l-99 -18q-33 -6 -32 -41v-330h473v303q0 47 -16.5 59.5t-104.5 26.5l10 74h426l6 -74l-98 -18q-33 -6 -33 -41v-834q0 -35 33 -41l98 -18l-6 -74h-426l-10 74q84 14 102.5 31.5 t18.5 66.5v358h-473v-397q0 -35 32 -41l99 -18l-6 -74h-426z" />
<glyph horiz-adv-x="628" d="M98 74q84 14 102.5 31.5t18.5 66.5v756q0 49 -18.5 66.5t-102.5 31.5l11 74h426l6 -74l-99 -18q-33 -6 -32 -41v-834q0 -35 32 -41l99 -18l-6 -74h-426z" />
<glyph horiz-adv-x="632" d="M-12 -150q0 61 32 113q70 -18 105 -18q31 0 49 12q47 33 47 301v672q0 47 -24.5 65.5t-112.5 32.5l10 72h459l6 -72l-115 -20q-32 -6 -32 -31v-774q0 -152 -90.5 -282t-184.5 -130q-86 0 -145 14q-4 12 -4 45z" />
<glyph horiz-adv-x="1118" d="M98 74q84 14 102.5 31.5t18.5 66.5v756q0 49 -18.5 66.5t-102.5 31.5l11 74h426l6 -74l-99 -18q-32 -6 -32 -41v-394l358 379q25 25 25 37q0 31 -123 37l10 74h358l6 -78q-76 -4 -124 -53l-310 -328l348 -502q23 -33 53.5 -47t94.5 -18l-10 -74h-283l-338 502l-65 -70 v-299q0 -35 32 -41l88 -18l-6 -74h-415z" />
<glyph horiz-adv-x="933" d="M98 74q84 14 102.5 31.5t18.5 66.5v756q0 49 -18.5 66.5t-102.5 31.5l11 74h426l6 -74l-99 -18q-33 -6 -32 -41v-875l127 2q168 2 194 12q29 8 74 244l98 -8q2 -27 2 -92q0 -86 -16 -250h-780z" />
<glyph horiz-adv-x="1468" d="M53 74q86 16 105.5 29.5t21.5 60.5l47 764q2 51 -18.5 66.5t-102.5 31.5l9 74h331l267 -750q4 -10 12 -39h16q4 20 9 31l276 758h336l6 -74l-98 -18q-33 -4 -33 -37v-8l51 -830q0 -35 31 -41l100 -18l-6 -74h-438l-10 74q78 12 100 29.5t22 56.5v12l-24 674q0 35 6 59 l-14 4l-303 -835h-136l-280 780q-6 25 -6 45h-15l-32 -719q0 -41 10 -63.5t47 -28.5l74 -14l-6 -74h-347z" />
<glyph horiz-adv-x="1181" d="M63 74q84 14 102.5 31.5t18.5 66.5v756q0 49 -18.5 66.5t-102.5 31.5l11 74h317l477 -715q23 -33 27 -57h12v569q0 72 -26.5 95.5t-126.5 33.5l10 74h371l6 -74l-99 -18q-31 -6 -30 -41v-967l-109 -8l-575 852q-25 37 -27 59h-12v-733q0 -41 14 -59.5t55 -22.5l111 -14 l-6 -74h-389z" />
<glyph horiz-adv-x="1191" d="M68 537q0 262 143 419.5t397 157.5q246 0 381 -145.5t135 -390.5q0 -270 -143 -431t-397 -161q-246 0 -381 148.5t-135 402.5zM279 563q0 -219 84.5 -356t246.5 -137q158 0 230.5 137t72.5 344q0 213 -85 346t-244 133q-158 0 -231.5 -134t-73.5 -333z" />
<glyph horiz-adv-x="1005" d="M98 74q84 14 102.5 31.5t18.5 66.5v756q0 49 -18.5 66.5t-102.5 31.5l11 74h479q180 0 270 -81t90 -218q0 -164 -113.5 -272.5t-326.5 -108.5h-98v-287q0 -37 32 -41l162 -18l-6 -74h-489zM410 516h69q104 0 182 58.5t78 205.5q1 224 -198 224h-99q-33 0 -32 -37v-451z " />
<glyph horiz-adv-x="1191" d="M68 537q0 262 143 419.5t397 157.5q246 0 381 -145.5t135 -390.5q0 -256 -129 -414t-346 -168l-2 -8q225 -98 297 -99q49 0 117 74l53 -39q-55 -94 -94 -130t-84 -36q-35 0 -107 27l-251 90q-45 16 -76 16q-23 0 -46.5 -13t-35.5 -24.5t-39 -39.5l-53 36q53 88 104 152 q-168 37 -266 177.5t-98 357.5zM279 563q0 -219 84.5 -356t246.5 -137q158 0 230.5 137t72.5 344q0 213 -85 346t-244 133q-158 0 -231.5 -134t-73.5 -333z" />
<glyph horiz-adv-x="1085" d="M98 74q84 14 102.5 31.5t18.5 66.5v756q0 49 -18.5 66.5t-102.5 31.5l11 74h475q340 0 340 -266q0 -84 -59.5 -175.5t-159.5 -138.5v-8q12 -2 26 -27l205 -346q23 -33 50.5 -47t86.5 -18l-10 -74h-268l-287 477h-98v-344q0 -35 32 -41l88 -18l-6 -74h-415zM410 569h69 q119 0 180.5 52.5t61.5 193.5q0 188 -201 189h-82q-25 0 -28 -33v-402z" />
<glyph horiz-adv-x="876" d="M84 109q0 129 18 215l121 10q12 -131 20.5 -166t22.5 -43q61 -39 172 -39q82 0 127 35q51 43 51 123q0 70 -54 122t-132 90t-155.5 78.5t-132 110.5t-54.5 164q0 139 109.5 222t287.5 83q159 0 265 -61q2 -12 2 -37q0 -113 -27 -201l-107 -10q-10 152 -40 176 q-37 33 -138 33q-80 0 -127 -37q-53 -37 -53 -107q0 -63 56.5 -112t136 -87t158.5 -81t135.5 -118t56.5 -173q0 -143 -106.5 -228t-299.5 -85q-180 0 -309 47q-4 20 -4 76z" />
<glyph horiz-adv-x="956" d="M29 856q0 135 39 244h821q31 -88 39 -244l-92 -10q-33 115 -41.5 134t-24.5 21q-37 6 -96 7h-101v-875q0 -35 31 -41l125 -18l-8 -74h-473l-10 74q100 16 122.5 32.5t22.5 65.5v836h-100q-61 0 -99 -7q-14 -2 -22 -21t-41 -134z" />
<glyph horiz-adv-x="1234" d="M92 1026l10 74h426l7 -74l-99 -18q-33 -6 -33 -41v-570q0 -156 58.5 -230.5t195.5 -74.5q133 0 201 83t68 198v526q0 70 -27 93.5t-127 33.5l10 74h375l6 -74l-98 -18q-33 -6 -33 -41v-576q0 -186 -106.5 -295.5t-296.5 -109.5q-209 0 -312.5 96t-103.5 297v549 q0 49 -18.5 66.5t-102.5 31.5z" />
<glyph horiz-adv-x="1073" d="M12 1026l11 74h415l6 -76l-112 -31q-12 -2 -13 -10q0 -4 9 -25l231 -675q14 -39 14 -56h17l235 664q23 68 23 82q0 31 -117 53l8 74h322l6 -78q-66 -12 -86 -28.5t-35 -59.5l-346 -948h-129l-352 970q-12 35 -29.5 45.5t-77.5 24.5z" />
<glyph horiz-adv-x="1536" d="M6 1026l10 74h398l6 -76l-86 -29q-12 -4 -12 -12l1 -4q1 -4 3 -9t2 -9l209 -685l14 -53h14l170 502l-67 231q-2 10 -6.5 17.5t-6.5 12.5t-8 10l-9 8q-3 2 -13.5 6t-14.5 5t-19.5 5t-21.5 6l13 74h376l7 -76l-111 -29q-12 -4 -12 -12l1 -4q1 -4 3 -9t2 -9l196 -685 q14 -39 15 -53h16l211 668q16 53 17 78q0 37 -119 57l10 74h336l6 -78q-66 -14 -88.5 -30.5t-36.5 -57.5l-324 -948h-135l-159 540q-6 31 -7 33h-10q0 -6 -8 -31l-188 -542h-138l-325 970q-12 33 -30.5 44.5t-80.5 25.5z" />
<glyph horiz-adv-x="1058" d="M20 76q57 14 75 25.5t40 41.5l283 394l-283 419q-23 35 -39 46.5t-69 23.5l12 74h424l6 -76l-107 -29q-12 -4 -12 -12t12 -25l166 -245q16 -23 17 -49h14l168 239q41 57 41 73.5t-21.5 26t-82.5 23.5l10 74h325l7 -78q-14 -2 -26.5 -5t-24 -7t-17.5 -7.5t-14.5 -9.5 t-11.5 -8t-10 -10t-9 -11l-9 -14q-7 -10 -10 -14l-253 -342l321 -475q18 -27 96 -41l-6 -78h-416l-10 76q83 15 93 34q3 6 3 13q0 12 -12 31l-176 262q-16 25 -16 47h-17l-225 -318q-12 -23 -12 -28q0 -10 14 -17l90 -24l-6 -76h-311z" />
<glyph horiz-adv-x="1046" d="M12 1026l11 74h423l7 -76l-109 -29q-10 -4 -10 -12q0 -4 10 -25l201 -315q14 -23 14 -55h16l189 315q33 53 33 76q0 16 -19.5 24.5t-77.5 22.5l11 74h325l6 -78q-70 -14 -98.5 -31.5t-50.5 -54.5l-266 -455v-348q0 -37 32 -41l123 -18l-6 -74h-477l-8 74 q100 16 122.5 32.5t22.5 65.5v289l-313 495q-20 35 -37.5 45.5t-73.5 24.5z" />
<glyph horiz-adv-x="1009" d="M68 0v53l565 908q20 29 35 36l-4 11h-123q-168 0 -224 -11q-24 1 -65 -198l-113 10q-4 66 -4 115q0 86 15 176h780l-2 -53l-566 -908q-20 -29 -34 -35l2 -12l73 2q305 6 347 12q29 8 69 207l115 -8q2 -16 2 -53q0 -154 -27 -252h-841z" />
<glyph horiz-adv-x="782" d="M37 979q0 184 100.5 318.5t263.5 134.5q154 0 249 -125t95 -301q0 -182 -101 -315.5t-265 -133.5q-154 0 -248 124t-94 298zM219 1010q0 -182 50 -276.5t134 -94.5q160 0 160 324q0 184 -50 286.5t-138 102.5q-156 0 -156 -342z" />
<glyph horiz-adv-x="546" d="M68 1378q154 53 272 54l16 -15v-741v-9q0 -3 1 -6.5t4.5 -5.5t8.5 -3t13 -3l102 -16l-6 -64h-395l-8 64q78 12 104.5 27.5t26.5 44.5v528q0 63 -6 75.5t-33 12.5q-53 0 -90 -6z" />
<glyph horiz-adv-x="675" d="M16 569v86q211 168 314.5 297t103.5 236q0 68 -43 114t-131 46q-74 0 -102 -33q-23 -23 -31 -139l-90 8q-12 57 -12 112q0 49 2 64q43 33 120.5 52.5t143.5 19.5q160 0 245 -69t85 -177q0 -121 -102.5 -235.5t-342.5 -284.5l2 -11l125 4q168 4 176 9q25 4 53 125l82 -5 v-38q0 -111 -20 -181h-578z" />
<glyph horiz-adv-x="641" d="M2 584q15 131 23 182l90 6q6 -115 26 -121q37 -12 105 -12q72 0 120 44t48 116q0 176 -176 176q-20 0 -70 -4l4 73q111 16 162 68.5t51 116.5q0 55 -38 89t-95 34q-66 0 -90 -17q-25 -18 -35 -141l-88 8q-12 66 -12 105q0 51 2 67q102 57 243 58q125 0 203 -48.5 t78 -132.5q0 -66 -47 -122t-111 -80l2 -11q82 -12 141.5 -69.5t59.5 -147.5q0 -102 -103.5 -183t-267.5 -81q-139 0 -225 27z" />
<glyph horiz-adv-x="727" d="M10 887l414 528q94 16 143 17l15 -13v-522l137 -2l-12 -102h-125v-117q0 -23 26 -27l76 -16l-4 -64h-369l-8 64q78 12 103.5 26.5t25.5 45.5v88h-391zM131 911l4 -8l297 -6v348q0 27 4 39l-8 4l-274 -348q-4 -6 -12.5 -16.5t-10.5 -12.5z" />
<glyph horiz-adv-x="681" d="M37 590q4 88 24 184l86 6q12 -121 27 -127q20 -14 88 -14q86 0 140.5 56.5t54.5 144.5q0 76 -43 126t-129 50q-84 0 -164 -31l-49 49l28 385h480l14 -14q0 -57 -23 -102h-368l-17 -213q76 20 164 20q131 0 210 -66.5t79 -179.5q0 -135 -111.5 -221t-271.5 -86 q-133 0 -219 33z" />
<glyph horiz-adv-x="702" d="M43 883q0 211 152.5 359.5t371.5 193.5l29 -70q-309 -106 -365 -313l11 -4q66 55 164 55q111 0 190.5 -72.5t79.5 -191.5q0 -121 -89 -202t-233 -81q-145 0 -228 88t-83 238zM211 895q0 -260 168 -260q49 0 82 33q45 51 45 155q0 88 -34 139.5t-89 51.5q-78 0 -133 -33 q-29 -14 -33 -49q-6 -20 -6 -37z" />
<glyph horiz-adv-x="614" d="M25 1270q0 102 8 149h579v-90q-285 -422 -309 -768q-20 -4 -51 -4q-76 1 -131 21q23 125 130 341t241 384l-3 8l-233 -4q-94 -4 -106 -4q-10 -2 -17.5 -18.5t-23.5 -84.5l-82 6q-2 20 -2 64z" />
<glyph horiz-adv-x="702" d="M29 756q0 127 137 209q25 12 39 12v14q-10 0 -21 4q-123 66 -123 195q0 109 85 175.5t212 66.5q63 0 124 -15.5t113 -63.5t52 -124q0 -113 -104 -178q-18 -18 -45 -25v-10q2 0 8 -2t14 -6q160 -80 160 -209q0 -106 -92 -174t-244 -68q-49 0 -96 7t-100.5 26.5t-86 61.5 t-32.5 104zM176 772q0 -63 49 -99t129 -36q86 0 126 39t40 90q0 16 -3 30.5t-13 28t-17.5 22.5t-25 19.5t-27.5 17.5t-33.5 16t-33 13.5t-38 14.5t-36.5 14q-10 -6 -25.5 -16.5t-38 -32t-38 -53t-15.5 -68.5zM213 1231q0 -33 13.5 -58.5t45 -47t58 -34t76.5 -32.5 q94 63 94 162q0 63 -41 99t-108.5 36t-102.5 -37t-35 -88z" />
<glyph horiz-adv-x="704" d="M29 1153q0 117 88 198t223 81q150 0 237 -89.5t87 -236.5q0 -70 -18.5 -139.5t-60.5 -140t-103.5 -127t-157 -96.5t-209.5 -48l-11 70q295 61 365 303l-10 4q-61 -45 -160 -45q-111 0 -190.5 75.5t-79.5 190.5zM199 1174q0 -96 44 -146.5t97 -50.5q63 0 113 27 q29 18 34 49q8 29 9 71q0 104 -40 168t-124 64q-53 0 -86 -35q-47 -47 -47 -147z" />
<glyph horiz-adv-x="1067" d="M12 76q61 14 74.5 23.5t26.5 43.5l352 971h131l365 -997q8 -25 94 -39l-6 -78h-406l-10 76q113 23 112 51q0 12 -6 33l-63 184h-381l-72 -203q-6 -14 -6 -24q0 -8 8 -11l115 -30l-6 -76h-311zM180 1462l123 105l356 -264l-51 -74l-411 190zM326 440h319l-139 416 q-10 31 -10 45h-11z" />
<glyph horiz-adv-x="1067" d="M12 76q61 14 74.5 23.5t26.5 43.5l352 971h131l365 -997q8 -25 94 -39l-6 -78h-406l-10 76q113 23 112 51q0 12 -6 33l-63 184h-381l-72 -203q-6 -14 -6 -24q0 -8 8 -11l115 -30l-6 -76h-311zM326 440h319l-139 416q-10 31 -10 45h-11zM328 1303l356 264l123 -105 l-16 -43l-412 -190z" />
<glyph horiz-adv-x="1067" d="M12 76q61 14 74.5 23.5t26.5 43.5l352 971h131l365 -997q8 -25 94 -39l-6 -78h-406l-10 76q113 23 112 51q0 12 -6 33l-63 184h-381l-72 -203q-6 -14 -6 -24q0 -8 8 -11l115 -30l-6 -76h-311zM203 1282l278 285h115l278 -285l-51 -53l-284 186l-285 -186zM326 440h319 l-139 416q-10 31 -10 45h-11z" />
<glyph horiz-adv-x="1067" d="M12 76q61 14 74.5 23.5t26.5 43.5l352 971h131l365 -997q8 -25 94 -39l-6 -78h-406l-10 76q113 23 112 51q0 12 -6 33l-63 184h-381l-72 -203q-6 -14 -6 -24q0 -8 8 -11l115 -30l-6 -76h-311zM174 1307q66 109 113 152.5t98 43.5q43 0 175 -27.5t173 -27.5q61 0 129 72 l51 -25q-43 -94 -87 -150.5t-101 -56.5q-35 0 -171 27.5t-185 27.5q-78 0 -148 -69zM326 440h319l-139 416q-10 31 -10 45h-11z" />
<glyph horiz-adv-x="1067" d="M12 76q61 14 74.5 23.5t26.5 43.5l352 971h131l365 -997q8 -25 94 -39l-6 -78h-406l-10 76q113 23 112 51q0 12 -6 33l-63 184h-381l-72 -203q-6 -14 -6 -24q0 -8 8 -11l115 -30l-6 -76h-311zM233 1397q0 45 30 77.5t77 32.5q109 0 109 -110q0 -47 -31 -81t-78 -34 q-106 0 -107 115zM326 440h319l-139 416q-10 31 -10 45h-11zM629 1397q0 45 29.5 77.5t76.5 32.5q109 0 109 -110q0 -47 -31 -81t-78 -34q-106 0 -106 115z" />
<glyph horiz-adv-x="1067" d="M12 76q61 14 74.5 23.5t26.5 43.5l352 971h131l365 -997q8 -25 94 -39l-6 -78h-406l-10 76q113 23 112 51q0 12 -6 33l-63 184h-381l-72 -203q-6 -14 -6 -24q0 -8 8 -11l115 -30l-6 -76h-311zM326 440h319l-139 416q-10 31 -10 45h-11zM332 1389q0 84 60.5 136t146.5 52 q82 0 139 -49t57 -129q0 -84 -60.5 -137.5t-146.5 -53.5q-84 0 -140 48.5t-56 132.5zM432 1389q0 -43 26.5 -68t69.5 -25q45 0 75 29t30 74q0 41 -26.5 65.5t-67.5 24.5q-106 0 -107 -100z" />
<glyph horiz-adv-x="1048" d="M78 565q0 92 30.5 184.5t93 176.5t174 136t255.5 52q178 0 342 -82q2 -18 2 -63q0 -141 -25 -234l-123 -14q-18 168 -25 204t-20 44q-57 49 -155 49q-166 0 -252 -125t-86 -328q0 -240 114.5 -361.5t264.5 -121.5q45 0 87 11t50 24q31 55 49 205l111 -7q18 -88 18 -196 q0 -37 -4 -74q-39 -20 -147.5 -39.5t-176.5 -19.5q-160 0 -275.5 46t-180 129t-93 182t-28.5 222zM471 -182l78 264l100 -27l-65 -231zM471 -182l98 76q45 14 93 14q82 0 128 -35t46 -96q0 -86 -95.5 -149.5t-259.5 -71.5l-8 63q195 27 195 119q0 33 -25 55.5t-70 22.5 q-47 0 -84 -21z" />
<glyph horiz-adv-x="976" d="M98 74q84 14 102.5 31.5t18.5 66.5v756q0 49 -18.5 66.5t-102.5 31.5l11 74h735q10 -66 10 -137q0 -51 -4 -121l-102 -13q-23 111 -32 138.5t-22 29.5q-63 4 -98 7l-186 4v-410h190q20 0 51 113l62 -4q0 -162 22 -326l-69 -10q-25 86 -34 108.5t-20 22.5h-202v-410l120 2 q164 2 218 10q29 12 79 197l88 -10q2 -25 3 -82q0 -137 -27 -209h-782zM162 1462l123 105l356 -264l-51 -74l-412 190z" />
<glyph horiz-adv-x="976" d="M98 74q84 14 102.5 31.5t18.5 66.5v756q0 49 -18.5 66.5t-102.5 31.5l11 74h735q10 -66 10 -137q0 -51 -4 -121l-102 -13q-23 111 -32 138.5t-22 29.5q-63 4 -98 7l-186 4v-410h190q20 0 51 113l62 -4q0 -162 22 -326l-69 -10q-25 86 -34 108.5t-20 22.5h-202v-410l120 2 q164 2 218 10q29 12 79 197l88 -10q2 -25 3 -82q0 -137 -27 -209h-782zM309 1303l357 264l122 -105l-16 -43l-412 -190z" />
<glyph horiz-adv-x="976" d="M98 74q84 14 102.5 31.5t18.5 66.5v756q0 49 -18.5 66.5t-102.5 31.5l11 74h735q10 -66 10 -137q0 -51 -4 -121l-102 -13q-23 111 -32 138.5t-22 29.5q-63 4 -98 7l-186 4v-410h190q20 0 51 113l62 -4q0 -162 22 -326l-69 -10q-25 86 -34 108.5t-20 22.5h-202v-410l120 2 q164 2 218 10q29 12 79 197l88 -10q2 -25 3 -82q0 -137 -27 -209h-782zM156 1282l278 285h115l278 -285l-51 -53l-284 186l-285 -186z" />
<glyph horiz-adv-x="976" d="M98 74q84 14 102.5 31.5t18.5 66.5v756q0 49 -18.5 66.5t-102.5 31.5l11 74h735q10 -66 10 -137q0 -51 -4 -121l-102 -13q-23 111 -32 138.5t-22 29.5q-63 4 -98 7l-186 4v-410h190q20 0 51 113l62 -4q0 -162 22 -326l-69 -10q-25 86 -34 108.5t-20 22.5h-202v-410l120 2 q164 2 218 10q29 12 79 197l88 -10q2 -25 3 -82q0 -137 -27 -209h-782zM186 1397q0 45 30 77.5t77 32.5q109 0 108 -110q0 -47 -30.5 -81t-77.5 -34q-106 0 -107 115zM582 1397q0 45 29.5 77.5t76.5 32.5q109 0 109 -110q0 -47 -31 -81t-78 -34q-106 0 -106 115z" />
<glyph horiz-adv-x="628" d="M0 1462l123 105l356 -264l-51 -74l-412 190zM98 74q84 14 102.5 31.5t18.5 66.5v756q0 49 -18.5 66.5t-102.5 31.5l11 74h426l6 -74l-99 -18q-33 -6 -32 -41v-834q0 -35 32 -41l99 -18l-6 -74h-426z" />
<glyph horiz-adv-x="628" d="M98 74q84 14 102.5 31.5t18.5 66.5v756q0 49 -18.5 66.5t-102.5 31.5l11 74h426l6 -74l-99 -18q-33 -6 -32 -41v-834q0 -35 32 -41l99 -18l-6 -74h-426zM117 1303l356 264l123 -105l-16 -43l-412 -190z" />
<glyph horiz-adv-x="628" d="M-12 1282l278 285h115l278 -285l-51 -53l-284 186l-285 -186zM98 74q84 14 102.5 31.5t18.5 66.5v756q0 49 -18.5 66.5t-102.5 31.5l11 74h426l6 -74l-99 -18q-33 -6 -32 -41v-834q0 -35 32 -41l99 -18l-6 -74h-426z" />
<glyph horiz-adv-x="628" d="M16 1397q0 45 30 77.5t77 32.5q109 0 108 -110q0 -47 -30.5 -81t-77.5 -34q-106 0 -107 115zM98 74q84 14 102.5 31.5t18.5 66.5v756q0 49 -18.5 66.5t-102.5 31.5l11 74h426l6 -74l-99 -18q-33 -6 -32 -41v-834q0 -35 32 -41l99 -18l-6 -74h-426zM412 1397 q0 45 29.5 77.5t76.5 32.5q109 0 109 -110q0 -47 -31 -81t-78 -34q-106 0 -106 115z" />
<glyph horiz-adv-x="1181" d="M63 74q84 14 102.5 31.5t18.5 66.5v756q0 49 -18.5 66.5t-102.5 31.5l11 74h317l477 -715q23 -33 27 -57h12v569q0 72 -26.5 95.5t-126.5 33.5l10 74h371l6 -74l-99 -18q-31 -6 -30 -41v-967l-109 -8l-575 852q-25 37 -27 59h-12v-733q0 -41 14 -59.5t55 -22.5l111 -14 l-6 -74h-389zM205 1307q66 109 113 152.5t98 43.5q43 0 175 -27.5t173 -27.5q61 0 129 72l51 -25q-43 -94 -87 -150.5t-101 -56.5q-35 0 -171 27.5t-186 27.5q-78 0 -147 -69z" />
<glyph horiz-adv-x="1191" d="M68 537q0 262 143 419.5t397 157.5q246 0 381 -145.5t135 -390.5q0 -270 -143 -431t-397 -161q-246 0 -381 148.5t-135 402.5zM272 1462l123 105l357 -264l-52 -74l-411 190zM279 563q0 -219 84.5 -356t246.5 -137q158 0 230.5 137t72.5 344q0 213 -85 346t-244 133 q-158 0 -231.5 -134t-73.5 -333z" />
<glyph horiz-adv-x="1191" d="M68 537q0 262 143 419.5t397 157.5q246 0 381 -145.5t135 -390.5q0 -270 -143 -431t-397 -161q-246 0 -381 148.5t-135 402.5zM279 563q0 -219 84.5 -356t246.5 -137q158 0 230.5 137t72.5 344q0 213 -85 346t-244 133q-158 0 -231.5 -134t-73.5 -333zM393 1303l357 264 l122 -105l-16 -43l-412 -190z" />
<glyph horiz-adv-x="1191" d="M68 537q0 262 143 419.5t397 157.5q246 0 381 -145.5t135 -390.5q0 -270 -143 -431t-397 -161q-246 0 -381 148.5t-135 402.5zM254 1282l278 285h115l279 -285l-52 -53l-284 186l-285 -186zM279 563q0 -219 84.5 -356t246.5 -137q158 0 230.5 137t72.5 344q0 213 -85 346 t-244 133q-158 0 -231.5 -134t-73.5 -333z" />
<glyph horiz-adv-x="1191" d="M68 537q0 262 143 419.5t397 157.5q246 0 381 -145.5t135 -390.5q0 -270 -143 -431t-397 -161q-246 0 -381 148.5t-135 402.5zM240 1307q66 109 112.5 152.5t98.5 43.5q43 0 175 -27.5t173 -27.5q61 0 129 72l51 -25q-43 -94 -87 -150.5t-101 -56.5q-35 0 -171.5 27.5 t-185.5 27.5q-78 0 -147 -69zM279 563q0 -219 84.5 -356t246.5 -137q158 0 230.5 137t72.5 344q0 213 -85 346t-244 133q-158 0 -231.5 -134t-73.5 -333z" />
<glyph horiz-adv-x="1191" d="M68 537q0 262 143 419.5t397 157.5q246 0 381 -145.5t135 -390.5q0 -270 -143 -431t-397 -161q-246 0 -381 148.5t-135 402.5zM279 563q0 -219 84.5 -356t246.5 -137q158 0 230.5 137t72.5 344q0 213 -85 346t-244 133q-158 0 -231.5 -134t-73.5 -333zM295 1397 q0 45 29.5 77.5t76.5 32.5q109 0 109 -110q0 -47 -31 -81t-78 -34q-106 0 -106 115zM690 1397q0 45 30 77.5t77 32.5q109 0 108 -110q0 -47 -30.5 -81t-77.5 -34q-106 0 -107 115z" />
<glyph horiz-adv-x="1191" d="M68 537q0 262 143 419.5t397 157.5q246 0 381 -145.5t135 -390.5q0 -270 -143 -431t-397 -161q-246 0 -381 148.5t-135 402.5zM209 -94l684 1337l113 -41l-687 -1337zM279 563q0 -219 84.5 -356t246.5 -137q158 0 230.5 137t72.5 344q0 213 -85 346t-244 133 q-158 0 -231.5 -134t-73.5 -333z" />
<glyph horiz-adv-x="1234" d="M92 1026l10 74h426l7 -74l-99 -18q-33 -6 -33 -41v-570q0 -156 58.5 -230.5t195.5 -74.5q133 0 201 83t68 198v526q0 70 -27 93.5t-127 33.5l10 74h375l6 -74l-98 -18q-33 -6 -33 -41v-576q0 -186 -106.5 -295.5t-296.5 -109.5q-209 0 -312.5 96t-103.5 297v549 q0 49 -18.5 66.5t-102.5 31.5zM303 1462l123 105l356 -264l-51 -74l-412 190z" />
<glyph horiz-adv-x="1234" d="M92 1026l10 74h426l7 -74l-99 -18q-33 -6 -33 -41v-570q0 -156 58.5 -230.5t195.5 -74.5q133 0 201 83t68 198v526q0 70 -27 93.5t-127 33.5l10 74h375l6 -74l-98 -18q-33 -6 -33 -41v-576q0 -186 -106.5 -295.5t-296.5 -109.5q-209 0 -312.5 96t-103.5 297v549 q0 49 -18.5 66.5t-102.5 31.5zM432 1303l356 264l123 -105l-16 -43l-412 -190z" />
<glyph horiz-adv-x="1234" d="M92 1026l10 74h426l7 -74l-99 -18q-33 -6 -33 -41v-570q0 -156 58.5 -230.5t195.5 -74.5q133 0 201 83t68 198v526q0 70 -27 93.5t-127 33.5l10 74h375l6 -74l-98 -18q-33 -6 -33 -41v-576q0 -186 -106.5 -295.5t-296.5 -109.5q-209 0 -312.5 96t-103.5 297v549 q0 49 -18.5 66.5t-102.5 31.5zM291 1282l278 285h115l279 -285l-52 -53l-284 186l-285 -186z" />
<glyph horiz-adv-x="1234" d="M92 1026l10 74h426l7 -74l-99 -18q-33 -6 -33 -41v-570q0 -156 58.5 -230.5t195.5 -74.5q133 0 201 83t68 198v526q0 70 -27 93.5t-127 33.5l10 74h375l6 -74l-98 -18q-33 -6 -33 -41v-576q0 -186 -106.5 -295.5t-296.5 -109.5q-209 0 -312.5 96t-103.5 297v549 q0 49 -18.5 66.5t-102.5 31.5zM340 1397q0 45 29.5 77.5t76.5 32.5q109 0 109 -110q0 -47 -31 -81t-78 -34q-106 0 -106 115zM735 1397q0 45 30 77.5t77 32.5q109 0 108 -110q0 -47 -30.5 -81t-77.5 -34q-106 0 -107 115z" />
<glyph horiz-adv-x="1046" d="M12 1026l11 74h423l7 -76l-109 -29q-10 -4 -10 -12q0 -4 10 -25l201 -315q14 -23 14 -55h16l189 315q33 53 33 76q0 16 -19.5 24.5t-77.5 22.5l11 74h325l6 -78q-70 -14 -98.5 -31.5t-50.5 -54.5l-266 -455v-348q0 -37 32 -41l123 -18l-6 -74h-477l-8 74 q100 16 122.5 32.5t22.5 65.5v289l-313 495q-20 35 -37.5 45.5t-73.5 24.5zM377 1303l356 264l123 -105l-16 -43l-412 -190z" />
<glyph horiz-adv-x="1046" d="M12 1026l11 74h423l7 -76l-109 -29q-10 -4 -10 -12q0 -4 10 -25l201 -315q14 -23 14 -55h16l189 315q33 53 33 76q0 16 -19.5 24.5t-77.5 22.5l11 74h325l6 -78q-70 -14 -98.5 -31.5t-50.5 -54.5l-266 -455v-348q0 -37 32 -41l123 -18l-6 -74h-477l-8 74 q100 16 122.5 32.5t22.5 65.5v289l-313 495q-20 35 -37.5 45.5t-73.5 24.5zM248 1397q0 45 29.5 77.5t76.5 32.5q109 0 109 -110q0 -47 -31 -81t-78 -34q-106 0 -106 115zM643 1397q0 45 29.5 77.5t77.5 32.5q109 0 108 -110q0 -47 -30.5 -81t-77.5 -34q-106 0 -107 115z " />
<glyph horiz-adv-x="1067" d="M12 76q61 14 74.5 23.5t26.5 43.5l352 971h131l365 -997q8 -25 94 -39l-6 -78h-406l-10 76q113 23 112 51q0 12 -6 33l-63 184h-381l-72 -203q-6 -14 -6 -24q0 -8 8 -11l115 -30l-6 -76h-311zM293 1331v123h510v-123h-510zM326 440h319l-139 416q-10 31 -10 45h-11z" />
<glyph horiz-adv-x="1067" d="M12 76q61 14 74.5 23.5t26.5 43.5l352 971h131l365 -997q8 -25 94 -39l-6 -78h-406l-10 76q113 23 112 51q0 12 -6 33l-63 184h-381l-72 -203q-6 -14 -6 -24q0 -8 8 -11l115 -30l-6 -76h-311zM240 1538h75q35 -147 229.5 -147t229.5 147h76q-8 -127 -84 -207t-221.5 -80 t-221 80t-83.5 207zM326 440h319l-139 416q-10 31 -10 45h-11z" />
<glyph horiz-adv-x="1067" d="M12 76q61 14 74.5 23.5t26.5 43.5l352 971h131l365 -997q8 -25 94 -39l-6 -78h-406l-10 76q113 23 112 51q0 12 -6 33l-63 184h-381l-72 -203q-6 -14 -6 -24q0 -8 8 -11l115 -30l-6 -76h-311zM326 440h319l-139 416q-10 31 -10 45h-11zM551 -248q0 90 84 177t248 139 l22 -41q-217 -106 -217 -254q0 -47 28.5 -76t71.5 -29q59 0 111 19l23 -37q-92 -84 -195 -84q-74 0 -125 50t-51 136z" />
<glyph horiz-adv-x="1048" d="M78 565q0 92 30.5 184.5t93 176.5t174 136t255.5 52q178 0 342 -82q2 -18 2 -63q0 -141 -25 -234l-123 -14q-18 168 -25 204t-20 44q-57 49 -155 49q-166 0 -252 -125t-86 -328q0 -240 114.5 -361.5t264.5 -121.5q45 0 87 11t50 24q31 55 49 205l111 -7q18 -88 18 -196 q0 -37 -4 -74q-39 -20 -147.5 -39.5t-176.5 -19.5q-160 0 -275.5 46t-180 129t-93 182t-28.5 222zM391 1303l357 264l122 -105l-16 -43l-412 -190z" />
<glyph horiz-adv-x="1048" d="M78 565q0 92 30.5 184.5t93 176.5t174 136t255.5 52q178 0 342 -82q2 -18 2 -63q0 -141 -25 -234l-123 -14q-18 168 -25 204t-20 44q-57 49 -155 49q-166 0 -252 -125t-86 -328q0 -240 114.5 -361.5t264.5 -121.5q45 0 87 11t50 24q31 55 49 205l111 -7q18 -88 18 -196 q0 -37 -4 -74q-39 -20 -147.5 -39.5t-176.5 -19.5q-160 0 -275.5 46t-180 129t-93 182t-28.5 222zM244 1282l278 285h115l278 -285l-51 -53l-284 186l-285 -186z" />
<glyph horiz-adv-x="1048" d="M78 565q0 92 30.5 184.5t93 176.5t174 136t255.5 52q178 0 342 -82q2 -18 2 -63q0 -141 -25 -234l-123 -14q-18 168 -25 204t-20 44q-57 49 -155 49q-166 0 -252 -125t-86 -328q0 -240 114.5 -361.5t264.5 -121.5q45 0 87 11t50 24q31 55 49 205l111 -7q18 -88 18 -196 q0 -37 -4 -74q-39 -20 -147.5 -39.5t-176.5 -19.5q-160 0 -275.5 46t-180 129t-93 182t-28.5 222zM215 1520l51 53l285 -187l285 187l51 -53l-279 -285h-114z" />
<glyph horiz-adv-x="1212" d="M98 74q84 14 102.5 31.5t18.5 66.5v756q0 49 -18.5 66.5t-102.5 31.5l11 74h518q141 0 245.5 -44t162 -120t84 -163t26.5 -189q0 -86 -18.5 -167t-60.5 -158t-104.5 -133t-158.5 -91t-213 -35h-481zM193 1520l51 53l284 -187l285 187l51 -53l-278 -285h-115zM410 160 q0 -35 34 -43q88 -20 152 -21q168 0 254 122t86 327q0 127 -33 221t-87 143t-110.5 72t-115.5 23h-180v-844z" />
<glyph horiz-adv-x="976" d="M98 74q84 14 102.5 31.5t18.5 66.5v756q0 49 -18.5 66.5t-102.5 31.5l11 74h735q10 -66 10 -137q0 -51 -4 -121l-102 -13q-23 111 -32 138.5t-22 29.5q-63 4 -98 7l-186 4v-410h190q20 0 51 113l62 -4q0 -162 22 -326l-69 -10q-25 86 -34 108.5t-20 22.5h-202v-410l120 2 q164 2 218 10q29 12 79 197l88 -10q2 -25 3 -82q0 -137 -27 -209h-782zM236 1331v123h509v-123h-509z" />
<glyph horiz-adv-x="976" d="M98 74q84 14 102.5 31.5t18.5 66.5v756q0 49 -18.5 66.5t-102.5 31.5l11 74h735q10 -66 10 -137q0 -51 -4 -121l-102 -13q-23 111 -32 138.5t-22 29.5q-63 4 -98 7l-186 4v-410h190q20 0 51 113l62 -4q0 -162 22 -326l-69 -10q-25 86 -34 108.5t-20 22.5h-202v-410l120 2 q164 2 218 10q29 12 79 197l88 -10q2 -25 3 -82q0 -137 -27 -209h-782zM184 1538h76q35 -147 229.5 -147t229.5 147h76q-8 -127 -84 -207t-221.5 -80t-221 80t-84.5 207z" />
<glyph horiz-adv-x="976" d="M98 74q84 14 102.5 31.5t18.5 66.5v756q0 49 -18.5 66.5t-102.5 31.5l11 74h735q10 -66 10 -137q0 -51 -4 -121l-102 -13q-23 111 -32 138.5t-22 29.5q-63 4 -98 7l-186 4v-410h190q20 0 51 113l62 -4q0 -162 22 -326l-69 -10q-25 86 -34 108.5t-20 22.5h-202v-410l120 2 q164 2 218 10q29 12 79 197l88 -10q2 -25 3 -82q0 -137 -27 -209h-782zM502 -248q0 90 84 177t248 139l22 -41q-217 -106 -217 -254q0 -47 28.5 -76t71.5 -29q59 0 111 19l22 -37q-92 -84 -194 -84q-74 0 -125 50t-51 136z" />
<glyph horiz-adv-x="976" d="M98 74q84 14 102.5 31.5t18.5 66.5v756q0 49 -18.5 66.5t-102.5 31.5l11 74h735q10 -66 10 -137q0 -51 -4 -121l-102 -13q-23 111 -32 138.5t-22 29.5q-63 4 -98 7l-186 4v-410h190q20 0 51 113l62 -4q0 -162 22 -326l-69 -10q-25 86 -34 108.5t-20 22.5h-202v-410l120 2 q164 2 218 10q29 12 79 197l88 -10q2 -25 3 -82q0 -137 -27 -209h-782zM174 1520l51 53l285 -187l285 187l51 -53l-279 -285h-114z" />
<glyph horiz-adv-x="1146" d="M68 565q0 92 32.5 185.5t96 176.5t175 135t255.5 52q162 0 348 -65v-45q0 -154 -23 -238l-123 -14q-26 211 -35 225q-3 4 -8 8q-41 33 -163 33q-168 0 -256 -122t-88 -331q0 -246 115.5 -364.5t254.5 -118.5q88 0 144 18v222q0 49 -18.5 66.5t-102.5 31.5l10 61h410 l6 -61l-82 -21q-33 -6 -33 -41v-327q-207 -45 -369 -45q-283 0 -414.5 161.5t-131.5 417.5zM233 1282l279 285h115l278 -285l-51 -53l-285 186l-284 -186z" />
<glyph horiz-adv-x="1146" d="M68 565q0 92 32.5 185.5t96 176.5t175 135t255.5 52q162 0 348 -65v-45q0 -154 -23 -238l-123 -14q-26 211 -35 225q-3 4 -8 8q-41 33 -163 33q-168 0 -256 -122t-88 -331q0 -246 115.5 -364.5t254.5 -118.5q88 0 144 18v222q0 49 -18.5 66.5t-102.5 31.5l10 61h410 l6 -61l-82 -21q-33 -6 -33 -41v-327q-207 -45 -369 -45q-283 0 -414.5 161.5t-131.5 417.5zM264 1538h76q35 -147 229.5 -147t229.5 147h75q-8 -127 -83.5 -207t-221 -80t-221.5 80t-84 207z" />
<glyph horiz-adv-x="1292" d="M98 74q84 14 102.5 31.5t18.5 66.5v768q0 47 -16.5 59.5t-104.5 26.5l11 74h426l6 -74l-99 -18q-33 -6 -32 -41v-330h473v303q0 47 -16.5 59.5t-104.5 26.5l10 74h426l6 -74l-98 -18q-33 -6 -33 -41v-834q0 -35 33 -41l98 -18l-6 -74h-426l-10 74q84 14 102.5 31.5 t18.5 66.5v358h-473v-397q0 -35 32 -41l99 -18l-6 -74h-426zM295 1282l278 285h115l279 -285l-52 -53l-284 186l-285 -186z" />
<glyph horiz-adv-x="1292" d="M98 74q84 14 102.5 31.5t18.5 66.5v768q0 47 -16.5 59.5t-104.5 26.5l11 74h426l6 -74l-99 -18q-33 -6 -32 -41v-330h473v303q0 47 -16.5 59.5t-104.5 26.5l10 74h426l6 -74l-98 -18q-33 -6 -33 -41v-834q0 -35 33 -41l98 -18l-6 -74h-426l-10 74q84 14 102.5 31.5 t18.5 66.5v358h-473v-397q0 -35 32 -41l99 -18l-6 -74h-426zM111 748v108h1069v-108h-1069z" />
<glyph horiz-adv-x="628" d="M-55 1307q66 109 112.5 152.5t98.5 43.5q43 0 175 -27.5t173 -27.5q61 0 129 72l51 -25q-43 -94 -87 -150.5t-101 -56.5q-35 0 -171.5 27.5t-185.5 27.5q-78 0 -147 -69zM98 74q84 14 102.5 31.5t18.5 66.5v756q0 49 -18.5 66.5t-102.5 31.5l11 74h426l6 -74l-99 -18 q-33 -6 -32 -41v-834q0 -35 32 -41l99 -18l-6 -74h-426z" />
<glyph horiz-adv-x="628" d="M66 1331v123h509v-123h-509zM98 74q84 14 102.5 31.5t18.5 66.5v756q0 49 -18.5 66.5t-102.5 31.5l11 74h426l6 -74l-99 -18q-33 -6 -32 -41v-834q0 -35 32 -41l99 -18l-6 -74h-426z" />
<glyph horiz-adv-x="628" d="M6 1538h76q35 -147 229.5 -147t229.5 147h75q-8 -127 -83.5 -207t-221 -80t-221.5 80t-84 207zM98 74q84 14 102.5 31.5t18.5 66.5v756q0 49 -18.5 66.5t-102.5 31.5l11 74h426l6 -74l-99 -18q-33 -6 -32 -41v-834q0 -35 32 -41l99 -18l-6 -74h-426z" />
<glyph horiz-adv-x="628" d="M86 -248q0 90 84 177t248 139l22 -41q-217 -106 -217 -254q0 -47 28 -76t73 -29q59 0 110 19l23 -37q-92 -84 -195 -84q-74 0 -125 50t-51 136zM98 74q84 14 102.5 31.5t18.5 66.5v756q0 49 -18.5 66.5t-102.5 31.5l11 74h426l6 -74l-99 -18q-33 -6 -32 -41v-834 q0 -35 32 -41l99 -18l-6 -74h-426z" />
<glyph horiz-adv-x="933" d="M98 74q84 14 102.5 31.5t18.5 66.5v756q0 49 -18.5 66.5t-102.5 31.5l11 74h426l6 -74l-99 -18q-33 -6 -32 -41v-875l127 2q168 2 194 12q29 8 74 244l98 -8q2 -27 2 -92q0 -86 -16 -250h-780zM141 1303l357 264l123 -105l-17 -43l-411 -190z" />
<glyph horiz-adv-x="933" d="M49 1520l51 53l285 -187l285 187l51 -53l-279 -285h-114zM98 74q84 14 102.5 31.5t18.5 66.5v756q0 49 -18.5 66.5t-102.5 31.5l11 74h426l6 -74l-99 -18q-33 -6 -32 -41v-875l127 2q168 2 194 12q29 8 74 244l98 -8q2 -27 2 -92q0 -86 -16 -250h-780z" />
<glyph horiz-adv-x="933" d="M98 74q84 14 102.5 31.5t18.5 66.5v756q0 49 -18.5 66.5t-102.5 31.5l11 74h426l6 -74l-99 -18q-33 -6 -32 -41v-875l127 2q168 2 194 12q29 8 74 244l98 -8q2 -27 2 -92q0 -86 -16 -250h-780zM588 662q0 49 31.5 81.5t87.5 32.5q117 0 116 -114q0 -51 -31.5 -86 t-84.5 -35q-51 0 -85 30.5t-34 90.5z" />
<glyph horiz-adv-x="933" d="M49 426l621 410l57 -88l-621 -410zM98 74q84 14 102.5 31.5t18.5 66.5v756q0 49 -18.5 66.5t-102.5 31.5l11 74h426l6 -74l-99 -18q-33 -6 -32 -41v-875l127 2q168 2 194 12q29 8 74 244l98 -8q2 -27 2 -92q0 -86 -16 -250h-780z" />
<glyph horiz-adv-x="1181" d="M63 74q84 14 102.5 31.5t18.5 66.5v756q0 49 -18.5 66.5t-102.5 31.5l11 74h317l477 -715q23 -33 27 -57h12v569q0 72 -26.5 95.5t-126.5 33.5l10 74h371l6 -74l-99 -18q-31 -6 -30 -41v-967l-109 -8l-575 852q-25 37 -27 59h-12v-733q0 -41 14 -59.5t55 -22.5l111 -14 l-6 -74h-389zM383 1303l356 264l123 -105l-16 -43l-412 -190z" />
<glyph horiz-adv-x="1181" d="M63 74q84 14 102.5 31.5t18.5 66.5v756q0 49 -18.5 66.5t-102.5 31.5l11 74h317l477 -715q23 -33 27 -57h12v569q0 72 -26.5 95.5t-126.5 33.5l10 74h371l6 -74l-99 -18q-31 -6 -30 -41v-967l-109 -8l-575 852q-25 37 -27 59h-12v-733q0 -41 14 -59.5t55 -22.5l111 -14 l-6 -74h-389zM236 1520l51 53l284 -187l285 187l51 -53l-278 -285h-115z" />
<glyph horiz-adv-x="1191" d="M68 537q0 262 143 419.5t397 157.5q246 0 381 -145.5t135 -390.5q0 -270 -143 -431t-397 -161q-246 0 -381 148.5t-135 402.5zM279 563q0 -219 84.5 -356t246.5 -137q158 0 230.5 137t72.5 344q0 213 -85 346t-244 133q-158 0 -231.5 -134t-73.5 -333zM326 1331v123h510 v-123h-510z" />
<glyph horiz-adv-x="1191" d="M68 537q0 262 143 419.5t397 157.5q246 0 381 -145.5t135 -390.5q0 -270 -143 -431t-397 -161q-246 0 -381 148.5t-135 402.5zM279 563q0 -219 84.5 -356t246.5 -137q158 0 230.5 137t72.5 344q0 213 -85 346t-244 133q-158 0 -231.5 -134t-73.5 -333zM287 1538h75 q35 -147 229.5 -147t229.5 147h76q-8 -127 -84 -207t-221.5 -80t-221 80t-83.5 207z" />
<glyph horiz-adv-x="1191" d="M68 537q0 262 143 419.5t397 157.5q246 0 381 -145.5t135 -390.5q0 -270 -143 -431t-397 -161q-246 0 -381 148.5t-135 402.5zM145 1284l240 285l195 -62v-47l-363 -227zM279 563q0 -219 84.5 -356t246.5 -137q158 0 230.5 137t72.5 344q0 213 -85 346t-244 133 q-158 0 -231.5 -134t-73.5 -333zM551 1284l240 285l194 -62v-47l-362 -227z" />
<glyph horiz-adv-x="1085" d="M98 74q84 14 102.5 31.5t18.5 66.5v756q0 49 -18.5 66.5t-102.5 31.5l11 74h475q340 0 340 -266q0 -84 -59.5 -175.5t-159.5 -138.5v-8q12 -2 26 -27l205 -346q23 -33 50.5 -47t86.5 -18l-10 -74h-268l-287 477h-98v-344q0 -35 32 -41l88 -18l-6 -74h-415zM354 1303 l357 264l123 -105l-17 -43l-411 -190zM410 569h69q119 0 180.5 52.5t61.5 193.5q0 188 -201 189h-82q-25 0 -28 -33v-402z" />
<glyph horiz-adv-x="1085" d="M98 74q84 14 102.5 31.5t18.5 66.5v756q0 49 -18.5 66.5t-102.5 31.5l11 74h475q340 0 340 -266q0 -84 -59.5 -175.5t-159.5 -138.5v-8q12 -2 26 -27l205 -346q23 -33 50.5 -47t86.5 -18l-10 -74h-268l-287 477h-98v-344q0 -35 32 -41l88 -18l-6 -74h-415zM170 1520 l51 53l285 -187l285 187l51 -53l-279 -285h-114zM410 569h69q119 0 180.5 52.5t61.5 193.5q0 188 -201 189h-82q-25 0 -28 -33v-402z" />
<glyph horiz-adv-x="876" d="M84 109q0 129 18 215l121 10q12 -131 20.5 -166t22.5 -43q61 -39 172 -39q82 0 127 35q51 43 51 123q0 70 -54 122t-132 90t-155.5 78.5t-132 110.5t-54.5 164q0 139 109.5 222t287.5 83q159 0 265 -61q2 -12 2 -37q0 -113 -27 -201l-107 -10q-10 152 -40 176 q-37 33 -138 33q-80 0 -127 -37q-53 -37 -53 -107q0 -63 56.5 -112t136 -87t158.5 -81t135.5 -118t56.5 -173q0 -143 -106.5 -228t-299.5 -85q-180 0 -309 47q-4 20 -4 76zM221 1303l357 264l122 -105l-16 -43l-412 -190z" />
</font>
</defs>
</svg>
